<svg xmlns="http://www.w3.org/2000/svg" viewBox="0 0 960 544"><defs><style>.cls-1{fill:#ddc392;}.cls-2{fill:#b68018;}.cls-3,.cls-4{fill:#fff;}.cls-4{stroke:#ed6a02;stroke-width:2px;}.cls-4,.cls-7{stroke-miterlimit:10;}.cls-5{fill:#ff9d18;}.cls-6{fill:#ff7761;}.cls-7{fill:none;stroke:#ff7761;}</style></defs><g id="Layer_2" data-name="Layer 2"><g id="レイヤー_1" data-name="レイヤー 1"><polygon class="cls-1" points="640.85 137.72 640.85 107.72 658.1 122.72 640.85 137.72"/><polygon class="cls-2" points="633.1 109.92 647.82 122.72 633.1 135.53 633.1 109.92"/><path class="cls-3" d="M634.1,112.11l12.2,10.61-12.2,10.61V112.11m-2-4.39v30l17.24-15-17.24-15Z"/><rect class="cls-3" x="1" y="74" width="958" height="58" rx="11.17"/><path class="cls-2" d="M947.83,75A10.18,10.18,0,0,1,958,85.17v35.66A10.18,10.18,0,0,1,947.83,131H12.17A10.18,10.18,0,0,1,2,120.83V85.17A10.18,10.18,0,0,1,12.17,75H947.83m0-2H12.17A12.17,12.17,0,0,0,0,85.17v35.66A12.17,12.17,0,0,0,12.17,133H947.83A12.17,12.17,0,0,0,960,120.83V85.17A12.17,12.17,0,0,0,947.83,73Z"/><path class="cls-2" d="M327.52,96.86a14.52,14.52,0,0,1-4.16,4.18,26.07,26.07,0,0,0,6.37,1.83,10,10,0,0,0-1.38,2c-.58-.11-1.12-.25-1.68-.39V111h-2.3v-.59h-6.52v.66h-2.18v-6.64c-.68.2-1.37.38-2.05.52a8.8,8.8,0,0,0-1.05-1.93,29,29,0,0,0,6.63-2A17.72,17.72,0,0,1,317,99.11a18.8,18.8,0,0,1-2.52,1.91,13.34,13.34,0,0,0-1.59-1.6,14.49,14.49,0,0,0,5.73-5.35l2,.7c-.25.4-.5.81-.79,1.21h5.71l.36-.11Zm-1.33,7.49a23,23,0,0,1-5-2,27.11,27.11,0,0,1-5.15,2Zm-1.82,4.2v-2.26h-6.52v2.26Zm-5.91-10.74a14.5,14.5,0,0,0,2.76,2.13A13.39,13.39,0,0,0,324,97.81Z"/><path class="cls-2" d="M333.63,101v10h-2.08V94.93h6.93V101Zm0-4.61v.88h2.83v-.88Zm2.83,3.15v-.94h-2.83v.94Zm10.26,9.24c0,1-.16,1.53-.73,1.87a5,5,0,0,1-2.49.4,6.21,6.21,0,0,0-.43-1.68,6,6,0,0,0-.56.87,6.11,6.11,0,0,1-3.4-2.27,6.9,6.9,0,0,1-3.6,2.25,6.66,6.66,0,0,0-1.24-1.39c2-.54,3-1.31,3.4-2.1h-3.08v-1.57H338v-.94h-3.15v-1.49h1.41a7.17,7.17,0,0,0-.6-1.17l1.64-.45a5.77,5.77,0,0,1,.86,1.62H340c.21-.54.46-1.19.61-1.64l2,.5-.77,1.14h1.56v1.49H339.9v.94h3.67v1.57h-3.35a5.43,5.43,0,0,0,3.44,2,4.5,4.5,0,0,0-.34.38h1c.22,0,.29-.09.29-.31v-7.71h-4.95V94.93h7.05Zm-5-12.39v.88h2.92v-.88Zm2.92,3.19v-1H341.7v1Z"/><path class="cls-2" d="M352.88,107c.7,1.21,2,1.71,3.8,1.78,2.16.09,6.41,0,8.89-.16a9.83,9.83,0,0,0-.67,2.09c-2.23.11-6,.14-8.24,0s-3.59-.61-4.67-2c-.72.71-1.45,1.39-2.37,2.16l-1-2.12a20.71,20.71,0,0,0,2.23-1.66V103.2h-2v-2h4.05Zm-1.28-8.07a14.34,14.34,0,0,0-2.7-3l1.64-1.22a15.78,15.78,0,0,1,2.82,2.86Zm6.55,7.76h-4.7v-1.74h4.7v-.8h-3.76V98h3.76v-.74h-4.48V95.55h4.48V94.27h2.09v1.28H365v1.72h-4.72V98h3.93v6.12h-3.93v.8h4.93v1.74h-4.93v1.68h-2.09Zm-1.82-6.3h1.82v-.86h-1.82Zm1.82,2.29v-.9h-1.82v.9Zm2.09-3.15v.86h1.87v-.86Zm1.87,2.25h-1.87v.9h1.87Z"/><path class="cls-2" d="M377.9,107a15.93,15.93,0,0,0,5.71,2,9.73,9.73,0,0,0-1.44,2,15.37,15.37,0,0,1-6.05-3v3.24H374v-3.14a17,17,0,0,1-6,2.92,10.17,10.17,0,0,0-1.37-1.78A19,19,0,0,0,372.3,107h-5.17V105.2H374v-.8h-5.19v-1.54H374v-.81h-6.09v-1.68h3.43a8,8,0,0,0-.62-1.4l.22,0h-3.76V97.18h2.41A16,16,0,0,0,368.48,95l1.84-.63a13.91,13.91,0,0,1,1.37,2.54l-.88.32h1.63V94.25h2v2.93h1.33V94.25h2v2.93h1.6l-.64-.19a14.6,14.6,0,0,0,1.13-2.61l2.25.54c-.5.82-1,1.63-1.4,2.26h2.34v1.75h-3.39c-.29.52-.58,1-.84,1.44h3.52v1.68h-6.24v.81h5.4v1.54h-5.4v.8h7V107Zm-4.9-8a8.44,8.44,0,0,1,.61,1.39l-.3.05h3.36c.22-.43.44-1,.64-1.44Z"/><path class="cls-2" d="M394.67,101.58c-.7.5-1.38,1-2.12,1.44h6.54v8h-2.24v-.47h-6.19v.54h-2.14V105.2c-.9.39-1.84.79-2.76,1.13a11.8,11.8,0,0,0-1.31-1.76,32.58,32.58,0,0,0,6.7-3H385V99.69h5.78V98.05h-4.23V96.19h4.23V94.25h2.13v1.94h3.91v.89a23.18,23.18,0,0,0,1.85-2.29l1.84.94a27.11,27.11,0,0,1-3.55,4h4.18v1.89Zm2.18,3.18h-6.19v1.16h6.19Zm0,4v-1.22h-6.19v1.22Zm-3.92-9.07h1c.68-.52,1.33-1.07,1.94-1.64h-2.93Z"/><path class="cls-2" d="M416.67,99c-.54.32-1.11.63-1.76,1a55.75,55.75,0,0,0-5,2.65c-1.5,1-2.49,2-2.49,3.24s1.25,2,3.71,2a29.91,29.91,0,0,0,5.84-.65l0,2.57a35.1,35.1,0,0,1-5.73.43c-3.54,0-6.23-1-6.23-4.05,0-2,1.25-3.44,3-4.7-.83-1.53-1.69-3.42-2.51-5.31l2.25-.92a42.59,42.59,0,0,0,2.24,4.94c1.46-.85,3-1.64,3.85-2.11A12.28,12.28,0,0,0,415.43,97Z"/><path class="cls-2" d="M428.57,108.13a16.05,16.05,0,0,0,1.65-.29,4.82,4.82,0,0,0,4.06-4.77,4.43,4.43,0,0,0-3.73-4.72,39.11,39.11,0,0,1-1.06,4.85c-1.07,3.6-2.61,5.8-4.56,5.8s-3.64-2.18-3.64-5.19a8,8,0,0,1,8.21-7.63,6.8,6.8,0,0,1,7.21,7c0,3.75-2.31,6.41-6.81,7.1Zm-1.39-5.4a28.42,28.42,0,0,0,1-4.32,5.58,5.58,0,0,0-4.52,5.17c0,1.8.72,2.68,1.38,2.68S426.46,105.14,427.18,102.73Z"/><path class="cls-2" d="M448.48,95.26c0,3.4.48,10,7.11,13.88a11.52,11.52,0,0,0-1.73,1.87,15.2,15.2,0,0,1-6.63-8.87c-1.35,4-3.51,7-6.64,8.89a17.86,17.86,0,0,0-2-1.75c3.74-1.89,5.89-5.36,6.88-10.1l1.09.2c-.12-.68-.19-1.33-.25-1.94h-4.1V95.26Z"/><path class="cls-2" d="M456.61,109.23a7.07,7.07,0,0,0,2.32-4l1.93.62a8.43,8.43,0,0,1-2.45,4.61Zm5.24-10.55a23.54,23.54,0,0,1-4,2,9.58,9.58,0,0,0-1.19-1.86,16.52,16.52,0,0,0,7.15-4.53H466a16.46,16.46,0,0,0,7.53,4.35,11.49,11.49,0,0,0-1.32,2,23.71,23.71,0,0,1-4-2v1h-6.32Zm8.82,2.61a23.07,23.07,0,0,1-2.82,4.34,9.93,9.93,0,0,0-1.66-1,14.5,14.5,0,0,0,1.57-2.32h-8.61v-1.8h9.76l.34-.09Zm-4.25,7.6c.63,0,.76-.24.83-1.91a5.26,5.26,0,0,0,1.89.79c-.25,2.41-.81,3-2.52,3h-2.57c-2.18,0-2.7-.6-2.7-2.47v-2.92h2.12v2.9c0,.51.13.58.83.58Zm-2.75-5.71a12.4,12.4,0,0,1,3.47,2.3L465.68,107a11.93,11.93,0,0,0-3.36-2.42ZM467.23,98A14.73,14.73,0,0,1,465,96.12,13.13,13.13,0,0,1,462.84,98Zm2.9,6.94a14.56,14.56,0,0,1,3.26,4.15l-1.91,1.19a14.69,14.69,0,0,0-3.11-4.3Z"/><path class="cls-2" d="M484.42,99a27,27,0,0,1-3.09.62,33.22,33.22,0,0,1-3.82,7.63l-2.18-1.1a27.51,27.51,0,0,0,3.64-6.3c-.31,0-.62,0-.92,0-.74,0-1.46,0-2.23-.06l-.17-2.09a22.85,22.85,0,0,0,2.38.13c.52,0,1.06,0,1.6,0a14.9,14.9,0,0,0,.49-3l2.47.25c-.15.58-.36,1.48-.62,2.43a17.36,17.36,0,0,0,2.4-.56Zm2.34,1.61c-.05.75,0,1.49,0,2.28,0,.51.06,1.37.11,2.25a12,12,0,0,1,3.69,2.29l-1.19,1.91a15.45,15.45,0,0,0-2.41-1.89v.16c0,1.66-.9,3-3.44,3-2.21,0-4-1-4-3,0-1.75,1.46-3.1,3.94-3.1.42,0,.83,0,1.21.07,0-1.33-.14-2.89-.2-4Zm-2,5.9a6.24,6.24,0,0,0-1.44-.18c-1,0-1.69.43-1.69,1.06s.56,1.12,1.53,1.12c1.2,0,1.6-.7,1.6-1.66Zm5-5A23.56,23.56,0,0,0,485.54,99l1.15-1.76a30.9,30.9,0,0,1,4.39,2.41Z"/><path class="cls-2" d="M499.74,103.77c-.77.22-1.55.44-2.32.63v4.18c0,1.06-.22,1.6-.83,1.93a6,6,0,0,1-2.77.39,7.64,7.64,0,0,0-.63-2c.72,0,1.47,0,1.71,0s.34-.09.34-.36V105l-1.93.48-.59-2.12c.72-.14,1.6-.34,2.52-.58V99.69h-2.32v-2h2.32v-3.4h2.18v3.4h2v2h-2v2.57l2.05-.52Zm9.74-6h-2.86v10.5c0,1.26-.29,1.89-1.12,2.27a9.29,9.29,0,0,1-3.69.43,7.85,7.85,0,0,0-.85-2.34c1.12.07,2.47,0,2.83,0s.51-.11.51-.45V97.76h-4.56V95.62h9.74Z"/><path class="cls-2" d="M524.35,98.88c-1.86.29-4.68.63-7.08.75a29.62,29.62,0,0,1-.81,3.08,8.68,8.68,0,0,1,4.43-1.11c2.88,0,4.79,1.54,4.79,3.81,0,4-3.85,5.46-9.62,4.85l-.62-2.31c3.9.63,7.85.16,7.85-2.47,0-1.06-.94-2-2.67-2a6.11,6.11,0,0,0-4.93,2.11,5.14,5.14,0,0,0-.51.77l-2.1-.75a29.4,29.4,0,0,0,2-6c-1.13,0-2.18-.09-3.08-.18V97.27a24,24,0,0,0,3.49.35c0-.27.09-.51.11-.72a10.73,10.73,0,0,0,.09-1.8l2.52.1c-.19.63-.28,1.23-.41,1.82l-.11.54a42.76,42.76,0,0,0,6.59-.84Z"/><path class="cls-2" d="M538,94.27a18.14,18.14,0,0,0,7.71,6.19,10.63,10.63,0,0,0-1.39,1.93,22.13,22.13,0,0,1-2.75-1.71v1.24h-9v-1.26a23.79,23.79,0,0,1-2.79,1.76,8.76,8.76,0,0,0-1.35-1.74,19.14,19.14,0,0,0,7.33-6.41Zm-6.59,9.43h11.42v7.38h-2.2v-.66h-7.11v.66h-2.11Zm9.28-3.67A19.38,19.38,0,0,1,537,96.37a18.36,18.36,0,0,1-3.59,3.66Zm-7.17,5.56v2.94h7.11v-2.94Z"/><path class="cls-2" d="M553.83,98.43c-.23.3-.61.88-.92,1.35,0,.18,0,.34,0,.52a8.67,8.67,0,0,1,5.23-1.85,4.71,4.71,0,0,1,4.92,4.8c0,3.6-2.25,5.76-6.68,6.65l-1.06-2.16c3.13-.49,5.36-1.75,5.36-4.54a2.71,2.71,0,0,0-2.89-2.65,7.43,7.43,0,0,0-5.06,2.29c0,.5,0,1,0,1.47,0,1.46,0,3,.11,4.63,0,.33.09,1,.12,1.37h-2.45c0-.38.06-1,.06-1.31,0-1.39,0-2.42.07-3.93-.76,1.14-1.64,2.43-2.25,3.3l-1.4-2c1-1.22,2.8-3.6,3.81-5.09l.08-1.24-3.25.41-.21-2.29c.5,0,.92,0,1.55,0s1.29-.13,2.05-.24c0-.66.07-1.17.07-1.37A9.47,9.47,0,0,0,551,95l2.61.07c-.11.51-.25,1.42-.4,2.54Z"/><path class="cls-2" d="M577.83,95.44a13.94,13.94,0,0,0-.11,1.53c0,.7,0,1.33-.06,1.92L579,98.8l1.71-.12v2.2c-.3,0-1.24,0-1.72,0l-1.37.07a33.67,33.67,0,0,1-.27,3.57c-.18.94-.63,1.17-1.55,1.17a22.12,22.12,0,0,1-2.68-.27l0-2a10.8,10.8,0,0,0,1.64.21c.36,0,.5-.07.56-.41s.1-1.3.12-2.14c-1.56.12-3.31.29-4.84.45,0,1.64,0,3.27,0,4,.05,1.75.2,2.14,2.88,2.14a33.4,33.4,0,0,0,5.33-.46l-.09,2.44a48.36,48.36,0,0,1-5.08.29c-4.63,0-5.18-1-5.26-4,0-.76,0-2.48,0-4.16l-1.21.13c-.56.07-1.67.25-2.14.32l-.24-2.29c.51,0,1.34,0,2.24-.1l1.35-.13v-1.8a13.4,13.4,0,0,0-.15-2h2.52a14.53,14.53,0,0,0-.1,1.85c0,.42,0,1,0,1.72l4.86-.46v-2a12.51,12.51,0,0,0-.13-1.62Z"/><path class="cls-2" d="M596.67,99c-.54.32-1.11.63-1.76,1a55.75,55.75,0,0,0-5,2.65c-1.5,1-2.49,2-2.49,3.24s1.25,2,3.71,2a29.91,29.91,0,0,0,5.84-.65l0,2.57a35.1,35.1,0,0,1-5.73.43c-3.54,0-6.23-1-6.23-4.05,0-2,1.25-3.44,3-4.7-.83-1.53-1.69-3.42-2.51-5.31l2.25-.92a42.59,42.59,0,0,0,2.24,4.94c1.46-.85,3-1.64,3.85-2.11A12.28,12.28,0,0,0,595.43,97Z"/><path class="cls-2" d="M607.54,106.64,601,108.55l-.54-2c.72-.16,1.6-.4,2.57-.65v-3.62h-2v-2h2V97.17h-2.16v-2h6.3v2h-2.07v3.13H607v2h-1.87v3.08l2.14-.59Zm8,2.5c.32,0,.39-.29.43-2.09a5.21,5.21,0,0,0,1.78.79c-.18,2.47-.65,3.14-2,3.14h-1.35c-1.66,0-2-.62-2-2.43V105h-1.09c-.33,2.93-1.16,5-5,6.15a6.43,6.43,0,0,0-1.19-1.76c3.26-.81,3.83-2.29,4.07-4.39h-1.32V94.93h8.79V105h-2.21v3.53c0,.52,0,.59.34.59ZM609.88,97.8h4.7V96.68h-4.7Zm0,2.73h4.7V99.42h-4.7Zm0,2.74h4.7v-1.12h-4.7Z"/><path class="cls-2" d="M628.33,103.27a8.34,8.34,0,0,1-.5.86h7.31s0,.49,0,.74c-.25,3.51-.54,4.95-1,5.48a1.73,1.73,0,0,1-1.19.61,11.48,11.48,0,0,1-1.82,0,4.34,4.34,0,0,0-.49-1.67c.58.05,1,.05,1.28.05a.62.62,0,0,0,.54-.19c.25-.27.47-1.19.67-3.37h-.7a12.86,12.86,0,0,1-3.61,5.33,5.81,5.81,0,0,0-1.51-1.19,9.86,9.86,0,0,0,3.35-4.14h-1.06a13.76,13.76,0,0,1-4.21,4.52,6.11,6.11,0,0,0-1.41-1.26,10.9,10.9,0,0,0,3.67-3.26h-1.08a11,11,0,0,1-2.08,1.76,7.93,7.93,0,0,0-1.41-1.26l-3.69,1.84-.79-2.16,2.21-.88V100H619V98h1.8V94.46h2V98h1.7v2h-1.7v4.25l1.44-.63.38,1.53a8.84,8.84,0,0,0,1.66-1.91h-2v-1.8H635.5v1.8Zm5.94-2.48h-8.51V94.7h8.51Zm-2-4.61h-4.64V97h4.64Zm0,2.27h-4.64v.86h4.64Z"/><path class="cls-2" d="M651.12,101c.38,0,1.24-.07,1.64-.1v2.32c-.49,0-1.1-.07-1.58-.07h-4.67a9,9,0,0,1-4.61,7.4L639.62,109a7.16,7.16,0,0,0,4.52-5.85h-5c-.55,0-1.22,0-1.69.07v-2.32c.49.05,1.1.1,1.66.1h5.08V98.43c-1.73.14-3.62.19-4.83.23l-.56-2.09a41.68,41.68,0,0,0,6.14-.29,19.15,19.15,0,0,0,4.54-1.08l1.48,2-1.39.35a29.66,29.66,0,0,1-3,.59V101Z"/><path class="cls-2" d="M668.13,107.74c.51,0,1-.08,1.37-.11V110a8.22,8.22,0,0,0-1.37-.09h-9.94a9.42,9.42,0,0,0-1.47.09v-2.36c.46.05,1,.11,1.47.11h3.68v-5.8h-2.81c-.38,0-1,0-1.43.07V99.74a9.81,9.81,0,0,0,1.43.09h8.24a13.18,13.18,0,0,0,1.41-.09V102c-.45,0-1-.07-1.41-.07h-3.08v5.8Z"/><path class="cls-2" d="M678.68,103.85l-2.2.82a37.36,37.36,0,0,0-1.64-4.15l2.16-.78C677.45,100.66,678.32,102.84,678.68,103.85Zm9.14-3.75c-.21.58-.32,1-.43,1.32a14.47,14.47,0,0,1-2.45,5.27,14.09,14.09,0,0,1-6,4.47L677,109.23a10.62,10.62,0,0,0,8.27-9.94Zm-5.16,2.63-2.16.76a30.41,30.41,0,0,0-1.46-4l2.14-.7C681.52,99.56,682.4,101.9,682.66,102.73Z"/><path class="cls-2" d="M706.27,98.3a7.47,7.47,0,0,0-.59,1.3,18.91,18.91,0,0,1-3.13,6,16.94,16.94,0,0,1-7.28,5.08l-2.12-1.91a14.27,14.27,0,0,0,7.25-4.45A12.71,12.71,0,0,0,703,99.42H697.9a20.26,20.26,0,0,1-4.54,4.35l-2-1.49a16,16,0,0,0,5.62-5.8,9.11,9.11,0,0,0,.81-1.89l2.62.87c-.43.63-.88,1.44-1.09,1.83l-.06.09h3.62a6.09,6.09,0,0,0,1.57-.21Z"/><path class="cls-4" d="M253.82,103.55c0-10.2,3.7-15.17,9.5-15.17s9.52,5,9.54,15.14-3.74,15.36-9.5,15.37S253.84,113.79,253.82,103.55Zm14.64,0c0-8.44-2.14-11.52-5.14-11.51s-5.11,3.08-5.1,11.52,2.14,11.72,5.14,11.71S268.47,112,268.46,103.53Z"/><path class="cls-4" d="M278.2,114.55h6.44l0-20.48h-5.28V91.15a17.88,17.88,0,0,0,6.4-2.25h3.48l0,25.63H295v3.8l-16.8,0Z"/><rect class="cls-3" x="1" y="156.75" width="958" height="58" rx="11.17"/><path class="cls-2" d="M947.83,157.75A10.18,10.18,0,0,1,958,167.92v35.66a10.18,10.18,0,0,1-10.17,10.17H12.17A10.18,10.18,0,0,1,2,203.58V167.92a10.18,10.18,0,0,1,10.17-10.17H947.83m0-2H12.17A12.17,12.17,0,0,0,0,167.92v35.66a12.17,12.17,0,0,0,12.17,12.17H947.83A12.17,12.17,0,0,0,960,203.58V167.92a12.17,12.17,0,0,0-12.17-12.17Z"/><path class="cls-2" d="M315.44,181.77a12.86,12.86,0,0,1-1.07.94,19.07,19.07,0,0,0-1.74-1.41,11.08,11.08,0,0,0,3.72-4.3l2.09.61a8.71,8.71,0,0,1-.7,1.26h10.8v1.89h-1.69v2.31h2.34V185h-2.34v2.28h2.09v1.91H313.29v-1.91h2.15V185H313v-1.91h2.42ZM312.84,193a8.81,8.81,0,0,0,2-3.46l2.07.5a9.87,9.87,0,0,1-2.05,3.78Zm4.49-9.94h1.29v-2.31h-1.29Zm0,4.19h1.29V185h-1.29Zm2.75,2.69a21.62,21.62,0,0,1,.43,3.36l-2.08.31a22.65,22.65,0,0,0-.35-3.44Zm1.66-6.88v-2.31h-1.33v2.31ZM320.41,185v2.28h1.33V185Zm3.25,4.89a19.51,19.51,0,0,1,1,3.35l-2.14.42a19.9,19.9,0,0,0-.92-3.43Zm1.23-9.11h-1.37v2.31h1.37Zm0,4.22h-1.37v2.28h1.37Zm2.38,4.5a24.43,24.43,0,0,1,2.26,3.6l-2.19.74a22.94,22.94,0,0,0-2.13-3.7Z"/><path class="cls-2" d="M336.91,190.21c-2,.71-4.14,1.39-5.87,1.95l-.48-2.18,2.19-.59v-4.23h-1.82v-2h1.82V180h-2v-2h5.94v2h-1.92v3.17h1.62v2h-1.62v3.6c.59-.18,1.19-.36,1.76-.56Zm10.7,1.1v1.95H336v-1.95h5V189.6h-3.73v-1.92H341v-1.55h-3.6v-8.37h9.4v8.37h-3.62v1.55H347v1.92h-3.81v1.71Zm-8.29-10.24h1.86v-1.5h-1.86Zm0,3.24h1.86v-1.55h-1.86Zm5.44-4.74H343v1.5h1.78Zm0,3.19H343v1.55h1.78Z"/><path class="cls-2" d="M356.57,190.88a16.05,16.05,0,0,0,1.65-.29,4.82,4.82,0,0,0,4.06-4.77,4.43,4.43,0,0,0-3.73-4.72,39.11,39.11,0,0,1-1.06,4.85c-1.07,3.6-2.61,5.8-4.56,5.8s-3.64-2.18-3.64-5.19a8,8,0,0,1,8.21-7.63,6.8,6.8,0,0,1,7.21,7c0,3.75-2.31,6.41-6.81,7.1Zm-1.39-5.4a28.42,28.42,0,0,0,1-4.32,5.58,5.58,0,0,0-4.52,5.17c0,1.8.72,2.68,1.38,2.68S354.46,187.89,355.18,185.48Z"/><path class="cls-2" d="M376.42,181.75a27,27,0,0,1-3.09.62,33.22,33.22,0,0,1-3.82,7.63l-2.18-1.1a27.51,27.51,0,0,0,3.64-6.3c-.31,0-.62,0-.92,0-.74,0-1.46,0-2.23-.06l-.17-2.09a22.85,22.85,0,0,0,2.38.13c.52,0,1.06,0,1.6,0a14.9,14.9,0,0,0,.49-3l2.47.25c-.15.58-.36,1.48-.62,2.43a17.36,17.36,0,0,0,2.4-.56Zm2.34,1.61c-.05.75,0,1.49,0,2.28,0,.51.06,1.37.11,2.25a12,12,0,0,1,3.69,2.29l-1.19,1.91A15.45,15.45,0,0,0,379,190.2v.16c0,1.66-.9,2.95-3.44,2.95-2.21,0-4-1-4-2.95,0-1.75,1.46-3.1,3.94-3.1.42,0,.83,0,1.21.07,0-1.33-.14-2.89-.2-4Zm-2,5.9a6.24,6.24,0,0,0-1.44-.18c-1,0-1.69.43-1.69,1.06s.56,1.12,1.53,1.12c1.2,0,1.6-.7,1.6-1.66Zm5-4.95a23.56,23.56,0,0,0-4.28-2.54l1.15-1.76a30.9,30.9,0,0,1,4.39,2.41Z"/><path class="cls-2" d="M388.59,181.59a37.78,37.78,0,0,0,.11,3.78c.25,2.58.79,4.32,1.9,4.32.85,0,1.55-2.09,1.9-3.49l1.8,2.16c-1.19,3.1-2.31,4.2-3.75,4.2-1.94,0-3.65-1.77-4.16-6.56-.16-1.64-.2-3.71-.2-4.8a10.19,10.19,0,0,0-.12-1.81l2.74,0A13.63,13.63,0,0,0,388.59,181.59ZM401,188.92l-2.36.9c-.27-2.86-1.23-7.06-3.17-9.26l2.27-.75C399.41,181.88,400.78,186.18,401,188.92Z"/><path class="cls-2" d="M416.89,192c.7,0,.84-.31.95-1.89a5.91,5.91,0,0,0,1.73.74c-.23,2.25-.77,2.93-2.52,2.93H413.9c-2.13,0-2.7-.57-2.7-2.63v-3.45l-.74.34-.74-1.75c-.07,4.41-.2,6.14-.61,6.72a1.61,1.61,0,0,1-1.15.74,10.14,10.14,0,0,1-1.86.09,4.86,4.86,0,0,0-.52-1.91,10.36,10.36,0,0,0,1.3.07.51.51,0,0,0,.52-.29c.23-.36.34-1.87.41-6.1h-1.4c-.25,3.24-.83,6.16-2.32,8.21a6.6,6.6,0,0,0-1.53-1.5c1.78-2.46,1.94-6.42,2-10.58h-1.72v-2h2.75V177h2.05v2.72h2.81v1.35A12.84,12.84,0,0,0,412,177l2.11.4c-.14.63-.34,1.26-.54,1.87h5.65v1.94H412.8a11.85,11.85,0,0,1-1,1.75h1.32v1.73l1-.45v-2.58h1.78v1.75l1.3-.59.07-.06.33-.23,1.33.47-.07.28c0,2.56,0,4.4-.08,4.94a1.24,1.24,0,0,1-.77,1.24,4.08,4.08,0,0,1-1.48.2,5.24,5.24,0,0,0-.39-1.57c.21,0,.47,0,.61,0s.23,0,.25-.27,0-1.15.06-2.86l-1.16.54v5h-1.78v-4.2l-1,.45v4.34c0,.74.12.85,1,.85Zm-5.69-6.41V183.7l-.16.18a11.59,11.59,0,0,0-1.61-1.51,7.26,7.26,0,0,0,.58-.65h-3.44c0,.65,0,1.29-.05,1.92h3.24v.81l0,1.8Z"/><path class="cls-2" d="M437.32,190.41v2.16H421v-2.16h6.86V181.1h-5.89v-2.23h14.39v2.23h-6.05v9.31Z"/><path class="cls-2" d="M446.05,181.66h-7.37V180h7.37Zm-.78,11.2h-3.92v.7h-1.86v-6.14h5.78Zm-5.72-10.39h5.78v1.64h-5.78Zm0,2.47h5.78v1.6h-5.78Zm5.81-5.76h-5.71v-1.62h5.71Zm-4,9.94v2.07h2v-2.07Zm14.31-4H451.9v8.68h-2.16v-8.68H446V183h3.77v-5.94h2.16V183h3.76Z"/><path class="cls-2" d="M473.16,178.08v2H466.1v1.44h3.28v8.16h-8.57v-8.16H464v-1.44H457v-2Zm-2.61,3.19h2.07V193.8h-2.07v-1.05H459.67v1.07h-2.09V181.27h2.09v9.47h10.88Zm-8,3.51h1.57v-1.51h-1.57Zm0,3.15h1.57V186.4h-1.57Zm5-4.66H466v1.51h1.57Zm0,3.13H466v1.53h1.57Z"/><path class="cls-2" d="M482.41,178.08c-.11.47-.24,1-.33,1.48s-.23,1.18-.36,1.83c.6,0,1.14-.07,1.5-.07,1.89,0,3.22.85,3.22,3.4,0,2.11-.25,5-1,6.5a2.84,2.84,0,0,1-2.93,1.64,10.27,10.27,0,0,1-2.13-.25l-.39-2.36a10.13,10.13,0,0,0,2.17.38,1.3,1.3,0,0,0,1.34-.77,13.31,13.31,0,0,0,.73-4.88c0-1.43-.61-1.62-1.74-1.62-.29,0-.72,0-1.23.07a37.65,37.65,0,0,1-3.62,9.52l-2.34-.93a26.51,26.51,0,0,0,3.61-8.34c-.63.07-1.19.14-1.54.2-.5.05-1.42.18-2,.27l-.19-2.42a14.9,14.9,0,0,0,1.89,0c.55,0,1.4-.07,2.3-.14a19.73,19.73,0,0,0,.38-3.78Zm6.15,1.67a32.5,32.5,0,0,1,3.12,6.63l-2.25,1.06a20.68,20.68,0,0,0-3-6.79Z"/><path class="cls-2" d="M497.58,185.55a8.73,8.73,0,0,1,5.24-1.69c3.13,0,4.95,1.93,4.95,4.09,0,3.26-2.58,5.76-10,5.11l-.69-2.34c5.35.76,8.18-.56,8.18-2.83,0-1.15-1.1-2-2.67-2a6.24,6.24,0,0,0-4.91,2.09A3.73,3.73,0,0,0,497,189L495,188.5a65.7,65.7,0,0,0,.88-7.43l2.42.32C498,182.38,497.7,184.53,497.58,185.55Zm.56-7.74a56.64,56.64,0,0,0,7.13,1.39l-.54,2.19c-1.8-.23-5.78-1.06-7.17-1.42Z"/><path class="cls-2" d="M527.32,190.41v2.16H511v-2.16h6.86V181.1h-5.89v-2.23h14.39v2.23h-6v9.31Z"/><path class="cls-2" d="M545.41,188.81h-1.87v3.13h-2.18v-.73h-3.24v.55c0,1.07-.26,1.5-1,1.8a9.4,9.4,0,0,1-3.18.31,6.74,6.74,0,0,0-.71-1.69c.87,0,1.93,0,2.22,0s.45-.12.45-.45v-.55h-5.48v-1.55h5.48v-.85h-7.13v-1.64h7.13v-.77h-5.33V185h5.33v-.79h-4.88V180.6h4.88v-.74h-6.72v-1.69h6.72V177h2.18v1.17H545v1.69h-6.87v.74h5.11v3.57h-5.11V185h5.42v2.21h1.87Zm-9.47-6V182h-2.83v.87Zm2.18-.87v.87H541V182Zm0,5.22h3.24v-.77h-3.24Zm3.24,1.64h-3.24v.85h3.24Z"/><path class="cls-2" d="M563.32,190.41v2.16H547v-2.16h6.86V181.1h-5.89v-2.23h14.39v2.23h-6v9.31Z"/><path class="cls-2" d="M570.6,188.59a14,14,0,0,0-1.08-1.81v7h-2.07v-6.47a15.8,15.8,0,0,1-2,3.57,10.89,10.89,0,0,0-1-2,17.63,17.63,0,0,0,2.67-4.83h-2.29v-2h2.57V180c-.75.15-1.49.27-2.19.36a7.51,7.51,0,0,0-.6-1.64,25.79,25.79,0,0,0,5.59-1.49l1.42,1.64a19.5,19.5,0,0,1-2.15.68V182h1.93v2h-1.93v.52c.49.4,2,2,2.31,2.36Zm10.88,3v1.87H571.07v-1.87h4.29V190h-3.15v-1.8h3.15v-1.49h-3.58v-1.84h9.32v1.84h-3.62v1.49h3.19V190h-3.19v1.59Zm-.86-7.8h-8.27v-6.08h8.27Zm-2.09-4.28h-4.2V182h4.2Z"/><path class="cls-2" d="M599,187.05a36.13,36.13,0,0,1-3.56,2.25,8.76,8.76,0,0,0,4.23,2.55,8.82,8.82,0,0,0-1.39,1.91c-3.79-1.29-5.78-4-7-8a16.94,16.94,0,0,1-2.36,1.82v3.35c1.28-.27,2.63-.56,3.92-.85l.2,1.95c-2.83.66-5.85,1.29-8.08,1.78l-.63-2,2.45-.47v-2.57a22.4,22.4,0,0,1-3,1.19,11.07,11.07,0,0,0-1.37-1.73,20.52,20.52,0,0,0,6.14-2.76h-5.48v-1.82H590v-1h-5.34v-1.71H590V180h-6.19v-1.82H590V177h2.15v1.19h6.33V180h-6.33v.91h5.63v1.71h-5.63v1H599v1.82h-5.72a11.06,11.06,0,0,0,1.08,2.42,24.19,24.19,0,0,0,2.82-2.17Z"/><path class="cls-2" d="M608.57,190.88a16.05,16.05,0,0,0,1.65-.29,4.82,4.82,0,0,0,4.06-4.77,4.43,4.43,0,0,0-3.73-4.72,39.11,39.11,0,0,1-1.06,4.85c-1.07,3.6-2.61,5.8-4.56,5.8s-3.64-2.18-3.64-5.19a8,8,0,0,1,8.21-7.63,6.8,6.8,0,0,1,7.21,7c0,3.75-2.31,6.41-6.81,7.1Zm-1.39-5.4a28.42,28.42,0,0,0,1-4.32,5.58,5.58,0,0,0-4.52,5.17c0,1.8.72,2.68,1.38,2.68S606.46,187.89,607.18,185.48Z"/><path class="cls-2" d="M624.71,177.72a26.27,26.27,0,0,1-1.73,3.74V193.8h-2.16v-9c-.37.45-.75.9-1.11,1.29a14.68,14.68,0,0,0-1.19-2.28,18.69,18.69,0,0,0,4.1-6.74Zm5.71,4.25v1.89h4.66v1.94h-4.66v2h4.9v2h-4.9v4h-2.2V182h-.68a19.82,19.82,0,0,1-2.36,3.49,14.76,14.76,0,0,0-1.64-1.49,17.84,17.84,0,0,0,3.82-6.79l2.07.52a20.24,20.24,0,0,1-.88,2.23h7v2Z"/><path class="cls-2" d="M652.36,183.27a20.75,20.75,0,0,1-3.09,6.17c.52,1.3,1.1,2.05,1.67,2.05s.65-.9.74-3.15a5.84,5.84,0,0,0,1.82,1.21c-.34,3.33-1.06,4.12-2.74,4.12-1.26,0-2.25-.9-3-2.37a15.43,15.43,0,0,1-3,2.44,14.91,14.91,0,0,0-1.55-1.76,13.87,13.87,0,0,0,3.67-2.92,37,37,0,0,1-1.24-7.25h-5.22v1.92h4.44s0,.56,0,.81c-.06,3.78-.17,5.39-.58,5.91a1.68,1.68,0,0,1-1.24.72,14.31,14.31,0,0,1-2.07.05,4.89,4.89,0,0,0-.6-2c.65.06,1.26.08,1.55.08a.58.58,0,0,0,.54-.22c.18-.25.25-1.12.31-3.38h-2.34c-.07,2.62-.45,6.14-1.93,8.33a9.8,9.8,0,0,0-1.82-1.46c1.37-2.16,1.5-5.29,1.5-7.63v-5.26h7.34c0-.88-.07-1.76-.07-2.66h2.25c0,.9,0,1.78,0,2.66h2.75a21.59,21.59,0,0,0-2.3-1.56l1.29-1.28a15.11,15.11,0,0,1,2.94,1.92l-.87.92h1.88v2.13h-5.57a45.72,45.72,0,0,0,.72,4.93,18.3,18.3,0,0,0,1.73-4Z"/><path class="cls-4" d="M253.82,186.3c0-10.2,3.7-15.17,9.5-15.17s9.52,5,9.54,15.14-3.74,15.36-9.5,15.37S253.84,196.54,253.82,186.3Zm14.64,0c0-8.44-2.14-11.52-5.14-11.51s-5.11,3.08-5.1,11.52S260.36,198,263.36,198,268.47,194.79,268.46,186.28Z"/><path class="cls-4" d="M276.52,198.42c8.67-7.69,13.14-13.41,13.13-18.25,0-3.2-1.73-5.4-5-5.4-2.32,0-4.23,1.49-5.79,3.29l-2.6-2.55c2.51-2.73,5.11-4.41,8.95-4.42,5.4,0,8.88,3.51,8.89,8.83,0,5.68-4.5,11.56-10.73,17.53,1.52-.16,3.36-.28,4.8-.28h7.35v3.91l-19,0Z"/><rect class="cls-3" x="31" y="299.5" width="898" height="58" rx="10.79"/><path class="cls-2" d="M918.21,300.5a9.8,9.8,0,0,1,9.79,9.79v36.42a9.8,9.8,0,0,1-9.79,9.79H41.79A9.8,9.8,0,0,1,32,346.71V310.29a9.8,9.8,0,0,1,9.79-9.79H918.21m0-2H41.79A11.79,11.79,0,0,0,30,310.29v36.42A11.79,11.79,0,0,0,41.79,358.5H918.21A11.79,11.79,0,0,0,930,346.71V310.29a11.79,11.79,0,0,0-11.79-11.79Z"/><path class="cls-2" d="M319.54,332.14,313,334.05l-.54-2c.72-.16,1.6-.4,2.57-.65v-3.62h-2v-2h2v-3.13h-2.16v-2h6.3v2h-2.07v3.13H319v2h-1.87v3.08l2.14-.59Zm8,2.5c.32,0,.39-.29.43-2.09a5.21,5.21,0,0,0,1.78.79c-.18,2.47-.65,3.14-2,3.14h-1.35c-1.66,0-2-.62-2-2.43v-3.53h-1.09c-.33,2.93-1.16,5-5,6.15a6.43,6.43,0,0,0-1.19-1.76c3.26-.81,3.83-2.29,4.07-4.39h-1.32V320.43h8.79v10.09h-2.21v3.53c0,.52,0,.59.34.59Zm-5.66-11.34h4.7v-1.12h-4.7Zm0,2.73h4.7v-1.11h-4.7Zm0,2.74h4.7v-1.12h-4.7Z"/><path class="cls-2" d="M340.33,328.77a8.34,8.34,0,0,1-.5.86h7.31s0,.49,0,.74c-.25,3.51-.54,4.95-1,5.48a1.73,1.73,0,0,1-1.19.61,11.48,11.48,0,0,1-1.82,0,4.34,4.34,0,0,0-.49-1.67c.58.05,1.05.05,1.28.05a.62.62,0,0,0,.54-.19c.25-.27.47-1.19.67-3.37h-.7a12.86,12.86,0,0,1-3.61,5.33,5.81,5.81,0,0,0-1.51-1.19,9.86,9.86,0,0,0,3.35-4.14h-1.06a13.76,13.76,0,0,1-4.21,4.52,6.11,6.11,0,0,0-1.41-1.26,10.9,10.9,0,0,0,3.67-3.26h-1.08a11,11,0,0,1-2.08,1.76,7.93,7.93,0,0,0-1.41-1.26l-3.69,1.84-.79-2.16,2.21-.88v-5.08H331v-2h1.8V320h2v3.55h1.7v2h-1.7v4.25l1.44-.63.38,1.53a8.84,8.84,0,0,0,1.66-1.91h-2V327H347.5v1.8Zm5.94-2.48h-8.51V320.2h8.51Zm-2-4.61h-4.64v.86h4.64Zm0,2.27h-4.64v.86h4.64Z"/><path class="cls-2" d="M362.89,334.73c.7,0,.84-.31.95-1.89a5.91,5.91,0,0,0,1.73.74c-.23,2.25-.77,2.93-2.52,2.93H359.9c-2.13,0-2.7-.57-2.7-2.63v-3.45l-.74.34-.74-1.75c-.07,4.41-.2,6.14-.61,6.72a1.61,1.61,0,0,1-1.15.74,10.14,10.14,0,0,1-1.86.09,4.86,4.86,0,0,0-.52-1.91,10.36,10.36,0,0,0,1.3.07.51.51,0,0,0,.52-.29c.23-.36.34-1.87.41-6.1h-1.4c-.25,3.24-.83,6.16-2.32,8.21a6.6,6.6,0,0,0-1.53-1.5c1.78-2.46,1.94-6.42,2-10.58h-1.72v-2h2.75v-2.72h2.05v2.72h2.81v1.35a12.84,12.84,0,0,0,1.6-4.09l2.11.4c-.14.63-.34,1.26-.54,1.87h5.65V324H358.8a11.85,11.85,0,0,1-1,1.75h1.32v1.73l1-.45v-2.58h1.78v1.75l1.3-.59.07-.06.33-.23,1.33.47-.07.28c0,2.56,0,4.4-.08,4.94a1.24,1.24,0,0,1-.77,1.24,4.08,4.08,0,0,1-1.48.2,5.24,5.24,0,0,0-.39-1.57c.21,0,.47,0,.61,0s.23,0,.25-.27,0-1.15.06-2.86l-1.16.54v5h-1.78v-4.2l-1,.45v4.34c0,.74.12.85,1,.85Zm-5.69-6.41v-1.87l-.16.18a11.59,11.59,0,0,0-1.61-1.51,7.26,7.26,0,0,0,.58-.65h-3.44c0,.65,0,1.29-.05,1.92h3.24v.81l0,1.8Z"/><path class="cls-2" d="M383.32,333.16v2.16H367v-2.16h6.86v-9.31h-5.89v-2.23h14.39v2.23h-6.05v9.31Z"/><path class="cls-2" d="M387.15,322.59c1.49-.12,4.45-.39,7.7-.68,1.84-.14,3.79-.25,5-.31v2.31a18.84,18.84,0,0,0-3.43.23,5.41,5.41,0,0,0-3.77,5c0,2.93,2.74,4,5.76,4.14l-.82,2.47c-3.75-.24-7.28-2.25-7.28-6.12a7.09,7.09,0,0,1,2.63-5.5c-1.55.17-5.29.56-7.36,1l-.24-2.45C386.12,322.67,386.81,322.63,387.15,322.59Zm11.7,5.5-1.37.61a14.23,14.23,0,0,0-1.4-2.5l1.33-.56A23.83,23.83,0,0,1,398.85,328.09Zm2.09-.89-1.35.65a15.85,15.85,0,0,0-1.48-2.43l1.32-.61A27.6,27.6,0,0,1,400.94,327.2Z"/><path class="cls-2" d="M402.52,334.6a7.49,7.49,0,0,0,2.2-4.1l1.9.59a9.16,9.16,0,0,1-2.3,4.68Zm2.75-10.82h-2v-2H410v-2.05h2.13v2.05H419v2H407.42v1.86c0,.65.21.9,1.26.9h5.87a22.08,22.08,0,0,0,3-.18c0,.57.15,1.44.24,2a19.5,19.5,0,0,1-3.12.16h-4.28a12.44,12.44,0,0,1,3,2.29l-1.55,1.44a12.94,12.94,0,0,0-3.33-2.63l1.24-1.1h-.91c-2.67,0-3.61-.66-3.61-2.9Zm7.6,10.63c.72,0,.87-.26.94-2a5.91,5.91,0,0,0,1.91.78c-.24,2.48-.83,3.09-2.65,3.09h-2.9c-2.3,0-2.88-.59-2.88-2.48v-3.17h2.13v3.15c0,.52.14.6,1,.6Zm3.73-4.11a14.64,14.64,0,0,1,2.9,4.36l-2,1a14.12,14.12,0,0,0-2.76-4.46Z"/><path class="cls-2" d="M437.55,334a4.7,4.7,0,0,1-3.35,1.35c-1.33,0-2.23-1-2.23-2.7,0-1.94.63-4.55.63-6.17,0-.88-.45-1.32-1.19-1.32-1.33,0-3.27,1.64-4.71,3.24,0,.51,0,1,0,1.44,0,1.46,0,3,.11,4.63,0,.33.09,1,.12,1.37h-2.45c0-.38.06-1,.06-1.31,0-1.39,0-2.42.07-3.93-.77,1.14-1.64,2.45-2.25,3.3l-1.4-2c1-1.22,2.8-3.6,3.81-5.09l.08-1.24-3.25.41-.21-2.29c.5,0,.92,0,1.55,0s1.29-.13,2.05-.24c0-.66.07-1.17.07-1.37a9.47,9.47,0,0,0-.07-1.58l2.61.07c-.11.51-.25,1.42-.4,2.54l.67.85c-.23.3-.61.88-.92,1.35,0,.12,0,.25,0,.38,1.4-1.23,3.45-2.65,5.18-2.65a2.5,2.5,0,0,1,2.81,2.63c0,1.85-.59,4.46-.59,6.32,0,.47.23.77.68.77a3.62,3.62,0,0,0,2.29-1.26Z"/><path class="cls-2" d="M441.2,322.56c1.48-.15,4.43-.4,7.69-.69,1.84-.14,3.8-.25,5-.3l0,2.3a18.16,18.16,0,0,0-3.44.24,5.43,5.43,0,0,0-3.76,5c0,2.94,2.75,4,5.76,4.15l-.83,2.46c-3.74-.25-7.27-2.27-7.27-6.12a7.13,7.13,0,0,1,2.63-5.49c-1.53.16-5.3.56-7.37,1l-.21-2.45C440.16,322.63,440.84,322.59,441.2,322.56Z"/><path class="cls-2" d="M461.24,321.15a13,13,0,0,0-.43,1.59,45.79,45.79,0,0,0-.85,6.89,9,9,0,0,0,.07,1.16c.24-.63.52-1.23.79-1.82l1.1.88c-.5,1.46-1.08,3.28-1.28,4.25a3.62,3.62,0,0,0-.09.83c0,.18,0,.48,0,.74l-2,.14a21.53,21.53,0,0,1-.7-5.69,52.32,52.32,0,0,1,.74-7.44,13.54,13.54,0,0,0,.16-1.74Zm10.94,13.45a17.49,17.49,0,0,0-2.16-1.78c-.1,1.69-1.08,2.92-3.49,2.92s-4-1.05-4-2.92,1.53-3.06,4-3.06a8.46,8.46,0,0,1,1.17.07c-.05-1.1-.1-2.39-.12-3.65-.43,0-.87,0-1.28,0-1,0-2.05,0-3.11-.11V324a28.9,28.9,0,0,0,3.11.16h1.26c0-.89,0-1.61,0-2a10.87,10.87,0,0,0-.1-1.17h2.55a10.26,10.26,0,0,0-.1,1.15c0,.39-.06,1.06-.06,1.85,1-.11,1.91-.23,2.76-.41v2.21c-.87.13-1.8.24-2.78.31,0,1.73.13,3.15.2,4.36a11.31,11.31,0,0,1,3.44,2.3Zm-4.42-2.89a5.46,5.46,0,0,0-1.45-.2c-1,0-1.69.41-1.69,1.08s.72,1,1.66,1c1.1,0,1.48-.57,1.48-1.62Z"/><path class="cls-2" d="M484.42,324.5a27,27,0,0,1-3.09.62,33.22,33.22,0,0,1-3.82,7.63l-2.18-1.1a27.51,27.51,0,0,0,3.64-6.3c-.31,0-.62,0-.92,0-.74,0-1.46,0-2.23-.06l-.17-2.09a22.85,22.85,0,0,0,2.38.13c.52,0,1.06,0,1.6-.05a14.9,14.9,0,0,0,.49-3l2.47.25c-.15.58-.36,1.48-.62,2.43a17.36,17.36,0,0,0,2.4-.56Zm2.34,1.61c-.05.75,0,1.49,0,2.28,0,.51.06,1.37.11,2.25a12,12,0,0,1,3.69,2.29l-1.19,1.91A15.45,15.45,0,0,0,487,333v.16c0,1.66-.9,2.95-3.44,2.95-2.21,0-4-1-4-2.95,0-1.75,1.46-3.1,3.94-3.1.42,0,.83,0,1.21.07,0-1.33-.14-2.89-.2-4Zm-2,5.9a6.24,6.24,0,0,0-1.44-.18c-1,0-1.69.43-1.69,1.06s.56,1.12,1.53,1.12c1.2,0,1.6-.7,1.6-1.66Zm5-4.95a23.56,23.56,0,0,0-4.28-2.54l1.15-1.76a30.9,30.9,0,0,1,4.39,2.41Z"/><path class="cls-2" d="M497.58,328.3a8.73,8.73,0,0,1,5.24-1.69c3.13,0,4.95,1.93,4.95,4.09,0,3.26-2.58,5.76-10,5.11l-.69-2.34c5.35.76,8.18-.56,8.18-2.83,0-1.15-1.1-2-2.67-2a6.24,6.24,0,0,0-4.91,2.09,3.73,3.73,0,0,0-.67,1l-2.07-.53a65.7,65.7,0,0,0,.88-7.43l2.42.32C498,325.13,497.7,327.28,497.58,328.3Zm.56-7.74a56.64,56.64,0,0,0,7.13,1.39l-.54,2.19c-1.8-.23-5.78-1.06-7.17-1.42Z"/><path class="cls-2" d="M520.42,324.5a27,27,0,0,1-3.09.62,33.22,33.22,0,0,1-3.82,7.63l-2.18-1.1a27.51,27.51,0,0,0,3.64-6.3c-.31,0-.62,0-.92,0-.74,0-1.46,0-2.23-.06l-.17-2.09a22.85,22.85,0,0,0,2.38.13c.52,0,1.06,0,1.6-.05a14.9,14.9,0,0,0,.49-3l2.47.25c-.15.58-.36,1.48-.62,2.43a17.36,17.36,0,0,0,2.4-.56Zm2.34,1.61c0,.75,0,1.49,0,2.28,0,.51.06,1.37.11,2.25a12,12,0,0,1,3.69,2.29l-1.19,1.91A15.45,15.45,0,0,0,523,333v.16c0,1.66-.9,2.95-3.44,2.95-2.21,0-4-1-4-2.95,0-1.75,1.46-3.1,3.94-3.1.42,0,.83,0,1.21.07-.05-1.33-.14-2.89-.2-4Zm-2,5.9a6.24,6.24,0,0,0-1.44-.18c-1,0-1.69.43-1.69,1.06s.56,1.12,1.53,1.12c1.2,0,1.6-.7,1.6-1.66Zm5-4.95a23.56,23.56,0,0,0-4.28-2.54l1.15-1.76a30.9,30.9,0,0,1,4.39,2.41Z"/><path class="cls-2" d="M532.59,324.34a37.78,37.78,0,0,0,.11,3.78c.25,2.58.79,4.32,1.9,4.32.85,0,1.55-2.09,1.9-3.49l1.8,2.16c-1.19,3.1-2.31,4.2-3.75,4.2-1.94,0-3.65-1.77-4.16-6.56-.16-1.64-.2-3.71-.2-4.8a10.19,10.19,0,0,0-.12-1.81l2.74,0A13.63,13.63,0,0,0,532.59,324.34ZM545,331.67l-2.36.9c-.27-2.86-1.23-7.06-3.17-9.26l2.27-.75C543.41,324.63,544.78,328.93,545,331.67Z"/><path class="cls-2" d="M547.38,328.46h6.86v8H552.1v-.81h-2.68v.9h-2Zm2,2.06v3.09h2.68v-3.09Zm11-3.55H549.87v-6.52h10.55Zm-2.18-4.47h-6.3v2.44h6.3Zm4.61,6v8h-2.16v-.82h-2.86v.9h-2.06v-8.11Zm-2.16,5.15v-3.09h-2.86v3.09Z"/><path class="cls-2" d="M576.13,333.54a53.78,53.78,0,0,1,5.13,2.11l-2.48,1a35.67,35.67,0,0,0-4.68-2.12l1.62-.94h-5.26l1.64.72a22.33,22.33,0,0,1-5.62,2.36c-.38-.41-1.13-1.19-1.58-1.57a21.1,21.1,0,0,0,5-1.51h-2.67V326.2h6a5.07,5.07,0,0,0-1.24-1.32,4.32,4.32,0,0,0,1-.9h-1.62v1.87h-1.9V324h-1.59a6,6,0,0,1-1.73,3,6.1,6.1,0,0,0-1.4-1.33,4.91,4.91,0,0,0,1.53-3.86v-1.63l1.37.34a21.62,21.62,0,0,0,3.74-.72l1.32,1.26a23.15,23.15,0,0,1-4.58.77v.09a5.06,5.06,0,0,1,0,.54h5v1.46a3.26,3.26,0,0,0,.63-2.09v-1.64l1.44.35a27.5,27.5,0,0,0,4-.74l1.3,1.28a28.49,28.49,0,0,1-4.92.77v.09a4.7,4.7,0,0,1,0,.52h5.64V324h-2.27v1.89H577V324h-1.82a4.75,4.75,0,0,1-1.76,2.22h5.87v7.34Zm-6.87-5.29h7.81v-.78h-7.81Zm0,2h7.81v-.78h-7.81Zm0,2h7.81v-.8h-7.81Z"/><path class="cls-2" d="M596.67,324.52c-.54.32-1.11.63-1.76,1a55.75,55.75,0,0,0-5,2.65c-1.5,1-2.49,2-2.49,3.24s1.25,2,3.71,2a29.91,29.91,0,0,0,5.84-.65l0,2.57a35.1,35.1,0,0,1-5.73.43c-3.54,0-6.23-1-6.23-4.05,0-2,1.25-3.44,3-4.7-.83-1.53-1.69-3.42-2.51-5.31l2.25-.92a42.59,42.59,0,0,0,2.24,4.94c1.46-.85,3-1.64,3.85-2.11a12.28,12.28,0,0,0,1.64-1.08Z"/><path class="cls-2" d="M614.11,328.45a10.94,10.94,0,0,1-2.23,4.16,32.92,32.92,0,0,1,4.5,2.17l-1.71,1.75a31.43,31.43,0,0,0-4.57-2.38,17.69,17.69,0,0,1-7.38,2.42,8.57,8.57,0,0,0-1.23-1.95,18.78,18.78,0,0,0,6.2-1.46c-.8-.28-1.57-.57-2.33-.81l-.32.58-2.25-.61c.65-1.05,1.4-2.42,2.18-3.87H601.1v-2H606c.47-.92.9-1.84,1.26-2.67l2.25.47c-.32.71-.68,1.44-1.06,2.2h8.66v2Zm-10.46-2.87h-2.18v-4.23h6.43v-1.6h2.27v1.6h6.61v4.23h-2.29v-2.25H603.65Zm3.78,2.87c-.37.75-.77,1.49-1.13,2.19,1.08.31,2.25.7,3.44,1.14a7.24,7.24,0,0,0,1.89-3.33Z"/><path class="cls-2" d="M628.15,334.21h6.66v1.92H619.49v-1.92h6.43v-2.15h-5v-1.87h5v-2.07h-4.07V326.7a22.92,22.92,0,0,1-2,1.24,7.89,7.89,0,0,0-1.35-1.73,19.59,19.59,0,0,0,7.31-6.51H628a19.08,19.08,0,0,0,7.7,6.3,10.47,10.47,0,0,0-1.42,1.92,21.22,21.22,0,0,1-1.94-1.2v1.4h-4.22v2.07h5v1.87h-5Zm3.51-8a21.85,21.85,0,0,1-4.64-4.46,21.14,21.14,0,0,1-4.5,4.46Z"/><path class="cls-2" d="M653.37,322.68h-3a9.16,9.16,0,0,1,.76,1.21l-2,.56a11.09,11.09,0,0,0-1.08-1.77h-1.05a8.94,8.94,0,0,1-1,1.1v1H653v3.57h-2.09v-2H639.4v2h-2v-3.57H644v-1.26h.79c-.32-.18-.66-.34-.9-.45a3.74,3.74,0,0,0,.45-.36h-2.1a10.77,10.77,0,0,1,.59,1.19l-1.93.54a10.29,10.29,0,0,0-.81-1.73h-.3a13.32,13.32,0,0,1-1.44,1.73,11.24,11.24,0,0,0-1.75-1.15,9.72,9.72,0,0,0,2.65-3.65l2,.54c-.13.28-.28.57-.42.86h4v1.21a8.43,8.43,0,0,0,1.71-2.61l2,.48a9.49,9.49,0,0,1-.43.92h5.22Zm-11.14,9.26h9.25v4.64h-2.12v-.48h-7.13v.48h-2.06V327.1h9.94v4h-7.88Zm0-3.3v.94H648v-.94Zm0,4.87v1h7.13v-1Z"/><path class="cls-2" d="M660.91,333c-2,.71-4.14,1.39-5.87,2l-.48-2.18,2.19-.59v-4.23h-1.82v-2h1.82v-3.17h-2v-2h5.94v2h-1.92v3.17h1.62v2h-1.62v3.6c.59-.18,1.19-.36,1.76-.56Zm10.7,1.1V336H660v-1.95h5v-1.71h-3.73v-1.92H665v-1.55h-3.6v-8.37h9.4v8.37h-3.62v1.55H671v1.92h-3.81v1.71Zm-8.29-10.24h1.86v-1.5h-1.86Zm0,3.24h1.86v-1.55h-1.86Zm5.44-4.74H667v1.5h1.78Zm0,3.19H667v1.55h1.78Z"/><path class="cls-2" d="M681.16,332.41c0-.53.06-1.35.07-2.13-1.31.72-2,1.43-2,2.31s.85,1.26,2.59,1.26a27.5,27.5,0,0,0,5.06-.52l-.07,2.32c-1.19.14-3.37.29-5,.29-2.79,0-4.9-.67-4.9-3s2.16-3.7,4.2-4.75a1.4,1.4,0,0,0-1.25-.61,4.48,4.48,0,0,0-2.79,1.22,21.84,21.84,0,0,0-1.65,2l-1.91-1.43a17.33,17.33,0,0,0,3.92-4.89h-.21c-.72,0-2,0-3-.13v-2.09a21.93,21.93,0,0,0,3.13.2h.87a10.52,10.52,0,0,0,.36-2l2.34.19c-.09.44-.22,1.05-.43,1.77a43,43,0,0,0,5-.52l0,2.09a58.21,58.21,0,0,1-5.82.46,10.13,10.13,0,0,1-1,1.8,5.66,5.66,0,0,1,2-.36,2.44,2.44,0,0,1,2.38,1.39c.92-.43,1.67-.74,2.41-1.06s1.32-.61,2-.92l.9,2.07a16.57,16.57,0,0,0-2.13.76c-.79.3-1.8.7-2.9,1.2,0,1,.06,2.31.08,3.12Z"/><path class="cls-2" d="M706.87,322.2v4.34h-2.14v-2.49H693.45v2.49H691.4V322.2h2.43a10.25,10.25,0,0,0-1-1.57l1.95-.79a8.56,8.56,0,0,1,1.31,1.93l-1,.43H698v-2.47h2.22v2.47H703l-1-.36a12,12,0,0,0,1.29-2l2.31.68c-.52.63-1,1.19-1.48,1.64Zm-1,11.63c0,1-.19,1.51-.91,1.84a8.29,8.29,0,0,1-3,.3,7.62,7.62,0,0,0-.69-1.94c.81,0,1.77,0,2,0s.36-.07.36-.27v-1.74h-3.24v4.53h-2.22v-4.53h-3.38v3.72h-2.18v-5.63h5.56v-1.08h-3.85v-4.14h9.58v4.14h-3.51v1.08h5.43Zm-9.45-6.28h5.35v-1.12h-5.35Z"/><path class="cls-2" d="M713.42,321.26a15.26,15.26,0,0,0-.44,1.59,44.39,44.39,0,0,0-.86,6.53,9.48,9.48,0,0,0,.07,1.16c.25-.64.54-1.23.79-1.81l1.12.87a44.09,44.09,0,0,0-1.28,4.37,6,6,0,0,0-.11.83c0,.2,0,.49,0,.74l-2,.14a22.75,22.75,0,0,1-.7-5.83,51,51,0,0,1,.73-7.06,12.05,12.05,0,0,0,.18-1.74Zm4.17,8.81a5.93,5.93,0,0,0-.21,1.49c0,.79.68,1.26,2.48,1.26a20.2,20.2,0,0,0,4.47-.47l0,2.42a25.29,25.29,0,0,1-4.61.36c-3.08,0-4.53-1.12-4.53-2.94a10.94,10.94,0,0,1,.3-2.32Zm6.23-7.64v2.31a48.84,48.84,0,0,1-7.65,0l0-2.31A35.73,35.73,0,0,0,723.82,322.43Z"/><path class="cls-2" d="M743.48,335.86h-6.86v.71h-2v-7.85l-.37.28c-.22-.27-.67-.81-1.07-1.22v6.63H729.9v1.4h-1.72v-4.56a10.11,10.11,0,0,1-.65,1,10.93,10.93,0,0,0-1.14-2c1.26-1.8,2-4.52,2.36-7.45H727v-1.95h6.44v.61h3.66a14.62,14.62,0,0,0,.46-1.67l2,.36c-.11.45-.23.88-.36,1.31h4.16v3.28H741.5v-1.48h-2.94a14.78,14.78,0,0,1-1.13,2.25h1.44a12.27,12.27,0,0,0,.63-1.81l2,.41c-.22.49-.45,1-.69,1.4h2.31v1.77h-2.72v1.21h2.32V330h-2.32v1.28h2.32v1.55h-2.32v1.28h3.13Zm-12.12-7.94H729.9v4.63h1.46Zm1.8-.79a10.73,10.73,0,0,0,3.21-3.91h-1.26v1.48h-1.82v-1.94h-2.54c-.16,1.13-.38,2.25-.63,3.33h3Zm5.23.11h-1.77v1.21h1.77Zm0,2.77h-1.77v1.28h1.77Zm-1.77,4.11h1.77v-1.28h-1.77Z"/><path class="cls-2" d="M751.22,324.41h-6.54v-1.69h6.54Zm-.47,10.1a8,8,0,0,0,1.15-3.71l1.69.44a8.57,8.57,0,0,1-1.38,4.37l-1.46-.88v.88H747.2v.7h-1.76v-6.14h5.31Zm0-7.65h-5.24v-1.64h5.24Zm-5.24.83h5.24v1.6h-5.24Zm5.19-5.76h-5.13v-1.62h5.13ZM749,331.87H747.2v2.07H749Zm3.78-9.1c.54.17,1.11.38,1.69.6q.16-.57.27-1.14H752v-1.78h8.93s0,.54,0,.79c-.18,4.07-.36,5.75-.84,6.32a1.64,1.64,0,0,1-1.19.69,12.18,12.18,0,0,1-1.95.07,5,5,0,0,0-.5-1.87c-.31-.2-.63-.4-1-.6a7.32,7.32,0,0,1-3.1,2.94,5,5,0,0,0-1.2-1.51,6,6,0,0,0,2.59-2.27c-.67-.29-1.35-.56-2-.76ZM757,334.59c.34,0,.41-.24.46-1.89a5.17,5.17,0,0,0,1.75.77c-.2,2.36-.72,2.95-2,2.95h-1.47c-1.7,0-2-.59-2-2.37V330.1h2V334c0,.48,0,.56.36.56Zm-1.66-7a12.44,12.44,0,0,1,3.22,2.28l-1.33,1.37a13.79,13.79,0,0,0-3.13-2.41Zm1.28-5.39a14.22,14.22,0,0,1-.45,1.93,15.73,15.73,0,0,1,1.64.9l-.87,1.39h.87a.51.51,0,0,0,.54-.23c.25-.27.39-1.33.52-4Zm3.17,8.16a13.46,13.46,0,0,1,2,4.45l-1.89.77a13.42,13.42,0,0,0-1.8-4.54Z"/><path class="cls-4" d="M253.82,329.05c0-10.2,3.7-15.17,9.5-15.17s9.52,5,9.54,15.14-3.74,15.36-9.5,15.37S253.84,339.29,253.82,329.05Zm14.64,0c0-8.44-2.14-11.52-5.14-11.51s-5.11,3.08-5.1,11.52,2.14,11.72,5.14,11.71S268.47,337.54,268.46,329Z"/><path class="cls-4" d="M275.88,340.33l2.23-3a9.55,9.55,0,0,0,7,3.23c3.32,0,5.59-1.85,5.59-4.89,0-3.28-2.09-5.39-8.73-5.38v-3.4c5.8,0,7.71-2.21,7.71-5.17,0-2.6-1.73-4.24-4.53-4.28a8.65,8.65,0,0,0-5.87,2.81l-2.41-2.87a12.43,12.43,0,0,1,8.44-3.58c5.28,0,9,2.71,9,7.59,0,3.4-2,5.76-5.07,6.93v.2c3.4.83,6.08,3.39,6.09,7.35,0,5.31-4.43,8.44-9.83,8.45A12.18,12.18,0,0,1,275.88,340.33Z"/><rect class="cls-3" x="31" y="382.25" width="898" height="58" rx="10.79"/><path class="cls-2" d="M918.21,383.25A9.8,9.8,0,0,1,928,393v36.42a9.8,9.8,0,0,1-9.79,9.79H41.79A9.8,9.8,0,0,1,32,429.46V393a9.8,9.8,0,0,1,9.79-9.79H918.21m0-2H41.79A11.79,11.79,0,0,0,30,393v36.42a11.79,11.79,0,0,0,11.79,11.79H918.21A11.79,11.79,0,0,0,930,429.46V393a11.79,11.79,0,0,0-11.79-11.79Z"/><path class="cls-2" d="M327.52,405.11a14.52,14.52,0,0,1-4.16,4.18,26.07,26.07,0,0,0,6.37,1.83,10,10,0,0,0-1.38,2c-.58-.11-1.12-.25-1.68-.39v6.55h-2.3v-.59h-6.52v.66h-2.18v-6.64c-.68.2-1.37.38-2.05.52a8.8,8.8,0,0,0-1.05-1.93,29,29,0,0,0,6.63-2.05,17.72,17.72,0,0,1-2.16-1.89,18.8,18.8,0,0,1-2.52,1.91,13.34,13.34,0,0,0-1.59-1.6,14.49,14.49,0,0,0,5.73-5.35l2,.7c-.25.4-.5.81-.79,1.21h5.71l.36-.11Zm-1.33,7.49a23,23,0,0,1-5-2.05,27.11,27.11,0,0,1-5.15,2.05Zm-1.82,4.2v-2.26h-6.52v2.26Zm-5.91-10.74a14.5,14.5,0,0,0,2.76,2.13,13.39,13.39,0,0,0,2.75-2.13Z"/><path class="cls-2" d="M334,408.68c0,3.06-.24,7.67-1.64,10.64a7.74,7.74,0,0,0-1.84-1c1.33-2.78,1.44-6.83,1.44-9.65v-5.55h15.25V405H334Zm7.22,7.65.05,1.74c-2.52.35-5.2.65-7.17.89l-.3-1.89,5.4-.53-1.24-.34a22.49,22.49,0,0,0,.72-2.91l1.85.44c-.32,1-.65,2-.92,2.76ZM334.43,406H341v1.73h-6.59Zm6.21,7.13h-6v-4.51h6Zm-5.2,3.57a13.21,13.21,0,0,0-.6-2.95l1.64-.34a11,11,0,0,1,.72,2.86Zm3.24-6.66H336.5v1.65h2.18ZM342,415.1a15.4,15.4,0,0,0-1.19-3.67l1.64-.58a14.41,14.41,0,0,1,1.3,3.61Zm5.26-5h-1.17v7c0,1.05-.18,1.55-.79,1.86a6.7,6.7,0,0,1-2.83.38,9.14,9.14,0,0,0-.61-1.95c.75,0,1.58,0,1.82,0s.34-.09.34-.34v-6.95h-3v-1.93h3v-2.7h2.07v2.7h1.17Z"/><path class="cls-2" d="M357.88,413a7.89,7.89,0,0,1-.16,1h5.89s0,.5-.06.76c-.19,2.36-.41,3.47-.86,3.92a2.08,2.08,0,0,1-1.42.6c-.51,0-1.42.05-2.38,0a4.4,4.4,0,0,0-.56-1.78,19.41,19.41,0,0,0,1.95.11.88.88,0,0,0,.63-.18c.19-.18.34-.7.47-1.8h-4.16c-.71,1.6-2,2.83-4.67,3.64a5.6,5.6,0,0,0-1.17-1.68c3.32-.88,4.07-2.43,4.36-4.61h-3.08a11.29,11.29,0,0,1-2.3,6.09,8.41,8.41,0,0,0-1.84-1.19c2-2.25,2.21-5.51,2.21-7.9v-4h12.88v4.21h-4.67v1.12h6.2V413Zm6.84-7.79H349.55v-1.91h15.17Zm-11.9,5c0,.36,0,.74,0,1.12h4v-1.12Zm0-2.66v1.11h8.7v-1.11Z"/><path class="cls-2" d="M382.51,413.92a10.39,10.39,0,0,1-2,2.79,1.51,1.51,0,0,0,1.21.82c.45,0,.61-.34.7-1.76a5.24,5.24,0,0,0,1.39,1c-.33,2-.83,2.58-2.23,2.58a3,3,0,0,1-2.47-1.44,13.5,13.5,0,0,1-2.72,1.42,7.55,7.55,0,0,0-1.12-1.37,10.83,10.83,0,0,0,3-1.62,17,17,0,0,1-.83-3h-2c0,.23-.06.46-.09.68a14.81,14.81,0,0,1,2.14,1.65l-1.15,1.43a12.53,12.53,0,0,0-1.39-1.23,6.11,6.11,0,0,1-2.39,3.46,5,5,0,0,0-1.21-1.4c1.59-1.07,2-2.78,2.22-4.59h-1.12v-.82l-.72,1.07c-.18-.54-.54-1.37-.9-2.16v7.92h-1.91v-6.65a15.07,15.07,0,0,1-1.44,3.39,12.32,12.32,0,0,0-.9-1.82,18.91,18.91,0,0,0,2.2-6.07h-1.79v-1.94h1.93V402.5h1.91v3.71h1.6a4,4,0,0,0-.39-.34l.79-1.17.3.23a19.73,19.73,0,0,0,.89-2.32l1.58.61c-.5.86-1,1.85-1.46,2.57.16.17.33.33.45.47.36-.61.67-1.2.92-1.74l1.21.59c0-.85,0-1.71,0-2.59h1.89c0,1,0,2,0,2.93l.52-.75.29.21a17.25,17.25,0,0,0,.88-2.32l1.61.61c-.51.9-1,1.87-1.48,2.58l.47.46c.34-.59.66-1.2.92-1.72l1.45.72c-.72,1.13-1.58,2.45-2.37,3.51l1.08-.07a7.15,7.15,0,0,0-.31-.74l1.21-.44a11,11,0,0,1,.93,2.67l-1.27.54c0-.2-.08-.45-.15-.7l-1.33.18a7.17,7.17,0,0,1,1.37,1.13l-.34.31h1.36v1.66h-2.52Zm-5.39-2.29c0-.38-.09-.78-.14-1.17l-1.22.48c0-.16,0-.34-.08-.54l-3.29.38-.29-1.58.56,0c.34-.47.72-1,1.08-1.58a12,12,0,0,0-1.33-1.34v1.91h-1.64v.78c.38.56,1.24,1.94,1.67,2.7Zm-.9-3.85a11,11,0,0,1,.71,2c-.13-1.31-.22-2.7-.26-4.14-.72,1.12-1.56,2.38-2.34,3.39l1-.08c-.09-.28-.18-.55-.29-.81Zm2.85,1.09c.29-.37.59-.83.9-1.29a12.34,12.34,0,0,0-1.44-1.46c0,1,.07,1.89.14,2.79Zm1.44,2.76a10.51,10.51,0,0,0-.86-.67l.81-.7c-.56.05-1.08.13-1.59.18l-.11-.5c.06.59.13,1.15.22,1.69Zm-1.24,1.66c.12.59.27,1.15.41,1.63a7.2,7.2,0,0,0,1.05-1.63Z"/><path class="cls-2" d="M397.1,411.29a12.5,12.5,0,0,0,4.78,2.23,8.13,8.13,0,0,0-1.35,1.71c-.27-.07-.54-.16-.8-.25v4.35h-2v-.57h-2.14v.59h-1.87v-6.08h2.66a10.84,10.84,0,0,1-2.12-2H392a14.3,14.3,0,0,1-2.38,2h2.75v6.06h-1.92v-.57h-2.16v.59h-1.86v-4.46c-.25.11-.5.19-.77.29a7.63,7.63,0,0,0-1.26-1.64,16,16,0,0,0,4.46-2.25H385v-1.88h5.82c.25-.32.48-.66.7-1h-5.4v-5.23h6.15v4.6l1.7.57v-5.17h6.15v5.23h-6.15v0a9.92,9.92,0,0,1-.56,1h7.88v1.88Zm-6.89-6.43H388v1.87h2.18Zm.2,10.17h-2.16v2h2.16Zm7.36,2v-2h-2.14v2Zm-1.91-10.28H398v-1.87h-2.18Z"/><path class="cls-2" d="M410.57,416.38a16.05,16.05,0,0,0,1.65-.29,4.82,4.82,0,0,0,4.06-4.77,4.43,4.43,0,0,0-3.73-4.72,39.11,39.11,0,0,1-1.06,4.85c-1.07,3.6-2.61,5.8-4.56,5.8s-3.64-2.18-3.64-5.19a8,8,0,0,1,8.21-7.63,6.8,6.8,0,0,1,7.21,7c0,3.75-2.31,6.41-6.81,7.1Zm-1.39-5.4a28.42,28.42,0,0,0,1-4.32,5.58,5.58,0,0,0-4.52,5.17c0,1.8.72,2.68,1.38,2.68S408.46,413.39,409.18,411Z"/><path class="cls-2" d="M427.2,407.16h-6.52v-1.69h6.52Zm-.45,11.2H423.2v.7h-1.76v-6.14h5.31ZM421.49,408h5.3v1.64h-5.3Zm0,2.47h5.3V412h-5.3Zm5.19-5.76h-5.13v-1.62h5.13Zm-3.48,9.94v2.07H425v-2.07Zm9.56.75.15,1.77c-1.86.41-3.82.83-5.37,1.15l-.43-2c.54-.07,1.17-.18,1.85-.29v-4.41h-1.51v-1.84h4.9v1.84h-1.41v4.07Zm1.89-7.52c.13,5.15.54,8.77,1.23,8.82.23,0,.38-.83.45-2.18a6.79,6.79,0,0,0,1.49,1.28c-.47,2.93-1.37,3.56-2,3.55-2.23-.06-2.9-4.31-3.12-11.47h-5.2v-2h5.15c0-1.08,0-2.19,0-3.38h2.06v.9l1.44-.74a12.49,12.49,0,0,1,1.54,2.2l-1.54.86a12.78,12.78,0,0,0-1.44-2.27q0,1.25,0,2.43h2.66v2Z"/><path class="cls-2" d="M442.88,415.23c.7,1.21,2,1.71,3.8,1.78,2.16.09,6.41,0,8.89-.16a9.83,9.83,0,0,0-.67,2.09c-2.23.11-6,.14-8.24.05s-3.59-.61-4.67-2c-.72.71-1.45,1.39-2.37,2.16l-1-2.12a20.71,20.71,0,0,0,2.23-1.66v-3.92h-2v-2h4.05Zm-1.28-8.07a14.34,14.34,0,0,0-2.7-3l1.64-1.22a15.78,15.78,0,0,1,2.82,2.86Zm6.64,8.27h-4.66v-1.55h4.66v-.67h-3.65v-5.27h3.65v-.63h-4v-1.48h4v-.94h2.09v.94h4.12v1.48h-4.12v.63h3.82v5.27h-3.82v.67h4.9v1.55h-4.9v1.19h-2.09Zm-2.63-9.91h-1.87v-2.46h11.31v2.46h-2v-.95h-7.46Zm.8,4.45h1.83v-.7h-1.83Zm1.83,1.95v-.71h-1.83v.71Zm2.09-2.65v.7h1.91v-.7Zm1.91,1.94h-1.91v.71h1.91Z"/><path class="cls-2" d="M461.87,416.45v2.85h-2v-2.85H456.7V414.6h3.19v-1.06h-2.56V407h2.56v-1H457v-1.85h2.94v-1.69h2v1.69h2.87v1.85H461.9v1h2.65v6.5h-2.68v1.06h3v1.85Zm-2.9-6.84h1.13v-1.08H459Zm0,2.45h1.13V411H459Zm3.89-3.53h-1.19v1.08h1.19Zm0,2.47h-1.19v1.06h1.19Zm8.84,8.28c-.06-.32-.11-.67-.2-1-2.4.25-4.81.46-6.66.63l-.4-2.09,1.51-.09a50.25,50.25,0,0,0,1.1-5.89h-2.14v-2h8.5v2h-4c-.37,2-.88,4.11-1.33,5.74l2.88-.19a21.74,21.74,0,0,0-1.15-2.87l1.82-.72a23.21,23.21,0,0,1,2.07,5.73Zm1.1-13.5h-7.17v-2h7.17Z"/><path class="cls-2" d="M488.67,407.27c-.54.32-1.11.63-1.76,1a55.75,55.75,0,0,0-5,2.65c-1.5,1-2.49,2-2.49,3.24s1.25,2,3.71,2a29.91,29.91,0,0,0,5.84-.65l0,2.57a35.1,35.1,0,0,1-5.73.43c-3.54,0-6.23-1-6.23-4.05,0-2,1.25-3.44,3-4.7-.83-1.53-1.69-3.42-2.51-5.31l2.25-.92a42.59,42.59,0,0,0,2.24,4.94c1.46-.85,3-1.64,3.85-2.11a12.28,12.28,0,0,0,1.64-1.08Z"/><path class="cls-2" d="M498.62,407.16h-5.94v-1.69h5.94ZM509,416.9c0,1.05-.16,1.66-.77,2a5.71,5.71,0,0,1-2.77.4,7.64,7.64,0,0,0-.6-2.09c.74,0,1.57,0,1.84,0s.32-.07.32-.34V405h-5.74v4.88c0,2.86-.22,7-1.62,9.56a6.83,6.83,0,0,0-1.5-1.07H495v.72h-1.65v-6.14h4.78v5c1.09-2.34,1.18-5.6,1.18-8.08v-6.7H509Zm-10.8-7.29h-4.77V408h4.77Zm-4.77.83h4.77V412h-4.77Zm4.72-5.76h-4.61v-1.62h4.61Zm-1.7,9.92H495v2.07h1.42Zm6.81-5.49v-1.23h-1.39v-1.55h1.39v-1.17h1.68v1.17h1.42v1.55h-1.42v1.23h1.54v1.56h-4.68v-1.56Zm.16,7.25V417H501.9v-5.39h4.43v4.77Zm0-3.22v1.69h1.37v-1.69Z"/><path class="cls-2" d="M526,406a9,9,0,0,1-1.49,3,8.58,8.58,0,0,0,3,1.4,6.76,6.76,0,0,0-1.18,1.66,9.38,9.38,0,0,1-3.1-1.77,10.69,10.69,0,0,1-3.28,1.77,7.25,7.25,0,0,0-1.19-1.51l-.68.88c-.43-.34-1.22-.9-1.93-1.37v1.85H514.3v-1.71a11.26,11.26,0,0,1-2.39,1.8,8.84,8.84,0,0,0-1.19-1.33,10.65,10.65,0,0,0,2.82-1.74h-2.07v-3.5h2.83v-.61h-3.22v-1.42h3.22v-.92h1.87v.92h3.19v1.42h-3.19v.61h2.94v1a9,9,0,0,0,2.2-3.94l1.9.43c-.14.47-.3.92-.48,1.37h4.48V406ZM520.1,417.3h7.2v1.75H510.93V417.3h2.63v-2.7h2.05v2.7H518V414h-6v-1.69h14.18V414H520.1v.85h4.64v1.57H520.1Zm-7-9.61h1.17v-1h-1.17Zm3-1v1h1.17v-1Zm2.65,3.82A9,9,0,0,0,522,409a9.48,9.48,0,0,1-1-1.57,9.45,9.45,0,0,1-.81.85,9.41,9.41,0,0,0-1-1.15V409h-2.25c.77.39,1.91,1,2.27,1.18ZM522,406a8,8,0,0,0,1.15,1.75A6.19,6.19,0,0,0,524,406Z"/><path class="cls-4" d="M253.82,411.8c0-10.2,3.7-15.17,9.5-15.17s9.52,5,9.54,15.14-3.74,15.36-9.5,15.37S253.84,422,253.82,411.8Zm14.64,0c0-8.44-2.14-11.52-5.14-11.51s-5.11,3.08-5.1,11.52,2.14,11.72,5.14,11.71S268.47,420.29,268.46,411.78Z"/><path class="cls-4" d="M296.35,418.65h-3.76v7.92h-4.32v-7.91H275.55v-3.07l11.69-18.46h5.32l0,18h3.76Zm-8.09-3.54v-7.72c0-1.6.16-4.08.23-5.68h-.16c-.71,1.48-1.51,3-2.35,4.52l-5.78,8.89Z"/><rect class="cls-3" x="31" y="465" width="898" height="58" rx="10.79"/><path class="cls-2" d="M918.21,466a9.8,9.8,0,0,1,9.79,9.79v36.42a9.8,9.8,0,0,1-9.79,9.79H41.79A9.8,9.8,0,0,1,32,512.21V475.79A9.8,9.8,0,0,1,41.79,466H918.21m0-2H41.79A11.79,11.79,0,0,0,30,475.79v36.42A11.79,11.79,0,0,0,41.79,524H918.21A11.79,11.79,0,0,0,930,512.21V475.79A11.79,11.79,0,0,0,918.21,464Z"/><path class="cls-2" d="M326.89,500.23c.7,0,.84-.31.95-1.89a5.91,5.91,0,0,0,1.73.74c-.23,2.25-.77,2.93-2.52,2.93H323.9c-2.13,0-2.7-.57-2.7-2.63v-3.45l-.74.34-.74-1.75c-.07,4.41-.2,6.14-.61,6.72A1.61,1.61,0,0,1,318,502a10.14,10.14,0,0,1-1.86.09,4.86,4.86,0,0,0-.52-1.91,10.36,10.36,0,0,0,1.3.07.51.51,0,0,0,.52-.29c.23-.36.34-1.87.41-6.1h-1.4c-.25,3.24-.83,6.16-2.32,8.21a6.6,6.6,0,0,0-1.53-1.5c1.78-2.46,1.94-6.42,2-10.58h-1.72v-2h2.75v-2.72h2.05V488h2.81v1.35a12.84,12.84,0,0,0,1.6-4.09l2.11.4c-.14.63-.34,1.26-.54,1.87h5.65v1.94H322.8a11.85,11.85,0,0,1-1,1.75h1.32v1.73l1-.45v-2.58h1.78v1.75l1.3-.59.07-.06.33-.23,1.33.47-.07.28c0,2.56,0,4.4-.08,4.94a1.24,1.24,0,0,1-.77,1.24,4.08,4.08,0,0,1-1.48.2,5.24,5.24,0,0,0-.39-1.57c.21,0,.47,0,.61,0s.23,0,.25-.27,0-1.15.06-2.86l-1.16.54v5h-1.78v-4.2l-1,.45v4.34c0,.74.12.85,1,.85Zm-5.69-6.41V492l-.16.18a11.59,11.59,0,0,0-1.61-1.51A7.26,7.26,0,0,0,320,490h-3.44c0,.65,0,1.29-.05,1.92h3.24v.81l0,1.8Z"/><path class="cls-2" d="M347.32,498.66v2.16H331v-2.16h6.86v-9.31h-5.89v-2.23h14.39v2.23h-6.05v9.31Z"/><path class="cls-2" d="M361.59,497.26a6.31,6.31,0,0,0,4.12,3.1,5.1,5.1,0,0,0-1.22,1.78,7.63,7.63,0,0,1-4.3-3.55c-.76,1.44-2.2,2.72-4.85,3.57a7.77,7.77,0,0,0-1.13-1.59c2.75-.86,4-2,4.46-3.31h-3.29v-5H359v-1.15h-2.25v-.92a12,12,0,0,1-1.48.88,9.15,9.15,0,0,0-.52-1v.86h-1.64v.87c.48.63,1.75,2.55,2,3l-1.09,1.66a21.47,21.47,0,0,0-.93-2.05v7.65h-2v-6.63a14.51,14.51,0,0,1-1.64,3.46,10.71,10.71,0,0,0-1-1.91,17.91,17.91,0,0,0,2.48-6.05H349v-2h2.2v-3.69h2v3.69h1.64v.13a11.27,11.27,0,0,0,4.17-3.8h1.95a11.36,11.36,0,0,0,4.95,3.94,12.07,12.07,0,0,0-1.1,1.87,13.06,13.06,0,0,1-1.42-.83v.89h-2.38v1.15h3.84v5ZM359,495.62c0-.2,0-.41,0-.61v-1.08h-1.79v1.69Zm3.15-6.25A12.15,12.15,0,0,1,360,487.1a11.18,11.18,0,0,1-2.09,2.27Zm-1.21,4.56v1.13c0,.18,0,.38,0,.56h1.92v-1.69Z"/><path class="cls-2" d="M378.06,489.1a14.43,14.43,0,0,0,5.51,3.12,8.38,8.38,0,0,0-1.39,1.71,14.64,14.64,0,0,1-1.89-.88v6.82h3v1.87H367v-1.87h3V493a15.2,15.2,0,0,1-2,1,9.2,9.2,0,0,0-1.34-1.66,13.94,13.94,0,0,0,5.35-3.24h-4.84v-1.85H374v-2h2.11v2h7v1.85Zm2,3.84a14.93,14.93,0,0,1-4-3.32v2.83H374v-2.9a15,15,0,0,1-3.9,3.39Zm-2,1.74H372v.72h6.05Zm-6.05,3h6.05v-.76H372Zm6.05,2.23v-.76H372v.76Z"/><path class="cls-4" d="M253.82,494.55c0-10.2,3.7-15.17,9.5-15.17s9.52,5,9.54,15.14-3.74,15.36-9.5,15.37S253.84,504.79,253.82,494.55Zm14.64,0c0-8.44-2.14-11.52-5.14-11.51s-5.11,3.08-5.1,11.52,2.14,11.72,5.14,11.71S268.47,503,268.46,494.53Z"/><path class="cls-4" d="M275.84,506l2.19-3a9.45,9.45,0,0,0,6.89,3.15c3.32,0,5.83-2.37,5.83-6.29s-2.25-6.15-5.61-6.15a7.76,7.76,0,0,0-4.72,1.69l-2.24-1.48.86-14,14.92,0v3.88l-10.92,0-.66,7.56a8.24,8.24,0,0,1,4-1.05c4.92,0,9,2.91,9,9.35s-4.75,10.2-9.91,10.21A13,13,0,0,1,275.84,506Z"/><path class="cls-5" d="M941.62,260A16.4,16.4,0,0,1,958,276.38V525.62A16.4,16.4,0,0,1,941.62,542H18.38A16.4,16.4,0,0,1,2,525.62V276.38A16.4,16.4,0,0,1,18.38,260H941.62m0-2H18.38A18.38,18.38,0,0,0,0,276.38V525.62A18.38,18.38,0,0,0,18.38,544H941.62A18.38,18.38,0,0,0,960,525.62V276.38A18.38,18.38,0,0,0,941.62,258Z"/><rect class="cls-5" x="234.5" y="237" width="491" height="40" rx="20"/><path class="cls-3" d="M339.89,255.93c0,3.06-.23,7.67-1.64,10.64a7.55,7.55,0,0,0-1.84-1c1.34-2.78,1.44-6.83,1.44-9.65v-5.55H353.1v1.85H339.89Zm7.22,7.65.05,1.74c-2.52.35-5.2.65-7.16.89l-.31-1.89,5.4-.53-1.24-.34a21,21,0,0,0,.72-2.91l1.86.44c-.33,1-.65,2-.92,2.76Zm-6.77-10.36h6.59V255h-6.59Zm6.21,7.13h-6v-4.52h6Zm-5.2,3.57a13.21,13.21,0,0,0-.6-2.95l1.64-.35a11.16,11.16,0,0,1,.72,2.87Zm3.24-6.66h-2.18v1.65h2.18Zm3.37,5.09a16.36,16.36,0,0,0-1.19-3.67l1.64-.58a14.76,14.76,0,0,1,1.29,3.61Zm5.25-5H352v7c0,1.05-.18,1.55-.79,1.86a6.7,6.7,0,0,1-2.83.38,9.14,9.14,0,0,0-.61-1.95c.76,0,1.59,0,1.82,0s.34-.09.34-.34v-6.95h-3v-1.93h3v-2.7H352v2.7h1.17Z"/><path class="cls-3" d="M363.79,260.28a8.18,8.18,0,0,1-.16,1h5.89s0,.5,0,.76c-.2,2.36-.42,3.47-.87,3.92a2.07,2.07,0,0,1-1.42.6c-.5,0-1.42.05-2.38,0a4.38,4.38,0,0,0-.55-1.78,19.24,19.24,0,0,0,1.94.11.86.86,0,0,0,.63-.18c.2-.18.34-.7.47-1.8h-4.16c-.7,1.6-2,2.83-4.66,3.64a5.46,5.46,0,0,0-1.18-1.68c3.32-.88,4.07-2.43,4.36-4.61h-3.08a11.29,11.29,0,0,1-2.3,6.09,8.41,8.41,0,0,0-1.84-1.19c2-2.25,2.22-5.51,2.22-7.9v-4h12.87v4.21h-4.66v1.12h6.19v1.67Zm6.85-7.79H355.46v-1.91h15.18Zm-11.9,5c0,.36,0,.74,0,1.12h4v-1.12Zm0-2.66v1.11h8.69v-1.11Z"/><path class="cls-3" d="M379.63,254.41h-7v-1.69h7Zm9,3.5a12.32,12.32,0,0,1-2.77,5.24,12.28,12.28,0,0,0,3.71,1.54,8.93,8.93,0,0,0-1.39,1.86,12.65,12.65,0,0,1-4-2,14.86,14.86,0,0,1-4.13,2,9.23,9.23,0,0,0-1.11-1.86v.92h-3.76v.7h-1.82v-6.14H379v4.49a11.91,11.91,0,0,0,3.64-1.55,12.4,12.4,0,0,1-2.08-3.12l1.84-.59h-2.5v-1.93h.61a9.87,9.87,0,0,0-1.49-1.29v.68h-5.55v-1.64H379v.87a4.06,4.06,0,0,0,1.74-3.69v-2.15h6v4c0,.5,0,.55.24.55h.45c.23,0,.3-.23.32-1.8a6,6,0,0,0,1.75.76c-.18,2.23-.65,2.86-1.86,2.86h-1c-1.44,0-1.85-.55-1.85-2.34v-2.18h-2v.31a5.69,5.69,0,0,1-2.23,5h6.33l.36-.09ZM379,259.29h-5.55v-1.6H379Zm0-7.36h-5.44v-1.62H379Zm-1.84,9.94h-1.9v2.07h1.9Zm5.32-2.47a8.81,8.81,0,0,0,1.74,2.43,8.47,8.47,0,0,0,1.69-2.43Z"/><path class="cls-3" d="M407.41,256.54h-9.67v2.12c0,2.34-.27,5.78-1.8,8a9,9,0,0,0-1.51-1.3v1.23h-2v-9a13.75,13.75,0,0,1-1.11,1.47,15.15,15.15,0,0,0-1-2.3,20.32,20.32,0,0,0,3.57-7l2,.59a36,36,0,0,1-1.37,3.49v11.4c1.26-1.92,1.37-4.64,1.37-6.62v-3.95h11.61Zm-9.16-5.37v-1.31h2v1.31h2.66v-1.31h2v1.31h2.41V253h-2.41v1.2h-2V253h-2.66v1.2h-2V253h-2.54v-1.84ZM407,264.75c0,.81-.11,1.24-.62,1.53a4.24,4.24,0,0,1-2.07.29,5.25,5.25,0,0,0-.46-1.62H405c.16,0,.2,0,.2-.22v-.94h-1.71v2.7h-1.69v-2.7h-1.62v2.74h-1.79v-9.09H407ZM400.16,259v1h1.62v-1Zm1.62,3.4v-1h-1.62v1Zm1.69-3.4v1h1.71v-1Zm1.71,3.4v-1h-1.71v1Z"/><path class="cls-3" d="M422.8,264.73c.7,0,.85-.31.95-1.89a6,6,0,0,0,1.73.74c-.23,2.25-.77,2.93-2.52,2.93h-3.15c-2.12,0-2.7-.57-2.7-2.63v-3.45l-.74.34-.74-1.75c-.07,4.41-.19,6.14-.61,6.72a1.59,1.59,0,0,1-1.15.74,10,10,0,0,1-1.85.09,5,5,0,0,0-.53-1.91,10.44,10.44,0,0,0,1.3.07.51.51,0,0,0,.52-.29c.24-.36.34-1.87.42-6.1h-1.41c-.25,3.24-.83,6.16-2.32,8.21a6.41,6.41,0,0,0-1.53-1.5c1.78-2.46,1.94-6.42,2-10.58h-1.73v-2h2.75v-2.72h2.06v2.72h2.8v1.35a13.09,13.09,0,0,0,1.61-4.09l2.1.4c-.14.63-.34,1.26-.54,1.87h5.66V254h-6.47a11.82,11.82,0,0,1-1,1.75H419v1.73l1-.45v-2.58h1.79v1.75l1.29-.59.07-.06.33-.23,1.33.47-.07.28c0,2.56,0,4.4-.07,4.94a1.26,1.26,0,0,1-.78,1.24,4.06,4.06,0,0,1-1.47.2,5.57,5.57,0,0,0-.4-1.57c.22,0,.47,0,.61,0s.24,0,.25-.27,0-1.15.06-2.86l-1.15.54v5H420v-4.2l-1,.45v4.34c0,.74.13.85,1,.85Zm-5.69-6.41v-1.87l-.16.18a11.5,11.5,0,0,0-1.6-1.51c.19-.2.39-.42.57-.65h-3.44c0,.65,0,1.29-.05,1.92h3.24v.81l0,1.8Z"/><path class="cls-3" d="M443.23,263.16v2.16H426.86v-2.16h6.86v-9.31h-5.88v-2.23h14.38v2.23h-6.05v9.31Z"/><path class="cls-3" d="M456.51,263.88c1.7.56,3.53,1.25,4.67,1.73l-2.58,1a32.29,32.29,0,0,0-4.61-1.89l1.44-.8h-4.77l1.32.6a23.14,23.14,0,0,1-5.62,2.14,14,14,0,0,0-1.55-1.53,23.84,23.84,0,0,0,4.65-1.21H447.1v-7h12.06v7Zm4.56-7.67H444.94v-1.47h7v-.67h-5.13v-1.3h5.13v-.64h-6v-1.41h6v-1h2.2v1h6.21v1.41h-6.21v.64h5.4v1.3h-5.4v.67h6.95Zm-11.9,2.58H457v-.72h-7.81Zm0,1.91H457V260h-7.81Zm0,1.94H457v-.76h-7.81Z"/><path class="cls-3" d="M474.82,259.29v4.61h4.32V266H468.48V263.9h4.16v-4.61h-4.88v-2.07h4.88v-4c-1.26.22-2.54.38-3.74.53a8.09,8.09,0,0,0-.62-1.79,20,20,0,0,1-1.11,2.16v12.43H465v-9.22a17.23,17.23,0,0,1-1.45,1.66,17.61,17.61,0,0,0-1.26-2.25,18.76,18.76,0,0,0,4.5-6.94l2.12.67c-.2.49-.39.95-.63,1.44a47,47,0,0,0,9-1.91l1.57,1.8a29.11,29.11,0,0,1-4.07,1v4.39h4.5v2.07Z"/><path class="cls-3" d="M490.59,257.08c-.7.5-1.39,1-2.13,1.44H495v8h-2.23V266h-6.2v.54h-2.14V260.7c-.9.39-1.84.79-2.76,1.13a11.8,11.8,0,0,0-1.31-1.76,32.35,32.35,0,0,0,6.7-3h-6.12v-1.89h5.78v-1.64h-4.24v-1.86h4.24v-1.94h2.12v1.94h3.91v.89a23.18,23.18,0,0,0,1.85-2.29l1.84.94a26.54,26.54,0,0,1-3.55,4h4.18v1.89Zm2.18,3.18h-6.2v1.16h6.2Zm0,4V263h-6.2v1.22Zm-3.93-9.07h1c.69-.52,1.33-1.07,1.95-1.64h-2.94Z"/><path class="cls-3" d="M503.33,251.26a15.14,15.14,0,0,0-.43,1.59,44.3,44.3,0,0,0-.87,6.53,7.9,7.9,0,0,0,.08,1.16c.25-.64.54-1.23.79-1.81l1.11.87a43.67,43.67,0,0,0-1.27,4.37,4.75,4.75,0,0,0-.11.83c0,.2,0,.49,0,.74l-2.05.14a22.75,22.75,0,0,1-.7-5.83,49.22,49.22,0,0,1,.74-7.06,13.65,13.65,0,0,0,.18-1.74Zm4.18,8.81a5.6,5.6,0,0,0-.22,1.49c0,.79.69,1.26,2.49,1.26a20.17,20.17,0,0,0,4.46-.47l0,2.42a25.24,25.24,0,0,1-4.6.36c-3.08,0-4.54-1.12-4.54-2.94a10.94,10.94,0,0,1,.3-2.32Zm6.23-7.64v2.31a51.54,51.54,0,0,1-7.66,0v-2.31A35.73,35.73,0,0,0,513.74,252.43Z"/><path class="cls-3" d="M530.33,265.09a13.8,13.8,0,0,0-3.94-2.79c0,.23,0,.43,0,.61,0,1.57-.81,3.08-3.8,3.08-2.54,0-4.63-.83-4.63-3.26,0-1.85,1.58-3.33,4.86-3.33.36,0,.72,0,1.06.05,0-1.38-.12-2.91-.12-3.85s0-2.14,0-2.9a11.35,11.35,0,0,0-.18-2.09h2.69c-.08.53-.13,1.39-.17,2.09V254c1.41,0,3.5-.11,5-.27l.09,2.12c-1.49.15-3.62.22-5.06.26,0,1.08.11,2.48.2,3.79A14,14,0,0,1,531.7,263ZM524,261.53a9,9,0,0,0-1.48-.13c-1.39,0-2.21.47-2.21,1.22s.9,1.21,2.14,1.21,1.56-.52,1.56-1.69C524,262,524,261.76,524,261.53Z"/><path class="cls-3" d="M547.92,252.65c-.43.27-.85.54-1.24.81-1,.66-2.83,2.25-3.95,3.15a6.12,6.12,0,0,1,1.68-.2c3,0,5.33,1.89,5.33,4.48,0,2.81-2.15,5.05-6.45,5.05-2.48,0-4.36-1.14-4.36-2.92a3,3,0,0,1,3.21-2.77,3.6,3.6,0,0,1,3.8,3,2.6,2.6,0,0,0,1.46-2.43c0-1.6-1.62-2.68-3.7-2.68-2.73,0-4.51,1.45-6.42,3.61l-1.62-1.67c1.26-1,3.4-2.84,4.46-3.71s2.85-2.32,3.73-3.1c-.92,0-3.37.13-4.3.2a10.58,10.58,0,0,0-1.46.15l-.07-2.33a14.52,14.52,0,0,0,1.62.09c.93,0,4.75-.09,5.76-.18a7.57,7.57,0,0,0,1.37-.18Zm-4,11.22c-.11-1.16-.78-1.91-1.75-1.91-.67,0-1.1.39-1.1.84,0,.67.76,1.12,1.8,1.12C543.22,263.92,543.56,263.9,543.89,263.87Z"/><path class="cls-3" d="M569.23,263.16v2.16H552.86v-2.16h6.86v-9.31h-5.88v-2.23h14.38v2.23h-6.05v9.31Z"/><path class="cls-3" d="M576.52,261.34a16.68,16.68,0,0,0-1.08-1.81v7h-2.07v-6.47a15.8,15.8,0,0,1-2,3.57,9.78,9.78,0,0,0-1-2,17.78,17.78,0,0,0,2.67-4.83h-2.29v-2h2.58V252.7c-.76.15-1.5.27-2.2.36a8,8,0,0,0-.59-1.64,25.69,25.69,0,0,0,5.58-1.49l1.42,1.64a20,20,0,0,1-2.14.68v2.54h1.92v2h-1.92v.52c.48.4,2,2,2.3,2.36Zm10.87,3v1.87H577V264.3h4.28v-1.59h-3.15v-1.8h3.15v-1.49h-3.58v-1.84H587v1.84H583.4v1.49h3.18v1.8H583.4v1.59Zm-.86-7.8h-8.27v-6.08h8.27Zm-2.09-4.28h-4.19v2.48h4.19Z"/><path class="cls-3" d="M605.29,252.68h-3a9.16,9.16,0,0,1,.76,1.21l-2,.56a11.09,11.09,0,0,0-1.08-1.77h-1a9.82,9.82,0,0,1-1,1.1v1h6.89v3.57h-2.09v-2H591.31v2h-2v-3.57h6.62v-1.26h.79c-.32-.18-.66-.34-.9-.45a3.74,3.74,0,0,0,.45-.36h-2.1a9.24,9.24,0,0,1,.59,1.19l-1.92.54a11.15,11.15,0,0,0-.81-1.73h-.31a13.19,13.19,0,0,1-1.44,1.73,11.24,11.24,0,0,0-1.75-1.15,9.72,9.72,0,0,0,2.65-3.65l2,.54c-.13.28-.27.57-.42.86h4v1.21a8.43,8.43,0,0,0,1.71-2.61l2,.48a9.61,9.61,0,0,1-.44.92h5.23Zm-11.15,9.26h9.25v4.64h-2.12v-.48h-7.13v.48h-2V257.1H602v4h-7.89Zm0-3.3v.94h5.76v-.94Zm0,4.87v1h7.13v-1Z"/><path class="cls-3" d="M612.82,263c-2,.7-4.14,1.38-5.87,1.94l-.48-2.18,2.19-.59v-4.23h-1.81v-2h1.81v-3.17h-2v-2h6v2H610.7v3.17h1.62v2H610.7v3.6c.59-.18,1.19-.36,1.76-.56Zm10.7,1.09V266H611.94v-1.95h5v-1.71h-3.73v-1.92h3.73v-1.55h-3.6v-8.37h9.4v8.37h-3.62v1.55h3.82v1.92h-3.82v1.71Zm-8.28-10.24h1.85v-1.5h-1.85Zm0,3.24h1.85v-1.55h-1.85Zm5.43-4.74h-1.78v1.5h1.78Zm0,3.19h-1.78v1.55h1.78Z"/><circle class="cls-6" cx="139" cy="30" r="30"/><path class="cls-3" d="M127.89,29.23c.7,0,.84-.31,1-1.89a5.91,5.91,0,0,0,1.73.74c-.23,2.25-.77,2.93-2.52,2.93H124.9c-2.13,0-2.7-.57-2.7-2.63V24.93l-.74.34-.74-1.75c-.07,4.41-.2,6.14-.61,6.72A1.61,1.61,0,0,1,119,31a10.14,10.14,0,0,1-1.86.09,4.86,4.86,0,0,0-.52-1.91,10.36,10.36,0,0,0,1.3.07.51.51,0,0,0,.52-.29c.23-.36.34-1.87.41-6.1h-1.4c-.25,3.24-.83,6.16-2.32,8.21a6.6,6.6,0,0,0-1.53-1.5c1.78-2.46,1.94-6.42,2-10.58h-1.72V17h2.75V14.27h2V17h2.81v1.35a12.84,12.84,0,0,0,1.6-4.09l2.11.4c-.14.63-.34,1.26-.54,1.87h5.65v1.94H123.8a11.85,11.85,0,0,1-1,1.75h1.32v1.73l1-.45V18.91h1.78v1.75l1.3-.59.07-.06.33-.23,1.33.47-.07.28c0,2.56,0,4.4-.08,4.94a1.24,1.24,0,0,1-.77,1.24,4.08,4.08,0,0,1-1.48.2,5.24,5.24,0,0,0-.39-1.57c.21,0,.47,0,.61,0s.23,0,.25-.27,0-1.15.06-2.86l-1.16.54v5h-1.78v-4.2l-1,.45v4.34c0,.74.12.85,1,.85Zm-5.69-6.41V21l-.16.18a11.59,11.59,0,0,0-1.61-1.51A7.26,7.26,0,0,0,121,19h-3.44c0,.65,0,1.29,0,1.92h3.24v.81l0,1.8Z"/><path class="cls-3" d="M148.32,27.66v2.16H132V27.66h6.86V18.35h-5.89V16.12h14.39v2.23h-6.05v9.31Z"/><path class="cls-3" d="M157.57,28.13a16.05,16.05,0,0,0,1.65-.29,4.82,4.82,0,0,0,4.06-4.77,4.43,4.43,0,0,0-3.73-4.72,39.11,39.11,0,0,1-1.06,4.85c-1.07,3.6-2.61,5.8-4.56,5.8s-3.64-2.18-3.64-5.19a8,8,0,0,1,8.21-7.63,6.8,6.8,0,0,1,7.21,7c0,3.75-2.31,6.41-6.81,7.1Zm-1.39-5.4a28.42,28.42,0,0,0,1-4.32,5.58,5.58,0,0,0-4.52,5.17c0,1.8.72,2.68,1.38,2.68S155.46,25.14,156.18,22.73Z"/><path class="cls-3" d="M125.89,42.68a13.7,13.7,0,0,0-3.24-1.89l1.13-1.61a12.68,12.68,0,0,1,3.33,1.71Zm2.1,2.39c-.9,1.91-2,4-3,5.74l-1.87-1.33a56.87,56.87,0,0,0,3.22-5.74Zm-1.13-7.2a12.44,12.44,0,0,0-3.19-1.95l1.17-1.6a14.28,14.28,0,0,1,3.26,1.78Zm2.54,5.06h1.92v1.74c0,2-.3,4.52-2.72,6.34a6,6,0,0,0-1.51-1.4,5.62,5.62,0,0,0,2.31-5Zm3-6.52V34.27h2.18v2.14h4.79v1.91H133.5c-.38.7-.77,1.4-1.13,2,1.08,0,2.25-.05,3.4-.1-.3-.33-.61-.67-.9-1l1.66-.88a17.13,17.13,0,0,1,3.09,3.78l-1.8,1a6.13,6.13,0,0,0-.66-1.15c-3.15.2-6.45.34-8.82.45l-.22-2c.61,0,1.3,0,2,0,.31-.65.65-1.41.9-2.11H128V36.41Zm0,6.68h1.87v7.2h-1.87Zm5.47,6a.33.33,0,0,0,.24-.07c.07,0,.1-.18.14-.47s0-.9.05-1.71a5,5,0,0,0,1.44.8,11.88,11.88,0,0,1-.21,2.1,1.35,1.35,0,0,1-.6.81,2.07,2.07,0,0,1-1,.24H137a1.81,1.81,0,0,1-1.23-.45c-.29-.29-.41-.69-.41-1.89V42.93h2v5.58a1.39,1.39,0,0,0,0,.5.22.22,0,0,0,.19.09Z"/><path class="cls-3" d="M157.55,48.47a4.7,4.7,0,0,1-3.35,1.35c-1.33,0-2.23-1-2.23-2.7,0-1.94.63-4.55.63-6.17,0-.88-.45-1.32-1.19-1.32-1.33,0-3.27,1.64-4.71,3.24,0,.51,0,1,0,1.44,0,1.46,0,3,.11,4.63,0,.33.09,1,.12,1.37h-2.45c0-.38.06-1,.06-1.31,0-1.39,0-2.42.07-3.93-.77,1.14-1.64,2.45-2.25,3.3l-1.4-2c1-1.22,2.8-3.6,3.81-5.09l.08-1.24-3.25.41-.21-2.29c.5,0,.92,0,1.55,0s1.29-.13,2-.24c0-.66.07-1.17.07-1.37A9.47,9.47,0,0,0,145,35l2.61.07c-.11.51-.25,1.42-.4,2.54l.67.85c-.23.3-.61.88-.92,1.35,0,.12,0,.25,0,.38,1.4-1.23,3.45-2.65,5.18-2.65a2.5,2.5,0,0,1,2.81,2.63c0,1.85-.59,4.46-.59,6.32,0,.47.23.77.68.77A3.62,3.62,0,0,0,157.25,46Z"/><line class="cls-7" x1="139" y1="60" x2="139" y2="494"/><circle class="cls-6" cx="139" cy="494" r="6"/><circle class="cls-6" cx="139" cy="411.25" r="6"/><circle class="cls-6" cx="139" cy="328.5" r="6"/><circle class="cls-6" cx="139" cy="185.75" r="6"/><circle class="cls-6" cx="139" cy="103" r="6"/></g></g></svg>