<?xml version="1.0" encoding="utf-8"?>
<!-- Generator: Adobe Illustrator 25.2.0, SVG Export Plug-In . SVG Version: 6.00 Build 0)  -->
<svg version="1.1" id="Layer_1" xmlns="http://www.w3.org/2000/svg" xmlns:xlink="http://www.w3.org/1999/xlink" x="0px" y="0px"
	 viewBox="0 0 1200 146.9" style="enable-background:new 0 0 1200 146.9;" xml:space="preserve">
<style type="text/css">
	.st0{fill:#ED6A02;}
	.st1{fill:#FFFFFF;stroke:#ED6A02;stroke-width:3;stroke-miterlimit:10;}
	.st2{fill:#FFFFFF;stroke:#ED6A02;stroke-width:2.86;stroke-miterlimit:10;}
	.st3{fill:#FFFFFF;}
</style>
<g id="レイヤー_1">
	<path class="st0" d="M339,146.8c-21.3,0-38.6-14.7-38.6-32.9V79.8c0-18.2,17.3-32.9,38.6-32.9"/>
	<path class="st0" d="M523,46.8c21.3,0,38.6,14.7,38.6,32.9v34.1c0,18.2-17.3,32.9-38.6,32.9"/>
	<rect x="338.7" y="47" class="st0" width="184.1" height="99.9"/>
	<path class="st0" d="M300.6,76.8v3.5c0,9.1-17.3,16.5-38.6,16.5c21.3,0,38.6,7.4,38.6,16.5v3.5"/>
	<path class="st0" d="M561.4,116.8v-3.5c0-9.1,17.3-16.5,38.6-16.5c-21.3,0-38.6-7.4-38.6-16.5v-3.5"/>
	<path class="st0" d="M677,146.8c-21.3,0-38.6-14.7-38.6-32.9V79.8c0-18.2,17.3-32.9,38.6-32.9"/>
	<path class="st0" d="M861,46.8c21.3,0,38.6,14.7,38.6,32.9v34.1c0,18.2-17.3,32.9-38.6,32.9"/>
	<rect x="676.7" y="47" class="st0" width="184.1" height="99.9"/>
	<path class="st0" d="M638.6,76.8v3.5c0,9.1-17.3,16.5-38.6,16.5c21.3,0,38.6,7.4,38.6,16.5v3.5"/>
	<path class="st0" d="M899.4,116.8v-3.5c0-9.1,17.3-16.5,38.6-16.5c-21.3,0-38.6-7.4-38.6-16.5v-3.5"/>
	<path class="st0" d="M184.9,46.8c21.4,0,38.7,14.7,38.7,32.9v34.1c0,18.2-17.3,32.9-38.7,32.9"/>
	<path class="st0" d="M26.2,47h158.4l0,0v99.9l0,0H26.2C11.7,146.9,0,135.2,0,120.7c0,0,0,0,0-0.1V73.2C0,58.7,11.7,47,26.2,47z"/>
	<path class="st0" d="M223.3,116.8v-3.5c0-9.1,17.3-16.5,38.7-16.5c-21.4,0-38.7-7.4-38.7-16.5v-3.5"/>
	<path class="st0" d="M1015.2,146.9c-21.4,0-38.7-14.7-38.7-32.9V79.9c0-18.2,17.3-32.9,38.7-32.9"/>
	<path class="st0" d="M1173.8,146.8h-158.4l0,0V46.9l0,0h158.4c14.5,0,26.2,11.7,26.2,26.2v0v47.5
		C1200,135,1188.3,146.8,1173.8,146.8L1173.8,146.8z"/>
	<path class="st0" d="M976.7,76.8v3.5c0,9.1-17.3,16.5-38.7,16.5c21.4,0,38.7,7.4,38.7,16.5v3.5"/>
	<path class="st1" d="M59.4,37.8c0-24.2,8.8-36,22.6-36s22.6,11.9,22.6,36c0,24.3-8.9,36.5-22.6,36.5S59.4,62.1,59.4,37.8z
		 M94.2,37.8c0-20-5-27.4-12.2-27.4s-12.2,7.3-12.2,27.4c0,20.2,5,27.9,12.2,27.9S94.2,58,94.2,37.8z"/>
	<path class="st1" d="M117.3,64h15.3V15.4H120V8.4c6.6-1.2,11.2-2.8,15.2-5.3h8.3V64h13.7v9h-39.9V64z"/>
	<path class="st1" d="M382.4,37.8c0-24.2,8.8-36,22.6-36s22.6,11.9,22.6,36c0,24.3-8.9,36.5-22.6,36.5S382.4,62.1,382.4,37.8z
		 M417.1,37.8c0-20-5-27.4-12.2-27.4s-12.2,7.3-12.2,27.4c0,20.2,5,27.9,12.2,27.9S417.1,58,417.1,37.8z"/>
	<path class="st1" d="M436.2,66.7c20.6-18.2,31.3-31.8,31.3-43.3c0-7.6-4.1-12.8-11.9-12.8c-5.5,0-10.1,3.5-13.8,7.8l-6.2-6.1
		c6-6.5,12.2-10.5,21.3-10.5c12.8,0,21.1,8.4,21.1,21c0,13.5-10.7,27.5-25.6,41.6c3.6-0.4,8-0.7,11.4-0.7h17.5v9.3h-45.1V66.7z"/>
	<path class="st1" d="M721.2,37.8c0-24.2,8.8-36,22.6-36s22.6,11.9,22.6,36c0,24.3-8.9,36.5-22.6,36.5S721.2,62.1,721.2,37.8z
		 M755.9,37.8c0-20-5-27.4-12.2-27.4s-12.2,7.3-12.2,27.4c0,20.2,5,27.9,12.2,27.9S756,58,755.9,37.8L755.9,37.8z"/>
	<path class="st1" d="M773.5,64.7l5.3-7c4.1,4.2,9.3,7.7,16.5,7.7c7.9,0,13.3-4.4,13.3-11.6c0-7.8-5-12.8-20.7-12.8v-8.1
		c13.8,0,18.3-5.2,18.3-12.3c0-6.2-4.1-10.1-10.7-10.2c-5.4,0.1-10,2.8-14,6.6l-5.7-6.8c5.5-4.9,12-8.5,20-8.5
		c12.5,0,21.4,6.5,21.4,18.1c0,8.1-4.7,13.7-12.1,16.4v0.5c8.1,2,14.5,8.1,14.5,17.5c0,12.6-10.5,20-23.4,20
		C785.3,74.3,778.2,69.9,773.5,64.7z"/>
	<path class="st1" d="M1037.1,37.5c0-24.2,8.8-36,22.6-36s22.6,11.9,22.7,36c0,24.3-8.9,36.5-22.6,36.5S1037.1,61.9,1037.1,37.5z
		 M1071.9,37.5c0-20-5.1-27.4-12.2-27.4s-12.2,7.3-12.1,27.4c0,20.2,5.1,27.8,12.2,27.8S1071.9,57.8,1071.9,37.5L1071.9,37.5z"/>
	<path class="st1" d="M1138.1,53.8h-8.9v18.8h-10.3V53.8h-30.2v-7.2l27.8-43.8h12.6l0.1,42.7h8.9L1138.1,53.8z M1118.9,45.4V27.1
		c0-3.8,0.4-9.7,0.6-13.5h-0.4c-1.7,3.5-3.6,7.1-5.6,10.8l-13.8,21.1L1118.9,45.4z"/>
	<circle class="st2" cx="269.5" cy="97.2" r="20"/>
	<path class="st0" d="M268,98.3h-8.1v-2.7h8.1v-8.8h3v8.8h8.1v2.7H271v8.7h-3V98.3z"/>
	<circle class="st2" cx="599.5" cy="97.2" r="20"/>
	<path class="st0" d="M598,98.3h-8.1v-2.7h8.1v-8.8h3v8.8h8.1v2.7H601v8.7h-3V98.3z"/>
	<circle class="st2" cx="938.5" cy="97.2" r="20"/>
	<path class="st0" d="M937,98.3h-8.1v-2.7h8.1v-8.8h3v8.8h8.1v2.7H940v8.7h-3V98.3z"/>
	<path class="st3" d="M90.4,103.3v5.8c0,1.4-0.2,2.1-1,2.6c-1.1,0.5-2.3,0.7-3.4,0.6c-0.1-0.9-0.4-1.9-0.8-2.7c0.9,0,1.8,0,2.1,0
		s0.4-0.1,0.4-0.4v-5l-2.3,0.7l-0.7-2.9c0.8-0.2,1.8-0.4,3-0.7v-4.4H85V94h2.7v-4.7h2.7V94h2.5v2.8h-2.5v3.7l2.2-0.6l0.4,2.7
		L90.4,103.3z M101.8,109.6c0.6,0,1.1,0.1,1.8,0.1c0.8,0,3.9,0,5,0c-0.4,0.8-0.7,1.7-0.8,2.6h-4.3c-3.3,0-5.8-0.6-7.5-3.6
		c-0.6,1.5-1.5,2.8-2.6,3.9c-0.7-0.7-1.4-1.3-2.2-1.8c2.1-1.7,3.1-4.4,3.5-7.8l2.7,0.3c-0.1,0.8-0.3,1.7-0.5,2.5
		c0.4,1.2,1.2,2.2,2.2,2.9v-6.5h-5.9v-2.4h14.8v2.4h-6.1v2.2h4.8v2.3h-4.8V109.6z M106.6,98.6H94.3v-8.6h12.3L106.6,98.6z
		 M103.8,92.1h-6.7v1.2h6.7L103.8,92.1z M103.8,95.2h-6.7v1.3h6.7L103.8,95.2z"/>
	<path class="st3" d="M125.3,107c2.6,1.4,5.4,2.4,8.3,2.8c-0.7,0.8-1.4,1.6-1.9,2.5c-3.2-0.8-6.1-2.2-8.7-4.2v4.4h-3v-4.3
		c-2.5,2-5.4,3.4-8.5,4.1c-0.5-0.9-1.1-1.7-1.8-2.4c2.9-0.5,5.7-1.5,8.2-3h-7.6v-2.4h9.7V103c-2.5,0.5-5.1,0.9-7.7,1
		c-0.2-0.8-0.5-1.6-1-2.3c2.6-0.1,5.2-0.4,7.8-0.9c-0.8-0.2-1.6-0.4-2.3-0.5l-0.3,0.4l-2.8-0.8c0.6-0.7,1.2-1.4,2-2.3h-4.9v-2.3h6.7
		c0.5-0.7,1-1.3,1.3-1.8h-5.1v1.4h-2.8V91h9.2v-1.7h3V91h9.2v3.8h-2.9v-1.4h-10l2.3,0.7c-0.3,0.4-0.6,0.8-0.8,1.2h11.6v2.3h-4.4
		c-0.4,1-1.1,2-1.9,2.7c2,0.6,3.9,1.2,5.3,1.7l-1.8,2.1c-2-0.8-4.1-1.5-6.2-2.1c-0.9,0.4-1.8,0.7-2.8,0.9h2.3v1.7h10v2.5H125.3z
		 M118.4,98.4c1.4,0.3,3.1,0.6,4.7,1c0.8-0.5,1.4-1.1,1.9-1.9h-5.8L118.4,98.4z"/>
	<path class="st3" d="M766.4,110.1c1,0,1.2-0.4,1.3-2.6c0.7,0.5,1.6,0.8,2.4,1c-0.3,3.1-1.1,4.1-3.5,4.1h-4.4c-3,0-3.8-0.8-3.8-3.7
		v-4.8l-1,0.5l-1-2.4c-0.1,6.1-0.3,8.5-0.8,9.3c-0.4,0.6-0.9,0.9-1.6,1c-0.9,0.1-1.7,0.2-2.6,0.1c-0.1-0.9-0.3-1.8-0.7-2.7
		c0.6,0.1,1.2,0.1,1.8,0.1c0.3,0,0.6-0.1,0.7-0.4c0.3-0.5,0.5-2.6,0.6-8.5h-2c-0.3,4.5-1.2,8.5-3.2,11.4c-0.6-0.8-1.3-1.5-2.1-2.1
		c2.5-3.4,2.7-8.9,2.8-14.7h-2.4v-2.7h3.8v-3.8h2.8v3.8h3.9V95c1.1-1.8,1.8-3.7,2.2-5.7l2.9,0.6c-0.2,0.9-0.5,1.8-0.8,2.6h7.8v2.7
		h-9c-0.4,0.8-0.9,1.7-1.4,2.4h1.8v2.4l1.3-0.6v-3.6h2.5v2.4l1.8-0.8l0.1-0.1l0.5-0.3l1.8,0.7l-0.1,0.4c0,3.6,0,6.1-0.1,6.8
		c0,0.7-0.4,1.4-1.1,1.7c-0.6,0.2-1.3,0.3-2,0.3c-0.1-0.7-0.3-1.5-0.5-2.2c0.3,0,0.7,0,0.8,0s0.3,0,0.3-0.4s0-1.6,0.1-4L765,101v7
		h-2.5v-5.8l-1.3,0.6v6c0,1,0.2,1.2,1.4,1.2L766.4,110.1z M758.5,101.2v-2.6l-0.2,0.2c-0.7-0.8-1.4-1.5-2.2-2.1
		c0.3-0.3,0.6-0.6,0.8-0.9h-4.8c0,0.9,0,1.8-0.1,2.7h4.5v1.1v2.5L758.5,101.2z"/>
	<path class="st3" d="M794.8,107.9v3h-22.7v-3h9.5V95h-8.2v-3.1h20V95H785v12.9L794.8,107.9z"/>
	<path class="st3" d="M1035.2,92.1c-0.4,0.7-0.7,1.5-1,2.2c-0.9,2.4-2,4.7-3.4,6.8c2.1,1.7,4.1,3.5,6,5.5l-2.6,2.9
		c-1.7-2-3.5-3.8-5.5-5.5c-2.6,3.2-5.7,5.8-9.3,7.7l-2.9-2.6c3.7-1.7,6.9-4.2,9.5-7.4c-2.1-1.7-4.4-3.3-6.7-4.7l2.2-2.6
		c2,1.2,4.6,3,6.6,4.5c1.2-1.9,2.1-3.8,2.8-5.9c0.3-0.8,0.5-1.5,0.6-2.3L1035.2,92.1z"/>
	<path class="st3" d="M1051.5,104.8c3.9-2.3,7.1-5.7,9.1-9.7l2,3.5c-2.3,3.8-5.4,7-9.2,9.2c-2.9,1.7-6,2.9-9.3,3.5l-2.1-3.3
		C1045.3,107.6,1048.6,106.5,1051.5,104.8z M1051.5,96.7l-2.5,2.6c-1.9-2-4-3.8-6.2-5.4l2.3-2.5C1047.4,93,1049.5,94.8,1051.5,96.7z
		"/>
	<path class="st3" d="M1084.9,97.8c0.8,0,1.5-0.1,2.3-0.2v3.2c-0.6,0-1.6-0.1-2.3-0.1h-6c-0.1,2.2-0.6,4.4-1.6,6.4
		c-1.2,2.1-2.9,3.7-5,4.8l-2.9-2.1c1.8-0.7,3.4-2,4.5-3.6c1-1.7,1.5-3.6,1.6-5.5h-6.9c-0.7,0-1.7,0.1-2.4,0.1v-3.3
		c0.8,0.1,1.6,0.1,2.4,0.2H1084.9z M1071.8,94.4c-0.9,0-1.9,0-2.7,0.1v-3.2c0.9,0.1,1.8,0.2,2.7,0.2h10c0.9,0,1.8-0.1,2.7-0.2v3.2
		c-0.9,0-1.8-0.1-2.7-0.1H1071.8z"/>
	<path class="st3" d="M1109.6,96.3c1.2,0,2.2-0.1,2.7-0.2v3.4c-0.5,0-1.8-0.1-2.8-0.1h-5.6c-0.2,5-1.7,9.1-7.1,12.3l-3.1-2.3
		c4.1-1.6,6.8-5.6,6.8-10h-6.4c-1.1,0-2.1,0.1-2.9,0.1v-3.5c0.9,0.1,1.8,0.2,2.8,0.2h6.5v-2.8c0-1-0.1-2-0.3-2.9h4
		c-0.1,1-0.2,2-0.2,3v2.7L1109.6,96.3z"/>
	<path class="st3" d="M1126.5,104.8c3.9-2.3,7.1-5.7,9.1-9.7l2,3.5c-2.3,3.8-5.4,7-9.2,9.2c-2.9,1.7-6,2.9-9.3,3.5l-2.1-3.3
		C1120.3,107.6,1123.6,106.5,1126.5,104.8z M1126.5,96.7l-2.5,2.6c-1.9-2-4-3.8-6.2-5.4l2.3-2.5C1122.4,93,1124.5,94.8,1126.5,96.7z
		"/>
	<path class="st3" d="M1159.9,93.5c-0.3,0.5-0.6,1-0.9,1.6c-1.1,2.4-2.4,4.7-3.9,6.9c2.5,2.2,4.8,4.6,7,7.2l-2.8,2.5
		c-1.9-2.5-4-4.9-6.3-7.1c-2.7,2.9-5.9,5.2-9.4,7l-2.6-2.7c3.9-1.6,7.4-4,10.2-7.2c1.6-1.8,2.9-3.9,3.7-6.1h-8.5c-1,0-2.4,0.2-3,0.2
		v-3.5c1,0.1,2,0.2,3,0.2h8.8c0.9,0,1.8-0.1,2.6-0.3L1159.9,93.5z"/>
	<path class="st3" d="M417.7,95.8h-9.8v-2.3h9.8V95.8z M430.1,100.6c-0.7,2.7-2,5.2-3.9,7.3c1.6,1,3.3,1.7,5.1,2.2
		c-0.7,0.8-1.4,1.6-1.9,2.6c-2-0.6-3.8-1.5-5.5-2.7c-1.8,1.2-3.7,2.1-5.7,2.7c-0.4-0.9-0.9-1.8-1.5-2.6v1.3h-5.2v1H409v-8.5h7.8v6.2
		c1.8-0.4,3.5-1.2,5-2.2c-1.2-1.3-2.1-2.7-2.9-4.3l2.5-0.8H418V100h0.9c-0.6-0.7-1.3-1.3-2.1-1.8v1h-7.7v-2.3h7.7v1.2
		c1.7-1.1,2.6-3.1,2.4-5.1v-3h8.4v5.6c0,0.7,0,0.8,0.3,0.8h0.6c0.3,0,0.4-0.3,0.5-2.5c0.8,0.5,1.6,0.8,2.4,1.1c-0.2,3.1-0.9,4-2.6,4
		h-1.5c-2,0-2.6-0.8-2.6-3.2v-3H422V93c0,2.3-0.5,5.2-3.1,7h8.8l0.5-0.1L430.1,100.6z M416.8,102.5h-7.7v-2.2h7.7V102.5z
		 M416.8,92.3h-7.5v-2.2h7.5V92.3z M414.2,106.1h-2.6v2.9h2.6V106.1z M421.6,102.7c0.6,1.2,1.4,2.4,2.4,3.3c1-1,1.8-2.1,2.3-3.4
		L421.6,102.7z"/>
	<path class="st3" d="M443.1,95.8h-10.2v-2.3h10.2L443.1,95.8z M442,111.3h-5.5v1H434v-8.5h8V111.3z M434,96.9h8v2.3h-8V96.9z
		 M434,100.3h8v2.2h-8V100.3z M442.1,92.3h-7.9v-2.2h7.9V92.3z M436.5,106.1v2.9h2.9v-2.9L436.5,106.1z M456.4,100.6h-5.2v12.1h-3
		v-12.1H443v-2.9h5.2v-8.2h3v8.2h5.2L456.4,100.6z"/>
</g>
<rect x="183" y="47" class="st0" width="3.2" height="99.7"/>
<rect x="220.9" y="82.5" class="st0" width="2.7" height="27.8"/>
<rect x="519.5" y="47" class="st0" width="5.6" height="99.8"/>
<rect x="559.6" y="83.4" class="st0" width="2.5" height="27"/>
<rect x="300.2" y="82.8" class="st0" width="1.9" height="27.7"/>
<rect x="638" y="83.3" class="st0" width="4.1" height="26.9"/>
<rect x="854.5" y="47" class="st0" width="8.4" height="99.8"/>
<rect x="896.5" y="83.1" class="st0" width="3.5" height="27"/>
<rect x="1010.8" y="46.8" class="st0" width="5.7" height="99.8"/>
<rect x="976.3" y="82.7" class="st0" width="2" height="27.9"/>
</svg>
