<svg xmlns="http://www.w3.org/2000/svg" viewBox="0 0 960 552.27"><defs><style>.cls-1{fill:#ddc392;}.cls-2,.cls-4{fill:#b68018;}.cls-3,.cls-5,.cls-7{fill:#fff;}.cls-4,.cls-7{font-size:18px;font-family:NotoSansJP-Bold-90ms-RKSJ-H, Noto Sans JP;}.cls-5{font-size:40px;stroke:#ed6a02;stroke-width:2px;font-family:NotoSansJP-Medium-90ms-RKSJ-H, Noto Sans JP;}.cls-5,.cls-9{stroke-miterlimit:10;}.cls-6{fill:#ff9d18;}.cls-8{fill:#ff7761;}.cls-9{fill:none;stroke:#ff7761;}</style></defs><title>Asset 2</title><g id="Layer_2" data-name="Layer 2"><g id="レイヤー_1" data-name="レイヤー 1"><polygon class="cls-1" points="640.85 137.72 640.85 107.72 658.1 122.72 640.85 137.72"/><polygon class="cls-2" points="633.1 109.92 647.82 122.72 633.1 135.53 633.1 109.92"/><path class="cls-3" d="M634.1,112.11l12.2,10.61-12.2,10.61V112.11m-2-4.39v30l17.24-15-17.24-15Z"/><rect class="cls-3" x="1" y="74" width="958" height="58" rx="11.17"/><path class="cls-2" d="M947.83,75A10.18,10.18,0,0,1,958,85.17v35.66A10.18,10.18,0,0,1,947.83,131H12.17A10.18,10.18,0,0,1,2,120.83V85.17A10.18,10.18,0,0,1,12.17,75H947.83m0-2H12.17A12.17,12.17,0,0,0,0,85.17v35.66A12.17,12.17,0,0,0,12.17,133H947.83A12.17,12.17,0,0,0,960,120.83V85.17A12.17,12.17,0,0,0,947.83,73Z"/><text class="cls-4" transform="translate(312.09 109.5)">各関連業者との入念な打ち合わせと現場チェック</text><text class="cls-5" transform="translate(251.96 118.39) rotate(-0.08)">01</text><rect class="cls-3" x="1" y="156.75" width="958" height="58" rx="11.17"/><path class="cls-2" d="M947.83,157.75A10.18,10.18,0,0,1,958,167.92v35.66a10.18,10.18,0,0,1-10.17,10.17H12.17A10.18,10.18,0,0,1,2,203.58V167.92a10.18,10.18,0,0,1,10.17-10.17H947.83m0-2H12.17A12.17,12.17,0,0,0,0,167.92v35.66a12.17,12.17,0,0,0,12.17,12.17H947.83A12.17,12.17,0,0,0,960,203.58V167.92a12.17,12.17,0,0,0-12.17-12.17Z"/><text class="cls-4" transform="translate(312.09 192.25)">無理のない施工計画から工事工程表の作成</text><text class="cls-5" transform="translate(251.96 201.14) rotate(-0.08)">02</text><rect class="cls-3" x="31" y="299.5" width="898" height="58" rx="10.79"/><path class="cls-2" d="M918.21,300.5a9.8,9.8,0,0,1,9.79,9.79v36.42a9.8,9.8,0,0,1-9.79,9.79H41.79A9.8,9.8,0,0,1,32,346.71V310.29a9.8,9.8,0,0,1,9.79-9.79H918.21m0-2H41.79A11.79,11.79,0,0,0,30,310.29v36.42A11.79,11.79,0,0,0,41.79,358.5H918.21A11.79,11.79,0,0,0,930,346.71V310.29a11.79,11.79,0,0,0-11.79-11.79Z"/><text class="cls-4" transform="translate(312.09 335)">現場施工で忘れてはならない品質と安全管理を常に確認</text><text class="cls-5" transform="translate(251.96 343.89) rotate(-0.08)">03</text><rect class="cls-3" x="31" y="382.25" width="898" height="58" rx="10.79"/><path class="cls-2" d="M918.21,383.25A9.8,9.8,0,0,1,928,393v36.42a9.8,9.8,0,0,1-9.79,9.79H41.79A9.8,9.8,0,0,1,32,429.46V393a9.8,9.8,0,0,1,9.79-9.79H918.21m0-2H41.79A11.79,11.79,0,0,0,30,393v36.42a11.79,11.79,0,0,0,11.79,11.79H918.21A11.79,11.79,0,0,0,930,429.46V393a11.79,11.79,0,0,0-11.79-11.79Z"/><text class="cls-4" transform="translate(312.09 417.75)">各厨房機器の試運転と調整</text><text class="cls-5" transform="translate(251.96 426.64) rotate(-0.08)">04</text><rect class="cls-3" x="31" y="465" width="898" height="58" rx="10.79"/><path class="cls-2" d="M918.21,466a9.8,9.8,0,0,1,9.79,9.79v36.42a9.8,9.8,0,0,1-9.79,9.79H41.79A9.8,9.8,0,0,1,32,512.21V475.79A9.8,9.8,0,0,1,41.79,466H918.21m0-2H41.79A11.79,11.79,0,0,0,30,475.79v36.42A11.79,11.79,0,0,0,41.79,524H918.21A11.79,11.79,0,0,0,930,512.21V475.79A11.79,11.79,0,0,0,918.21,464Z"/><text class="cls-4" transform="translate(312.09 500.5)">施工検査</text><text class="cls-5" transform="translate(251.96 509.39) rotate(-0.08)">05</text><path class="cls-6" d="M941.62,260A16.4,16.4,0,0,1,958,276.38V525.62A16.4,16.4,0,0,1,941.62,542H18.38A16.4,16.4,0,0,1,2,525.62V276.38A16.4,16.4,0,0,1,18.38,260H941.62m0-2H18.38A18.38,18.38,0,0,0,0,276.38V525.62A18.38,18.38,0,0,0,18.38,544H941.62A18.38,18.38,0,0,0,960,525.62V276.38A18.38,18.38,0,0,0,941.62,258Z"/><rect class="cls-6" x="234.5" y="237" width="491" height="40" rx="20"/><text class="cls-7" transform="translate(336 265)">厨房設備施工責任者による工程管理</text><circle class="cls-8" cx="139" cy="30" r="30"/><text class="cls-7" transform="translate(113.09 29.5)">施工の<tspan x="9" y="20">流れ</tspan></text><line class="cls-9" x1="139" y1="60" x2="139" y2="494"/><circle class="cls-8" cx="139" cy="494" r="6"/><circle class="cls-8" cx="139" cy="411.25" r="6"/><circle class="cls-8" cx="139" cy="328.5" r="6"/><circle class="cls-8" cx="139" cy="185.75" r="6"/><circle class="cls-8" cx="139" cy="103" r="6"/></g></g></svg>