<svg xmlns="http://www.w3.org/2000/svg" viewBox="0 0 823 380"><defs><style>.cls-1{fill:#91d8ea;}.cls-2{fill:#a6dfee;}.cls-3,.cls-6,.cls-8{fill:#fff;}.cls-3,.cls-4{stroke:#d36100;}.cls-3,.cls-4,.cls-8,.cls-9{stroke-miterlimit:10;}.cls-4,.cls-9{fill:none;}.cls-5{fill:#d36100;}.cls-7{fill:#b68018;}.cls-8{stroke:#ed6a02;}.cls-8,.cls-9{stroke-width:2px;}.cls-9{stroke:#b68018;stroke-dasharray:6;}</style></defs><title>Asset 8</title><g id="Layer_2" data-name="Layer 2"><g id="レイヤー_1" data-name="レイヤー 1"><path class="cls-1" d="M403.5,20A170,170,0,0,1,523.71,310.21,170,170,0,0,1,283.29,69.79,168.88,168.88,0,0,1,403.5,20m0-3a173,173,0,1,0,173,173,173,173,0,0,0-173-173Z"/><path class="cls-2" d="M403.5,1a189.06,189.06,0,0,1,73.57,363.15A189.05,189.05,0,0,1,329.93,15.85,187.9,187.9,0,0,1,403.5,1m0-1c-104.93,0-190,85.07-190,190s85.07,190,190,190,190-85.07,190-190S508.43,0,403.5,0Z"/><circle class="cls-3" cx="490.14" cy="217.09" r="23.18"/><circle class="cls-3" cx="314.86" cy="216.49" r="18.99"/><polyline class="cls-4" points="522.32 56.2 488.34 138.54 580.28 138.54"/><path class="cls-4" d="M516.71,162.09a12.19,12.19,0,0,1,10.4-18.55"/><path class="cls-4" d="M507.85,174.66a12.5,12.5,0,0,1-.12-1.74,12.2,12.2,0,0,1,8.53-11.64"/><path class="cls-4" d="M476.38,221.63a12,12,0,0,1-.71-1.59,12.22,12.22,0,0,1,4.1-13.84"/><path class="cls-4" d="M504,212.64a12.17,12.17,0,0,1-3.4,15.43"/><path class="cls-4" d="M497.16,188.88a12.37,12.37,0,0,1-.23-2.37,12.2,12.2,0,0,1,12.2-12.19"/><path class="cls-4" d="M526.13,169.32a10.79,10.79,0,0,1,.21,2.14,11,11,0,0,1-11,11"/><path class="cls-4" d="M566.56,145.7a15.22,15.22,0,0,1-.76,2.81,14.85,14.85,0,0,1-19.15,8.65"/><path class="cls-4" d="M546.49,155.49a16.34,16.34,0,0,1-20.19,15.1"/><path class="cls-4" d="M515.21,182.36a12.58,12.58,0,0,1-13.88,13.69"/><path class="cls-4" d="M495.34,195.3a12.08,12.08,0,0,1,1.82-6.42"/><path class="cls-4" d="M491.26,203.32a5.4,5.4,0,0,1,4.48-8.42"/><path class="cls-4" d="M501.2,195.09a5.4,5.4,0,0,1-5.26,7.95"/><circle class="cls-4" cx="460.16" cy="277.44" r="23.18"/><path class="cls-3" d="M437.43,272.85l-5.25,23.78s1.45,16.12,17.19,19.19c16.39,3.2,21.58-5.6,21.58-5.6l11.17-25.32"/><path class="cls-5" d="M482,284.29c1.77-12.23-7.51-23.34-19.8-24.7a22.38,22.38,0,0,0-24.7,19.8s-1,15.52,18,20.78a22.38,22.38,0,0,0,21.68-7S481.08,290.74,482,284.29Z"/><circle class="cls-3" cx="347.04" cy="179.51" r="17.59"/><path class="cls-4" d="M361.46,190.12c-5,10.83-16.15,16.34-25,12.29s-10.8-18.46-5.83-29.29"/><circle class="cls-3" cx="277.09" cy="258.26" r="24.78"/><path class="cls-5" d="M479.75,213.89s-2.4-6.4,2-7.6,4.39-1.19,6.39-1.19,4-2.8,7.2-1.2,2.39,4.79.79,7.19-3.59,6-9.19,6S479.35,216.29,479.75,213.89Z"/><path class="cls-5" d="M477.35,226.68s0-4.4,4.79-3.6,5.2,2.8,7.6,2.8,4,2,4,3.2a4.8,4.8,0,0,1-5.6,4.8C483.34,233.48,476.15,233.08,477.35,226.68Z"/><path class="cls-4" d="M493.74,220.28c.4-1.19,0-2.39,1.6-2.39s2,1.2,1.59,2-.4.8-1.59,1.2A1.24,1.24,0,0,1,493.74,220.28Z"/><path class="cls-4" d="M499.73,210.29s-.4-2,2-.8S499.73,210.29,499.73,210.29Z"/><circle class="cls-4" cx="486.94" cy="217.89" r="0.8"/><circle class="cls-4" cx="484.54" cy="217.49" r="0.4"/><circle class="cls-4" cx="483.34" cy="217.49" r="0.4"/><circle class="cls-4" cx="481.75" cy="217.49" r="0.4"/><circle class="cls-4" cx="479.35" cy="215.09" r="0.4"/><circle class="cls-4" cx="490.74" cy="217.29" r="0.6"/><circle class="cls-4" cx="487.14" cy="224.08" r="0.6"/><circle class="cls-4" cx="488.94" cy="225.08" r="0.4"/><circle class="cls-4" cx="491.74" cy="225.88" r="0.4"/><path class="cls-4" d="M422.59,206.69s14.39.8,21.18,3.2c0,0,5.2-5.19,8-4.79s2,2.79,2.39,2.39.4,7.2,4,8c0,0-2.8,2-4.79,2s-10.4,0-11.2-2.4c0,0-27.58,2-27.58-2s4-18,4-18"/><path class="cls-4" d="M427.78,196.7a37.24,37.24,0,0,0-3.19,8"/><line class="cls-4" x1="454.96" y1="207.49" x2="468.36" y2="209.11"/><line class="cls-4" x1="456.74" y1="214.69" x2="466.96" y2="215.89"/><path class="cls-4" d="M448.23,206.29l-3.41-.56a1.92,1.92,0,0,0-2.05,1.11l-1,2.25"/><path class="cls-4" d="M428.58,169.12s6.4-3.2,11.59,2c6.4,6.39-8.79,22.78-8.79,22.78"/><path class="cls-4" d="M421,181.51l-5.2,12.39s6.4,2.4,8.8,1.2a6.87,6.87,0,0,1,5.19,0"/><path class="cls-4" d="M405.8,211.49s-.4-16.79,4-28.38,15.58-25.18,27.18-22,12.39,10.79,11.19,18.38-8.8,28-8.8,28"/><path class="cls-4" d="M407.4,213.89c.4.4,18.78,6.39,27.58,3.6"/><path class="cls-4" d="M405.8,217.09s18,7.59,29.18,4.39"/><line class="cls-4" x1="439.77" y1="217.09" x2="350.64" y2="341"/><path class="cls-4" d="M404.2,212.69s-11.19,6-12,9.59a8.2,8.2,0,0,0,.8,6l11.19-13.59Z"/><path class="cls-4" d="M405.8,220.28s-4.47,13.6,4.36,38"/><path class="cls-4" d="M404.2,217.89a37.09,37.09,0,0,0-4,24c2.4,13.59,4,24.38,4,24.38"/><line class="cls-4" x1="453.76" y1="200.7" x2="473.75" y2="170.32"/><line class="cls-4" x1="474.95" y1="168.32" x2="508.27" y2="169.32"/><path class="cls-5" d="M466.16,231.48a4.39,4.39,0,0,1,.8-5.2c2.39-2.4,2.39-2.8,2.39-2.8a32.34,32.34,0,0,1,0,6.4C469,231.88,466.16,231.48,466.16,231.48Z"/><path class="cls-5" d="M470.16,236.28A3.14,3.14,0,0,1,471,232c2.41-2,2.41-2.31,2.41-2.31a22,22,0,0,1,0,5.28C473,236.61,470.16,236.28,470.16,236.28Z"/><path class="cls-5" d="M475.7,239.88a2.71,2.71,0,0,1,.72-3.77c2.17-1.74,2.17-2,2.17-2a18.92,18.92,0,0,1,0,4.64C478.23,240.17,475.7,239.88,475.7,239.88Z"/><path class="cls-5" d="M481.24,242.68a3.34,3.34,0,0,1,.64-4c1.92-1.86,1.92-2.17,1.92-2.17a24.37,24.37,0,0,1,0,5C483.48,243,481.24,242.68,481.24,242.68Z"/><path class="cls-5" d="M488,243.48a3,3,0,0,1,.64-3.78c1.92-1.74,1.92-2,1.92-2a21.36,21.36,0,0,1,0,4.65C490.28,243.77,488,243.48,488,243.48Z"/><path class="cls-5" d="M432.18,309.42a4.38,4.38,0,0,1,.8-5.19c2.4-2.4,2.4-2.8,2.4-2.8a32.24,32.24,0,0,1,0,6.39C435,309.82,432.18,309.42,432.18,309.42Z"/><path class="cls-5" d="M436.18,314.22a3.14,3.14,0,0,1,.8-4.29c2.42-2,2.42-2.31,2.42-2.31a22,22,0,0,1,0,5.28C439,314.55,436.18,314.22,436.18,314.22Z"/><path class="cls-5" d="M441.72,317.83a2.74,2.74,0,0,1,.72-3.78c2.17-1.74,2.17-2,2.17-2a18.92,18.92,0,0,1,0,4.64C444.25,318.12,441.72,317.83,441.72,317.83Z"/><path class="cls-5" d="M447.27,320.62a3.32,3.32,0,0,1,.64-4c1.92-1.86,1.92-2.17,1.92-2.17a24.29,24.29,0,0,1,0,5C449.51,320.93,447.27,320.62,447.27,320.62Z"/><path class="cls-5" d="M454.06,321.42a3,3,0,0,1,.64-3.77c1.92-1.74,1.92-2,1.92-2a21.26,21.26,0,0,1,0,4.64C456.3,321.71,454.06,321.42,454.06,321.42Z"/><path class="cls-6" d="M461.76,271.85s.4-1.2,2.4-1.6.8-.8,2.4-1.2,3.19,0,3.19,1.6-.4,3.6-2,4S461.76,275.45,461.76,271.85Z"/><path class="cls-6" d="M461,286.24c.8-.8,2.8-1.6,4,0s2.4,4,1.6,4.4-1.2.79-2.8,0-3.6.4-3.6-.8A16.48,16.48,0,0,1,461,286.24Z"/><path class="cls-6" d="M444.57,280.64c-.4.8,1.6,3.2,3.6,2.8s2-2.8,2-4.4-4.8-1.6-4.8-.8A8.06,8.06,0,0,1,444.57,280.64Z"/><path class="cls-5" d="M294.68,128a40.86,40.86,0,0,0,0,25.18l21.58-20.78S309.07,127.15,294.68,128Z"/><line class="cls-4" x1="275.09" y1="89.58" x2="294.68" y2="127.95"/><path class="cls-4" d="M299.62,148.37a7.54,7.54,0,0,0,9.45.36c5.19-3.59,1.59-11,1.59-11"/><path class="cls-5" d="M246.31,169.52a40.86,40.86,0,0,0,0,25.18l21.59-20.78S260.7,168.72,246.31,169.52Z"/><line class="cls-4" x1="226.72" y1="131.15" x2="246.31" y2="169.52"/><path class="cls-4" d="M251.25,189.94a7.55,7.55,0,0,0,9.45.37c5.2-3.6,1.6-11,1.6-11"/><polyline class="cls-4" points="288.68 307.42 395.41 167.52 395.41 212.69"/><path class="cls-4" d="M332.25,187.51s-.4-.8.8-2,2.4-2.8,2-2.8-5.2-1.6-3.6-4,2.8-2,3.6-3.19.8-6,4-6,3.59,3.6,5.19,3.6,2-3.2,4.8-2.4,2.8,2.4,3.2,3.6.8,1.2,2.39.8,3.6,0,3.2,2-1.6,2.79-.8,4.39,2.8,0,2.8,2.4-2.4,2.8-1.6,4.4l.8,1.6"/><path class="cls-4" d="M337.85,179.91s6.39-5.59,7.59-1.6-1.6,3.2-1.2,4.8,5.6-1.2,7.2-.4,2,2,1.2,4-1.6,2.4-.4,3.2,3.19,2.39-1.6,5.59"/><path class="cls-5" d="M351,171.12l18.38-20.79,1.6,1.2-16.7,23.66s-1.68.73-2.08-.87a7.69,7.69,0,0,0-1.74-3Z"/><line class="cls-4" x1="357.03" y1="181.51" x2="371.02" y2="151.53"/><line class="cls-4" x1="356.63" y1="174.72" x2="364.63" y2="159.53"/><path class="cls-4" d="M304.67,212.69s-3.2-3.2-2.4-6,3.6-1.19,4.8-2,1.2-1.2,2-2,1.6-.8,2-.4,2-2,3.2-1.2,0,1.6,1.2,2,2-2,3.2-.4a3.85,3.85,0,0,1,.47,4.59c-.87,1.4-4.07,1.4-5.67,2.6s-4.79,3.6-6,4.4S304.67,212.69,304.67,212.69Z"/><path class="cls-4" d="M324.66,211.49s2.79-.4,2.79,3.6-1.2,8.39-4.39,8.39-1.2-1.6-.4-3.2A28.33,28.33,0,0,0,324.66,211.49Z"/><path class="cls-4" d="M328.37,212s2.83,0,2.21,4-2.48,8.11-5.64,7.62-.93-1.77.1-3.22A28.49,28.49,0,0,0,328.37,212Z"/><circle class="cls-5" cx="325.65" cy="206.09" r="2.6"/><circle class="cls-5" cx="321.66" cy="206.09" r="2.6"/><path class="cls-3" d="M313.46,223.48a9.91,9.91,0,0,1-8,2.8s-8-6.79-2-15.19c4.67-6.54,11.77-5,14.68-4.35a2,2,0,0,1,1.56,1.77C320,211.11,319.68,217,313.46,223.48Z"/><path class="cls-5" d="M309.47,217.49s-3.2.8-4-1.2-.8-3.6,1.2-5.6,5.19-2,6.39,0,2,5.2,4,4.8,4-1.2,4.4.4,0,3.2-1.6,5.19-.4,4.4-3.2,4.8-3.6,0-3.2-3.6S312.26,217.09,309.47,217.49Z"/><line class="cls-4" x1="369.42" y1="160.33" x2="395.41" y2="167.52"/><line class="cls-4" x1="359.83" y1="157.13" x2="340.24" y2="151.53"/><path class="cls-4" d="M333.85,162.73s-5.2-16.39-4.4-20,5.2-4.4,6-3.6,4.79,18,4.79,18S340.24,163.52,333.85,162.73Z"/><polyline class="cls-4" points="381.42 163.13 378.62 68.39 454.96 68.39 454.96 120.75"/><line class="cls-4" x1="410.2" y1="176.72" x2="395.01" y2="176.72"/><polyline class="cls-4" points="453.76 159.53 453.76 176.72 450.97 176.72"/><polygon class="cls-3" points="381.42 101.57 452.17 101.57 441.37 90.78 391.41 90.78 381.42 101.57"/><polyline class="cls-3" points="446.17 121.15 441.37 116.36 391.41 116.36 381.42 127.15 438.38 127.15"/><line class="cls-4" x1="380.58" y1="134.95" x2="434.98" y2="134.95"/><line class="cls-4" x1="381.04" y1="150.24" x2="434.98" y2="150.24"/><rect class="cls-5" x="407.4" y="137.54" width="20.39" height="2.8"/><rect class="cls-5" x="407.4" y="152.73" width="20.39" height="2.8"/><polyline class="cls-3" points="377.02 68.39 341.84 56 349.84 126.62 379.42 133.82"/><polyline class="cls-4" points="459.36 121.55 459.36 68.39 515.32 68.39"/><polyline class="cls-4" points="514.92 72.39 463.76 72.39 463.76 94.77 503.73 94.77"/><polyline class="cls-5" points="508.93 81.18 487.34 81.18 487.34 87.98 506.53 87.98"/><circle class="cls-4" cx="468.35" cy="75.39" r="1.2"/><line class="cls-4" x1="511.72" y1="76.59" x2="468.35" y2="76.59"/><line class="cls-4" x1="512.32" y1="74.19" x2="468.94" y2="74.19"/><line class="cls-4" x1="465.36" y1="73.19" x2="467.16" y2="74.19"/><line class="cls-4" x1="465.36" y1="74.99" x2="467.16" y2="76.09"/><polyline class="cls-4" points="503.73 98.77 463.76 98.77 463.76 121.15 492.54 121.15"/><polyline class="cls-5" points="497.73 107.56 487.34 107.56 487.34 114.36 495.34 114.36"/><circle class="cls-4" cx="468.35" cy="101.77" r="1.2"/><line class="cls-4" x1="500.53" y1="102.97" x2="468.35" y2="102.97"/><line class="cls-4" x1="501.13" y1="100.57" x2="468.94" y2="100.57"/><line class="cls-4" x1="465.36" y1="99.57" x2="467.16" y2="100.57"/><line class="cls-4" x1="465.36" y1="101.37" x2="467.16" y2="102.47"/><line class="cls-4" x1="463.76" y1="124.35" x2="490.54" y2="124.35"/><polyline class="cls-4" points="459.36 159.53 459.36 175.92 468.15 175.92"/><line class="cls-4" x1="331.05" y1="139.54" x2="330.65" y2="130.35"/><line class="cls-4" x1="333.45" y1="138.74" x2="331.85" y2="129.55"/><polygon class="cls-5" points="329.05 130.35 332.65 128.75 331.85 127.15 329.05 127.95 329.05 130.35"/><path class="cls-4" d="M323.86,173.92a7.09,7.09,0,0,1-4,6c-4,2-5.6-.8-5.6-.8l-6.39-17.18s-2-4.4,3.59-8.4,8.4-.8,8.6,1.4l3.6,18"/><circle class="cls-5" cx="315.46" cy="153.53" r="0.4"/><circle class="cls-5" cx="317.66" cy="154.53" r="0.4"/><circle class="cls-5" cx="316.46" cy="157.33" r="0.4"/><circle class="cls-5" cx="315.26" cy="155.73" r="0.4"/><circle class="cls-5" cx="312.86" cy="154.53" r="0.4"/><circle class="cls-5" cx="310.87" cy="156.13" r="0.4"/><circle class="cls-5" cx="312.86" cy="157.33" r="0.4"/><circle class="cls-5" cx="314.06" cy="159.33" r="0.4"/><circle class="cls-5" cx="311.26" cy="160.13" r="0.4"/><circle class="cls-5" cx="309.67" cy="158.53" r="0.4"/><path class="cls-4" d="M308.67,161.93a4.32,4.32,0,0,0,4.79,0c2.8-1.6,5.6-4,6-6"/><path class="cls-4" d="M301.47,163.92l7.6,20a5.28,5.28,0,0,1-2.4,7.2c-4.8,2.79-7.2.79-7.2.79l-9.19-16.38s-3.2-3.2,2.4-8.8S301.07,163.12,301.47,163.92Z"/><path class="cls-4" d="M290.28,174.32s1.2,1.6,4,0,7.59-6.8,6.79-9.6"/><line class="cls-4" x1="330.65" y1="155.93" x2="322.26" y2="163.12"/><line class="cls-4" x1="311.88" y1="173.18" x2="306.73" y2="177.76"/><line class="cls-4" x1="295.88" y1="187.11" x2="239.12" y2="243.87"/><path class="cls-4" d="M465.76,143.54s-2.4,16-16,14c0,0-7.2-1.6-7.2-8"/><path class="cls-4" d="M443.77,143.14s-1.6-2-2.8,0-.8,3.6.8,5.2"/><line class="cls-4" x1="443.37" y1="162.73" x2="447.37" y2="157.53"/><line class="cls-4" x1="439.77" y1="150.33" x2="432.58" y2="158.73"/><path class="cls-5" d="M442.57,141.14l7.6-3.2,17.19,5.2a23.74,23.74,0,0,0,.79-8c-.4-4-6-12.79-13.59-12.39s-16.38,4.4-17.18,9.6,0,8,0,8l2,2,.4-5.2s.8-1.2.8,0a34.29,34.29,0,0,1-1.2,5.2Z"/><path class="cls-5" d="M439,142.74a6.61,6.61,0,0,0-7.6,4.8A6.63,6.63,0,0,0,439,142.74Z"/><path class="cls-5" d="M437.38,141.54s-4.4-5.2-8.8-4.8C428.58,136.74,430.18,143.14,437.38,141.54Z"/><path class="cls-3" d="M392.61,91.18s.4-4.8,3.2-6,7.19-.8,10-1.2,7.19-5.2,10.79-4.8,5.6,3.6,6,6-.4,6-4.8,8-8.79,1.2-12,2.8-11.19,1.6-12,0A19.6,19.6,0,0,1,392.61,91.18Z"/><path class="cls-4" d="M416.59,81.18s-2,1.2-1.2,5.2,2,4.8,3.6,4.8"/><circle class="cls-3" cx="436.58" cy="88.78" r="6"/><path class="cls-4" d="M434.18,84.78s-.4,1.2,2.4,1.2,2.4-1.2,2.4-1.2"/><line class="cls-4" x1="436.58" y1="79.58" x2="436.58" y2="85.98"/><path class="cls-7" d="M595.29,280.48c0-3.28,2.28-5.31,4.7-5.31,2.77,0,4.21,2,4.21,4.82a4.57,4.57,0,0,1-.13,1.21h-6.21a2.66,2.66,0,0,0,2.79,2.52,4.15,4.15,0,0,0,2.27-.7l.9,1.62a6.39,6.39,0,0,1-3.53,1.11C597.48,285.75,595.29,283.79,595.29,280.48Zm6.64-1c0-1.37-.61-2.23-1.91-2.23a2.27,2.27,0,0,0-2.19,2.23Z"/><path class="cls-7" d="M606.75,282v-4.46h-1.42v-2l1.55-.12.31-2.7h2.21v2.7h2.49v2.09H609.4V282c0,1.15.47,1.69,1.37,1.69a2.91,2.91,0,0,0,1-.21l.43,1.92a6.49,6.49,0,0,1-2.12.38C607.67,285.75,606.75,284.24,606.75,282Z"/><path class="cls-7" d="M613.31,280.48a5,5,0,0,1,5.15-5.31,4.4,4.4,0,0,1,2.93,1.11L620.13,278a2.29,2.29,0,0,0-1.55-.66c-1.53,0-2.57,1.24-2.57,3.15s1,3.11,2.5,3.11a3.12,3.12,0,0,0,2-.81l1,1.75a5,5,0,0,1-3.3,1.22C615.43,285.75,613.31,283.81,613.31,280.48Z"/><path class="cls-7" d="M625.15,283.36a1.86,1.86,0,1,1,1.86,1.8A1.8,1.8,0,0,1,625.15,283.36Z"/><path class="cls-6" d="M33,130.5a32,32,0,0,1,0-64H232a32,32,0,0,1,0,64Z"/><path class="cls-7" d="M232,67.5a31,31,0,0,1,0,62H33a31,31,0,0,1,0-62H232m0-2H33a33,33,0,0,0-33,33H0a33,33,0,0,0,33,33H232a33,33,0,0,0,33-33h0a33,33,0,0,0-33-33Z"/><path class="cls-8" d="M19.17,97.33c0-12.75,4.62-19,11.87-19S43,84.6,43,97.3,38.3,116.51,31.1,116.52,19.19,110.13,19.17,97.33Zm18.3,0c0-10.55-2.67-14.4-6.42-14.39s-6.4,3.85-6.38,14.41S27.34,112,31.09,112,37.48,108,37.47,97.31Z"/><path class="cls-8" d="M49.64,111.09h8l0-25.6h-6.6V81.84A22.59,22.59,0,0,0,59,79h4.35l0,32.05h7.2v4.75l-21,0Z"/><path class="cls-7" d="M95.56,85.12A14.34,14.34,0,0,1,99,84.65c2.74,0,4.9,1.46,4.9,3.91,0,2.1-1.1,3.69-3.92,4.39a15,15,0,0,1-2.35.29L96.79,91A14.59,14.59,0,0,0,99,90.83c1.44-.26,2.6-1,2.6-2.29S100.5,86.63,99,86.63a12.51,12.51,0,0,0-3.35.49c0,1.42.09,2.79.09,3.4,0,2.21-.81,2.79-2,2.79-1.75,0-4.22-1.49-4.22-3.38,0-1.57,1.82-3.17,4-4.13,0-.41,0-.83,0-1.24V83.07l-.95,0c-.81,0-1.71,0-2.49-.09l0-2.16a18.63,18.63,0,0,0,2.46.14l1,0c0-.63,0-1.15,0-1.46a13,13,0,0,0-.13-1.57h2.45c0,.33-.11,1.1-.14,1.55s0,.83-.06,1.28a24.27,24.27,0,0,0,3.28-.67l0,2.24c-1,.23-2.23.41-3.4.56,0,.54,0,1.08,0,1.6Zm-2,5c0-.45,0-1.26,0-2.19-1.1.55-1.82,1.29-1.82,1.92S92.56,90.9,93,90.9,93.6,90.74,93.6,90.12ZM101,79.86a42.18,42.18,0,0,1,4.37,2.5l-1.08,1.84A27.34,27.34,0,0,0,100,81.61Z"/><path class="cls-7" d="M120.15,82.6a11.56,11.56,0,0,1-3.09,3.31,27,27,0,0,0,6.37,1.35,10.52,10.52,0,0,0-1.35,2.07c-.63-.09-1.24-.2-1.84-.31v5H118v-.52h-6v.56h-2.09V89.13c-.79.22-1.58.4-2.39.56a7.25,7.25,0,0,0-1-1.89A25.89,25.89,0,0,0,112.88,86a15.25,15.25,0,0,1-1.62-1.35,17.49,17.49,0,0,1-2.2,1.2,6,6,0,0,0-1.42-1.58,10.47,10.47,0,0,0,5.06-3.62h-3.31v2h-2.11V78.73h6.57V77.27h2.2v1.46h6.68v3.94h-2.2v-2H113l2,.4c-.18.25-.38.5-.57.75h3.92l.36-.09ZM118,91.74V90.21h-6v1.53Zm0-3.29a20.14,20.14,0,0,1-3.08-1.21,22.57,22.57,0,0,1-2.79,1.21Zm-5.18-5a10.16,10.16,0,0,0,2.1,1.47,10.2,10.2,0,0,0,2-1.54h-4Z"/><path class="cls-7" d="M130,88.39c-.22-.52-.59-1.33-1-2.1v7.76h-2V87.31a14.91,14.91,0,0,1-1.63,3.55,10.41,10.41,0,0,0-.94-1.89,18,18,0,0,0,2.41-6h-2V81H127V77.25h2V81h1.8v2H129v.79c.49.67,1.78,2.65,2.09,3.13Zm4.92,2.44c-1.27.73-2.67,1.53-3.82,2.16l-.92-1.8c1.06-.49,2.65-1.3,4.18-2.09Zm6.35-3.57c-.76.77-1.67,1.64-2.38,2.22a7.42,7.42,0,0,0,2.81,2,8.2,8.2,0,0,0-1.35,1.73,8.56,8.56,0,0,1-3.18-3.17v1.87c0,1-.18,1.48-.76,1.8a5.81,5.81,0,0,1-2.56.36,6.65,6.65,0,0,0-.57-1.91c.61,0,1.31,0,1.53,0s.29-.09.29-.31V85.78h-4.24V84h4.24v-.79h-3.41V81.64h3.41v-.72h-3.89V79.25H133a10.88,10.88,0,0,0-.7-1.41l1.69-.57a9.2,9.2,0,0,1,1,2h2.23c.27-.61.63-1.44.81-2l2.13.49c-.33.54-.65,1.08-.94,1.53H141v1.67h-3.87v.72h3.49v1.61h-3.49V84h4.19v1.74h-4.19v.71a9.85,9.85,0,0,0,.73,1.58,13.93,13.93,0,0,0,1.75-1.94Zm-8.61-1.08a12.38,12.38,0,0,1,1.79,2.18l-1.53,1.08a13.64,13.64,0,0,0-1.71-2.31Z"/><path class="cls-7" d="M150.19,78.46c-.11.46-.21,1-.3,1.47s-.26,1.19-.38,1.84c.59,0,1.13-.07,1.49-.07,1.89,0,3.23.84,3.23,3.4a17.55,17.55,0,0,1-1,6.5,2.86,2.86,0,0,1-2.94,1.64,10.34,10.34,0,0,1-2.12-.25l-.4-2.36A10.36,10.36,0,0,0,150,91a1.31,1.31,0,0,0,1.33-.78,13.51,13.51,0,0,0,.72-4.88c0-1.42-.61-1.62-1.73-1.62-.29,0-.72,0-1.22.07a38.57,38.57,0,0,1-3.64,9.53l-2.32-.94a26.37,26.37,0,0,0,3.58-8.33l-1.53.19c-.5.06-1.42.18-2,.27l-.2-2.41a14.9,14.9,0,0,0,1.89,0c.56,0,1.41-.07,2.31-.14a20.65,20.65,0,0,0,.38-3.78Zm6.39,2.12a35.13,35.13,0,0,1,2.9,6.21l-2.27,1.06a19.92,19.92,0,0,0-3-6.71l1.65-.7a20.49,20.49,0,0,0-1.22-2.13l1.42-.59c.45.66,1.08,1.8,1.44,2.46Zm1.64-.59a17.64,17.64,0,0,0-1.46-2.49l1.43-.59a22.51,22.51,0,0,1,1.46,2.45Z"/><path class="cls-7" d="M174.24,92.1c1,0,1.15-.32,1.3-2.3a5.26,5.26,0,0,0,1.91.77c-.29,2.7-.89,3.41-3.06,3.41h-3.84c-2.47,0-3.24-.58-3.24-2.65v-5h3.85V84.47H167.9V83.35c-.21.29-.43.54-.66.8a10.71,10.71,0,0,0-1.66-1.37l.16-.16h-.81v2.73L166.3,85l.24,1.91-1.61.47v4.28c0,1.07-.18,1.64-.75,2a5.35,5.35,0,0,1-2.69.43A7.56,7.56,0,0,0,160.9,92a16.35,16.35,0,0,0,1.67,0c.22,0,.31-.07.31-.34v-3.7l-2,.54-.45-2.07c.69-.14,1.53-.34,2.45-.55V82.62h-2.09v-2h2.09V77.27h2.05v3.38h1.39V82a12.87,12.87,0,0,0,2.27-4.77l2,.43c-.16.61-.38,1.2-.59,1.78h6.86s0,.61,0,.86c-.13,5.82-.25,8-.72,8.67a1.77,1.77,0,0,1-1.17.79,11.84,11.84,0,0,1-1.87,0,7,7,0,0,0-.35-1.57h-3.4v3.1c0,.69.22.79,1.37.79Zm-1.1-9.45v5.22c.29,0,.53,0,.69,0a.53.53,0,0,0,.52-.29c.25-.39.4-1.94.49-6.28h-5.66a12.28,12.28,0,0,1-.79,1.33Z"/><path class="cls-7" d="M191.18,79.57c-.56.42-1.15.88-1.57,1.21-1.15.93-3.51,2.75-4.7,3.78-.95.81-.93,1,0,1.84,1.33,1.13,4.77,3.85,6.54,5.56l-2.07,1.91c-.51-.56-1.07-1.12-1.57-1.66-1-1-3.69-3.35-5.33-4.73s-1.62-2.49.16-4c1.39-1.14,3.84-3.12,5-4.31a11.88,11.88,0,0,0,1.37-1.49Z"/><path class="cls-7" d="M98.66,108.29a12,12,0,0,0,6.73,7.71,8.56,8.56,0,0,0-1.58,2,13.41,13.41,0,0,1-6.75-7.63A12.42,12.42,0,0,1,90.32,118a6.36,6.36,0,0,0-1.6-1.82,10.8,10.8,0,0,0,6.54-7.92h-6.2v-2.22h6.56c.18-1.69.16-3.33.18-4.8h2.34c0,1.47,0,3.13-.22,4.8H105v2.22Z"/><path class="cls-7" d="M120.44,116.59a13.52,13.52,0,0,0-3.6-2.47c0,.24,0,.45,0,.63,0,1.53-1.16,2.7-3.51,2.7-2.85,0-4.36-1.08-4.36-3s1.66-3.06,4.41-3.06a9.87,9.87,0,0,1,1.1.06c0-.54-.06-1.1-.07-1.62h-.92c-1.05,0-3.1-.09-4.29-.24l0-2.1a33.79,33.79,0,0,0,4.3.32h.85V106h-.85a28.44,28.44,0,0,1-3.87-.27v-2a23.09,23.09,0,0,0,3.87.34h.88v-.81a7.31,7.31,0,0,0-.09-1.22h2.43c0,.36-.11.81-.13,1.26v.7a37.15,37.15,0,0,0,4.24-.43l.06,2c-1.17.11-2.61.25-4.32.34l0,1.86c1.8-.07,3.29-.24,4.75-.42v2.11c-1.6.18-3,.31-4.71.36,0,.67.07,1.39.12,2.07a13.94,13.94,0,0,1,5,2.7Zm-5.87-3.2a8.62,8.62,0,0,0-1.46-.13c-1.26,0-1.94.49-1.94,1.1s.63,1.1,1.85,1.1c1,0,1.57-.29,1.57-1.32C114.59,113.94,114.59,113.69,114.57,113.39Z"/><path class="cls-7" d="M132.32,102.33c-.11.47-.24,1-.33,1.48s-.23,1.18-.36,1.83c.6,0,1.14-.07,1.5-.07,1.89,0,3.22.85,3.22,3.4,0,2.11-.25,5-1,6.5a2.84,2.84,0,0,1-2.93,1.64,10.27,10.27,0,0,1-2.13-.25l-.39-2.36a10.1,10.1,0,0,0,2.18.38,1.3,1.3,0,0,0,1.33-.77,13.29,13.29,0,0,0,.74-4.88c0-1.43-.62-1.62-1.75-1.62-.29,0-.72,0-1.22.07a38,38,0,0,1-3.62,9.52l-2.34-.93a26.71,26.71,0,0,0,3.6-8.34c-.63.07-1.19.14-1.53.2-.51.05-1.43.18-2,.27l-.2-2.42a14.9,14.9,0,0,0,1.89,0c.56,0,1.4-.07,2.3-.14a19,19,0,0,0,.38-3.78Zm6.16,1.67a32.21,32.21,0,0,1,3.11,6.63l-2.25,1.06a20.86,20.86,0,0,0-3-6.79Z"/><path class="cls-7" d="M152.33,106a26.57,26.57,0,0,1-3.09.62,33.22,33.22,0,0,1-3.82,7.63l-2.18-1.1a27.14,27.14,0,0,0,3.64-6.3c-.31,0-.61,0-.92,0-.74,0-1.46,0-2.23-.06l-.16-2.09a22.53,22.53,0,0,0,2.37.13c.53,0,1.07,0,1.61,0a14.86,14.86,0,0,0,.48-3l2.47.25c-.15.58-.36,1.48-.61,2.43a17.55,17.55,0,0,0,2.39-.56Zm2.35,1.61a21.67,21.67,0,0,0,0,2.28c0,.51,0,1.37.1,2.25a12,12,0,0,1,3.69,2.29l-1.18,1.91a15.11,15.11,0,0,0-2.42-1.89v.16c0,1.66-.9,3-3.44,3-2.21,0-4-1-4-3,0-1.75,1.46-3.1,3.95-3.1.41,0,.83,0,1.2.07-.05-1.33-.14-2.89-.19-4Zm-2,5.9a6.11,6.11,0,0,0-1.44-.18c-1,0-1.69.43-1.69,1.06s.56,1.12,1.53,1.12c1.21,0,1.6-.7,1.6-1.66Zm5-5a23.64,23.64,0,0,0-4.29-2.54l1.15-1.76a31,31,0,0,1,4.4,2.41Z"/><path class="cls-7" d="M171.16,114.93a11.94,11.94,0,0,0,.17,2.36h-2.85a20.37,20.37,0,0,0,.13-2.36V109a36.2,36.2,0,0,1-6.2,2.45l-1.29-2.2a27.64,27.64,0,0,0,8.19-3.26A19,19,0,0,0,174,102l1.92,1.75a28.54,28.54,0,0,1-4.77,3.87Z"/><path class="cls-7" d="M193.21,103.28a14.48,14.48,0,0,0-.73,1.61,25.46,25.46,0,0,1-2.43,4.89,47.92,47.92,0,0,1,4.28,4l-1.85,2.07a36.38,36.38,0,0,0-4-4,22.67,22.67,0,0,1-6.7,5.57l-2.07-1.86a19.64,19.64,0,0,0,6.84-5.31,47.48,47.48,0,0,0-4.82-3.4l1.54-1.86c1.44.91,3.3,2.17,4.76,3.25a20.05,20.05,0,0,0,2-4.27,13.48,13.48,0,0,0,.43-1.66Z"/><path class="cls-7" d="M197.66,108.16c.64.06,2,.11,2.9.11h9.66c.83,0,1.64-.07,2.11-.11V111c-.43,0-1.35-.09-2.11-.09h-9.66c-1,0-2.24,0-2.9.09Z"/><path class="cls-7" d="M220.66,109l-1.31,2a48,48,0,0,0-4.11-2.57l1.3-2C217.76,107.08,219.74,108.33,220.66,109Zm1.44,4.11a18.33,18.33,0,0,0,7-6.75l1.38,2.45a21.63,21.63,0,0,1-7.15,6.48,22.74,22.74,0,0,1-6,2.21L216,115.11A19.18,19.18,0,0,0,222.1,113.08Zm1.32-8.18-1.34,2c-1-.71-2.88-1.91-4.06-2.58l1.29-2C220.5,103,222.48,104.26,223.42,104.9Zm5.36.56-1.56.67a16.56,16.56,0,0,0-1.59-2.83l1.5-.63A26.9,26.9,0,0,1,228.78,105.46Zm2.52-1-1.53.68a16.69,16.69,0,0,0-1.69-2.73l1.53-.63A22.74,22.74,0,0,1,231.3,104.49Z"/><circle class="cls-7" cx="246.5" cy="97" r="3.5"/><line class="cls-9" x1="247" y1="97.5" x2="272" y2="122.5"/><path class="cls-6" d="M606,130.5a32,32,0,0,1,0-64H790a32,32,0,0,1,0,64Z"/><path class="cls-7" d="M790,67.5a31,31,0,0,1,0,62H606a31,31,0,0,1,0-62H790m0-2H606a33,33,0,0,0-33,33h0a33,33,0,0,0,33,33H790a33,33,0,0,0,33-33h0a33,33,0,0,0-33-33Z"/><path class="cls-8" d="M751.48,97.33c0-12.75,4.62-19,11.87-19s11.91,6.23,11.93,18.93-4.67,19.21-11.87,19.22S751.5,110.13,751.48,97.33Zm18.3,0c0-10.55-2.67-14.4-6.42-14.39S757,86.77,757,97.33,759.65,112,763.4,112,769.8,108,769.78,97.31Z"/><path class="cls-8" d="M804.64,105.91h-4.7l0,9.9h-5.4l0-9.9-15.9,0v-3.85L793.25,79h6.65l0,22.45h4.7Zm-10.11-4.44V91.82c0-2,.19-5.1.29-7.1h-.2c-.9,1.85-1.89,3.75-2.94,5.66l-7.24,11.11Z"/><path class="cls-7" d="M620.54,95.91h-5.95V94.22h5.95Zm10.37,9.74c0,1-.16,1.66-.78,2a5.71,5.71,0,0,1-2.77.4,7.28,7.28,0,0,0-.59-2.09c.73,0,1.56,0,1.83,0s.33-.07.33-.34V93.72h-5.75V98.6c0,2.86-.21,7-1.62,9.56a6.54,6.54,0,0,0-1.49-1.07h-3.14v.72h-1.65v-6.14h4.79v5c1.08-2.34,1.17-5.6,1.17-8.08V91.9h9.67ZM620.1,98.36h-4.77V96.72h4.77Zm-4.77.83h4.77v1.6h-4.77Zm4.72-5.76h-4.61V91.81h4.61Zm-1.69,9.92h-1.43v2.07h1.43Zm6.8-5.49V96.63h-1.38V95.08h1.38V93.91h1.68v1.17h1.42v1.55h-1.42v1.23h1.55v1.56H623.7V97.86Zm.17,7.25v.62h-1.52v-5.39h4.43v4.77Zm0-3.22v1.69h1.36v-1.69Z"/><path class="cls-7" d="M638.82,104.47c-2,.7-4.14,1.38-5.87,1.94l-.48-2.18,2.19-.59V99.41h-1.81v-2h1.81V94.27h-2v-2h6v2H636.7v3.17h1.62v2H636.7V103c.59-.18,1.19-.36,1.76-.56Zm10.7,1.09v2H637.94v-2h5v-1.71h-3.73v-1.92h3.73v-1.55h-3.6V92h9.4v8.37h-3.62v1.55h3.82v1.92h-3.82v1.71Zm-8.28-10.24h1.85v-1.5h-1.85Zm0,3.24h1.85V97h-1.85Zm5.43-4.74h-1.78v1.5h1.78Zm0,3.19h-1.78v1.55h1.78Z"/><path class="cls-7" d="M658.48,105.13a16.82,16.82,0,0,0,1.66-.29,4.83,4.83,0,0,0,4.05-4.77,4.42,4.42,0,0,0-3.73-4.72,39.11,39.11,0,0,1-1.06,4.85c-1.06,3.6-2.61,5.8-4.56,5.8s-3.63-2.18-3.63-5.19a8,8,0,0,1,8.21-7.63,6.8,6.8,0,0,1,7.2,7c0,3.75-2.31,6.41-6.81,7.1Zm-1.39-5.4a28.16,28.16,0,0,0,1-4.32,5.59,5.59,0,0,0-4.52,5.17c0,1.8.72,2.68,1.39,2.68S656.37,102.14,657.09,99.73Z"/><path class="cls-7" d="M683,94.29a7.85,7.85,0,0,0-.63,1.12,26.86,26.86,0,0,1-2.83,5,50.36,50.36,0,0,1,5,5.15l-2.05,1.78A39.89,39.89,0,0,0,678,102.2a23.81,23.81,0,0,1-6.77,5.06l-1.85-2a20.39,20.39,0,0,0,7.38-5.17,13.77,13.77,0,0,0,2.68-4.41h-6.1c-.76,0-1.75.11-2.12.13V93.3a20.45,20.45,0,0,0,2.12.13h6.34a6.32,6.32,0,0,0,1.87-.24Z"/><path class="cls-7" d="M702.19,95a8,8,0,0,0-.6,1.28,20.46,20.46,0,0,1-2.48,4.93c.66.42,1.28.83,1.73,1.16l-1.64,2.1a20.13,20.13,0,0,0-1.68-1.27,17.23,17.23,0,0,1-6.64,4.48l-2.09-1.82a15.24,15.24,0,0,0,6.72-4c-1.23-.8-2.45-1.53-3.37-2.06l1.53-1.71c1,.49,2.18,1.17,3.39,1.89a13,13,0,0,0,1.87-3.83h-5.17a21.16,21.16,0,0,1-4.75,4.64l-2-1.49a16.44,16.44,0,0,0,5.75-6,8.27,8.27,0,0,0,.81-1.89l2.61.81c-.44.63-.9,1.46-1.12,1.84l0,0h3.69a6,6,0,0,0,1.57-.2Z"/><path class="cls-7" d="M715.16,104.93a11.94,11.94,0,0,0,.17,2.36h-2.85a20.37,20.37,0,0,0,.13-2.36V99a36.2,36.2,0,0,1-6.2,2.45l-1.29-2.2A27.64,27.64,0,0,0,713.31,96,19,19,0,0,0,718,92l1.92,1.75a28.54,28.54,0,0,1-4.77,3.87Z"/><path class="cls-7" d="M722.72,105.83a8.46,8.46,0,0,0,3.06-4.3c.51-1.55.52-5,.52-7.13a6.5,6.5,0,0,0-.16-1.64h2.65a10.86,10.86,0,0,0-.13,1.62,39.33,39.33,0,0,1-.54,7.74,10.4,10.4,0,0,1-3.2,5.17Zm8.34.27a7,7,0,0,0,.14-1.33V94.27a8.78,8.78,0,0,0-.14-1.54h2.68a8.57,8.57,0,0,0-.13,1.56v9.42a11.39,11.39,0,0,0,4.45-3.8l1.39,2a20,20,0,0,1-6.11,4.92,4.66,4.66,0,0,0-.79.54Z"/><circle class="cls-7" cx="591.5" cy="97" r="3.5"/><line class="cls-9" x1="591" y1="97.5" x2="566" y2="122.5"/><path class="cls-6" d="M624,224a32,32,0,0,1,0-64H758a32,32,0,0,1,0,64Z"/><path class="cls-7" d="M758,161a31,31,0,0,1,0,62H624a31,31,0,0,1,0-62H758m0-2H624a33,33,0,0,0-33,33h0a33,33,0,0,0,33,33H758a33,33,0,0,0,33-33h0a33,33,0,0,0-33-33Z"/><path class="cls-8" d="M719.48,190.83c0-12.75,4.62-19,11.87-19s11.91,6.23,11.93,18.93S738.61,210,731.41,210,719.5,203.63,719.48,190.83Zm18.3,0c0-10.55-2.67-14.4-6.42-14.39s-6.4,3.85-6.38,14.41,2.67,14.64,6.42,14.64S737.8,201.46,737.78,190.81Z"/><path class="cls-8" d="M747,205.09l2.74-3.75a11.81,11.81,0,0,0,8.61,3.94c4.15,0,7.3-3,7.29-7.86s-2.81-7.7-7-7.69c-2.35,0-3.75.7-5.9,2.1l-2.8-1.84L751,172.54l18.65,0v4.85l-13.65,0-.84,9.45a10.49,10.49,0,0,1,5.05-1.31c6.15,0,11.21,3.64,11.22,11.69S765.51,210,759.06,210A16.27,16.27,0,0,1,747,205.09Z"/><path class="cls-7" d="M636.54,194.87v4.19c0,1-.16,1.52-.7,1.84a4.47,4.47,0,0,1-2.49.41,6.94,6.94,0,0,0-.56-2c.67,0,1.28,0,1.5,0s.3-.07.3-.3v-3.61l-1.65.47-.49-2.07c.61-.12,1.33-.32,2.14-.52v-3.19h-1.94v-2h1.94v-3.4h1.95v3.4h1.8v2h-1.8v2.67l1.62-.43.29,1.92Zm8.19,4.54c.41,0,.81.05,1.26.05.61,0,2.84,0,3.62,0a6.28,6.28,0,0,0-.58,1.87H645.9c-2.36,0-4.18-.43-5.4-2.61a8,8,0,0,1-1.89,2.83,11.67,11.67,0,0,0-1.57-1.28c1.5-1.19,2.23-3.19,2.5-5.63l2,.23a17.39,17.39,0,0,1-.34,1.82,4,4,0,0,0,1.56,2.11v-4.7h-4.23v-1.73h10.64v1.73h-4.39v1.58h3.44v1.67h-3.44Zm3.49-7.89h-8.86v-6.21h8.86Zm-2.05-4.72h-4.84v.9h4.84Zm0,2.29h-4.84V190h4.84Z"/><path class="cls-7" d="M656.41,185.42a32.8,32.8,0,0,1-1.71,3.74v12.39h-2.11v-9.13c-.38.49-.75.92-1.13,1.33a13.12,13.12,0,0,0-1.15-2.23,18.84,18.84,0,0,0,4.1-6.73Zm4.2,11.91a16.73,16.73,0,0,1-3.59,4.18,12,12,0,0,0-1.67-1.35,11.14,11.14,0,0,0,3.26-3.44Zm6.78-3.43V196H655.71V193.9h2.41v-3.59h-2v-2.05h2v-3.37h2.09v3.37h2.61v-3.38h2.09v3.38h2.34v2.05h-2.34v3.59Zm-7.18,0h2.61v-3.59h-2.61Zm4,2.81a21.87,21.87,0,0,1,3.06,3.7l-1.8,1.14a19.45,19.45,0,0,0-3-3.89Z"/><path class="cls-7" d="M676.41,189.67c-.06.77-.11,1.56-.2,2.34h6.95s0,.64-.07.93c-.33,4.9-.7,6.92-1.42,7.71a2.72,2.72,0,0,1-1.95.83,25.9,25.9,0,0,1-3.08,0,4.94,4.94,0,0,0-.75-2.11,29.82,29.82,0,0,0,3,.13,1.16,1.16,0,0,0,.87-.24c.46-.39.79-2,1-5.24h-5a10.59,10.59,0,0,1-5.78,7.67,7.18,7.18,0,0,0-1.51-1.82c4.86-2.25,5.27-6.35,5.47-10.2H668.9v-2.06h6.9v-2.93H678v2.93h7.11v2.06Z"/><path class="cls-7" d="M690,193.14a13.9,13.9,0,0,0-3.38-1.85l1.09-1.62a14.26,14.26,0,0,1,3.48,1.67Zm1.89,2.52c-.88,1.87-1.92,3.93-2.93,5.65L687.06,200a54.31,54.31,0,0,0,3.19-5.66Zm-.9-7.27a13.5,13.5,0,0,0-3.37-2l1.19-1.61a15.63,15.63,0,0,1,3.44,1.84Zm10.64,13.18a9.54,9.54,0,0,0-.61-1.43c-3.26.29-6.66.53-9.09.71l-.29-2.16,1.35-.06a32.28,32.28,0,0,0,1.71-4.66h-3.08v-2.05h4.63v-2.54h-3.73v-2.06h3.73v-2.55h2.23v2.55h3.91v2.06h-3.91v2.54h4.76V194h-6.05l.07,0c-.58,1.51-1.3,3.17-2,4.52l4.63-.26a24.78,24.78,0,0,0-1.44-2.05l1.84-1a21,21,0,0,1,3.33,5.24Z"/><circle class="cls-7" cx="609.5" cy="190.5" r="3.5"/><line class="cls-9" x1="609" y1="191" x2="584" y2="216"/><path class="cls-6" d="M78,224a32,32,0,0,1,0-64H232a32,32,0,0,1,0,64Z"/><path class="cls-7" d="M232,161a31,31,0,0,1,0,62H78a31,31,0,0,1,0-62H232m0-2H78a33,33,0,0,0-33,33h0a33,33,0,0,0,33,33H232a33,33,0,0,0,33-33h0a33,33,0,0,0-33-33Z"/><path class="cls-8" d="M65.17,190.83c0-12.75,4.62-19,11.87-19S89,178.1,89,190.8,84.3,210,77.1,210,65.19,203.63,65.17,190.83Zm18.3,0c0-10.55-2.67-14.4-6.42-14.39s-6.4,3.85-6.38,14.41,2.67,14.64,6.42,14.64S83.48,201.46,83.47,190.81Z"/><path class="cls-8" d="M93.54,206c10.84-9.61,16.43-16.77,16.42-22.82,0-4-2.16-6.75-6.26-6.74-2.9,0-5.3,1.85-7.25,4.11l-3.25-3.2c3.14-3.4,6.39-5.51,11.19-5.51,6.75,0,11.11,4.38,11.12,11,0,7.1-5.63,14.46-13.42,21.92,1.9-.2,4.2-.36,6-.36h9.2v4.9l-23.76,0Z"/><path class="cls-7" d="M137.89,190.93c0,3.06-.23,7.67-1.64,10.64a7.55,7.55,0,0,0-1.84-1c1.34-2.78,1.44-6.83,1.44-9.65v-5.55H151.1v1.85H137.89Zm7.22,7.65,0,1.74c-2.52.35-5.2.65-7.16.89l-.31-1.89,5.4-.53-1.24-.34a20.76,20.76,0,0,0,.72-2.92l1.86.45c-.33,1-.65,2-.92,2.76Zm-6.77-10.36h6.59V190h-6.59Zm6.21,7.13h-6v-4.51h6Zm-5.2,3.57a13.21,13.21,0,0,0-.6-2.95l1.64-.35a11.16,11.16,0,0,1,.72,2.87Zm3.24-6.66h-2.18v1.65h2.18Zm3.37,5.09a16.36,16.36,0,0,0-1.19-3.67l1.64-.58a14.76,14.76,0,0,1,1.29,3.61Zm5.25-5H150v7c0,1-.18,1.55-.79,1.86a6.7,6.7,0,0,1-2.83.38,9.14,9.14,0,0,0-.61-1.95c.76,0,1.59,0,1.82,0s.34-.09.34-.34v-6.95h-3v-1.93h3v-2.7H150v2.7h1.17Z"/><path class="cls-7" d="M161.79,195.28a8.18,8.18,0,0,1-.16,1h5.89s0,.5-.05.76c-.2,2.36-.42,3.47-.87,3.92a2.07,2.07,0,0,1-1.42.6c-.5,0-1.42.05-2.38,0a4.38,4.38,0,0,0-.55-1.78,19.24,19.24,0,0,0,1.94.11.86.86,0,0,0,.63-.18c.2-.18.34-.7.47-1.8h-4.16c-.7,1.6-2,2.83-4.66,3.64a5.46,5.46,0,0,0-1.18-1.68c3.32-.88,4.07-2.43,4.36-4.61h-3.08a11.29,11.29,0,0,1-2.3,6.09,8.41,8.41,0,0,0-1.84-1.19c2-2.25,2.22-5.51,2.22-7.9v-4h12.87v4.21h-4.66v1.12h6.19v1.67Zm6.85-7.79H153.46v-1.91h15.18Zm-11.9,5c0,.36,0,.74,0,1.12h4v-1.12Zm0-2.66v1.11h8.69v-1.11Z"/><path class="cls-7" d="M178.48,198.63a16.82,16.82,0,0,0,1.66-.29,4.83,4.83,0,0,0,4.05-4.77,4.42,4.42,0,0,0-3.73-4.72,39.11,39.11,0,0,1-1.06,4.85c-1.06,3.6-2.61,5.8-4.56,5.8s-3.63-2.18-3.63-5.19a8,8,0,0,1,8.21-7.63,6.8,6.8,0,0,1,7.2,7c0,3.75-2.31,6.41-6.81,7.1Zm-1.39-5.4a28.16,28.16,0,0,0,1-4.32,5.59,5.59,0,0,0-4.52,5.17c0,1.8.72,2.68,1.39,2.68S176.37,195.64,177.09,193.23Z"/><path class="cls-7" d="M194.7,198.87a30,30,0,0,0-1.8-2.6,8.88,8.88,0,0,1-2.94,5.06,7.5,7.5,0,0,0-1.46-1.53c2-1.46,2.61-3.92,2.79-6.19h-2.53v-2h2.61V189.4H189v-1.9h2.34v-2.57h2v2.57h2.25v1.9h-2.25v2.26h2.53v2h-2.61l0,.43c.75.77,2.48,2.75,2.88,3.26Zm8.73.48c.29,0,.36-.23.4-2.12a6,6,0,0,0,1.76.77c-.18,2.56-.66,3.21-1.94,3.21h-1.19c-1.59,0-1.93-.6-1.93-2.36v-3.14h-.92c-.3,2.65-1.11,4.67-4.28,5.87a5.93,5.93,0,0,0-1.15-1.6,4.43,4.43,0,0,0,3.42-4.27h-1.16V185.38h8v10.33h-1.93v3.1c0,.49,0,.54.31.54Zm-5-11h3.94v-1.06h-3.94Zm0,2.76h3.94V190h-3.94Zm0,2.73h3.94v-1.06h-3.94Z"/><path class="cls-7" d="M211.69,195.48c-.2-.52-.54-1.28-.92-2v8.1h-2v-6.09a15.47,15.47,0,0,1-1.34,2.87,13.72,13.72,0,0,0-1-2.16,17.15,17.15,0,0,0,2.36-5.62v-.47h-2v-2h2v-3.35h2v3.35h1.62v2h-1.62v.63c.54.72,1.87,2.77,2.2,3.3ZM220,197.8a6.23,6.23,0,0,0,3.62,2,7.54,7.54,0,0,0-1.31,1.76,6.63,6.63,0,0,1-4.29-3.35c-.75,1.55-2.21,2.67-5.18,3.39a5.69,5.69,0,0,0-1.08-1.71c2.25-.45,3.43-1.12,4.1-2.06h-3.44V196h4.13c0-.33.1-.67.14-1h-3.44v-5.94h9V195h-3.45c0,.36-.09.69-.15,1h4.5v1.76Zm-5.15-10.06h-2.1V186h2.1v-1.2h2V186H219v-1.2H221V186h2v1.77h-2v1H219v-1h-2.09v1h-2Zm.38,3.6h5v-.79h-5Zm0,2.18h5v-.79h-5Z"/><circle class="cls-7" cx="246.5" cy="190.5" r="3.5"/><line class="cls-9" x1="247" y1="191" x2="272" y2="216"/><path class="cls-6" d="M98,317.5a32,32,0,0,1,0-64H232a32,32,0,0,1,0,64Z"/><path class="cls-7" d="M232,254.5a31,31,0,0,1,0,62H98a31,31,0,0,1,0-62H232m0-2H98a33,33,0,0,0-33,33h0a33,33,0,0,0,33,33H232a33,33,0,0,0,33-33h0a33,33,0,0,0-33-33Z"/><path class="cls-8" d="M85.17,284.33c0-12.75,4.62-18.95,11.87-19S109,271.6,109,284.3s-4.67,19.21-11.87,19.22S85.19,297.13,85.17,284.33Zm18.3,0c0-10.55-2.67-14.4-6.42-14.39s-6.4,3.85-6.38,14.41S93.34,299,97.09,299,103.48,295,103.47,284.31Z"/><path class="cls-8" d="M112.74,298.44l2.79-3.7a11.92,11.92,0,0,0,8.71,4c4.15,0,7-2.31,7-6.11,0-4.1-2.61-6.75-10.91-6.74v-4.25c7.25,0,9.65-2.76,9.65-6.46,0-3.25-2.16-5.3-5.66-5.34a10.75,10.75,0,0,0-7.35,3.51l-3-3.6a15.47,15.47,0,0,1,10.54-4.46c6.6,0,11.26,3.38,11.26,9.48,0,4.25-2.43,7.2-6.33,8.66v.25c4.25,1,7.6,4.24,7.61,9.19,0,6.65-5.53,10.56-12.28,10.57C119,303.49,115.19,301.19,112.74,298.44Z"/><path class="cls-7" d="M162.07,283.63a24.9,24.9,0,0,1-1.48,5.24,18.09,18.09,0,0,1,1.85,2.92l-1.71,1.46a16,16,0,0,0-1.22-2.22,12,12,0,0,1-3.69,3.89,9.15,9.15,0,0,0-1.44-1.67,10,10,0,0,0,3.83-4.09c-1-1.28-2-2.56-3-3.65l1.53-1.21c.77.83,1.6,1.75,2.37,2.7a21.09,21.09,0,0,0,.87-3.64Zm9.29.67h-1.93v8.1c0,1.21-.22,1.84-.9,2.18a7.14,7.14,0,0,1-3.24.47,9,9,0,0,0-.68-2.31c1,.06,2,0,2.28,0s.43-.09.43-.38v-8.1H162.8V283h-7.92v-2H158v-2.75h2V281h3.33v1.23h3.92v-4h2.11v4h1.93Zm-7,1.42a13.87,13.87,0,0,1,2,3.8l-1.85,1a14.89,14.89,0,0,0-1.86-3.93Z"/><path class="cls-7" d="M176.18,284.88c0,2.89-.27,7.34-1.89,10.15a10.25,10.25,0,0,0-1.86-1.21c1.48-2.57,1.6-6.35,1.6-8.94v-4.54h6.41v-2.07h2.24v2.07h6.5v2h-13Zm-.33,7.77a14.75,14.75,0,0,0,1.32-5.45l1.92.41a16.43,16.43,0,0,1-1.33,5.89Zm8,.17c.54,0,.65-.42.72-2.9a5.78,5.78,0,0,0,1.89.86c-.19,3.08-.73,3.94-2.41,3.94h-2c-1.91,0-2.36-.63-2.36-2.62v-6.29h2.13v6.27c0,.65.07.74.58.74Zm.2-6.18a20.55,20.55,0,0,0-4.23-2.81l1.42-1.42a23.3,23.3,0,0,1,4.36,2.63Zm3.15.09a21.57,21.57,0,0,1,2.4,5.89l-2.11.86a21.21,21.21,0,0,0-2.2-6Z"/><path class="cls-7" d="M206.4,290.24a30.82,30.82,0,0,1-3.35,1.95,15.92,15.92,0,0,0,4.18,1,8.43,8.43,0,0,0-1.28,1.88c-3.92-.65-6.52-2.27-8.1-5.1h-2.07v2.65l3.82-.33,0,1.89c-2.66.27-5.49.53-7.56.71l-.29-2c.56,0,1.19-.09,1.88-.14V284.1a20.79,20.79,0,0,1-1.95,1,9.06,9.06,0,0,0-1.24-1.76,18.58,18.58,0,0,0,7.29-5.11h2.14a18,18,0,0,0,7.69,4.91,10.29,10.29,0,0,0-1.35,1.91c-.63-.27-1.28-.59-1.93-.94v5.28a6.32,6.32,0,0,0,.54-.4Zm-3.6-7.06a18.7,18.7,0,0,1-3.87-3.11,18,18,0,0,1-3.74,3.11h2.68V281.8h2.19v1.38Zm-7,2.6h6.37v-.94h-6.37Zm0,2.52h6.37v-1h-6.37ZM200,290a6.41,6.41,0,0,0,1.3,1.24c.66-.36,1.42-.79,2.1-1.24Z"/><path class="cls-7" d="M224.38,283.47a20.12,20.12,0,0,1-2,6.72,8.47,8.47,0,0,0,3.19,3,8.36,8.36,0,0,0-1.48,1.85,9.82,9.82,0,0,1-3-2.86,11.6,11.6,0,0,1-3.8,2.95,8.1,8.1,0,0,0-.69-1.22l-.81.82a17,17,0,0,0-1.87-1.35,10.82,10.82,0,0,1-4.43,1.71,4.88,4.88,0,0,0-.84-1.78,9.58,9.58,0,0,0,3.42-.95c-.33-.18-.67-.34-1-.49l-.2.34-1.87-.57c.39-.63.84-1.44,1.29-2.31h-1.71v-1.73h2.62c.21-.45.43-.88.61-1.27l.39.09v-1.73a12.91,12.91,0,0,1-2.7,2.09,6.27,6.27,0,0,0-1.08-1.55A9.6,9.6,0,0,0,211.6,283h-2.81v-1.7h1.37a9.25,9.25,0,0,0-.94-2.08l1.55-.65a7.46,7.46,0,0,1,1.08,2.23l-1.15.5h1.51v-3h2v3h1.42l-1.19-.52a18.52,18.52,0,0,0,1.21-2.28l1.8.72c-.56.77-1.12,1.53-1.55,2.08h1.71V283h-3c.86.48,2.14,1.24,2.53,1.51L216,286c-.4-.38-1.15-1-1.85-1.57v2.18H213l.78.16-.43.86h4.28a12.2,12.2,0,0,0-1.46-1.24c1.53-1.83,2.4-4.9,2.83-8.1l2.16.29a27.48,27.48,0,0,1-.58,2.95h4.79v2ZM212,290.28c.54.21,1.06.43,1.59.68a5.62,5.62,0,0,0,.68-1.64h-1.75Zm4.29-1a7.31,7.31,0,0,1-1,2.56c.56.32,1.08.65,1.5.95a9,9,0,0,0,3.17-2.71,19.46,19.46,0,0,1-1.23-3.55,10.21,10.21,0,0,1-.83,1.29l-.25-.27v1.73Zm3.85-5.85a22.18,22.18,0,0,0,1.1,4.23,19.24,19.24,0,0,0,1-4.23Z"/><circle class="cls-7" cx="246.5" cy="284" r="3.5"/><line class="cls-9" x1="247" y1="284.5" x2="272" y2="309.5"/></g></g></svg>