<?xml version="1.0" encoding="utf-8"?>
<!-- Generator: Adobe Illustrator 25.2.0, SVG Export Plug-In . SVG Version: 6.00 Build 0)  -->
<svg version="1.1" id="Layer_1" xmlns="http://www.w3.org/2000/svg" xmlns:xlink="http://www.w3.org/1999/xlink" x="0px" y="0px"
	 viewBox="0 0 653 316.6" style="enable-background:new 0 0 653 316.6;" xml:space="preserve">
<style type="text/css">
	.st0{fill:#ED6A02;}
	.st1{fill:#FFFFFF;stroke:#ED6A02;stroke-width:3;stroke-miterlimit:10;}
	.st2{fill:#FFFFFF;stroke:#ED6A02;stroke-width:2.86;stroke-miterlimit:10;}
	.st3{fill:#FFFFFF;}
</style>
<g id="Layer_2_1_">
	<g id="レイヤー_1">
		<path class="st0" d="M339,146.5c-21.3,0-38.6-14.7-38.6-32.9V79.5c0-18.2,17.3-32.9,38.6-32.9"/>
		<path class="st0" d="M523,46.6c21.3,0,38.6,14.7,38.6,32.9v34.1c0,18.2-17.3,32.9-38.6,32.9"/>
		<rect x="338.7" y="46.7" class="st0" width="184.1" height="99.9"/>
		<path class="st0" d="M300.6,76.6v3.5c0,9.1-17.3,16.5-38.6,16.5c21.3,0,38.6,7.4,38.6,16.5v3.5"/>
		<path class="st0" d="M561.4,116.6v-3.5c0-9.1,17.3-16.5,38.6-16.5c-21.3,0-38.6-7.4-38.6-16.5v-3.5"/>
		<path class="st0" d="M130,316.5c-21.3,0-38.6-14.7-38.6-32.9v-34.1c0-18.2,17.3-32.9,38.6-32.9"/>
		<path class="st0" d="M314,216.6c21.3,0,38.6,14.7,38.6,32.9v34.1c0,18.2-17.3,32.9-38.6,32.9"/>
		<rect x="129.7" y="216.7" class="st0" width="184.1" height="99.9"/>
		<path class="st0" d="M91.6,246.6v3.5c0,9.1-17.3,16.5-38.6,16.5c21.3,0,38.6,7.4,38.6,16.5v3.5"/>
		<path class="st0" d="M352.4,286.6v-3.5c0-9.1,17.3-16.5,38.6-16.5c-21.3,0-38.6-7.4-38.6-16.5v-3.5"/>
		<path class="st0" d="M184.9,46.6c21.4,0,38.7,14.7,38.7,32.9v34.1c0,18.2-17.3,32.9-38.7,32.9"/>
		<path class="st0" d="M26.2,46.7h158.4l0,0v99.9l0,0H26.2C11.7,146.6,0,134.8,0,120.4c0,0,0,0,0,0V72.9C0,58.4,11.7,46.7,26.2,46.7
			C26.2,46.7,26.2,46.7,26.2,46.7z"/>
		<path class="st0" d="M223.3,116.6v-3.5c0-9.1,17.3-16.5,38.7-16.5c-21.4,0-38.7-7.4-38.7-16.5v-3.5"/>
		<path class="st0" d="M468.1,316.6c-21.4,0-38.7-14.7-38.7-32.9v-34.1c0-18.2,17.3-32.9,38.7-32.9"/>
		<path class="st0" d="M626.8,316.5H468.4l0,0v-99.9l0,0h158.4c14.5,0,26.2,11.7,26.2,26.2c0,0,0,0,0,0v47.5
			C653,304.7,641.3,316.5,626.8,316.5z"/>
		<path class="st0" d="M429.7,246.6v3.5c0,9.1-17.3,16.5-38.7,16.5c21.4,0,38.7,7.4,38.7,16.5v3.5"/>
		<path class="st1" d="M59.4,37.5c0-24.2,8.8-36,22.6-36s22.6,11.9,22.6,36C104.6,61.8,95.7,74,82,74S59.4,61.8,59.4,37.5z
			 M94.2,37.5c0-20-5-27.4-12.2-27.4s-12.2,7.3-12.2,27.4c0,20.2,5,27.9,12.2,27.9S94.2,57.8,94.2,37.5z"/>
		<path class="st1" d="M117.3,63.8h15.3V15.1H120V8.1c6.6-1.2,11.2-2.8,15.2-5.3h8.3v60.9h13.7v9h-39.9V63.8z"/>
		<path class="st1" d="M382.4,37.5c0-24.2,8.8-36,22.6-36s22.6,11.9,22.6,36c0,24.3-8.9,36.5-22.6,36.5S382.4,61.8,382.4,37.5z
			 M417.1,37.5c0-20-5-27.4-12.2-27.4s-12.2,7.3-12.2,27.4c0,20.2,5,27.9,12.2,27.9S417.1,57.8,417.1,37.5z"/>
		<path class="st1" d="M436.2,66.4c20.6-18.2,31.3-31.8,31.3-43.3c0-7.6-4.1-12.8-11.9-12.8c-5.5,0-10.1,3.5-13.8,7.8l-6.2-6
			c6-6.5,12.2-10.5,21.3-10.5c12.8,0,21.1,8.4,21.1,21c0,13.5-10.7,27.5-25.6,41.6c3.6-0.4,8-0.7,11.4-0.7h17.5v9.3h-45.1V66.4z"/>
		<path class="st1" d="M174.2,207.5c0-24.2,8.8-36,22.6-36s22.6,11.9,22.6,36c0,24.3-8.9,36.5-22.6,36.5S174.2,231.9,174.2,207.5z
			 M208.9,207.5c0-20.1-5-27.4-12.2-27.4s-12.2,7.3-12.2,27.4c0,20.2,5,27.9,12.2,27.9S209,227.8,208.9,207.5L208.9,207.5z"/>
		<path class="st1" d="M226.5,234.4l5.3-7c4.1,4.2,9.3,7.7,16.5,7.7c7.9,0,13.3-4.4,13.3-11.6c0-7.8-5-12.8-20.7-12.8v-8.1
			c13.8,0,18.3-5.2,18.3-12.3c0-6.2-4.1-10.1-10.7-10.2c-5.4,0.1-10,2.8-14,6.6l-5.7-6.8c5.5-4.9,12-8.5,20.1-8.5
			c12.6,0,21.4,6.5,21.4,18.1c0,8.1-4.7,13.7-12.1,16.4v0.5c8.1,2,14.5,8.1,14.5,17.5c0,12.6-10.5,20.1-23.4,20.1
			C238.3,244,231.2,239.6,226.5,234.4z"/>
		<path class="st1" d="M490.1,207.3c0-24.2,8.8-36,22.6-36.1c13.8-0.1,22.6,11.9,22.7,36c0,24.3-8.9,36.5-22.6,36.5
			S490.1,231.6,490.1,207.3z M524.9,207.2c0-20.1-5.1-27.4-12.2-27.4s-12.1,7.3-12.1,27.4c0,20.2,5.1,27.8,12.2,27.8
			C519.8,235.1,524.9,227.5,524.9,207.2z"/>
		<path class="st1" d="M591.1,223.6h-8.9v18.8h-10.3v-18.8h-30.2v-7.3l27.8-43.9h12.6l0.1,42.7h8.9L591.1,223.6z M571.9,215.1v-18.4
			c0-3.8,0.4-9.7,0.5-13.5h-0.4c-1.7,3.5-3.6,7.1-5.6,10.8l-13.8,21.1L571.9,215.1z"/>
		<circle class="st2" cx="269.5" cy="96.9" r="20"/>
		<path class="st0" d="M268,98h-8.1v-2.7h8.1v-8.8h3v8.8h8.1V98H271v8.8h-3V98z"/>
		<circle class="st2" cx="52.5" cy="266.9" r="20"/>
		<path class="st0" d="M51,268h-8.1v-2.7H51v-8.8h3v8.8h8.1v2.7H54v8.8h-3V268z"/>
		<circle class="st2" cx="391.5" cy="266.9" r="20"/>
		<path class="st0" d="M390,268h-8.1v-2.7h8.1v-8.8h3v8.8h8.1v2.7H393v8.8h-3V268z"/>
		<path class="st3" d="M90.4,103v5.8c0,1.4-0.2,2.1-1,2.6c-1.1,0.5-2.2,0.7-3.4,0.6c-0.1-0.9-0.4-1.9-0.8-2.7c0.9,0,1.8,0,2.1,0
			s0.4-0.1,0.4-0.4v-5c-0.8,0.2-1.6,0.4-2.3,0.7l-0.7-2.9c0.8-0.2,1.8-0.4,3-0.7v-4.4H85v-2.8h2.7V89h2.7v4.7h2.5v2.8h-2.5v3.7
			l2.2-0.6l0.4,2.7L90.4,103z M101.8,109.3c0.6,0,1.1,0.1,1.8,0.1c0.8,0,3.9,0,5,0c-0.4,0.8-0.7,1.7-0.8,2.6h-4.3
			c-3.3,0-5.8-0.6-7.5-3.6c-0.6,1.5-1.5,2.8-2.6,3.9c-0.7-0.7-1.4-1.3-2.2-1.8c2.1-1.7,3.1-4.4,3.5-7.8l2.7,0.3
			c-0.1,0.9-0.3,1.7-0.5,2.5c0.4,1.2,1.2,2.2,2.2,2.9v-6.5h-5.9v-2.4h14.8v2.4h-6.1v2.2h4.8v2.3h-4.8V109.3z M106.6,98.3H94.3v-8.5
			h12.3L106.6,98.3z M103.8,91.8h-6.7V93h6.7L103.8,91.8z M103.8,94.9h-6.7v1.3h6.7L103.8,94.9z"/>
		<path class="st3" d="M125.3,106.7c2.6,1.4,5.4,2.4,8.3,2.8c-0.7,0.8-1.4,1.6-1.9,2.5c-3.2-0.8-6.1-2.2-8.7-4.2v4.4h-3V108
			c-2.5,2-5.4,3.4-8.5,4.1c-0.5-0.9-1.1-1.7-1.8-2.4c2.9-0.5,5.7-1.5,8.2-3h-7.6v-2.4h9.7v-1.6c-2.5,0.5-5.1,0.9-7.7,1
			c-0.2-0.8-0.5-1.6-1-2.3c2.6-0.1,5.2-0.4,7.8-0.9c-0.8-0.2-1.6-0.4-2.3-0.5l-0.3,0.4l-2.8-0.8c0.6-0.7,1.2-1.4,2-2.3h-4.9V95h6.7
			c0.5-0.7,1-1.3,1.3-1.8h-5.1v1.4h-2.8v-3.9h9.2V89h3v1.7h9.2v3.8h-2.9v-1.3h-10l2.3,0.7c-0.3,0.4-0.6,0.8-0.8,1.2h11.6v2.3h-4.4
			c-0.4,1-1.1,2-1.9,2.7c2,0.6,3.9,1.2,5.3,1.7l-1.8,2.1c-2-0.8-4.1-1.5-6.2-2.1c-0.9,0.4-1.8,0.7-2.8,0.9h2.3v1.7h10v2.4H125.3z
			 M118.4,98.2c1.4,0.3,3.1,0.6,4.7,1c0.8-0.5,1.4-1.1,1.9-1.9h-5.8L118.4,98.2z"/>
		<path class="st3" d="M219.4,279.8c1,0,1.2-0.4,1.3-2.6c0.7,0.5,1.6,0.8,2.4,1c-0.3,3.1-1.1,4.1-3.5,4.1h-4.4c-3,0-3.8-0.8-3.8-3.6
			v-4.8l-1,0.5l-1-2.4c-0.1,6.1-0.3,8.5-0.9,9.3c-0.4,0.6-0.9,0.9-1.6,1c-0.9,0.1-1.7,0.2-2.6,0.1c-0.1-0.9-0.3-1.8-0.7-2.6
			c0.6,0.1,1.2,0.1,1.8,0.1c0.3,0,0.6-0.1,0.7-0.4c0.3-0.5,0.5-2.6,0.6-8.5h-2c-0.4,4.5-1.1,8.5-3.2,11.4c-0.6-0.8-1.3-1.5-2.1-2.1
			c2.5-3.4,2.7-8.9,2.8-14.7h-2.4v-2.8h3.8V259h2.9v3.8h3.9v1.9c1.1-1.7,1.8-3.7,2.2-5.6l2.9,0.5c-0.2,0.9-0.5,1.8-0.8,2.6h7.9v2.7
			h-9c-0.4,0.8-0.9,1.7-1.4,2.4h1.8v2.4l1.4-0.6v-3.6h2.5v2.4l1.8-0.8l0.1-0.1l0.4-0.3l1.9,0.6l-0.1,0.4c0,3.5,0,6.1-0.1,6.8
			c0,0.7-0.4,1.4-1.1,1.7c-0.7,0.2-1.4,0.3-2.1,0.3c-0.1-0.7-0.3-1.5-0.6-2.2c0.3,0,0.6,0,0.9,0s0.3,0,0.4-0.4s0.1-1.6,0.1-4
			l-1.6,0.8v7h-2.5V272l-1.4,0.6v6c0,1,0.2,1.2,1.4,1.2L219.4,279.8z M211.5,270.9v-2.6l-0.2,0.2c-0.7-0.8-1.4-1.5-2.2-2.1
			c0.3-0.3,0.6-0.6,0.8-0.9h-4.8c0,0.9,0,1.8-0.1,2.7h4.5v1.1v2.5L211.5,270.9z"/>
		<path class="st3" d="M247.8,277.6v3h-22.7v-3h9.5v-12.9h-8.2v-3.1h20v3.1H238v12.9L247.8,277.6z"/>
		<path class="st3" d="M488.1,261.8c-0.4,0.7-0.7,1.5-1,2.2c-0.9,2.4-2,4.7-3.4,6.8c2.1,1.7,4.1,3.5,6,5.5l-2.6,2.9
			c-1.7-2-3.5-3.8-5.5-5.5c-2.6,3.2-5.7,5.8-9.3,7.7l-2.9-2.6c3.7-1.7,6.9-4.2,9.5-7.4c-2.1-1.7-4.4-3.3-6.7-4.7l2.1-2.6
			c2,1.2,4.6,3,6.6,4.5c1.2-1.9,2.1-3.8,2.8-5.9c0.3-0.8,0.5-1.5,0.6-2.3L488.1,261.8z"/>
		<path class="st3" d="M504.5,274.5c3.9-2.3,7-5.7,9.1-9.7l2,3.5c-2.3,3.8-5.4,7-9.2,9.2c-2.9,1.7-6,2.9-9.3,3.5l-2.1-3.3
			C498.3,277.4,501.6,276.3,504.5,274.5z M504.5,266.4l-2.5,2.6c-1.9-2-4-3.8-6.2-5.4l2.4-2.5C500.4,262.8,502.5,264.5,504.5,266.4z
			"/>
		<path class="st3" d="M537.9,267.5c0.8,0,1.5-0.1,2.3-0.1v3.2c-0.6,0-1.6-0.1-2.3-0.1h-6c-0.1,2.2-0.6,4.4-1.6,6.4
			c-1.2,2.1-2.9,3.7-5,4.8l-2.9-2.1c1.8-0.7,3.4-2,4.5-3.6c1-1.7,1.5-3.6,1.5-5.5h-6.9c-0.7,0-1.7,0-2.4,0.1v-3.3
			c0.8,0.1,1.6,0.1,2.4,0.1H537.9z M524.8,264.1c-0.9,0-1.9,0-2.7,0.1V261c0.9,0.1,1.8,0.2,2.7,0.2h10c0.9,0,1.8-0.1,2.7-0.2v3.2
			c-0.9,0-1.8-0.1-2.7-0.1L524.8,264.1z"/>
		<path class="st3" d="M562.5,266.1c1.2,0,2.2-0.1,2.7-0.1v3.4c-0.5,0-1.8-0.1-2.8-0.1h-5.6c-0.2,5-1.7,9.1-7.1,12.3l-3.1-2.3
			c4.1-1.6,6.8-5.6,6.8-10h-6.4c-1.1,0-2.1,0.1-2.9,0.1v-3.5c0.9,0.1,1.8,0.2,2.8,0.2h6.5v-2.8c0-1-0.1-2-0.3-2.9h4
			c-0.1,1-0.2,2-0.2,3v2.7L562.5,266.1z"/>
		<path class="st3" d="M579.5,274.5c3.9-2.3,7-5.7,9.1-9.7l2,3.5c-2.3,3.8-5.4,7-9.2,9.2c-2.9,1.7-6,2.9-9.3,3.5l-2.1-3.3
			C573.3,277.4,576.6,276.3,579.5,274.5z M579.5,266.4l-2.5,2.6c-1.9-2-4-3.8-6.2-5.4l2.3-2.5C575.4,262.8,577.5,264.5,579.5,266.4z
			"/>
		<path class="st3" d="M612.9,263.2c-0.3,0.5-0.6,1-0.9,1.5c-1.1,2.4-2.4,4.7-3.9,6.9c2.5,2.2,4.8,4.6,7,7.1l-2.8,2.5
			c-1.9-2.5-4-4.9-6.3-7.1c-2.7,2.9-5.9,5.2-9.4,7l-2.6-2.7c3.9-1.6,7.4-4,10.2-7.2c1.6-1.8,2.9-3.9,3.7-6.1h-8.5
			c-1,0-2.4,0.1-3,0.2v-3.5c1,0.1,2,0.2,3,0.2h8.8c0.9,0,1.8-0.1,2.6-0.3L612.9,263.2z"/>
		<path class="st3" d="M417.7,95.5h-9.8v-2.3h9.8V95.5z M430.1,100.3c-0.7,2.7-2,5.2-3.9,7.3c1.6,1,3.3,1.7,5.1,2.2
			c-0.7,0.8-1.4,1.6-1.9,2.6c-2-0.6-3.8-1.5-5.5-2.7c-1.8,1.2-3.7,2.1-5.7,2.7c-0.4-0.9-0.9-1.8-1.5-2.6v1.3h-5.2v1H409v-8.5h7.8
			v6.2c1.8-0.4,3.5-1.2,5-2.2c-1.2-1.3-2.1-2.7-2.9-4.3l2.5-0.8H418v-2.7h0.9c-0.6-0.7-1.3-1.3-2.1-1.8v1h-7.7v-2.3h7.7v1.2
			c1.7-1.1,2.6-3.1,2.4-5.1v-3h8.4v5.6c0,0.7,0,0.8,0.3,0.8h0.6c0.3,0,0.4-0.3,0.5-2.5c0.8,0.5,1.6,0.8,2.4,1.1
			c-0.2,3.1-0.9,4-2.6,4h-1.5c-2,0-2.6-0.8-2.6-3.2v-3H422v0.4c0,2.3-0.5,5.2-3.1,7h8.8l0.5-0.1L430.1,100.3z M416.8,102.2h-7.7V100
			h7.7V102.2z M416.8,92h-7.5v-2.2h7.5V92z M414.2,105.8h-2.6v2.9h2.6V105.8z M421.6,102.4c0.6,1.3,1.4,2.4,2.4,3.4
			c1-1,1.8-2.1,2.3-3.4H421.6z"/>
		<path class="st3" d="M443.1,95.5h-10.2v-2.3h10.2L443.1,95.5z M442,111h-5.5v1H434v-8.5h8V111z M434,96.6h8v2.3h-8V96.6z M434,100
			h8v2.2h-8V100z M442.1,92h-7.9v-2.2h7.9V92z M436.5,105.8v2.9h2.9v-2.9H436.5z M456.4,100.3h-5.2v12h-3v-12H443v-3h5.2v-8.2h3v8.2
			h5.2L456.4,100.3z"/>
		<circle class="st2" cx="601" cy="96.9" r="20"/>
		<path class="st0" d="M599.5,98h-8.1v-2.7h8.1v-8.8h2.9v8.8h8.1V98h-8.1v8.8h-2.9V98z"/>
	</g>
</g>
<rect x="173.4" y="46.7" class="st0" width="13.3" height="99.8"/>
<rect x="300" y="82.9" class="st0" width="3.4" height="27.1"/>
<rect x="509.3" y="46.7" class="st0" width="15.2" height="99.8"/>
<rect x="559.2" y="83.3" class="st0" width="2.9" height="26.3"/>
<rect x="91.1" y="252.8" class="st0" width="2.9" height="27.3"/>
<rect x="306.5" y="216.7" class="st0" width="9" height="99.8"/>
<rect x="349.7" y="253.2" class="st0" width="3.4" height="26.1"/>
<rect x="429.1" y="252.8" class="st0" width="4" height="26.5"/>
<rect x="466" y="216.7" class="st0" width="3.4" height="99.8"/>
</svg>
