<svg xmlns="http://www.w3.org/2000/svg" viewBox="0 0 872 364.22"><defs><style>.cls-1,.cls-4{fill:none;}.cls-1,.cls-3,.cls-4{stroke:#d36100;}.cls-1,.cls-3{stroke-miterlimit:10;}.cls-2{fill:#d36100;}.cls-3,.cls-6{fill:#fff;}.cls-4{stroke-linecap:round;stroke-linejoin:round;stroke-width:4px;}.cls-5{fill:#a6dfee;}.cls-7{fill:#ed6a02;}</style></defs><title>Asset 2</title><g id="Layer_2" data-name="Layer 2"><g id="レイヤー_1" data-name="レイヤー 1"><path class="cls-1" d="M465.73,177.06S464.29,208,480.85,208s20.87-19.44,20.87-19.44"/><path class="cls-2" d="M465,174.9s3.6,4.32,16.56,4.32a64.56,64.56,0,0,0,23-4.32,6.71,6.71,0,0,0-.19-1.4,6.81,6.81,0,0,0-.53-1.48,13.43,13.43,0,0,0-2.16-2.88h2.16l.72,3.6a16.26,16.26,0,0,0,0-6.48c-.72-3.6-7.2-13.68-15.84-14.4S466.45,156.18,465,174.9Z"/><path class="cls-2" d="M507.12,169.5s0-4.32,8.64-5C515.76,164.46,515,170.22,507.12,169.5Z"/><path class="cls-2" d="M506.4,173.1a8.84,8.84,0,0,1,6.48-1.44c3.6.72,4.32,1.44,4.32,1.44S512.88,178.14,506.4,173.1Z"/><path class="cls-1" d="M502.08,180.29s1.44-3.59,4.32-1.43-.72,9.35-5,7.91"/><path class="cls-1" d="M471.13,204.05s.72,8.64-1.44,15.83h26.63s2.88-10.07,1.44-17.27"/><path class="cls-1" d="M499.92,199h5s4.32,8.64,2.16,26.63S492,264.51,492,264.51"/><path class="cls-1" d="M465.37,199c0-.72-4.32,0-4.32,0s2.88,19.43-2.88,28.07-8.64,10.08-8.64,10.08"/><path class="cls-1" d="M427.94,255.16s-.72-2.88,2.88-2.88,5.76.72,8.64,4.31,7.19,2.16,7.19,4.32-6.47,1.44-7.19,1.44-2.16,2.16-1.44,4.32.72,1.44.72,1.44-7.92-1.44-9.36-3.6A13.71,13.71,0,0,1,427.94,255.16Z"/><path class="cls-1" d="M446.65,240.76s-2.87,9.36-5.75,13.68"/><path class="cls-1" d="M458.89,200.45s-5-5-10.8-1.44-18,20.87-18,20.87,5,10.08,10.8,11.52,5.75,2.16,5.75,2.16l7.2-7.2"/><path class="cls-1" d="M433.7,250.12s-7.92-3.6-11.52,0-4.32,5-4.32,5"/><path class="cls-1" d="M442.34,235s-7.2,13-8.64,13.68"/><path class="cls-1" d="M430.1,224.2s-13.68,25.92-14.4,27.36-2.16,9.35,2.16,12.23,7.2,3.6,12.24,3.6"/><line class="cls-1" x1="438.02" y1="267.39" x2="440.9" y2="270.99"/><line class="cls-1" x1="444.49" y1="262.33" x2="448.09" y2="265.95"/><path class="cls-1" d="M507.12,200.45s7.2-1.44,10.8,2.16,7.19,21.59,7.19,21.59-10.07,3.6-15.83,2.88"/><path class="cls-1" d="M521.51,227.08v15.84"/><path class="cls-1" d="M507.84,237.16s.72,18,3.6,23,7.2,7.92,12.95,3.6,18.72-26.63,18.72-26.63"/><path class="cls-1" d="M515.76,255.16s4.32-6.48,19.43-20.16"/><path class="cls-1" d="M537.46,234.16s-2.36-6.94-.78-10,2.35-10.8,3.14-9.25a9.55,9.55,0,0,1,.79,4.62c0,1.54,1.57,6.94,1.57,8.48"/><path class="cls-1" d="M542.18,220.28s3.93-10.79,5.5-10.79-1.57,9.25-1.57,9.25h.78s3.15-10,4.72-9.25-3.15,11.56-3.15,11.56,3.93-9.25,5.51-8.48-3.15,10.79-3.15,10.79,4.72-5.39,5.5-4.62-3.14,6.94-4.71,9.25-3.93,6.94-6.29,7.71-2.36,0-2.36,0"/><path class="cls-1" d="M477.61,274.59c.72,0,32.39-14.4,32.39-14.4"/><path class="cls-1" d="M541,244.36c.72,0,32.39-14.4,32.39-14.4"/><path class="cls-1" d="M394.83,307c.72,0,32.39-14.39,32.39-14.39"/><ellipse class="cls-3" cx="456.01" cy="289.35" rx="24.47" ry="23.39"/><ellipse class="cls-3" cx="456.01" cy="289.35" rx="18" ry="17.2"/><ellipse class="cls-3" cx="331.66" cy="178.48" rx="28.97" ry="27.69"/><ellipse class="cls-3" cx="331.66" cy="178.48" rx="21.3" ry="20.36"/><path class="cls-2" d="M456.73,280.35s.72-2.88,5-5,3.6-6.48,6.48-7.2,5.76-1.44,8.64,4.32,0,13.68-2.88,15.84-7.2,5.75-12.24,2.16S456,284,456.73,280.35Z"/><path class="cls-2" d="M463.93,297.62c2.16-2.88,2.16-4.31,4.32-2.16s1.79,3.16-.91,4.46S463.93,297.62,463.93,297.62Z"/><path class="cls-2" d="M477,267.39c.86-3.41,4.27-6.82,6-4.26S477,267.39,477,267.39Z"/><path class="cls-2" d="M471.87,262.28s-.85-6.82,1.7-6S471.87,262.28,471.87,262.28Z"/><path class="cls-3" d="M456.73,296.18a2.23,2.23,0,0,1,2.88-1.44s5.76-.72,4.32,0-.72,3.6-1.44,4.32-.72,2.16-2.16,1.44S456.73,296.18,456.73,296.18Z"/><path class="cls-3" d="M471.13,293.31s3.6-5,5-2.16,0,4.31-1.44,5.75S471.13,293.31,471.13,293.31Z"/><path class="cls-2" d="M474.28,335.64s-3.83-1.92,2.87-6.7C477.15,328.94,481,338.51,474.28,335.64Z"/><path class="cls-2" d="M470,327.72s-3.83-1.91,2.87-6.7C472.83,321,476.66,330.6,470,327.72Z"/><path class="cls-2" d="M477.16,319.08s-3.83-1.91,2.87-6.7C480,312.38,483.86,322,477.16,319.08Z"/><path class="cls-2" d="M488.67,321.24s-3.83-1.91,2.88-6.7C491.55,314.54,495.38,324.12,488.67,321.24Z"/><path class="cls-2" d="M497.31,329.16s-3.83-1.91,2.88-6.7C500.19,322.46,504,332,497.31,329.16Z"/><path class="cls-2" d="M492.27,339.24s-3.83-1.92,2.88-6.71C495.15,332.53,499,342.11,492.27,339.24Z"/><path class="cls-2" d="M482.92,340.68s-3.84-1.92,2.87-6.71C485.79,334,489.62,343.55,482.92,340.68Z"/><path class="cls-3" d="M521.51,284s11-11.61,13.38,4.3c0,0,5.23-3.08,5,7.67s-7.8,6.49-7.8,6.49-1.27,6-9.23,5-4.86-8.74-4.86-8.74-7.48-.5-5.6-7.08S521.51,284,521.51,284Z"/><path class="cls-1" d="M527.27,286.83a6.2,6.2,0,0,1,7.08,1.46c3.72,3.58.84,10,.84,10"/><path class="cls-1" d="M519.36,288.27s-2.31-.11-2.88,6.47"/><path class="cls-3" d="M488.76,302.3s0-14.39,13.68-6.48c0,0,1.44-5,9.36,1.44s-.72,8.64-.72,8.64,3.6,4.32-2.88,8.64-10.08-2.16-10.08-2.16-5.76,4.32-9.36-.72A7.7,7.7,0,0,1,488.76,302.3Z"/><path class="cls-1" d="M499.2,301.94s-1.44-3.6,2.88-5.76,5.76,2.88,5.76,2.88"/><path class="cls-1" d="M494.88,306.26s-.46,3.05,4.09,7.29"/><path class="cls-3" d="M481.6,320.42s0-8.24,7.82-3.71c0,0,.82-2.88,5.35.82s-.41,4.94-.41,4.94,2.06,2.47-1.65,4.94a3.84,3.84,0,0,1-5.76-1.23s-3.29,2.47-5.35-.41A4.39,4.39,0,0,1,481.6,320.42Z"/><path class="cls-1" d="M487.57,320.21s-.83-2.06,1.64-3.29,3.3,1.64,3.3,1.64"/><path class="cls-1" d="M485.1,322.68s-.26,1.74,2.34,4.16"/><path class="cls-1" d="M382.59,201.17s.72,4.32,10.08,3.6S404.19,199,404.19,199"/><path class="cls-1" d="M406.34,196.13h6.48s7.2-7.2,13-3.6,6.48,11.52,10.08,12.24"/><line class="cls-1" x1="418.58" y1="215.57" x2="425.78" y2="222.76"/><path class="cls-1" d="M422.18,224.2S420,235,420.74,240.76"/><path class="cls-1" d="M370.35,213.41s-11.51,33.11,13.68,82"/><path class="cls-1" d="M379.71,201.89s-4.32,1.44-7.2.72a10.78,10.78,0,0,0-12.95,7.2c-2.88,7.91-8.64,17.27-8.64,17.27s5,10.08,14.4,11.52"/><path class="cls-1" d="M382.59,240.76s4.32,18,19.44,28.79"/><path class="cls-1" d="M386.69,181.94s-3.84-.52-3,3,6.47,5.05,9.09,3.65"/><path class="cls-1" d="M384,189.65s1.44,4.32-1.44,10.8"/><path class="cls-1" d="M410.66,161.58s6.48,5.76,7.2,13.68,0,14.39-3.6,16.55-12.95,4.32-18.71,0"/><path class="cls-2" d="M389.07,179.57s7.2-.71,13-7.91a82,82,0,0,0,8.63-13s-7.19-10.08-17.27-9.36-20.88,7.92-21.6,13.68,0,13,2.88,16.55,5,2.16,5,2.16l1.44-3.59,2.88-.72s1.44,3.59-2.88,5Z"/><path class="cls-2" d="M377.55,184.61s-5,0-5.76,4.32C371.79,188.93,374,192.53,377.55,184.61Z"/><path class="cls-2" d="M379.71,183.89s-2.88,1.44-2.16,5.76l.72,4.32S382.59,190.37,379.71,183.89Z"/><path class="cls-3" d="M302,183.17s2.16-9.35,6.48-10.79,7.92,0,10.8-1.44,2.88-3.6,10.08-3.6,15.83-.72,18,5,2.16,17.27-1.44,18.71-11.52,5.76-16.55,5-7.92-1.44-10.8,0-5,9.36-10.08,7.92-13.68-2.88-13-5.76,0-4.32-2.16-5-7.19-2.16-4.31-4.32,4.31-3.6,7.91-2.16S302,183.17,302,183.17Z"/><path class="cls-3" d="M284.7,191.81s-5-2.16-5.76.72S284,194.69,284.7,191.81Z"/><path class="cls-3" d="M288.3,197.57s-5.76,2.16-3.6,4.32S289.74,199.73,288.3,197.57Z"/><path class="cls-3" d="M278.94,199s-4.32,0-2.16,3.6S278.94,199,278.94,199Z"/><path class="cls-1" d="M341.56,207.65s-2.16-4.32-7.2-2.16a15.45,15.45,0,0,1-11.62.06c-2.05-.78-2.77,1.38,3,4.26s11.51,1.44,12.23,5,0,24.47.72,28.07,5,18.71,12.24,15.83,13-18,13-18"/><line class="cls-1" x1="353.08" y1="232.84" x2="347.32" y2="242.2"/><path class="cls-1" d="M348.76,204.05s1.44,4.32,0,7.2a16.62,16.62,0,0,0-1.44,6.47l2.88,14.4"/><polyline class="cls-1" points="359.56 127.03 438.02 98.24 502.08 129.19 428.66 169.5"/><line class="cls-1" x1="502.08" y1="132.07" x2="502.08" y2="157.98"/><path class="cls-1" d="M476.17,45.69c-.72.72,0,67.66,0,67.66"/><line class="cls-1" x1="504.24" y1="96.08" x2="525.11" y2="83.84"/><line class="cls-1" x1="503.52" y1="89.6" x2="524.39" y2="77.36"/><line class="cls-1" x1="499.92" y1="84.56" x2="520.79" y2="72.32"/><line class="cls-1" x1="510" y1="82.4" x2="530.87" y2="70.16"/><line class="cls-1" x1="520.79" y1="78.08" x2="541.67" y2="65.84"/><line class="cls-1" x1="508.56" y1="97.52" x2="529.43" y2="85.28"/><line class="cls-1" x1="514.32" y1="92.48" x2="535.19" y2="80.24"/><line class="cls-1" x1="517.2" y1="100.4" x2="538.07" y2="88.16"/><line class="cls-1" x1="507.17" y1="71.17" x2="526.5" y2="85.72"/><line class="cls-1" x1="512.93" y1="86.28" x2="532.26" y2="100.83"/><line class="cls-1" x1="515.09" y1="83.4" x2="534.42" y2="97.95"/><line class="cls-1" x1="523.72" y1="79.8" x2="543.06" y2="94.35"/><line class="cls-1" x1="507.89" y1="91.32" x2="527.22" y2="105.87"/><line class="cls-1" x1="517.97" y1="93.48" x2="537.3" y2="108.03"/><line class="cls-1" x1="499.97" y1="74.05" x2="519.3" y2="88.6"/><line class="cls-1" x1="495.65" y1="76.92" x2="514.99" y2="91.48"/><line class="cls-1" x1="524.89" y1="137.11" x2="539.35" y2="128.63"/><line class="cls-1" x1="524.39" y1="132.62" x2="538.85" y2="124.15"/><line class="cls-1" x1="527.88" y1="138.1" x2="542.34" y2="129.63"/><line class="cls-1" x1="533.86" y1="140.1" x2="548.32" y2="131.63"/><line class="cls-1" x1="530.91" y1="130.33" x2="544.29" y2="140.4"/><line class="cls-1" x1="532.4" y1="128.33" x2="545.79" y2="138.41"/><line class="cls-1" x1="538.38" y1="125.84" x2="551.77" y2="135.91"/><line class="cls-1" x1="527.42" y1="133.81" x2="540.81" y2="143.89"/><line class="cls-1" x1="534.4" y1="135.31" x2="547.78" y2="145.38"/><line class="cls-1" x1="464.43" y1="132.79" x2="478.88" y2="124.32"/><line class="cls-1" x1="463.93" y1="128.3" x2="478.38" y2="119.83"/><line class="cls-1" x1="467.42" y1="133.79" x2="481.87" y2="125.31"/><line class="cls-1" x1="473.4" y1="135.78" x2="487.85" y2="127.31"/><line class="cls-1" x1="470.44" y1="126.01" x2="483.83" y2="136.08"/><line class="cls-1" x1="471.94" y1="124.01" x2="485.32" y2="134.09"/><line class="cls-1" x1="477.92" y1="121.52" x2="491.31" y2="131.6"/><line class="cls-1" x1="466.96" y1="129.5" x2="480.34" y2="139.57"/><line class="cls-1" x1="473.93" y1="130.99" x2="487.32" y2="141.07"/><line class="cls-1" x1="418.36" y1="119.11" x2="432.81" y2="110.64"/><line class="cls-1" x1="411.88" y1="112.63" x2="426.34" y2="104.16"/><line class="cls-1" x1="417.86" y1="114.63" x2="432.31" y2="106.15"/><line class="cls-1" x1="421.35" y1="120.11" x2="435.8" y2="111.64"/><line class="cls-1" x1="427.33" y1="122.1" x2="441.78" y2="113.63"/><line class="cls-1" x1="424.38" y1="112.33" x2="437.76" y2="122.4"/><line class="cls-1" x1="425.87" y1="110.34" x2="439.26" y2="120.41"/><line class="cls-1" x1="414.35" y1="107.46" x2="427.74" y2="117.53"/><line class="cls-1" x1="403.56" y1="110.34" x2="416.94" y2="120.41"/><line class="cls-1" x1="396.36" y1="114.66" x2="409.74" y2="124.73"/><line class="cls-1" x1="431.85" y1="107.85" x2="445.24" y2="117.92"/><line class="cls-1" x1="420.89" y1="115.82" x2="434.27" y2="125.89"/><line class="cls-1" x1="427.86" y1="117.31" x2="441.25" y2="127.39"/><path class="cls-2" d="M476.53,89.6s8.63-5.76,10.79,0,2.88,8.64,1.44,10.8a6.55,6.55,0,0,1-5.76,2.88c-2.15,0-2.15,0-2.87,2.15s-4.72,3.6-4.72,3.6Z"/><polyline class="cls-1" points="482.64 101.48 484.08 109.39 491.28 110.83"/><polyline class="cls-1" points="486.24 118.75 486.24 113.71 484.08 112.27 484.08 109.39"/><line class="cls-1" x1="480.49" y1="110.83" x2="483.58" y2="106.59"/><path class="cls-4" d="M425.06,182.45s4.32,5,12.24-3.59c0,0-2.16,5.75,1.44,7.19s7.19-2.16,7.19-2.16-2.15,5.76,3.6,8.64"/><line class="cls-1" x1="332.2" y1="39.21" x2="332.2" y2="65.13"/><circle class="cls-1" cx="332.2" cy="77.36" r="11.52"/><path class="cls-1" d="M396.27,49.57a17.63,17.63,0,1,1-25.2,1.48"/><path class="cls-1" d="M361.17,66.74a23.1,23.1,0,0,1,5.68-15.22"/><path class="cls-1" d="M400,49.57a23.15,23.15,0,0,1,7.58,17.17"/><line class="cls-1" x1="384.75" y1="21.22" x2="384.75" y2="47.13"/><circle class="cls-2" cx="384.75" cy="59.37" r="11.52"/><path class="cls-1" d="M341.55,228.48a3.12,3.12,0,0,1,.32,2.4c-.32,1.5-1.64,3-.32,4.2s2.94-1.8,2.94-1.8"/><path class="cls-1" d="M354.5,240.72a3.1,3.1,0,0,1,.33,2.4c-.33,1.5-1.64,3-.33,4.19s2.95-1.79,2.95-1.79"/><path class="cls-1" d="M347.3,245.76a3.1,3.1,0,0,1,.33,2.4c-.33,1.49-1.64,3-.33,4.19s2.95-1.8,2.95-1.8"/><path class="cls-1" d="M339.39,250.8a3.1,3.1,0,0,1,.32,2.39c-.32,1.5-1.63,3-.32,4.2s2.94-1.8,2.94-1.8"/><path class="cls-1" d="M388.33,192.49a3.1,3.1,0,0,1,.33,2.4c-.33,1.5-1.64,3-.33,4.2s2.95-1.8,2.95-1.8"/><path class="cls-1" d="M396.25,181a3.1,3.1,0,0,1,.33,2.4c-.33,1.5-1.64,3-.33,4.2s2.95-1.8,2.95-1.8"/><path class="cls-1" d="M403.45,184.57a3.15,3.15,0,0,1,.33,2.4c-.33,1.5-1.64,3-.33,4.2s2.95-1.8,2.95-1.8"/><path class="cls-1" d="M466.79,198.25a3.1,3.1,0,0,1,.33,2.4c-.33,1.5-1.64,3-.33,4.2s2.95-1.8,2.95-1.8"/><path class="cls-1" d="M469.67,186a3.1,3.1,0,0,1,.33,2.4c-.33,1.5-1.64,3-.33,4.2s2.95-1.8,2.95-1.8"/><path class="cls-1" d="M474,195.37a3.1,3.1,0,0,1,.33,2.4c-.33,1.5-1.64,3-.33,4.2s2.95-1.8,2.95-1.8"/><path class="cls-1" d="M493.43,185.29a3.12,3.12,0,0,1,.32,2.4c-.32,1.5-1.64,3-.32,4.2s2.94-1.8,2.94-1.8"/><path class="cls-1" d="M512.86,232.8a3.1,3.1,0,0,1,.33,2.4c-.33,1.5-1.64,3-.33,4.2s2.95-1.8,2.95-1.8"/><path class="cls-1" d="M425.76,237.84a3.1,3.1,0,0,1,.33,2.4c-.33,1.5-1.64,3-.33,4.19s2.95-1.79,2.95-1.79"/><path class="cls-1" d="M433,231.36a3.1,3.1,0,0,1,.33,2.4c-.33,1.5-1.64,3-.33,4.2s3-1.8,3-1.8"/><path class="cls-1" d="M510.7,246.48a3.1,3.1,0,0,1,.33,2.4c-.33,1.49-1.64,3-.33,4.19s2.95-1.8,2.95-1.8"/><path class="cls-1" d="M518.62,255.83a3.15,3.15,0,0,1,.33,2.4c-.33,1.5-1.64,3-.33,4.2s3-1.8,3-1.8"/><path class="cls-1" d="M527.26,249.36a3.1,3.1,0,0,1,.32,2.39c-.32,1.5-1.63,3-.32,4.2s3-1.8,3-1.8"/><path class="cls-5" d="M430.76,9.22A175,175,0,0,1,554.5,308,175,175,0,0,1,307,60.47,173.88,173.88,0,0,1,430.76,9.22m0-5a180,180,0,1,0,180,180,180,180,0,0,0-180-180Z"/><path class="cls-6" d="M175.78,135.51a35.14,35.14,0,0,1-30.31-17.33l-.26-.43-.43.26a35,35,0,0,1-18.3,5.17C105.09,123.18,95.38,103.5,91,87c-1.85-7,1.6-27.93,13.68-33.62l.38-.18-.11-.41a36.43,36.43,0,0,1-1.46-10.22c0-19.75,22.79-35.06,42.4-35.06,11.69,0,27.68,4.47,34.25,17.05l.28.55.48-.39c6-4.88,10.78-5.71,19.14-5.71,19.56,0,35.47,16.18,35.47,36.07A36.26,36.26,0,0,1,226,79.63l-.37.41.44.33a23.82,23.82,0,0,1-13.9,42.81,23,23,0,0,1-8.06-1.45l-.34-.13-.23.29A35.1,35.1,0,0,1,175.78,135.51Z"/><path class="cls-2" d="M145.88,8c11.55,0,27.34,4.4,33.81,16.79l.56,1.08.95-.77c5.92-4.79,10.6-5.6,18.83-5.6,19.28,0,35,16,35,35.57a35.78,35.78,0,0,1-9.38,24.23l-.74.81.88.66a23.32,23.32,0,0,1-13.6,41.91,22.47,22.47,0,0,1-7.88-1.42l-.69-.25-.45.57a34.63,34.63,0,0,1-57.24-3.66l-.52-.86-.86.53a34.5,34.5,0,0,1-18,5.09c-8.92,0-16.57-3.57-22.74-10.63C98.43,106,94.3,97.5,91.48,86.86c-1.82-6.85,1.55-27.45,13.4-33l.77-.37-.23-.82A35.86,35.86,0,0,1,104,42.56C104,23.1,126.5,8,145.88,8m0-1C126,7,103,22.36,103,42.56a36.85,36.85,0,0,0,1.48,10.36c-12.33,5.8-15.93,26.74-13.95,34.2,5.18,19.49,16.1,36.56,36,36.56A35.32,35.32,0,0,0,145,118.44a35.64,35.64,0,0,0,58.89,3.76,23.37,23.37,0,0,0,8.23,1.48A24,24,0,0,0,236,99.44,24.33,24.33,0,0,0,226.36,80,36.75,36.75,0,0,0,236,55.07c0-20.19-16.1-36.57-36-36.57-8.46,0-13.31.86-19.45,5.82C174.53,12.76,159.66,7,145.88,7Z"/><path class="cls-3" d="M193,122.42s19.79,20.13,42.56,13.08c0,0-17.82-4-20.79-21.12"/><path class="cls-7" d="M161.3,55.9a11.92,11.92,0,0,1-2.52,4.7,11.18,11.18,0,0,0,3.52,1.48,9.85,9.85,0,0,0-1.4,1.86,11.2,11.2,0,0,1-3.72-1.86,13,13,0,0,1-3.4,1.86,8.84,8.84,0,0,0-1.06-1.6V64h-2.28V62.34l-6.34.58-.18-2c.52,0,1.12-.06,1.74-.12V54.68H144.1V52.79h17.78v1.89h-9.16V62a10.27,10.27,0,0,0,2.84-1.44,12.25,12.25,0,0,1-1.82-3l1.32-.36h-1.84V55.42h6.22l.4-.08Zm-1.72-3.85H146.44V45.91h13.14Zm-11.74,2.63v.8h2.6v-.8Zm0,3.3h2.6v-.84h-2.6Zm0,2.62c.84-.06,1.72-.12,2.6-.2v-.78h-2.6Zm9.36-13.17h-8.48v.82h8.48Zm0,2.26h-8.48v.84h8.48Zm-1.46,7.55a7.74,7.74,0,0,0,1.34,2,8.37,8.37,0,0,0,1.36-2Z"/><path class="cls-7" d="M168.56,59.32c.82,1.34,2.32,1.88,4.4,2,2.34.1,6.84,0,9.5-.16a12.46,12.46,0,0,0-.74,2.4c-2.4.12-6.42.16-8.8.06s-4.1-.66-5.4-2.22c-.88.78-1.76,1.56-2.86,2.4l-1.16-2.48a26.27,26.27,0,0,0,2.74-1.84V55.22h-2.3V53h4.62Zm-1.38-9A15.13,15.13,0,0,0,164,47.17l1.76-1.44a16,16,0,0,1,3.34,3Zm6.12,2.72a11.57,11.57,0,0,1-2.78,7.15,5.86,5.86,0,0,0-1.72-1.64c2-2.18,2.28-5.19,2.28-7.51V46.49l2,.38a34.14,34.14,0,0,0,6.32-1.58l2,1.82a42.08,42.08,0,0,1-8,1.74v2h8.72v2.2h-3.34v7.47H176.4V53.05Z"/><path class="cls-7" d="M114.09,79.55H112V75.49h7.54v-.76h-6.18V73h14.74v1.76h-6.24v.76h7.7v4.06h-2.2V77.07h-5.5v4.16h-2.32V77.07h-5.44Zm12.82,9.53c1,0,1.18-.3,1.32-2a6.08,6.08,0,0,0,2,.76c-.28,2.4-.92,3.06-3.1,3.06h-4.2c-2.74,0-3.5-.58-3.5-2.68v-.06h-3.32V89h-2.26V81.78h13.84v6.38h-6v.06c0,.74.22.86,1.44.86Zm-12.42-9.35h4.32V81h-4.32Zm4.32-.7h-3.94V77.75h3.94Zm-2.72,4.35v.88h3.32v-.88Zm3.32,3.18V85.7h-3.32v.86Zm5.9-3.18h-3.62v.88h3.62Zm0,3.18V85.7h-3.62v.86Zm1.2-8.81V79h-3.9V77.75Zm-3.9,2H127V81h-4.36Z"/><path class="cls-7" d="M146.75,80c0,4.81.22,8.59,1.38,8.59.3,0,.38-1.06.42-2.68a9.63,9.63,0,0,0,1.54,1.48c-.18,2.5-.6,3.56-2.14,3.56-2.92,0-3.5-3.82-3.62-8.94H133.61V80.37l-.18.17A18.38,18.38,0,0,0,131.27,79a13.14,13.14,0,0,0,4.26-6.84l2.48.52c-.16.5-.32,1-.5,1.48h11.82v2h-12.7c-.16.32-.34.64-.52.94h11.4V79H136V77.35A15.91,15.91,0,0,1,134,80Zm-4,2.87a18.09,18.09,0,0,1-2.12,3.1,22.89,22.89,0,0,1,3.16,2.54l-1.9,1.8a22.9,22.9,0,0,0-3-2.58,22.28,22.28,0,0,1-5.2,3.52A15.51,15.51,0,0,0,132,89.42a17.7,17.7,0,0,0,5.06-3c-1.14-.76-2.3-1.46-3.36-2.06l1.7-1.56c1,.54,2.2,1.22,3.34,1.94a13.08,13.08,0,0,0,1.76-2.58Z"/><path class="cls-7" d="M158.73,73.17a31.78,31.78,0,0,1-1.86,3.68V90.92h-2.48V80.41a19,19,0,0,1-2.08,2.25A15.35,15.35,0,0,0,151,80.23a20.9,20.9,0,0,0,5.46-7.8Zm5.48,7.24c.56,4.45,1.62,7.41,3.22,7.61.46,0,.7-1,.86-3.18a8.18,8.18,0,0,0,1.94,1.36c-.5,3.86-1.58,4.78-2.7,4.72-3.38-.32-5-4.08-5.68-10.19l-3.94.54-.34-2.3,4-.54c-.14-1.8-.26-3.76-.32-5.86h2.42c0,2,.12,3.84.26,5.54l5.7-.74.34,2.24Zm3.58-3.54a17,17,0,0,0-2.74-3.36l1.78-1.1a18.06,18.06,0,0,1,2.88,3.22Z"/><path class="cls-7" d="M179.85,73.61c-.12.52-.24,1.14-.34,1.64s-.28,1.32-.42,2c.66,0,1.26-.08,1.66-.08,2.1,0,3.58.94,3.58,3.78,0,2.35-.28,5.51-1.12,7.23A3.16,3.16,0,0,1,180,90a11.21,11.21,0,0,1-2.36-.28l-.44-2.62a11.56,11.56,0,0,0,2.44.42,1.46,1.46,0,0,0,1.48-.86,15.14,15.14,0,0,0,.8-5.43c0-1.58-.68-1.8-1.92-1.8-.32,0-.8,0-1.36.08-.78,3-2.22,7.67-4,10.59l-2.58-1a29.33,29.33,0,0,0,4-9.27c-.7.08-1.32.16-1.7.22-.56.06-1.58.2-2.2.3l-.22-2.68a18.39,18.39,0,0,0,2.1,0c.62,0,1.56-.08,2.56-.16a21.93,21.93,0,0,0,.42-4.2ZM187,76a39.43,39.43,0,0,1,3.22,6.91l-2.52,1.18a22.48,22.48,0,0,0-3.34-7.47l1.84-.78a22.11,22.11,0,0,0-1.36-2.36l1.58-.66c.5.74,1.2,2,1.6,2.74Zm1.82-.66a20,20,0,0,0-1.62-2.76l1.58-.66a23.67,23.67,0,0,1,1.62,2.72Z"/><path class="cls-7" d="M197.17,87.58A1.83,1.83,0,1,1,199,89.5,1.84,1.84,0,0,1,197.17,87.58Z"/><path class="cls-7" d="M203.67,87.58a1.83,1.83,0,1,1,1.82,1.92A1.84,1.84,0,0,1,203.67,87.58Z"/><path class="cls-7" d="M210.17,87.58A1.83,1.83,0,1,1,212,89.5,1.84,1.84,0,0,1,210.17,87.58Z"/><path class="cls-6" d="M85.78,227.51a35.14,35.14,0,0,1-30.31-17.33l-.26-.43-.43.26a35,35,0,0,1-18.3,5.17C15.09,215.18,5.38,195.5,1,179c-1.85-7,1.6-27.93,13.68-33.62l.38-.18-.11-.41a36.43,36.43,0,0,1-1.46-10.22c0-19.75,22.79-35.06,42.4-35.06,11.69,0,27.68,4.47,34.25,17l.28.55.48-.39c6-4.88,10.78-5.71,19.14-5.71,19.56,0,35.47,16.18,35.47,36.07A36.26,36.26,0,0,1,136,171.63l-.37.41.44.33a23.82,23.82,0,0,1-13.9,42.81,23,23,0,0,1-8.06-1.45l-.34-.13-.23.29A35.1,35.1,0,0,1,85.78,227.51Z"/><path class="cls-2" d="M55.88,100c11.55,0,27.34,4.4,33.81,16.79l.56,1.08,1-.77c5.92-4.79,10.6-5.6,18.83-5.6,19.28,0,35,16,35,35.57a35.78,35.78,0,0,1-9.38,24.23l-.74.81.88.66a23.32,23.32,0,0,1-13.6,41.91,22.47,22.47,0,0,1-7.88-1.42l-.69-.25-.45.57a34.63,34.63,0,0,1-57.24-3.66l-.52-.86-.86.53a34.5,34.5,0,0,1-18,5.09c-8.92,0-16.57-3.57-22.74-10.63C8.43,198,4.3,189.5,1.48,178.86c-1.82-6.85,1.55-27.45,13.4-33l.77-.37-.23-.82A35.86,35.86,0,0,1,14,134.56C14,115.1,36.5,100,55.88,100m0-1C36,99,13,114.36,13,134.56a36.85,36.85,0,0,0,1.48,10.36C2.13,150.72-1.47,171.66.51,179.12c5.18,19.49,16.1,36.56,36,36.56A35.32,35.32,0,0,0,55,210.44a35.64,35.64,0,0,0,58.89,3.76,23.37,23.37,0,0,0,8.23,1.48A24,24,0,0,0,146,191.44,24.33,24.33,0,0,0,136.36,172a36.75,36.75,0,0,0,9.64-24.9c0-20.19-16.1-36.57-36-36.57-8.46,0-13.31.86-19.45,5.82C84.53,104.76,69.66,99,55.88,99Z"/><path class="cls-3" d="M103,214.42s19.79,20.13,42.56,13.08c0,0-17.82-4-20.79-21.12"/><path class="cls-7" d="M47.56,154.66c0-.32,0-.66,0-1H38.46c-.78,0-1.92.06-2.58.12v-2.86c.7.06,1.6.12,2.5.12H47.6v-8.29h-9c-.84,0-1.92,0-2.48.08V140c.74.08,1.78.12,2.48.12H48.68c.58,0,1.42,0,1.76,0,0,.46-.06,1.26-.06,1.84V152.3c0,.7,0,1.76.08,2.36Z"/><path class="cls-7" d="M63,149.72a19,19,0,0,0,7.28-7.79l1.56,2.82a21.21,21.21,0,0,1-7.4,7.41A21.66,21.66,0,0,1,57,155l-1.68-2.64A20.61,20.61,0,0,0,63,149.72Zm0-6.49-2,2.1a41.58,41.58,0,0,0-5-4.32l1.88-2A42,42,0,0,1,63,143.23Z"/><path class="cls-7" d="M90.58,151.78c0,.78,0,2.7,0,2.78H87.86l0-1.1H78.24l0,1.1H75.5c0-.1.06-1.84.06-2.8V142c0-.56,0-1.38,0-1.94.82,0,1.58,0,2.12,0h11c.5,0,1.26,0,2,0,0,.6,0,1.34,0,1.94Zm-12.34-9.17v8.31H87.9v-8.31Z"/><path class="cls-7" d="M102.42,152.7c.76-.1,1.32-.2,1.84-.32a5.36,5.36,0,0,0,4.5-5.3c0-2.75-1.48-4.79-4.14-5.25a43.57,43.57,0,0,1-1.18,5.39c-1.18,4-2.9,6.44-5.06,6.44s-4-2.42-4-5.76c0-4.57,4-8.49,9.12-8.49,4.9,0,8,3.42,8,7.75,0,4.16-2.56,7.12-7.56,7.88Zm-1.54-6a32.2,32.2,0,0,0,1.06-4.81,6.21,6.21,0,0,0-5,5.75c0,2,.8,3,1.54,3S100.08,149.38,100.88,146.7Z"/><path class="cls-7" d="M30.26,169.45h-6.6v-1.88h6.6Zm11.52,10.83c0,1.16-.18,1.84-.86,2.22a6.37,6.37,0,0,1-3.08.44,8.25,8.25,0,0,0-.66-2.32c.82,0,1.74,0,2,0s.36-.08.36-.38V167H33.2v5.42c0,3.19-.24,7.75-1.8,10.63a7.47,7.47,0,0,0-1.66-1.18H26.26v.8H24.42v-6.82h5.32v5.56c1.2-2.6,1.3-6.22,1.3-9V165H41.78Zm-12-8.11h-5.3v-1.82h5.3Zm-5.3.93h5.3v1.78h-5.3Zm5.24-6.41H24.6v-1.8h5.12Zm-1.88,11H26.26V180h1.58Zm7.56-6.11v-1.36H33.86v-1.72H35.4v-1.3h1.86v1.3h1.58v1.72H37.26v1.36H39v1.74h-5.2v-1.74Zm.18,8.07v.68H33.9v-6h4.92v5.3Zm0-3.58V178H37.1V176.1Z"/><path class="cls-7" d="M62.18,175.38H54.26v4.8c0,1.38-.3,2-1.26,2.4a11.81,11.81,0,0,1-4.16.42,10.78,10.78,0,0,0-1-2.46c1.38.06,2.92.06,3.38.06s.56-.1.56-.46v-4.76H43.84V173h7.94v-3.16H53a24.33,24.33,0,0,0,2.86-2h-9.9v-2.34H58.3l.54-.12,1.82,1.36a31.13,31.13,0,0,1-6.4,5V173h7.92Z"/><path class="cls-7" d="M72.1,165.61c-.12.52-.24,1.14-.34,1.64s-.28,1.32-.42,2c.66,0,1.26-.08,1.66-.08,2.1,0,3.58.94,3.58,3.78,0,2.35-.28,5.51-1.12,7.23A3.16,3.16,0,0,1,72.2,182a11.21,11.21,0,0,1-2.36-.28l-.44-2.62a11.56,11.56,0,0,0,2.44.42,1.46,1.46,0,0,0,1.48-.86,15.14,15.14,0,0,0,.8-5.43c0-1.58-.68-1.8-1.92-1.8-.32,0-.8,0-1.36.08-.78,3-2.22,7.67-4,10.59l-2.58-1a29.33,29.33,0,0,0,4-9.27c-.7.08-1.32.16-1.7.22-.56.06-1.58.2-2.2.3l-.22-2.68a18.39,18.39,0,0,0,2.1,0c.62,0,1.56-.08,2.56-.16a21.93,21.93,0,0,0,.42-4.2ZM79.2,168a39.43,39.43,0,0,1,3.22,6.91l-2.52,1.18a22.48,22.48,0,0,0-3.34-7.47l1.84-.78A22.11,22.11,0,0,0,77,165.45l1.58-.66c.5.74,1.2,2,1.6,2.74Zm1.82-.66a20,20,0,0,0-1.62-2.76l1.58-.66a23.67,23.67,0,0,1,1.62,2.72Z"/><path class="cls-7" d="M83.72,181a6.61,6.61,0,0,0,2.36-3.48l2.14.84a8.25,8.25,0,0,1-2.46,4.06Zm7.4-4.42h-7v-2h5.54v-1.07h-4v-5.42h4V167H84.42v-2h17.24v2H96.12v1.08h4.22v5.42H96.12v1.07h5.8v2H93.1a12,12,0,0,1,2.24,1.6l-1.62,1.36a13.36,13.36,0,0,0-3.36-2.34Zm-1.48-4.91v-1.8h-1.8v1.8Zm5.2,8.87c.68,0,.82-.18.9-1.48a6.28,6.28,0,0,0,2.12.84c-.28,2.22-.94,2.76-2.8,2.76H92c-2.56,0-3.12-.64-3.12-2.64v-2.14h2.36V180c0,.52.16.56,1,.56Zm-2.92-12.47h1.9V167h-1.9Zm1.9,1.8h-1.9v1.8h1.9Zm-1.9,4.69h1.9v-1.07h-1.9Zm4.2-4.69v1.8H98v-1.8Zm2.5,7.35a13.94,13.94,0,0,1,3.66,3.82l-2.08,1.32a14.37,14.37,0,0,0-3.48-3.94Z"/><path class="cls-7" d="M108,169.37c0,1.28,0,2.78.12,4.21.28,2.86.88,4.8,2.12,4.8.94,0,1.72-2.32,2.1-3.89l2,2.41c-1.32,3.44-2.56,4.66-4.16,4.66-2.16,0-4.06-2-4.62-7.28-.18-1.83-.22-4.13-.22-5.35a11.48,11.48,0,0,0-.14-2l3,0A15.69,15.69,0,0,0,108,169.37Zm13.76,8.15-2.62,1c-.3-3.18-1.36-7.85-3.52-10.29l2.52-.84C120,169.69,121.54,174.48,121.76,177.52Z"/><path class="cls-6" d="M675.22,128.51a35.1,35.1,0,0,1-27.75-13.62l-.23-.29-.34.13a23,23,0,0,1-8.06,1.45,23.82,23.82,0,0,1-13.9-42.81l.44-.33-.37-.41a36.26,36.26,0,0,1-9.51-24.56C615.5,28.18,631.41,12,651,12c8.36,0,13.1.83,19.14,5.71l.47.39.29-.55C677.44,5,693.43.5,705.12.5c19.61,0,42.4,15.31,42.4,35.06a36.43,36.43,0,0,1-1.46,10.22l-.11.41.38.18C758.41,52.06,761.86,73,760,80c-4.39,16.51-14.1,36.19-35.49,36.19a35,35,0,0,1-18.3-5.17l-.43-.26-.26.43A35.14,35.14,0,0,1,675.22,128.51Z"/><path class="cls-2" d="M705.12,1C724.5,1,747,16.1,747,35.56a35.86,35.86,0,0,1-1.44,10.08l-.23.82.77.37c11.86,5.58,15.22,26.18,13.4,33C756.7,90.5,752.57,99,747.26,105.05c-6.17,7.06-13.82,10.63-22.74,10.63a34.5,34.5,0,0,1-18-5.09l-.86-.53-.52.86a34.63,34.63,0,0,1-57.24,3.66l-.45-.57-.69.25a22.47,22.47,0,0,1-7.88,1.42,23.32,23.32,0,0,1-13.6-41.91l.88-.66-.74-.81A35.78,35.78,0,0,1,616,48.07c0-19.61,15.69-35.57,35-35.57,8.23,0,12.91.81,18.83,5.6l1,.77.56-1.08C677.78,5.4,693.57,1,705.12,1m0-1c-13.78,0-28.65,5.76-34.7,17.32-6.14-5-11-5.82-19.45-5.82-19.87,0-36,16.38-36,36.57A36.75,36.75,0,0,0,624.64,73,24.33,24.33,0,0,0,615,92.44a24,24,0,0,0,23.84,24.24,23.37,23.37,0,0,0,8.23-1.48A35.64,35.64,0,0,0,706,111.44a35.32,35.32,0,0,0,18.56,5.24c19.87,0,30.79-17.07,36-36.56,2-7.46-1.62-28.4-13.94-34.2A37.21,37.21,0,0,0,748,35.56C748,15.36,725,0,705.12,0Z"/><path class="cls-3" d="M658.05,115.42s-19.79,20.13-42.56,13.08c0,0,17.82-4,20.79-21.12"/><path class="cls-7" d="M663.92,55.32a15.3,15.3,0,0,0-4.38-3.1c0,.26,0,.48,0,.68,0,1.74-.9,3.42-4.22,3.42-2.82,0-5.14-.92-5.14-3.62,0-2.06,1.76-3.7,5.4-3.7a11.37,11.37,0,0,1,1.18.06c-.06-1.54-.14-3.25-.14-4.29,0-1.2,0-2.38,0-3.22a12.57,12.57,0,0,0-.2-2.32h3c-.08.58-.14,1.54-.18,2.32V43c1.56,0,3.88-.12,5.52-.3l.1,2.36c-1.66.16-4,.24-5.62.28,0,1.21.12,2.77.22,4.23a15.66,15.66,0,0,1,6,3.4Zm-7.06-4a10.88,10.88,0,0,0-1.64-.14c-1.54,0-2.46.52-2.46,1.36s1,1.34,2.38,1.34,1.74-.58,1.74-1.88C656.88,51.86,656.88,51.62,656.86,51.36Z"/><path class="cls-7" d="M682.64,40.85c-.62.46-1.28,1-1.74,1.34-1.28,1-3.9,3.06-5.22,4.2-1.06.9-1,1.13,0,2,1.48,1.26,5.3,4.28,7.26,6.18l-2.3,2.12c-.56-.62-1.18-1.24-1.74-1.84-1.08-1.14-4.1-3.72-5.92-5.26s-1.8-2.77.18-4.41c1.54-1.26,4.26-3.46,5.6-4.78a13.68,13.68,0,0,0,1.52-1.66Z"/><path class="cls-7" d="M699.06,38.73c0,.32,0,.72-.06,1.14.16,2.76,1.16,11.39,8.62,14.89a7.82,7.82,0,0,0-1.84,2c-4.52-2.24-6.76-6.36-7.88-10.05a17.07,17.07,0,0,1-7.4,10.05,8.33,8.33,0,0,0-2-1.9c8-4.42,7.7-13.51,7.84-16.15Z"/><path class="cls-7" d="M713.92,40a16.65,16.65,0,0,0-.48,1.76,48.94,48.94,0,0,0-1,7.27,9.56,9.56,0,0,0,.08,1.28c.28-.7.6-1.36.88-2l1.24,1a47.75,47.75,0,0,0-1.42,4.86,5.82,5.82,0,0,0-.12.92c0,.22,0,.54,0,.82L710.9,56a25.28,25.28,0,0,1-.78-6.48,55.09,55.09,0,0,1,.82-7.85,14.8,14.8,0,0,0,.2-1.94Zm4.64,9.79a6.52,6.52,0,0,0-.24,1.66c0,.88.76,1.4,2.76,1.4a22.83,22.83,0,0,0,5-.52L726.1,55a27.53,27.53,0,0,1-5.12.4c-3.42,0-5-1.24-5-3.26a12.21,12.21,0,0,1,.34-2.58Zm6.92-8.49v2.56a54.82,54.82,0,0,1-8.5,0l0-2.56A40.41,40.41,0,0,0,725.48,41.25Z"/><path class="cls-7" d="M649.88,82.14,648.38,80a21.38,21.38,0,0,0,5-3.88l1.5,2A26.13,26.13,0,0,1,649.88,82.14Zm3.84-1.86a10.79,10.79,0,0,0,3.06.48c1,0,1.7-.36,1.7-1.3,0-1.2-1.38-3-2.26-3.86A18.74,18.74,0,0,0,654.38,74l2-1.65c.58.6,1.1,1.08,1.6,1.6,2.12,2.15,3.28,3.93,3.28,5.75,0,2.66-1.88,3.44-3.94,3.44a17.75,17.75,0,0,1-3.18-.28Zm3.36-9.13c.48-.32,1-.7,1.24-.92a20.36,20.36,0,0,0-4-1.92l1.48-1.84a31.43,31.43,0,0,1,5.1,2.36l.6,1.56c-.54.44-2.06,1.66-2.84,2.22Zm7.6,10.65a19.79,19.79,0,0,0-3.12-6.52l2.16-1.14a25,25,0,0,1,3.36,6.38Zm.52-10.45-1.6.7a27.77,27.77,0,0,0-1.58-2.8l1.58-.64A27.77,27.77,0,0,1,665.2,71.35Zm2.4-.92-1.6.68a21.07,21.07,0,0,0-1.6-2.76l1.58-.64A28.56,28.56,0,0,1,667.6,70.43Z"/><path class="cls-7" d="M671.6,70.65c1.54-.46,5.56-1.88,8.46-1.88,3.58,0,6.4,2.06,6.4,5.72,0,4.49-4.28,7.37-11.26,7.73l-1.14-2.64c5.36-.12,9.56-1.68,9.56-5.13,0-1.86-1.28-3.28-3.66-3.28-2.92,0-7.6,2-9.66,2.89l-1.12-2.81A21.37,21.37,0,0,0,671.6,70.65Z"/><path class="cls-7" d="M697.24,66.47c-.12.52-.26,1.14-.36,1.64s-.26,1.32-.4,2c.66,0,1.26-.08,1.66-.08,2.1,0,3.58.94,3.58,3.78,0,2.35-.28,5.51-1.12,7.23a3.18,3.18,0,0,1-3.26,1.82,11.06,11.06,0,0,1-2.36-.28L694.54,80a11.4,11.4,0,0,0,2.42.42,1.44,1.44,0,0,0,1.48-.86,14.65,14.65,0,0,0,.82-5.42c0-1.59-.68-1.81-1.94-1.81-.32,0-.8,0-1.36.08-.76,3-2.2,7.67-4,10.59l-2.6-1a29.39,29.39,0,0,0,4-9.27c-.7.08-1.32.16-1.7.22-.56.06-1.58.2-2.2.3l-.22-2.68a18.39,18.39,0,0,0,2.1,0c.62,0,1.56-.08,2.56-.16a21.93,21.93,0,0,0,.42-4.2Zm6.84,1.86a35.53,35.53,0,0,1,3.46,7.37L705,76.88a22.93,22.93,0,0,0-3.36-7.55Z"/><path class="cls-7" d="M723.46,68.49q-.72.45-1.38.9c-1.06.74-3.14,2.5-4.38,3.5a6.66,6.66,0,0,1,1.86-.22c3.36,0,5.92,2.11,5.92,5,0,3.12-2.38,5.6-7.16,5.6-2.76,0-4.84-1.26-4.84-3.24A3.33,3.33,0,0,1,717,76.94a4,4,0,0,1,4.22,3.38,2.89,2.89,0,0,0,1.62-2.7c0-1.78-1.8-3-4.1-3-3,0-5,1.62-7.14,4l-1.8-1.86c1.4-1.14,3.78-3.17,5-4.13s3.16-2.58,4.14-3.44c-1,0-3.74.14-4.78.22a13.07,13.07,0,0,0-1.62.16L712.46,67c.56.06,1.24.1,1.8.1,1,0,5.28-.1,6.4-.2a9.55,9.55,0,0,0,1.52-.2ZM719,81c-.12-1.28-.86-2.12-1.94-2.12-.74,0-1.22.44-1.22.94,0,.74.84,1.24,2,1.24A10.44,10.44,0,0,0,719,81Z"/><path class="cls-6" d="M645.22,300.51a35.1,35.1,0,0,1-27.75-13.62l-.23-.29-.34.13a23,23,0,0,1-8.06,1.45,23.82,23.82,0,0,1-13.9-42.81l.44-.33-.37-.41a36.26,36.26,0,0,1-9.51-24.56C585.5,200.18,601.41,184,621,184c8.36,0,13.1.83,19.14,5.71l.47.39.29-.55c6.57-12.58,22.56-17.05,34.25-17.05,19.61,0,42.4,15.31,42.4,35.06a36.43,36.43,0,0,1-1.46,10.22l-.11.41.38.18C728.41,224.06,731.86,245,730,252c-4.39,16.51-14.1,36.19-35.49,36.19a35,35,0,0,1-18.3-5.17l-.43-.26-.26.43A35.14,35.14,0,0,1,645.22,300.51Z"/><path class="cls-2" d="M675.12,173c19.38,0,41.9,15.1,41.9,34.56a35.86,35.86,0,0,1-1.44,10.08l-.23.82.77.37c11.86,5.58,15.22,26.18,13.4,33-2.82,10.64-6.95,19.12-12.26,25.19-6.17,7.06-13.82,10.63-22.74,10.63a34.5,34.5,0,0,1-18-5.09l-.86-.53-.52.86a34.63,34.63,0,0,1-57.24,3.66l-.45-.57-.69.25a22.47,22.47,0,0,1-7.88,1.42,23.32,23.32,0,0,1-13.6-41.91l.88-.66-.74-.81A35.78,35.78,0,0,1,586,220.07c0-19.61,15.69-35.57,35-35.57,8.23,0,12.91.81,18.83,5.6l1,.77.56-1.08C647.78,177.4,663.57,173,675.12,173m0-1c-13.78,0-28.65,5.76-34.7,17.32-6.14-5-11-5.82-19.45-5.82-19.87,0-36,16.38-36,36.57a36.75,36.75,0,0,0,9.64,24.9A24.33,24.33,0,0,0,585,264.44a24,24,0,0,0,23.84,24.24,23.37,23.37,0,0,0,8.23-1.48A35.64,35.64,0,0,0,676,283.44a35.32,35.32,0,0,0,18.56,5.24c19.87,0,30.79-17.07,36-36.56,2-7.46-1.62-28.4-13.94-34.2A37.21,37.21,0,0,0,718,207.56c0-20.2-23-35.56-42.9-35.56Z"/><path class="cls-3" d="M628.05,287.42s-19.79,20.13-42.56,13.08c0,0,17.82-4,20.79-21.12"/><path class="cls-7" d="M610.88,219.72a8.23,8.23,0,0,1-1,2A7.79,7.79,0,0,0,608.4,220c1.18-1.81,1.3-4.21,1.3-6V211h7.48v4.76h-5.5c0,.32-.06.66-.1,1h5.7v4.75h-6.4Zm8.32,6.62H627v2H609.1v-2h7.66v-1.52H611v-2h5.8v-1h2.44v1h6.16v2H619.2Zm-7.46-13.59V214H615v-1.22Zm3.5,5.7h-2.46v1.31h2.46ZM627.18,215v1.84H623.4v1.24h3.28v1.78H623.4V222h-2.2v-2.11H618v-1.78h3.22v-1.24h-3.56V215h1.84a10,10,0,0,0-.5-1.62l.52-.1h-1.42v-1.8h3.12v-1h2.2v1h3.36v1.8h-1.2l.14,0c-.28.66-.48,1.22-.66,1.7Zm-6.24-1.72a7.76,7.76,0,0,1,.5,1.62l-.48.1h2.5l-.36-.06a14.53,14.53,0,0,0,.5-1.66Z"/><path class="cls-7" d="M633.1,228.6a37.54,37.54,0,0,0-4.3-4.42l2.08-1.8a37.49,37.49,0,0,1,4.36,4.38Z"/><path class="cls-7" d="M652.34,219.68a16.07,16.07,0,0,0-3.7-2.19l1.24-1.78a16,16,0,0,1,3.78,2Zm-3,7.46a62.61,62.61,0,0,0,3.62-6.28l1.78,1.54c-1,2.1-2.2,4.38-3.36,6.3Zm4.16-12.79a14.69,14.69,0,0,0-3.66-2.24l1.3-1.76a14.84,14.84,0,0,1,3.76,2.06Zm6.64,3.8c-.14.68-.3,1.37-.44,2h6.54s0,.64-.06,1c-.34,4.34-.74,6.22-1.44,7a2.82,2.82,0,0,1-2,.84,28.3,28.3,0,0,1-3.22,0,5.58,5.58,0,0,0-.8-2.28c1.24.12,2.52.14,3.08.14a1.38,1.38,0,0,0,.92-.24c.4-.34.7-1.62.92-4.26h-4.44l-.26,1-2.44-.3c.38-1.32.78-3,1.18-4.81h-3.08V216h3.56c.16-.8.3-1.6.44-2.36h-3.14v-2.22h11.1v2.22H661c-.14.76-.3,1.56-.46,2.36h6.72v2.2Z"/><path class="cls-7" d="M687.4,226.08a5.24,5.24,0,0,1-3.72,1.5c-1.48,0-2.48-1.1-2.48-3,0-2.16.7-5.06.7-6.87,0-1-.5-1.46-1.32-1.46-1.48,0-3.64,1.82-5.24,3.61,0,.56,0,1.1,0,1.6,0,1.62,0,3.28.12,5.14,0,.36.1,1.08.14,1.52h-2.72c0-.42.06-1.14.06-1.46,0-1.54,0-2.68.08-4.36-.86,1.26-1.82,2.72-2.5,3.66l-1.56-2.2c1.12-1.36,3.12-4,4.24-5.67l.08-1.38-3.6.46-.24-2.54a16.84,16.84,0,0,0,1.72,0c.58,0,1.44-.14,2.28-.26,0-.74.08-1.3.08-1.52a10.56,10.56,0,0,0-.08-1.76l2.9.08c-.12.56-.28,1.58-.44,2.82l.74.94c-.26.34-.68,1-1,1.5a3,3,0,0,1,0,.42c1.56-1.36,3.84-2.94,5.76-2.94a2.78,2.78,0,0,1,3.12,2.92c0,2.06-.66,5-.66,7,0,.52.26.86.76.86a4,4,0,0,0,2.54-1.4Z"/><path class="cls-7" d="M691.46,213.39c1.64-.16,4.92-.44,8.54-.76,2-.16,4.22-.28,5.6-.34l0,2.56a20.45,20.45,0,0,0-3.82.26,6,6,0,0,0-4.18,5.55c0,3.26,3.06,4.42,6.4,4.6L703.1,228c-4.16-.28-8.08-2.52-8.08-6.8a7.92,7.92,0,0,1,2.92-6.11c-1.7.18-5.88.62-8.18,1.12l-.24-2.72C690.3,213.47,691.06,213.43,691.46,213.39Z"/><path class="cls-7" d="M633.13,245.09a23,23,0,0,1-3.06.8c.5,1.06,1.06,2.23,1.64,3.31l-1.18,1.5c-1.1-.2-3-.5-4.32-.66l.22-1.9c.78.1,1.56.16,2.1.22l-.9-2.07a47.88,47.88,0,0,1-8.7.12l-.1-2.28a40.2,40.2,0,0,0,7.9,0l-.34-.78-.48-1.12a39.27,39.27,0,0,1-6.82-.08l-.12-2.26a37.29,37.29,0,0,0,6,.22v0a17.81,17.81,0,0,0-1-1.7l2.82-.54a16.93,16.93,0,0,0,.62,2,24,24,0,0,0,3.8-.92l.42,2.22a28.58,28.58,0,0,1-3.4.8l.38.86.46,1a21.2,21.2,0,0,0,3.54-1ZM622,248.82a5.87,5.87,0,0,0-.48,1.92c0,1.24.88,2.08,3.46,2.08a28.82,28.82,0,0,0,5.24-.44l-.08,2.54a35.08,35.08,0,0,1-5.1.38c-3.7,0-6-1.26-6-4a10.28,10.28,0,0,1,.48-2.7Z"/><path class="cls-7" d="M648,242.77c-1.18.26-2.52.48-3.84.64-.18.86-.38,1.74-.6,2.54a63.59,63.59,0,0,1-3.14,9.17l-2.78-.92a43.54,43.54,0,0,0,3.42-8.93c.14-.52.28-1.08.42-1.64-.46,0-.9,0-1.3,0-1,0-1.7,0-2.4-.08l-.06-2.48a19.5,19.5,0,0,0,2.5.16c.58,0,1.16,0,1.76-.06q.12-.66.18-1.14a10.28,10.28,0,0,0,.08-2l3,.24c-.14.54-.32,1.42-.42,1.86l-.16.76c1.12-.18,2.24-.4,3.32-.66Zm-.4,6.51a6.85,6.85,0,0,0-.28,1.66c0,.86.5,1.5,2.62,1.5A23,23,0,0,0,654,252l-.1,2.54a31.69,31.69,0,0,1-4,.28c-3.34,0-5-1.16-5-3.16a13.59,13.59,0,0,1,.34-2.64Zm-1.16-5c1.1-.1,2.52-.2,3.8-.2a34.39,34.39,0,0,1,3.48.18l-.06,2.39a28.49,28.49,0,0,0-3.4-.25,27.42,27.42,0,0,0-3.82.23Z"/><path class="cls-7" d="M667.23,242.55a29,29,0,0,1-3.44.68,36.44,36.44,0,0,1-4.24,8.49l-2.42-1.22a30.28,30.28,0,0,0,4-7c-.34,0-.68,0-1,0-.82,0-1.62,0-2.48-.06l-.18-2.32a25.18,25.18,0,0,0,2.64.14c.58,0,1.18,0,1.78-.06a16.86,16.86,0,0,0,.54-3.32l2.74.28c-.16.64-.4,1.64-.68,2.7a20.92,20.92,0,0,0,2.66-.62Zm2.6,1.78c-.06.84,0,1.66,0,2.54,0,.57.06,1.53.12,2.51a13.19,13.19,0,0,1,4.1,2.54L672.73,254a17.63,17.63,0,0,0-2.68-2.1v.18c0,1.84-1,3.28-3.82,3.28-2.46,0-4.4-1.1-4.4-3.28,0-1.94,1.62-3.44,4.38-3.44.46,0,.92,0,1.34.08-.06-1.48-.16-3.22-.22-4.43Zm-2.18,6.57a7,7,0,0,0-1.6-.2c-1.14,0-1.88.48-1.88,1.18s.62,1.24,1.7,1.24c1.34,0,1.78-.78,1.78-1.84Zm5.58-5.51a26.41,26.41,0,0,0-4.76-2.82l1.28-2a35.64,35.64,0,0,1,4.88,2.68Z"/><path class="cls-7" d="M682.17,252.58A1.83,1.83,0,1,1,684,254.5,1.84,1.84,0,0,1,682.17,252.58Z"/><path class="cls-7" d="M688.67,252.58a1.83,1.83,0,1,1,1.82,1.92A1.84,1.84,0,0,1,688.67,252.58Z"/><path class="cls-7" d="M695.17,252.58A1.83,1.83,0,1,1,697,254.5,1.84,1.84,0,0,1,695.17,252.58Z"/><path class="cls-6" d="M786.22,210.51a35.1,35.1,0,0,1-27.75-13.62l-.23-.29-.34.13a23,23,0,0,1-8.06,1.45,23.82,23.82,0,0,1-13.9-42.81l.44-.33-.37-.41a36.26,36.26,0,0,1-9.51-24.56C726.5,110.18,742.41,94,762,94c8.36,0,13.1.83,19.14,5.71l.47.39.29-.55c6.57-12.58,22.56-17,34.25-17,19.61,0,42.4,15.31,42.4,35.06a36.43,36.43,0,0,1-1.46,10.22l-.11.41.38.18C869.41,134.06,872.86,155,871,162c-4.39,16.51-14.1,36.19-35.49,36.19a35,35,0,0,1-18.3-5.17l-.43-.26-.26.43A35.14,35.14,0,0,1,786.22,210.51Z"/><path class="cls-2" d="M816.12,83C835.5,83,858,98.1,858,117.56a35.86,35.86,0,0,1-1.44,10.08l-.23.82.77.37c11.86,5.58,15.22,26.18,13.4,33-2.82,10.64-6.95,19.12-12.26,25.19-6.17,7.06-13.82,10.63-22.74,10.63a34.5,34.5,0,0,1-18-5.09l-.86-.53-.52.86a34.63,34.63,0,0,1-57.24,3.66l-.45-.57-.69.25a22.47,22.47,0,0,1-7.88,1.42,23.32,23.32,0,0,1-13.6-41.91l.88-.66-.74-.81A35.78,35.78,0,0,1,727,130.07c0-19.61,15.69-35.57,35-35.57,8.23,0,12.91.81,18.83,5.6l1,.77.56-1.08C788.78,87.4,804.57,83,816.12,83m0-1c-13.78,0-28.65,5.76-34.7,17.32-6.14-5-11-5.82-19.45-5.82-19.87,0-36,16.38-36,36.57a36.75,36.75,0,0,0,9.64,24.9A24.33,24.33,0,0,0,726,174.44a24,24,0,0,0,23.84,24.24,23.37,23.37,0,0,0,8.23-1.48A35.64,35.64,0,0,0,817,193.44a35.32,35.32,0,0,0,18.56,5.24c19.87,0,30.79-17.07,36-36.56,2-7.46-1.62-28.4-13.94-34.2A37.21,37.21,0,0,0,859,117.56C859,97.36,836,82,816.12,82Z"/><path class="cls-3" d="M769.05,197.42s-19.79,20.13-42.56,13.08c0,0,17.82-4,20.79-21.12"/><path class="cls-7" d="M762.6,125.65c1.54-.46,5.56-1.88,8.46-1.88,3.58,0,6.4,2.06,6.4,5.72,0,4.49-4.28,7.37-11.26,7.73l-1.14-2.64c5.36-.12,9.56-1.68,9.56-5.13,0-1.86-1.28-3.28-3.66-3.28-2.92,0-7.6,2-9.66,2.89l-1.12-2.81A21.37,21.37,0,0,0,762.6,125.65Z"/><path class="cls-7" d="M788.24,121.47c-.12.52-.26,1.14-.36,1.64s-.26,1.32-.4,2c.66,0,1.26-.08,1.66-.08,2.1,0,3.58.94,3.58,3.78,0,2.35-.28,5.51-1.12,7.23a3.18,3.18,0,0,1-3.26,1.82,11.06,11.06,0,0,1-2.36-.28l-.44-2.62a11.4,11.4,0,0,0,2.42.42,1.44,1.44,0,0,0,1.48-.86,14.65,14.65,0,0,0,.82-5.42c0-1.59-.68-1.81-1.94-1.81-.32,0-.8,0-1.36.08-.76,3-2.2,7.67-4,10.59l-2.6-1a29.39,29.39,0,0,0,4-9.27c-.7.08-1.32.16-1.7.22-.56.06-1.58.2-2.2.3l-.22-2.68a18.39,18.39,0,0,0,2.1,0c.62,0,1.56-.08,2.56-.16a21.93,21.93,0,0,0,.42-4.2Zm6.84,1.86a35.53,35.53,0,0,1,3.46,7.37l-2.5,1.18a22.93,22.93,0,0,0-3.36-7.55Z"/><path class="cls-7" d="M810.48,125.55a29,29,0,0,1-3.44.68,36.44,36.44,0,0,1-4.24,8.49l-2.42-1.22a30.28,30.28,0,0,0,4-7c-.34,0-.68,0-1,0-.82,0-1.62,0-2.48-.06l-.18-2.32a25.18,25.18,0,0,0,2.64.14c.58,0,1.18,0,1.78-.06a16.86,16.86,0,0,0,.54-3.32l2.74.28c-.16.64-.4,1.64-.68,2.7a20.92,20.92,0,0,0,2.66-.62Zm2.6,1.78c-.06.84,0,1.66,0,2.54,0,.57.06,1.53.12,2.51a13.19,13.19,0,0,1,4.1,2.54L816,137a17.63,17.63,0,0,0-2.68-2.1v.18c0,1.84-1,3.28-3.82,3.28-2.46,0-4.4-1.1-4.4-3.28,0-1.94,1.62-3.44,4.38-3.44.46,0,.92,0,1.34.08-.06-1.48-.16-3.22-.22-4.43Zm-2.18,6.57a7,7,0,0,0-1.6-.2c-1.14,0-1.88.48-1.88,1.18s.62,1.24,1.7,1.24c1.34,0,1.78-.78,1.78-1.84Zm5.58-5.51a26.41,26.41,0,0,0-4.76-2.82l1.28-2a35.64,35.64,0,0,1,4.88,2.68Z"/><path class="cls-7" d="M824,125.37c0,1.28,0,2.78.12,4.21.28,2.86.88,4.8,2.12,4.8.94,0,1.72-2.32,2.1-3.89l2,2.41c-1.32,3.44-2.56,4.66-4.16,4.66-2.16,0-4.06-2-4.62-7.28-.18-1.83-.22-4.13-.22-5.35a11.48,11.48,0,0,0-.14-2l3,0A15.69,15.69,0,0,0,824,125.37Zm13.76,8.15-2.62,1c-.3-3.18-1.36-7.85-3.52-10.29l2.52-.84C836,125.69,837.54,130.48,837.76,133.52Z"/><path class="cls-7" d="M752.34,154.55h-2.1v-4.06h7.54v-.76H751.6V148h14.74v1.76H760.1v.76h7.7v4.06h-2.2v-2.48h-5.5v4.16h-2.32v-4.16h-5.44Zm12.82,9.53c1,0,1.18-.3,1.32-2a6.08,6.08,0,0,0,2,.76c-.28,2.4-.92,3.06-3.1,3.06h-4.2c-2.74,0-3.5-.58-3.5-2.68v-.06h-3.32V164h-2.26v-7.26h13.84v6.38h-6v.06c0,.74.22.86,1.44.86Zm-12.42-9.35h4.32V156h-4.32Zm4.32-.7h-3.94v-1.28h3.94Zm-2.72,4.35v.88h3.32v-.88Zm3.32,3.18v-.86h-3.32v.86Zm5.9-3.18h-3.62v.88h3.62Zm0,3.18v-.86h-3.62v.86Zm1.2-8.81V154h-3.9v-1.28Zm-3.9,2h4.36V156h-4.36Z"/><path class="cls-7" d="M785,155c0,4.81.22,8.59,1.38,8.59.3,0,.38-1.06.42-2.68a9.63,9.63,0,0,0,1.54,1.48c-.18,2.5-.6,3.56-2.14,3.56-2.92,0-3.5-3.82-3.62-8.94H771.86v-1.67l-.18.17a18.38,18.38,0,0,0-2.16-1.51,13.14,13.14,0,0,0,4.26-6.84l2.48.52c-.16.5-.32,1-.5,1.48h11.82v2h-12.7c-.16.32-.34.64-.52.94h11.4V154H774.22v-1.68a15.91,15.91,0,0,1-2,2.68Zm-4,2.87a18.09,18.09,0,0,1-2.12,3.1,22.89,22.89,0,0,1,3.16,2.54l-1.9,1.8a22.9,22.9,0,0,0-3-2.58,22.28,22.28,0,0,1-5.2,3.52,15.51,15.51,0,0,0-1.78-1.86,17.7,17.7,0,0,0,5.06-3c-1.14-.76-2.3-1.46-3.36-2.06l1.7-1.56c1,.54,2.2,1.22,3.34,1.94a13.08,13.08,0,0,0,1.76-2.58Z"/><path class="cls-7" d="M798.1,148.61c-.12.52-.24,1.14-.34,1.64s-.28,1.32-.42,2c.66,0,1.26-.08,1.66-.08,2.1,0,3.58.94,3.58,3.78,0,2.35-.28,5.51-1.12,7.23A3.16,3.16,0,0,1,798.2,165a11.21,11.21,0,0,1-2.36-.28l-.44-2.62a11.56,11.56,0,0,0,2.44.42,1.46,1.46,0,0,0,1.48-.86,15.14,15.14,0,0,0,.8-5.43c0-1.58-.68-1.8-1.92-1.8-.32,0-.8,0-1.36.08-.78,3-2.22,7.67-4,10.59l-2.58-1a29.33,29.33,0,0,0,4-9.27c-.7.08-1.32.16-1.7.22-.56.06-1.58.2-2.2.3l-.22-2.68a18.39,18.39,0,0,0,2.1,0c.62,0,1.56-.08,2.56-.16a21.93,21.93,0,0,0,.42-4.2Zm7.1,2.36a39.43,39.43,0,0,1,3.22,6.91l-2.52,1.18a22.48,22.48,0,0,0-3.34-7.47l1.84-.78a22.11,22.11,0,0,0-1.36-2.36l1.58-.66c.5.74,1.2,2,1.6,2.74Zm1.82-.66a20,20,0,0,0-1.62-2.76l1.58-.66a23.67,23.67,0,0,1,1.62,2.72Z"/><path class="cls-7" d="M823.94,153.25c-.1.22-.24.64-.36,1a5.12,5.12,0,0,1,3.82,4.87c0,2.78-1.66,5.52-6.52,6.24l-1.32-2.08c3.82-.42,5.38-2.34,5.38-4.28a3,3,0,0,0-2-2.79,15.37,15.37,0,0,1-4.18,6c.14.52.3,1,.46,1.48l-2.28.68c-.08-.24-.18-.52-.26-.8a7,7,0,0,1-3.06.8,2.57,2.57,0,0,1-2.68-2.9c0-2.52,2.1-5.21,4.86-6.51.06-.84.12-1.68.2-2.48h-.64c-1,0-2.58-.08-3.5-.12l-.08-2.3a32.52,32.52,0,0,0,3.66.26h.76l.12-1.06a7.91,7.91,0,0,0,.06-1.18l2.6.06a7.69,7.69,0,0,0-.28,1.06c-.08.32-.14.68-.2,1.06a33,33,0,0,0,6.72-.84l0,2.28a57.55,57.55,0,0,1-7,.72c-.06.58-.12,1.18-.14,1.78a13.32,13.32,0,0,1,3-.36h.34a11.46,11.46,0,0,0,.18-1.18Zm-7.8,8.09a27.61,27.61,0,0,1-.42-4,5.18,5.18,0,0,0-2.48,3.64c0,.62.28,1,.92,1A4.21,4.21,0,0,0,816.14,161.34Zm1.8-5a23.14,23.14,0,0,0,.22,3.29,11.37,11.37,0,0,0,2.5-3.77,10,10,0,0,0-2.72.44Z"/><path class="cls-7" d="M844.46,150.49q-.72.45-1.38.9c-1.06.74-3.14,2.5-4.38,3.5a6.66,6.66,0,0,1,1.86-.22c3.36,0,5.92,2.11,5.92,5,0,3.12-2.38,5.6-7.16,5.6-2.76,0-4.84-1.26-4.84-3.24a3.33,3.33,0,0,1,3.56-3.08,4,4,0,0,1,4.22,3.38,2.89,2.89,0,0,0,1.62-2.7c0-1.78-1.8-3-4.1-3-3,0-5,1.62-7.14,4l-1.8-1.86c1.4-1.14,3.78-3.17,5-4.13s3.16-2.58,4.14-3.44c-1,0-3.74.14-4.78.22a13.07,13.07,0,0,0-1.62.16l-.08-2.58c.56.06,1.24.1,1.8.1,1,0,5.28-.1,6.4-.2a9.55,9.55,0,0,0,1.52-.2ZM840,163c-.12-1.28-.86-2.12-1.94-2.12-.74,0-1.22.44-1.22.94,0,.74.84,1.24,2,1.24A10.44,10.44,0,0,0,840,163Z"/><path class="cls-6" d="M223.78,311.51a35.14,35.14,0,0,1-30.31-17.33l-.26-.43-.43.26a35,35,0,0,1-18.3,5.17c-21.39,0-31.1-19.68-35.49-36.19-1.85-7,1.6-27.93,13.68-33.62l.38-.18-.11-.41a36.43,36.43,0,0,1-1.46-10.22c0-19.75,22.79-35.06,42.4-35.06,11.69,0,27.68,4.47,34.25,17.05l.28.55.48-.39c6-4.88,10.78-5.71,19.14-5.71,19.56,0,35.47,16.18,35.47,36.07A36.26,36.26,0,0,1,274,255.63l-.37.41.44.33a23.82,23.82,0,0,1-13.9,42.81,23,23,0,0,1-8.06-1.45l-.34-.13-.23.29A35.1,35.1,0,0,1,223.78,311.51Z"/><path class="cls-2" d="M193.88,184c11.55,0,27.34,4.4,33.81,16.79l.56,1.08.95-.77c5.92-4.79,10.6-5.6,18.83-5.6,19.28,0,35,16,35,35.57a35.78,35.78,0,0,1-9.38,24.23l-.74.81.88.66a23.32,23.32,0,0,1-13.6,41.91,22.47,22.47,0,0,1-7.88-1.42l-.69-.25-.45.57a34.63,34.63,0,0,1-57.24-3.66l-.52-.86-.86.53a34.5,34.5,0,0,1-18,5.09c-8.92,0-16.57-3.57-22.74-10.63-5.31-6.07-9.44-14.55-12.26-25.19-1.82-6.85,1.55-27.45,13.4-33l.77-.37-.23-.82A35.86,35.86,0,0,1,152,218.56C152,199.1,174.5,184,193.88,184m0-1C174,183,151,198.36,151,218.56a36.85,36.85,0,0,0,1.48,10.36c-12.33,5.8-15.93,26.74-14,34.2,5.18,19.49,16.1,36.56,36,36.56A35.32,35.32,0,0,0,193,294.44a35.64,35.64,0,0,0,58.89,3.76,23.37,23.37,0,0,0,8.23,1.48A24,24,0,0,0,284,275.44,24.33,24.33,0,0,0,274.36,256a36.75,36.75,0,0,0,9.64-24.9c0-20.19-16.1-36.57-36-36.57-8.46,0-13.31.86-19.45,5.82-6.05-11.56-20.92-17.32-34.7-17.32Z"/><path class="cls-3" d="M241,298.42s19.79,20.13,42.56,13.08c0,0-17.82-4-20.79-21.12"/><path class="cls-7" d="M198.78,233a.25.25,0,0,0,.22-.1,1.24,1.24,0,0,0,.12-.62c0-.38.06-1.18.06-2.22a5.13,5.13,0,0,0,1.46.79,16.74,16.74,0,0,1-.22,2.71,1.74,1.74,0,0,1-.56,1,1.7,1.7,0,0,1-1.06.3h-.88a1.84,1.84,0,0,1-1.3-.48c-.3-.36-.44-.78-.44-2.24v-1.46l-.8,1.58a12.8,12.8,0,0,0-1.16-1.08,8.24,8.24,0,0,1-2.58,4.08,6,6,0,0,0-.84-1v0c-3.1.32-6.34.64-8.68.86l-.14-1.94,3.5-.24v-1.22h-2.94v-1.66h2.94V229h2c-.42-.24-.52-.74-.52-1.62v-.82h-1c-.24,1.64-1,2.64-3.28,3.18a4,4,0,0,0-.94-1.4c1.68-.3,2.22-.84,2.4-1.78h-2V225h3.36v-1h-2.66v-1.6h2.66v-1.08h2.1v1.08h2.66V224h-2.66v1h3.22v1.64h-2.2v.82c0,.36,0,.4.26.4h.46c.24,0,.3-.1.34-.92a4.3,4.3,0,0,0,1.42.56c-.14,1.44-.58,1.78-1.52,1.78h-1a2.61,2.61,0,0,1-1-.14v1h2.72v1.66h-2.72v1.06l3.2-.28v.62a7.29,7.29,0,0,0,1.66-3.29c-.54-.37-1.1-.76-1.6-1.06l1-1.76,1,.6q.09-.84.12-1.74h-1.68v-2.1H193c0-.82,0-1.66,0-2.56h2.14c0,.88,0,1.74,0,2.56h3.18v8.33a3.09,3.09,0,0,0,0,.78.17.17,0,0,0,.18.1Zm-17,6a9.74,9.74,0,0,0,2.32-3.5l2.3.6A11.31,11.31,0,0,1,184,240Zm8-3a22,22,0,0,1,.46,3.46l-2.36.3a23.91,23.91,0,0,0-.32-3.54Zm4-.16a19.12,19.12,0,0,1,1.08,3.44l-2.38.46a17.67,17.67,0,0,0-.94-3.54Zm1.24-9.93a26.24,26.24,0,0,1-.3,3,15.39,15.39,0,0,1,1.44,1.15v-4.15Zm2.8,9.55a28.74,28.74,0,0,1,2.44,3.72l-2.44.78a23.18,23.18,0,0,0-2.3-3.8Z"/><path class="cls-7" d="M206,226.37c0,1.28,0,2.78.12,4.21.28,2.86.88,4.8,2.12,4.8.94,0,1.72-2.32,2.1-3.89l2,2.41c-1.32,3.44-2.56,4.66-4.16,4.66-2.16,0-4.06-2-4.62-7.28-.18-1.83-.22-4.13-.22-5.35a11.48,11.48,0,0,0-.14-2l3,0A15.69,15.69,0,0,0,206,226.37Zm13.76,8.15-2.62,1c-.3-3.18-1.36-7.85-3.52-10.29l2.52-.84C218,226.69,219.54,231.48,219.76,234.52Z"/><path class="cls-7" d="M228.92,236.44a2.08,2.08,0,0,1,4.16,0,2.08,2.08,0,0,1-4.16,0Zm.34-10.21-.08-3h3.66l-.1,3-.7,6.85H230Z"/><path class="cls-7" d="M197.14,261a10,10,0,0,1-3.36,3,38.23,38.23,0,0,0,6.74.8,10.55,10.55,0,0,0-1.34,2.12,28.09,28.09,0,0,1-8.24-1.64,37.07,37.07,0,0,1-8.48,1.64,7.46,7.46,0,0,0-.88-1.9,37.22,37.22,0,0,0,6.92-1,12.69,12.69,0,0,1-2-1.68,24.8,24.8,0,0,1-3.32,1.38,6.24,6.24,0,0,0-1.38-1.66,13.87,13.87,0,0,0,5.62-2.68h-3.18v-7.69h5.16c.06-.26.1-.52.14-.78h-7.06v-1.92h17.1V251H192.1a7.08,7.08,0,0,1-.28.78h6v7.69h-7.62c-.22.26-.44.5-.68.74h5.68l.42-.1Zm-10.64-7.15h9v-.78h-9Zm0,2.12h9v-.8h-9Zm0,2.13h9v-.81h-9Zm2.14,3.68a9.69,9.69,0,0,0,2.46,1.42,9.91,9.91,0,0,0,2.44-1.42Z"/><path class="cls-7" d="M206.28,259.86l1.84-.78.54,2.1c-2.12,1.06-4.4,2.12-6.24,3l-1-2.4c.72-.26,1.6-.6,2.6-1v-5.63h-2.34v-2.26h2.34v-4.34h2.22v4.34h2v2.26h-2Zm10.68,4.6c1.1,0,1.3-.46,1.48-2.5a6,6,0,0,0,2.08.86c-.32,2.8-1,3.76-3.36,3.76H212.9c-2.7,0-3.48-.74-3.48-3.5v-5.15l-1.08.47-.88-2.13,2-.82v-5.26h2.28v4.28l1.66-.7v-5.52h2.22v4.56l1.58-.68.42-.28.42-.28,1.66.58-.08.4c0,3.8,0,6.21-.14,7a1.71,1.71,0,0,1-1,1.66,5.58,5.58,0,0,1-2.08.28,6.53,6.53,0,0,0-.5-2,9.1,9.1,0,0,0,1,0c.24,0,.36-.08.44-.44s.06-1.79.06-4.63l-1.72.76v7.07h-2.22v-6.11l-1.66.72v6.17c0,1.18.18,1.36,1.4,1.36Z"/><path class="cls-7" d="M227.38,249.51a21.17,21.17,0,0,1-1.78,3,19.89,19.89,0,0,1,.84,6.63c0,2.76-.14,5.74-.94,6.94a1.86,1.86,0,0,1-1.1.68,7,7,0,0,1-1.9.14,5.3,5.3,0,0,0-.46-2.16,5.76,5.76,0,0,0,1.3,0,.71.71,0,0,0,.52-.28c.32-.42.42-2.32.46-4.4a14.15,14.15,0,0,1-1.54,2,8,8,0,0,0-1.34-1.8,12.52,12.52,0,0,0,2.78-4,15.85,15.85,0,0,0-.24-1.74,12.09,12.09,0,0,1-1,1,8.85,8.85,0,0,0-1.56-1.42,12.61,12.61,0,0,0,1.82-2,11,11,0,0,0-1.58-2.56l1.6-1.12a12,12,0,0,1,1.26,1.76,14.87,14.87,0,0,0,.86-1.68Zm6.06,3.94H227v-1.92h6.4Zm4,2.24c.36,3.25,1.1,7.17,3.12,9.21A9.78,9.78,0,0,0,239,267a13.78,13.78,0,0,1-2.46-5.68,11.13,11.13,0,0,1-3.1,5.68,6.59,6.59,0,0,0-1.54-1.62c.12-.12.24-.22.34-.34h-2.84v1.22h-2v-6.34H233V264c1.42-2.06,1.9-4.82,2.08-8.29h-1.94v-2.2h2c0-1.54,0-3.18,0-5h2.12v1.18l1.5-.68a15.83,15.83,0,0,1,1.48,3.26l-1.74.86a16.53,16.53,0,0,0-1.24-3.16c0,1.22,0,2.38,0,3.5h2.92v2.2Zm-4.64.52h-5.18v-1.82h5.18Zm-5.18.93h5.18V259h-5.18Zm5.1-6.51h-4.94v-1.82h4.94Zm-1.72,11h-1.68v1.64H231Z"/></g></g></svg>