<svg xmlns="http://www.w3.org/2000/svg" viewBox="0 0 1073 379.22"><defs><style>.cls-1,.cls-4{fill:none;}.cls-1,.cls-3,.cls-4{stroke:#d36100;}.cls-1,.cls-3{stroke-miterlimit:10;}.cls-2{fill:#d36100;}.cls-3,.cls-6{fill:#fff;}.cls-4{stroke-linecap:round;stroke-linejoin:round;stroke-width:4px;}.cls-5{fill:#a6dfee;}.cls-7{fill:#ed6a02;}</style></defs><title>Asset 2</title><g id="Layer_2" data-name="Layer 2"><g id="レイヤー_1" data-name="レイヤー 1"><path class="cls-1" d="M569.49,177.06S568.05,208,584.61,208s20.87-19.44,20.87-19.44"/><path class="cls-2" d="M568.77,174.9s3.6,4.32,16.56,4.32a64.56,64.56,0,0,0,23-4.32,6.71,6.71,0,0,0-.19-1.4,6.32,6.32,0,0,0-.53-1.48,13.43,13.43,0,0,0-2.16-2.88h2.16l.72,3.6a16.26,16.26,0,0,0,0-6.48c-.72-3.6-7.2-13.68-15.83-14.4S570.21,156.18,568.77,174.9Z"/><path class="cls-2" d="M610.88,169.5s0-4.32,8.64-5C619.52,164.46,618.8,170.22,610.88,169.5Z"/><path class="cls-2" d="M610.16,173.1a8.84,8.84,0,0,1,6.48-1.44c3.6.72,4.32,1.44,4.32,1.44S616.64,178.14,610.16,173.1Z"/><path class="cls-1" d="M605.84,180.29s1.44-3.59,4.32-1.43-.72,9.35-5,7.91"/><path class="cls-1" d="M574.89,204.05s.72,8.64-1.44,15.83h26.63s2.88-10.07,1.44-17.27"/><path class="cls-1" d="M603.68,199h5s4.32,8.64,2.16,26.63-15.11,38.87-15.11,38.87"/><path class="cls-1" d="M569.13,199c0-.72-4.32,0-4.32,0s2.88,19.43-2.88,28.07-8.63,10.08-8.63,10.08"/><path class="cls-1" d="M531.7,255.16s-.72-2.88,2.88-2.88,5.76.72,8.64,4.31,7.2,2.16,7.2,4.32-6.48,1.44-7.2,1.44-2.16,2.16-1.44,4.32.72,1.44.72,1.44-7.92-1.44-9.36-3.6A13.71,13.71,0,0,1,531.7,255.16Z"/><path class="cls-1" d="M550.42,240.76s-2.88,9.36-5.76,13.68"/><path class="cls-1" d="M562.65,200.45s-5-5-10.79-1.44-18,20.87-18,20.87,5,10.08,10.8,11.52,5.76,2.16,5.76,2.16l7.2-7.2"/><path class="cls-1" d="M537.46,250.12s-7.92-3.6-11.52,0-4.32,5-4.32,5"/><path class="cls-1" d="M546.1,235s-7.2,13-8.64,13.68"/><path class="cls-1" d="M533.86,224.2s-13.67,25.92-14.39,27.36-2.16,9.35,2.15,12.23,7.2,3.6,12.24,3.6"/><line class="cls-1" x1="541.78" y1="267.39" x2="544.66" y2="270.99"/><line class="cls-1" x1="548.26" y1="262.33" x2="551.86" y2="265.95"/><path class="cls-1" d="M610.88,200.45s7.2-1.44,10.8,2.16,7.2,21.59,7.2,21.59-10.08,3.6-15.84,2.88"/><path class="cls-1" d="M625.28,227.08v15.84"/><path class="cls-1" d="M611.6,237.16s.72,18,3.6,23,7.2,7.92,13,3.6,18.71-26.63,18.71-26.63"/><path class="cls-1" d="M619.52,255.16S623.84,248.68,639,235"/><path class="cls-1" d="M641.22,234.16s-2.35-6.94-.78-10,2.36-10.8,3.14-9.25a9.55,9.55,0,0,1,.79,4.62c0,1.54,1.57,6.94,1.57,8.48"/><path class="cls-1" d="M645.94,220.28s3.93-10.79,5.5-10.79-1.57,9.25-1.57,9.25h.79s3.14-10,4.71-9.25-3.14,11.56-3.14,11.56,3.93-9.25,5.5-8.48-3.15,10.79-3.15,10.79,4.72-5.39,5.51-4.62-3.15,6.94-4.72,9.25-3.93,6.94-6.29,7.71-2.35,0-2.35,0"/><path class="cls-1" d="M581.37,274.59c.72,0,32.39-14.4,32.39-14.4"/><path class="cls-1" d="M644.71,244.36c.72,0,32.39-14.4,32.39-14.4"/><path class="cls-1" d="M498.59,307c.72,0,32.39-14.39,32.39-14.39"/><ellipse class="cls-3" cx="559.77" cy="289.35" rx="24.47" ry="23.39"/><ellipse class="cls-3" cx="559.77" cy="289.35" rx="18" ry="17.2"/><ellipse class="cls-3" cx="435.43" cy="178.48" rx="28.97" ry="27.69"/><ellipse class="cls-3" cx="435.43" cy="178.48" rx="21.3" ry="20.36"/><path class="cls-2" d="M560.49,280.35s.72-2.88,5-5,3.6-6.48,6.48-7.2,5.76-1.44,8.64,4.32,0,13.68-2.88,15.84-7.2,5.75-12.24,2.16S559.77,284,560.49,280.35Z"/><path class="cls-2" d="M567.69,297.62c2.16-2.88,2.16-4.31,4.32-2.16s1.79,3.16-.9,4.46S567.69,297.62,567.69,297.62Z"/><path class="cls-2" d="M580.75,267.39c.85-3.41,4.26-6.82,6-4.26S580.75,267.39,580.75,267.39Z"/><path class="cls-2" d="M575.63,262.28s-.85-6.82,1.71-6S575.63,262.28,575.63,262.28Z"/><path class="cls-3" d="M560.49,296.18a2.23,2.23,0,0,1,2.88-1.44s5.76-.72,4.32,0-.72,3.6-1.44,4.32-.72,2.16-2.16,1.44S560.49,296.18,560.49,296.18Z"/><path class="cls-3" d="M574.89,293.31s3.6-5,5-2.16,0,4.31-1.44,5.75S574.89,293.31,574.89,293.31Z"/><path class="cls-2" d="M578,335.64s-3.83-1.92,2.87-6.7C580.91,328.94,584.75,338.51,578,335.64Z"/><path class="cls-2" d="M573.72,327.72s-3.83-1.91,2.88-6.7C576.6,321,580.43,330.6,573.72,327.72Z"/><path class="cls-2" d="M580.92,319.08s-3.83-1.91,2.87-6.7C583.79,312.38,587.62,322,580.92,319.08Z"/><path class="cls-2" d="M592.44,321.24s-3.83-1.91,2.87-6.7C595.31,314.54,599.14,324.12,592.44,321.24Z"/><path class="cls-2" d="M601.07,329.16s-3.83-1.91,2.88-6.7C604,322.46,607.78,332,601.07,329.16Z"/><path class="cls-2" d="M596,339.24s-3.84-1.92,2.87-6.71C598.91,332.53,602.74,342.11,596,339.24Z"/><path class="cls-2" d="M586.68,340.68s-3.83-1.92,2.87-6.71C589.55,334,593.38,343.55,586.68,340.68Z"/><path class="cls-3" d="M625.28,284s11-11.61,13.38,4.3c0,0,5.22-3.08,5,7.67s-7.8,6.49-7.8,6.49-1.27,6-9.23,5-4.85-8.74-4.85-8.74-7.49-.5-5.6-7.08S625.28,284,625.28,284Z"/><path class="cls-1" d="M631,286.83a6.18,6.18,0,0,1,7.07,1.46c3.72,3.58.84,10,.84,10"/><path class="cls-1" d="M623.12,288.27s-2.31-.11-2.88,6.47"/><path class="cls-3" d="M592.53,302.3s0-14.39,13.67-6.48c0,0,1.44-5,9.36,1.44s-.72,8.64-.72,8.64,3.6,4.32-2.88,8.64-10.08-2.16-10.08-2.16-5.75,4.32-9.35-.72A7.7,7.7,0,0,1,592.53,302.3Z"/><path class="cls-1" d="M603,301.94s-1.44-3.6,2.88-5.76,5.76,2.88,5.76,2.88"/><path class="cls-1" d="M598.64,306.26s-.46,3.05,4.09,7.29"/><path class="cls-3" d="M585.36,320.42s0-8.24,7.82-3.71c0,0,.83-2.88,5.35.82s-.41,4.94-.41,4.94,2.06,2.47-1.64,4.94a3.85,3.85,0,0,1-5.77-1.23s-3.29,2.47-5.35-.41A4.41,4.41,0,0,1,585.36,320.42Z"/><path class="cls-1" d="M591.33,320.21s-.82-2.06,1.65-3.29,3.29,1.64,3.29,1.64"/><path class="cls-1" d="M588.86,322.68s-.26,1.74,2.34,4.16"/><path class="cls-1" d="M486.35,201.17s.72,4.32,10.08,3.6S508,199,508,199"/><path class="cls-1" d="M510.11,196.13h6.48s7.19-7.2,12.95-3.6,6.48,11.52,10.08,12.24"/><line class="cls-1" x1="522.34" y1="215.57" x2="529.54" y2="222.76"/><path class="cls-1" d="M525.94,224.2s-2.16,10.8-1.44,16.56"/><path class="cls-1" d="M474.12,213.41s-11.52,33.11,13.67,82"/><path class="cls-1" d="M483.47,201.89s-4.31,1.44-7.19.72a10.8,10.8,0,0,0-13,7.2c-2.88,7.91-8.64,17.27-8.64,17.27s5,10.08,14.4,11.52"/><path class="cls-1" d="M486.35,240.76s4.32,18,19.44,28.79"/><path class="cls-1" d="M490.46,181.94s-3.85-.52-3,3,6.47,5.05,9.08,3.65"/><path class="cls-1" d="M487.79,189.65s1.44,4.32-1.44,10.8"/><path class="cls-1" d="M514.43,161.58s6.48,5.76,7.19,13.68,0,14.39-3.59,16.55-13,4.32-18.72,0"/><path class="cls-2" d="M492.83,179.57s7.2-.71,13-7.91a81.66,81.66,0,0,0,8.64-13s-7.2-10.08-17.28-9.36-20.87,7.92-21.59,13.68,0,13,2.88,16.55,5,2.16,5,2.16l1.44-3.59,2.88-.72s1.44,3.59-2.88,5Z"/><path class="cls-2" d="M481.32,184.61s-5,0-5.76,4.32C475.56,188.93,477.72,192.53,481.32,184.61Z"/><path class="cls-2" d="M483.47,183.89s-2.87,1.44-2.15,5.76L482,194S486.35,190.37,483.47,183.89Z"/><path class="cls-3" d="M405.74,183.17s2.15-9.35,6.47-10.79,7.92,0,10.8-1.44,2.88-3.6,10.08-3.6,15.83-.72,18,5,2.16,17.27-1.44,18.71-11.51,5.76-16.55,5-7.92-1.44-10.8,0-5,9.36-10.08,7.92-13.67-2.88-12.95-5.76,0-4.32-2.16-5-7.2-2.16-4.32-4.32,4.32-3.6,7.92-2.16S405.74,183.17,405.74,183.17Z"/><path class="cls-3" d="M388.46,191.81s-5-2.16-5.76.72S387.74,194.69,388.46,191.81Z"/><path class="cls-3" d="M392.06,197.57s-5.76,2.16-3.6,4.32S393.5,199.73,392.06,197.57Z"/><path class="cls-3" d="M382.7,199s-4.32,0-2.16,3.6S382.7,199,382.7,199Z"/><path class="cls-1" d="M445.32,207.65s-2.15-4.32-7.19-2.16a15.48,15.48,0,0,1-11.63.06c-2.05-.78-2.77,1.38,3,4.26s11.52,1.44,12.24,5,0,24.47.72,28.07,5,18.71,12.23,15.83,13-18,13-18"/><line class="cls-1" x1="456.84" y1="232.84" x2="451.08" y2="242.2"/><path class="cls-1" d="M452.52,204.05s1.44,4.32,0,7.2a16.62,16.62,0,0,0-1.44,6.47l2.88,14.4"/><polyline class="cls-1" points="463.32 127.03 541.78 98.24 605.84 129.19 532.42 169.5"/><line class="cls-1" x1="605.84" y1="132.07" x2="605.84" y2="157.98"/><path class="cls-1" d="M579.93,45.69c-.72.72,0,67.66,0,67.66"/><line class="cls-1" x1="608" y1="96.08" x2="628.88" y2="83.84"/><line class="cls-1" x1="607.28" y1="89.6" x2="628.16" y2="77.36"/><line class="cls-1" x1="603.68" y1="84.56" x2="624.56" y2="72.32"/><line class="cls-1" x1="613.76" y1="82.4" x2="634.64" y2="70.16"/><line class="cls-1" x1="624.56" y1="78.08" x2="645.43" y2="65.84"/><line class="cls-1" x1="612.32" y1="97.52" x2="633.2" y2="85.28"/><line class="cls-1" x1="618.08" y1="92.48" x2="638.95" y2="80.24"/><line class="cls-1" x1="620.96" y1="100.4" x2="641.83" y2="88.16"/><line class="cls-1" x1="610.93" y1="71.17" x2="630.27" y2="85.72"/><line class="cls-1" x1="616.69" y1="86.28" x2="636.02" y2="100.83"/><line class="cls-1" x1="618.85" y1="83.4" x2="638.18" y2="97.95"/><line class="cls-1" x1="627.49" y1="79.8" x2="646.82" y2="94.35"/><line class="cls-1" x1="611.65" y1="91.32" x2="630.99" y2="105.87"/><line class="cls-1" x1="621.73" y1="93.48" x2="641.06" y2="108.03"/><line class="cls-1" x1="603.73" y1="74.05" x2="623.07" y2="88.6"/><line class="cls-1" x1="599.42" y1="76.92" x2="618.75" y2="91.48"/><line class="cls-1" x1="628.66" y1="137.11" x2="643.11" y2="128.63"/><line class="cls-1" x1="628.16" y1="132.62" x2="642.61" y2="124.15"/><line class="cls-1" x1="631.65" y1="138.1" x2="646.1" y2="129.63"/><line class="cls-1" x1="637.63" y1="140.1" x2="652.08" y2="131.63"/><line class="cls-1" x1="634.67" y1="130.33" x2="648.06" y2="140.4"/><line class="cls-1" x1="636.17" y1="128.33" x2="649.55" y2="138.41"/><line class="cls-1" x1="642.15" y1="125.84" x2="655.53" y2="135.91"/><line class="cls-1" x1="631.18" y1="133.81" x2="644.57" y2="143.89"/><line class="cls-1" x1="638.16" y1="135.31" x2="651.55" y2="145.38"/><line class="cls-1" x1="568.19" y1="132.79" x2="582.64" y2="124.32"/><line class="cls-1" x1="567.69" y1="128.3" x2="582.15" y2="119.83"/><line class="cls-1" x1="571.18" y1="133.79" x2="585.63" y2="125.31"/><line class="cls-1" x1="577.16" y1="135.78" x2="591.61" y2="127.31"/><line class="cls-1" x1="574.21" y1="126.01" x2="587.59" y2="136.08"/><line class="cls-1" x1="575.7" y1="124.01" x2="589.09" y2="134.09"/><line class="cls-1" x1="581.68" y1="121.52" x2="595.07" y2="131.6"/><line class="cls-1" x1="570.72" y1="129.5" x2="584.1" y2="139.57"/><line class="cls-1" x1="577.7" y1="130.99" x2="591.08" y2="141.07"/><line class="cls-1" x1="522.12" y1="119.11" x2="536.58" y2="110.64"/><line class="cls-1" x1="515.64" y1="112.63" x2="530.1" y2="104.16"/><line class="cls-1" x1="521.62" y1="114.63" x2="536.08" y2="106.15"/><line class="cls-1" x1="525.11" y1="120.11" x2="539.57" y2="111.64"/><line class="cls-1" x1="531.09" y1="122.1" x2="545.55" y2="113.63"/><line class="cls-1" x1="528.14" y1="112.33" x2="541.52" y2="122.4"/><line class="cls-1" x1="529.63" y1="110.34" x2="543.02" y2="120.41"/><line class="cls-1" x1="518.12" y1="107.46" x2="531.5" y2="117.53"/><line class="cls-1" x1="507.32" y1="110.34" x2="520.71" y2="120.41"/><line class="cls-1" x1="500.12" y1="114.66" x2="513.51" y2="124.73"/><line class="cls-1" x1="535.61" y1="107.85" x2="549" y2="117.92"/><line class="cls-1" x1="524.65" y1="115.82" x2="538.04" y2="125.89"/><line class="cls-1" x1="531.63" y1="117.31" x2="545.01" y2="127.39"/><path class="cls-2" d="M580.29,89.6s8.64-5.76,10.8,0,2.88,8.64,1.44,10.8a6.55,6.55,0,0,1-5.76,2.88c-2.16,0-2.16,0-2.88,2.15s-4.72,3.6-4.72,3.6Z"/><polyline class="cls-1" points="586.41 101.48 587.85 109.39 595.05 110.83"/><polyline class="cls-1" points="590.01 118.75 590.01 113.71 587.85 112.27 587.85 109.39"/><line class="cls-1" x1="584.25" y1="110.83" x2="587.34" y2="106.59"/><path class="cls-4" d="M528.82,182.45s4.32,5,12.24-3.59c0,0-2.16,5.75,1.44,7.19s7.2-2.16,7.2-2.16-2.16,5.76,3.6,8.64"/><line class="cls-1" x1="435.97" y1="39.21" x2="435.97" y2="65.13"/><circle class="cls-1" cx="435.97" cy="77.36" r="11.52"/><path class="cls-1" d="M500,49.57a17.63,17.63,0,1,1-25.2,1.48"/><path class="cls-1" d="M464.93,66.74a23.1,23.1,0,0,1,5.68-15.22"/><path class="cls-1" d="M503.79,49.57a23.16,23.16,0,0,1,7.59,17.17"/><line class="cls-1" x1="488.51" y1="21.22" x2="488.51" y2="47.13"/><circle class="cls-2" cx="488.51" cy="59.37" r="11.52"/><path class="cls-1" d="M445.31,228.48a3.15,3.15,0,0,1,.33,2.4c-.33,1.5-1.64,3-.33,4.2s2.95-1.8,2.95-1.8"/><path class="cls-1" d="M458.26,240.72a3.1,3.1,0,0,1,.33,2.4c-.33,1.5-1.64,3-.33,4.19s2.95-1.79,2.95-1.79"/><path class="cls-1" d="M451.07,245.76a3.12,3.12,0,0,1,.32,2.4c-.32,1.49-1.63,3-.32,4.19s2.95-1.8,2.95-1.8"/><path class="cls-1" d="M443.15,250.8a3.13,3.13,0,0,1,.33,2.39c-.33,1.5-1.64,3-.33,4.2s3-1.8,3-1.8"/><path class="cls-1" d="M492.1,192.49a3.12,3.12,0,0,1,.32,2.4c-.32,1.5-1.63,3-.32,4.2s2.94-1.8,2.94-1.8"/><path class="cls-1" d="M500,181a3.1,3.1,0,0,1,.33,2.4c-.33,1.5-1.64,3-.33,4.2s2.95-1.8,2.95-1.8"/><path class="cls-1" d="M507.21,184.57a3.1,3.1,0,0,1,.33,2.4c-.33,1.5-1.64,3-.33,4.2s3-1.8,3-1.8"/><path class="cls-1" d="M570.56,198.25a3.12,3.12,0,0,1,.32,2.4c-.32,1.5-1.64,3-.32,4.2s2.94-1.8,2.94-1.8"/><path class="cls-1" d="M573.43,186a3.1,3.1,0,0,1,.33,2.4c-.33,1.5-1.64,3-.33,4.2s3-1.8,3-1.8"/><path class="cls-1" d="M577.75,195.37a3.1,3.1,0,0,1,.33,2.4c-.33,1.5-1.64,3-.33,4.2s3-1.8,3-1.8"/><path class="cls-1" d="M597.19,185.29a3.15,3.15,0,0,1,.33,2.4c-.33,1.5-1.64,3-.33,4.2s2.95-1.8,2.95-1.8"/><path class="cls-1" d="M616.62,232.8a3.1,3.1,0,0,1,.33,2.4c-.33,1.5-1.64,3-.33,4.2s3-1.8,3-1.8"/><path class="cls-1" d="M529.53,237.84a3.12,3.12,0,0,1,.32,2.4c-.32,1.5-1.63,3-.32,4.19s3-1.79,3-1.79"/><path class="cls-1" d="M536.72,231.36a3.1,3.1,0,0,1,.33,2.4c-.33,1.5-1.64,3-.33,4.2s2.95-1.8,2.95-1.8"/><path class="cls-1" d="M614.46,246.48a3.1,3.1,0,0,1,.33,2.4c-.33,1.49-1.64,3-.33,4.19s2.95-1.8,2.95-1.8"/><path class="cls-1" d="M622.38,255.83a3.1,3.1,0,0,1,.33,2.4c-.33,1.5-1.64,3-.33,4.2s3-1.8,3-1.8"/><path class="cls-1" d="M631,249.36a3.13,3.13,0,0,1,.33,2.39c-.33,1.5-1.64,3-.33,4.2s3-1.8,3-1.8"/><path class="cls-5" d="M534.52,9.22A175,175,0,0,1,658.26,308,175,175,0,1,1,410.78,60.47,173.85,173.85,0,0,1,534.52,9.22m0-5a180,180,0,1,0,180,180,180,180,0,0,0-180-180Z"/><path class="cls-6" d="M279.55,135.51a35.13,35.13,0,0,1-30.31-17.33l-.26-.43-.43.26a35,35,0,0,1-18.31,5.17c-21.38,0-31.1-19.68-35.48-36.19-1.85-7,1.59-27.93,13.67-33.62l.39-.18-.12-.41a36.43,36.43,0,0,1-1.46-10.22c0-19.75,22.79-35.06,42.4-35.06,11.69,0,27.68,4.47,34.25,17.05l.29.55.47-.39c6-4.88,10.79-5.71,19.15-5.71,19.55,0,35.46,16.18,35.46,36.07a36.22,36.22,0,0,1-9.51,24.56l-.37.41.44.33a23.82,23.82,0,0,1-13.9,42.81,23,23,0,0,1-8.06-1.45l-.34-.13-.22.29A35.12,35.12,0,0,1,279.55,135.51Z"/><path class="cls-2" d="M249.64,8c11.55,0,27.34,4.4,33.81,16.79l.57,1.08,1-.77c5.92-4.79,10.59-5.6,18.82-5.6,19.29,0,35,16,35,35.57a35.78,35.78,0,0,1-9.38,24.23l-.74.81.88.66a23.32,23.32,0,0,1-13.6,41.91,22.47,22.47,0,0,1-7.88-1.42l-.69-.25-.45.57a34.62,34.62,0,0,1-57.23-3.66l-.52-.86-.87.53a34.5,34.5,0,0,1-18,5.09c-8.92,0-16.57-3.57-22.74-10.63-5.31-6.07-9.43-14.55-12.26-25.19-1.82-6.85,1.55-27.45,13.4-33l.78-.37-.24-.82a36.22,36.22,0,0,1-1.44-10.08C207.74,23.1,230.27,8,249.64,8m0-1c-19.86,0-42.9,15.36-42.9,35.56a36.85,36.85,0,0,0,1.48,10.36c-12.32,5.8-15.93,26.74-13.95,34.2,5.18,19.49,16.11,36.56,36,36.56a35.36,35.36,0,0,0,18.57-5.24,35.63,35.63,0,0,0,58.88,3.76,23.42,23.42,0,0,0,8.23,1.48,24,24,0,0,0,23.84-24.24A24.33,24.33,0,0,0,330.12,80a36.75,36.75,0,0,0,9.64-24.9c0-20.19-16.1-36.57-36-36.57-8.45,0-13.31.86-19.45,5.82C278.3,12.76,263.42,7,249.64,7Z"/><path class="cls-3" d="M296.71,122.42s19.79,20.13,42.56,13.08c0,0-17.82-4-20.79-21.12"/><path class="cls-7" d="M265.07,55.9a11.92,11.92,0,0,1-2.52,4.7,11.18,11.18,0,0,0,3.52,1.48,9.85,9.85,0,0,0-1.4,1.86A11.2,11.2,0,0,1,261,62.08a13,13,0,0,1-3.4,1.86,8.92,8.92,0,0,0-1.07-1.6V64H254.2V62.34l-6.34.58-.18-2c.52,0,1.12-.06,1.74-.12V54.68h-1.56V52.79h17.79v1.89h-9.17V62a10.19,10.19,0,0,0,2.85-1.44,12.25,12.25,0,0,1-1.82-3l1.32-.36H257V55.42h6.22l.4-.08Zm-1.72-3.85H250.2V45.91h13.15ZM251.6,54.68v.8h2.6v-.8Zm0,3.3h2.6v-.84h-2.6Zm0,2.62c.84-.06,1.72-.12,2.6-.2v-.78h-2.6ZM261,47.43h-8.49v.82H261Zm0,2.26h-8.49v.84H261Zm-1.46,7.55a7.74,7.74,0,0,0,1.34,2,8.37,8.37,0,0,0,1.36-2Z"/><path class="cls-7" d="M272.32,59.32c.82,1.34,2.32,1.88,4.4,2,2.35.1,6.85,0,9.51-.16a12.46,12.46,0,0,0-.74,2.4c-2.4.12-6.42.16-8.81.06s-4.1-.66-5.4-2.22c-.88.78-1.76,1.56-2.86,2.4l-1.16-2.48A26.27,26.27,0,0,0,270,59.44V55.22h-2.3V53h4.62Zm-1.38-9a15.13,15.13,0,0,0-3.22-3.16l1.76-1.44a16,16,0,0,1,3.34,3Zm6.12,2.72a11.45,11.45,0,0,1-2.78,7.15,5.86,5.86,0,0,0-1.72-1.64c2-2.18,2.28-5.19,2.28-7.51V46.49l2,.38a34.06,34.06,0,0,0,6.33-1.58l2,1.82a42,42,0,0,1-8,1.74v2h8.73v2.2h-3.34v7.47h-2.36V53.05Z"/><path class="cls-7" d="M217.85,79.55h-2.1V75.49h7.55v-.76h-6.19V73h14.75v1.76h-6.24v.76h7.7v4.06h-2.2V77.07h-5.5v4.16H223.3V77.07h-5.45Zm12.83,9.53c1,0,1.18-.3,1.32-2a6.08,6.08,0,0,0,2,.76c-.28,2.4-.92,3.06-3.1,3.06h-4.21c-2.74,0-3.5-.58-3.5-2.68v-.06h-3.32V89h-2.26V81.78h13.85v6.38h-6v.06c0,.74.21.86,1.44.86Zm-12.43-9.35h4.32V81h-4.32Zm4.32-.7h-3.94V77.75h3.94Zm-2.72,4.35v.88h3.32v-.88Zm3.32,3.18V85.7h-3.32v.86Zm5.91-3.18h-3.62v.88h3.62Zm0,3.18V85.7h-3.62v.86Zm1.2-8.81V79h-3.9V77.75Zm-3.9,2h4.36V81h-4.36Z"/><path class="cls-7" d="M250.52,80c0,4.81.22,8.59,1.38,8.59.3,0,.38-1.06.42-2.68a9.63,9.63,0,0,0,1.54,1.48c-.18,2.5-.6,3.56-2.14,3.56-2.92,0-3.5-3.82-3.62-8.94H237.37V80.37l-.18.17A18.38,18.38,0,0,0,235,79a13.14,13.14,0,0,0,4.26-6.84l2.48.52c-.16.5-.32,1-.5,1.48H253.1v2H240.39c-.16.32-.34.64-.52.94h11.41V79H239.73V77.35a15.91,15.91,0,0,1-2,2.68Zm-4,2.87a17.59,17.59,0,0,1-2.13,3.1,22.45,22.45,0,0,1,3.17,2.54l-1.9,1.8a23.07,23.07,0,0,0-3-2.58,22.28,22.28,0,0,1-5.2,3.52,15.51,15.51,0,0,0-1.78-1.86,17.7,17.7,0,0,0,5.06-3c-1.14-.76-2.3-1.46-3.36-2.06l1.7-1.56c1,.54,2.2,1.22,3.34,1.94a13.58,13.58,0,0,0,1.77-2.58Z"/><path class="cls-7" d="M262.49,73.17a31.78,31.78,0,0,1-1.86,3.68V90.92h-2.48V80.41a19,19,0,0,1-2.08,2.25,15.35,15.35,0,0,0-1.32-2.43,20.9,20.9,0,0,0,5.46-7.8ZM268,80.41c.56,4.45,1.62,7.41,3.22,7.61.46,0,.7-1,.86-3.18A8.18,8.18,0,0,0,274,86.2c-.5,3.86-1.58,4.78-2.7,4.72-3.38-.32-5-4.08-5.68-10.19l-3.95.54-.34-2.3,4.05-.54c-.14-1.8-.26-3.76-.33-5.86h2.43c0,2,.12,3.84.26,5.54l5.7-.74.34,2.24Zm3.58-3.54a17,17,0,0,0-2.74-3.36l1.78-1.1a18.06,18.06,0,0,1,2.88,3.22Z"/><path class="cls-7" d="M283.61,73.61c-.12.52-.23,1.14-.34,1.64s-.28,1.32-.42,2c.66,0,1.26-.08,1.66-.08,2.11,0,3.59.94,3.59,3.78,0,2.35-.28,5.51-1.12,7.23A3.16,3.16,0,0,1,283.72,90a11.23,11.23,0,0,1-2.37-.28l-.44-2.62a11.66,11.66,0,0,0,2.44.42,1.48,1.48,0,0,0,1.49-.86,15.17,15.17,0,0,0,.79-5.43c0-1.58-.67-1.8-1.91-1.8-.33,0-.81,0-1.37.08-.78,3-2.22,7.67-4,10.59l-2.58-1a29.33,29.33,0,0,0,4-9.27c-.7.08-1.32.16-1.7.22-.56.06-1.58.2-2.2.3l-.22-2.68a18.39,18.39,0,0,0,2.1,0c.62,0,1.56-.08,2.56-.16a21.93,21.93,0,0,0,.42-4.2ZM290.72,76a39.43,39.43,0,0,1,3.22,6.91l-2.52,1.18a22.48,22.48,0,0,0-3.34-7.47l1.84-.78a22.11,22.11,0,0,0-1.36-2.36l1.58-.66c.5.74,1.2,2,1.6,2.74Zm1.82-.66a20,20,0,0,0-1.62-2.76l1.58-.66a23.67,23.67,0,0,1,1.62,2.72Z"/><path class="cls-7" d="M300.93,87.58a1.83,1.83,0,1,1,1.82,1.92A1.84,1.84,0,0,1,300.93,87.58Z"/><path class="cls-7" d="M307.43,87.58a1.83,1.83,0,1,1,1.82,1.92A1.84,1.84,0,0,1,307.43,87.58Z"/><path class="cls-7" d="M313.93,87.58a1.83,1.83,0,1,1,1.82,1.92A1.84,1.84,0,0,1,313.93,87.58Z"/><path class="cls-6" d="M189.55,227.51a35.13,35.13,0,0,1-30.31-17.33l-.26-.43-.43.26a35,35,0,0,1-18.31,5.17c-21.38,0-31.1-19.68-35.48-36.19-1.85-7,1.59-27.93,13.67-33.62l.39-.18-.12-.41a36.43,36.43,0,0,1-1.46-10.22c0-19.75,22.79-35.06,42.4-35.06,11.69,0,27.68,4.47,34.25,17l.29.55.47-.39c6-4.88,10.79-5.71,19.15-5.71,19.55,0,35.46,16.18,35.46,36.07a36.22,36.22,0,0,1-9.51,24.56l-.37.41.44.33a23.82,23.82,0,0,1-13.9,42.81,23,23,0,0,1-8.06-1.45l-.34-.13-.22.29A35.12,35.12,0,0,1,189.55,227.51Z"/><path class="cls-2" d="M159.64,100c11.55,0,27.34,4.4,33.81,16.79l.57,1.08.95-.77c5.92-4.79,10.59-5.6,18.82-5.6,19.29,0,35,16,35,35.57a35.78,35.78,0,0,1-9.38,24.23l-.74.81.88.66a23.32,23.32,0,0,1-13.6,41.91,22.47,22.47,0,0,1-7.88-1.42l-.69-.25-.45.57a34.62,34.62,0,0,1-57.23-3.66l-.52-.86-.87.53a34.5,34.5,0,0,1-18,5.09c-8.92,0-16.57-3.57-22.74-10.63-5.31-6.07-9.43-14.55-12.26-25.19-1.82-6.85,1.55-27.45,13.4-33l.78-.37-.24-.82a36.22,36.22,0,0,1-1.44-10.08c0-19.46,22.53-34.56,41.9-34.56m0-1c-19.86,0-42.9,15.36-42.9,35.56a36.85,36.85,0,0,0,1.48,10.36c-12.32,5.8-15.93,26.74-14,34.2,5.18,19.49,16.11,36.56,36,36.56a35.36,35.36,0,0,0,18.57-5.24,35.63,35.63,0,0,0,58.88,3.76,23.42,23.42,0,0,0,8.23,1.48,24,24,0,0,0,23.84-24.24A24.33,24.33,0,0,0,240.12,172a36.75,36.75,0,0,0,9.64-24.9c0-20.19-16.1-36.57-36-36.57-8.45,0-13.31.86-19.45,5.82-6-11.56-20.92-17.32-34.7-17.32Z"/><path class="cls-3" d="M206.71,214.42s19.79,20.13,42.56,13.08c0,0-17.82-4-20.79-21.12"/><path class="cls-7" d="M151.33,154.66c0-.32,0-.66,0-1h-9.13c-.78,0-1.92.06-2.58.12v-2.86c.7.06,1.6.12,2.5.12h9.23v-8.29h-9c-.84,0-1.92,0-2.48.08V140c.74.08,1.78.12,2.48.12h10.07c.58,0,1.42,0,1.76,0,0,.46-.06,1.26-.06,1.84V152.3c0,.7,0,1.76.08,2.36Z"/><path class="cls-7" d="M166.75,149.72a19,19,0,0,0,7.28-7.79l1.56,2.82a21.21,21.21,0,0,1-7.4,7.41,21.71,21.71,0,0,1-7.43,2.82l-1.68-2.64A20.73,20.73,0,0,0,166.75,149.72Zm0-6.49-2.05,2.1a41.58,41.58,0,0,0-5-4.32l1.88-2A42.1,42.1,0,0,1,166.75,143.23Z"/><path class="cls-7" d="M194.35,151.78c0,.78,0,2.7,0,2.78h-2.76l0-1.1H182l0,1.1h-2.76c0-.1.06-1.84.06-2.8V142c0-.56,0-1.38,0-1.94.82,0,1.58,0,2.12,0h11c.5,0,1.26,0,2,0,0,.6,0,1.34,0,1.94ZM182,142.61v8.31h9.67v-8.31Z"/><path class="cls-7" d="M206.18,152.7a18.69,18.69,0,0,0,1.85-.32,5.36,5.36,0,0,0,4.5-5.3c0-2.75-1.48-4.79-4.15-5.25a43.46,43.46,0,0,1-1.17,5.39c-1.19,4-2.91,6.44-5.07,6.44s-4-2.42-4-5.76c0-4.57,4-8.49,9.12-8.49,4.91,0,8,3.42,8,7.75,0,4.16-2.56,7.12-7.56,7.88Zm-1.54-6a32.2,32.2,0,0,0,1.07-4.81,6.21,6.21,0,0,0-5,5.75c0,2,.8,3,1.54,3S203.84,149.38,204.64,146.7Z"/><path class="cls-7" d="M134,169.45h-6.6v-1.88H134Zm11.53,10.83c0,1.16-.18,1.84-.86,2.22a6.37,6.37,0,0,1-3.08.44,8.25,8.25,0,0,0-.66-2.32c.82,0,1.74,0,2,0s.36-.08.36-.38V167H137v5.42c0,3.19-.25,7.75-1.81,10.63a7.47,7.47,0,0,0-1.66-1.18H130v.8h-1.84v-6.82h5.32v5.56c1.2-2.6,1.3-6.22,1.3-9V165h10.75Zm-12-8.11h-5.3v-1.82h5.3Zm-5.3.93h5.3v1.78h-5.3Zm5.24-6.41h-5.12v-1.8h5.12Zm-1.88,11H130V180h1.58Zm7.57-6.11v-1.36h-1.54v-1.72h1.54v-1.3H141v1.3h1.58v1.72H141v1.36h1.72v1.74h-5.2v-1.74Zm.18,8.07v.68h-1.68v-6h4.92v5.3Zm0-3.58V178h1.52V176.1Z"/><path class="cls-7" d="M166,175.38H158v4.8c0,1.38-.31,2-1.27,2.4a11.81,11.81,0,0,1-4.16.42,10.78,10.78,0,0,0-1-2.46c1.38.06,2.92.06,3.38.06s.57-.1.57-.46v-4.76h-8V173h8v-3.16h1.17a23.64,23.64,0,0,0,2.87-2h-9.91v-2.34h12.39l.54-.12,1.82,1.36a31.13,31.13,0,0,1-6.4,5V173H166Z"/><path class="cls-7" d="M175.86,165.61c-.12.52-.23,1.14-.34,1.64s-.28,1.32-.42,2c.66,0,1.26-.08,1.66-.08,2.11,0,3.59.94,3.59,3.78,0,2.35-.28,5.51-1.12,7.23A3.16,3.16,0,0,1,176,182a11.23,11.23,0,0,1-2.37-.28l-.44-2.62a11.66,11.66,0,0,0,2.44.42,1.48,1.48,0,0,0,1.49-.86,15.17,15.17,0,0,0,.79-5.43c0-1.58-.67-1.8-1.91-1.8-.33,0-.81,0-1.37.08-.78,3-2.22,7.67-4,10.59l-2.58-1a29.33,29.33,0,0,0,4-9.27c-.7.08-1.32.16-1.7.22-.56.06-1.58.2-2.2.3l-.22-2.68a18.39,18.39,0,0,0,2.1,0c.62,0,1.56-.08,2.56-.16a21.93,21.93,0,0,0,.42-4.2ZM183,168a39.43,39.43,0,0,1,3.22,6.91l-2.52,1.18a22.48,22.48,0,0,0-3.34-7.47l1.84-.78a22.11,22.11,0,0,0-1.36-2.36l1.58-.66c.5.74,1.2,2,1.6,2.74Zm1.82-.66a20,20,0,0,0-1.62-2.76l1.58-.66a23.67,23.67,0,0,1,1.62,2.72Z"/><path class="cls-7" d="M187.48,181a6.61,6.61,0,0,0,2.36-3.48l2.14.84a8.25,8.25,0,0,1-2.46,4.06Zm7.4-4.42h-7v-2h5.54v-1.07h-4v-5.42h4V167h-5.22v-2h17.25v2h-5.54v1.08h4.22v5.42h-4.22v1.07h5.8v2h-8.82a12,12,0,0,1,2.24,1.6l-1.62,1.36a13.62,13.62,0,0,0-3.37-2.34Zm-1.48-4.91v-1.8h-1.8v1.8Zm5.21,8.87c.68,0,.82-.18.9-1.48a6.28,6.28,0,0,0,2.12.84c-.28,2.22-.94,2.76-2.8,2.76h-3.05c-2.56,0-3.12-.64-3.12-2.64v-2.14H195V180c0,.52.16.56,1,.56Zm-2.93-12.47h1.91V167h-1.91Zm1.91,1.8h-1.91v1.8h1.91Zm-1.91,4.69h1.91v-1.07h-1.91Zm4.21-4.69v1.8h1.9v-1.8Zm2.5,7.35a13.94,13.94,0,0,1,3.66,3.82L204,182.36a14.37,14.37,0,0,0-3.48-3.94Z"/><path class="cls-7" d="M211.76,169.37c0,1.28,0,2.78.12,4.21.28,2.86.88,4.8,2.12,4.8.94,0,1.72-2.32,2.1-3.89l2,2.41c-1.32,3.44-2.56,4.66-4.17,4.66-2.16,0-4.06-2-4.62-7.28-.18-1.83-.22-4.13-.22-5.35a11.48,11.48,0,0,0-.14-2l3,0A15.69,15.69,0,0,0,211.76,169.37Zm13.77,8.15-2.62,1c-.3-3.18-1.36-7.85-3.52-10.29l2.52-.84C223.79,169.69,225.31,174.48,225.53,177.52Z"/><path class="cls-2" d="M142.36,44.42A10.21,10.21,0,0,0,145,37.53a10,10,0,0,0-9.85-10.13c-2.32,0-3.65.24-5.33,1.61-1.66-3.2-5.74-4.79-9.51-4.79-5.44,0-11.75,4.25-11.75,9.84a10.42,10.42,0,0,0,.4,2.87c-3.38,1.61-4.36,7.41-3.82,9.47,1.42,5.4,4.41,10.13,9.85,10.13a9.6,9.6,0,0,0,5.09-1.45,9.71,9.71,0,0,0,16.13,1,6.52,6.52,0,0,0,2.26.41A6.62,6.62,0,0,0,145,49.82,6.8,6.8,0,0,0,142.36,44.42Z"/><path class="cls-2" d="M133.2,56.18s5.43,5.57,11.66,3.62c0,0-4.88-1.11-5.69-5.85"/><path class="cls-2" d="M392.36,358.42a10.21,10.21,0,0,0,2.64-6.89,10,10,0,0,0-9.85-10.13c-2.32,0-3.65.24-5.33,1.61-1.66-3.2-5.74-4.79-9.51-4.79-5.44,0-11.75,4.25-11.75,9.84a10.42,10.42,0,0,0,.4,2.87c-3.38,1.61-4.36,7.41-3.82,9.47,1.42,5.4,4.41,10.13,9.85,10.13a9.6,9.6,0,0,0,5.09-1.45,9.71,9.71,0,0,0,16.13,1,6.52,6.52,0,0,0,2.26.41,6.62,6.62,0,0,0,6.53-6.71A6.8,6.8,0,0,0,392.36,358.42Z"/><path class="cls-2" d="M383.2,370.18s5.43,5.57,11.66,3.62c0,0-4.88-1.11-5.69-5.85"/><path class="cls-2" d="M172,279.53a15.4,15.4,0,0,0,4-10.35A15,15,0,0,0,161.22,254c-3.48,0-5.47.35-8,2.41-2.48-4.8-8.59-7.19-14.26-7.19-8.16,0-17.63,6.38-17.63,14.77a15.62,15.62,0,0,0,.61,4.3c-5.06,2.41-6.54,11.11-5.73,14.21,2.13,8.09,6.62,15.18,14.78,15.18a14.44,14.44,0,0,0,7.63-2.17,14.57,14.57,0,0,0,24.2,1.56,9.47,9.47,0,0,0,3.38.61,9.93,9.93,0,0,0,9.8-10.06A10.14,10.14,0,0,0,172,279.53Z"/><path class="cls-2" d="M158.31,297.16s8.13,8.36,17.49,5.44c0,0-7.32-1.68-8.54-8.78"/><path class="cls-2" d="M56,70.53a15.4,15.4,0,0,0,4-10.35A15,15,0,0,0,45.22,45c-3.48,0-5.47.35-8,2.41-2.48-4.8-8.59-7.19-14.26-7.19C14.8,40.22,5.33,46.6,5.33,55a15.62,15.62,0,0,0,.61,4.3C.88,61.7-.6,70.4.21,73.5,2.34,81.59,6.83,88.68,15,88.68a14.44,14.44,0,0,0,7.63-2.17,14.57,14.57,0,0,0,24.2,1.56,9.47,9.47,0,0,0,3.38.61A9.93,9.93,0,0,0,60,78.62,10.14,10.14,0,0,0,56,70.53Z"/><path class="cls-2" d="M42.31,88.16s8.13,8.36,17.49,5.44c0,0-7.32-1.68-8.54-8.78"/><path class="cls-2" d="M903,33.53a15.4,15.4,0,0,1-4-10.35A15,15,0,0,1,913.78,8c3.48,0,5.47.35,8,2.41,2.48-4.8,8.59-7.19,14.26-7.19,8.16,0,17.63,6.38,17.63,14.77a15.62,15.62,0,0,1-.61,4.3c5.06,2.41,6.54,11.11,5.73,14.21-2.13,8.09-6.62,15.18-14.78,15.18a14.44,14.44,0,0,1-7.63-2.17,14.57,14.57,0,0,1-24.2,1.56,9.47,9.47,0,0,1-3.38.61A9.93,9.93,0,0,1,899,41.62,10.14,10.14,0,0,1,903,33.53Z"/><path class="cls-2" d="M916.69,51.16s-8.13,8.36-17.49,5.44c0,0,7.32-1.68,8.54-8.78"/><path class="cls-2" d="M912.64,245.42a10.21,10.21,0,0,1-2.64-6.89,10,10,0,0,1,9.85-10.13c2.32,0,3.65.24,5.33,1.61,1.66-3.2,5.74-4.79,9.51-4.79,5.44,0,11.75,4.25,11.75,9.84a10.42,10.42,0,0,1-.4,2.87c3.38,1.61,4.36,7.41,3.82,9.47-1.42,5.4-4.41,10.13-9.85,10.13a9.6,9.6,0,0,1-5.09-1.45,9.71,9.71,0,0,1-16.13,1,6.52,6.52,0,0,1-2.26.41,6.62,6.62,0,0,1-6.53-6.71A6.8,6.8,0,0,1,912.64,245.42Z"/><path class="cls-2" d="M921.8,257.18s-5.43,5.57-11.66,3.62c0,0,4.88-1.11,5.69-5.85"/><path class="cls-2" d="M701.64,363.42a10.21,10.21,0,0,1-2.64-6.89,10,10,0,0,1,9.85-10.13c2.32,0,3.65.24,5.33,1.61,1.66-3.2,5.74-4.79,9.51-4.79,5.44,0,11.75,4.25,11.75,9.84a10.42,10.42,0,0,1-.4,2.87c3.38,1.61,4.36,7.41,3.82,9.47-1.42,5.4-4.41,10.13-9.85,10.13a9.6,9.6,0,0,1-5.09-1.45,9.71,9.71,0,0,1-16.13,1,6.52,6.52,0,0,1-2.26.41,6.62,6.62,0,0,1-6.53-6.71A6.8,6.8,0,0,1,701.64,363.42Z"/><path class="cls-2" d="M710.8,375.18s-5.43,5.57-11.66,3.62c0,0,4.88-1.11,5.69-5.85"/><path class="cls-2" d="M1017,82.53a15.4,15.4,0,0,1-4-10.35A15,15,0,0,1,1027.78,57c3.48,0,5.47.35,8,2.41,2.48-4.8,8.59-7.19,14.26-7.19,8.16,0,17.63,6.38,17.63,14.77a15.62,15.62,0,0,1-.61,4.3c5.06,2.41,6.54,11.11,5.73,14.21-2.13,8.09-6.62,15.18-14.78,15.18a14.44,14.44,0,0,1-7.63-2.17,14.57,14.57,0,0,1-24.2,1.56,9.47,9.47,0,0,1-3.38.61,9.93,9.93,0,0,1-9.8-10.06A10.14,10.14,0,0,1,1017,82.53Z"/><path class="cls-2" d="M1030.69,100.16s-8.13,8.36-17.49,5.44c0,0,7.32-1.68,8.54-8.78"/><path class="cls-6" d="M779,128.51a35.12,35.12,0,0,1-27.75-13.62l-.23-.29-.34.13a22.93,22.93,0,0,1-8,1.45,23.82,23.82,0,0,1-13.9-42.81l.43-.33-.37-.41a36.26,36.26,0,0,1-9.51-24.56c0-19.89,15.91-36.07,35.47-36.07,8.36,0,13.11.83,19.14,5.71l.48.39.28-.55C781.21,5,797.19.5,808.89.5c19.6,0,42.39,15.31,42.39,35.06a36.79,36.79,0,0,1-1.45,10.22l-.12.41.38.18C862.18,52.06,865.62,73,863.77,80c-4.39,16.51-14.1,36.19-35.49,36.19A35,35,0,0,1,810,111l-.43-.26-.26.43A35.13,35.13,0,0,1,779,128.51Z"/><path class="cls-2" d="M808.89,1c19.37,0,41.89,15.1,41.89,34.56a36.21,36.21,0,0,1-1.43,10.08l-.24.82.77.37c11.86,5.58,15.23,26.18,13.41,33-2.83,10.64-7,19.12-12.27,25.19-6.16,7.06-13.81,10.63-22.74,10.63a34.5,34.5,0,0,1-18-5.09l-.86-.53-.52.86a34.63,34.63,0,0,1-57.24,3.66l-.45-.57-.68.25a22.47,22.47,0,0,1-7.88,1.42A23.32,23.32,0,0,1,729,73.77l.87-.66-.74-.81a35.78,35.78,0,0,1-9.38-24.23c0-19.61,15.69-35.57,35-35.57,8.24,0,12.91.81,18.83,5.6l1,.77.56-1.08C781.54,5.4,797.33,1,808.89,1m0-1c-13.78,0-28.66,5.76-34.7,17.32-6.14-5-11-5.82-19.46-5.82-19.86,0-36,16.38-36,36.57A36.8,36.8,0,0,0,728.4,73a24.33,24.33,0,0,0-9.64,19.47,24,24,0,0,0,23.85,24.24,23.46,23.46,0,0,0,8.23-1.48,35.63,35.63,0,0,0,58.88-3.76,35.32,35.32,0,0,0,18.56,5.24c19.87,0,30.8-17.07,36-36.56,2-7.46-1.62-28.4-13.94-34.2a37.21,37.21,0,0,0,1.47-10.36c0-20.2-23-35.56-42.89-35.56Z"/><path class="cls-3" d="M761.82,115.42S742,135.55,719.26,128.5c0,0,17.81-4,20.78-21.12"/><path class="cls-7" d="M767.69,55.32a15.21,15.21,0,0,0-4.39-3.1,5.63,5.63,0,0,1,0,.68c0,1.74-.91,3.42-4.23,3.42-2.82,0-5.14-.92-5.14-3.62,0-2.06,1.76-3.7,5.4-3.7a11.71,11.71,0,0,1,1.19.06c-.07-1.54-.15-3.25-.15-4.29,0-1.2,0-2.38,0-3.22a12.57,12.57,0,0,0-.2-2.32h3c-.08.58-.14,1.54-.18,2.32V43c1.56,0,3.88-.12,5.52-.3l.1,2.36c-1.66.16-4,.24-5.62.28,0,1.21.12,2.77.22,4.23a15.66,15.66,0,0,1,6,3.4Zm-7.06-4a11.13,11.13,0,0,0-1.65-.14c-1.54,0-2.46.52-2.46,1.36s1,1.34,2.38,1.34,1.74-.58,1.74-1.88C760.64,51.86,760.64,51.62,760.63,51.36Z"/><path class="cls-7" d="M786.41,40.85c-.62.46-1.28,1-1.74,1.34-1.29,1-3.91,3.06-5.23,4.2-1.06.9-1,1.13,0,2,1.49,1.26,5.31,4.28,7.27,6.18l-2.3,2.12c-.56-.62-1.18-1.24-1.74-1.84-1.08-1.14-4.11-3.72-5.93-5.26s-1.8-2.77.18-4.41c1.54-1.26,4.26-3.46,5.61-4.78a13.68,13.68,0,0,0,1.52-1.66Z"/><path class="cls-7" d="M802.83,38.73c0,.32,0,.72-.07,1.14.16,2.76,1.16,11.39,8.63,14.89a7.82,7.82,0,0,0-1.84,2c-4.52-2.24-6.76-6.36-7.88-10.05a17.09,17.09,0,0,1-7.41,10.05,8.33,8.33,0,0,0-2-1.9c8-4.42,7.71-13.51,7.84-16.15Z"/><path class="cls-7" d="M817.68,40a16.65,16.65,0,0,0-.48,1.76,48.94,48.94,0,0,0-1,7.27,9.56,9.56,0,0,0,.08,1.28c.28-.7.6-1.36.88-2l1.24,1A47.75,47.75,0,0,0,817,54.08a5.82,5.82,0,0,0-.12.92c0,.22,0,.54,0,.82l-2.28.16a25.28,25.28,0,0,1-.78-6.48,55.09,55.09,0,0,1,.82-7.85,14.8,14.8,0,0,0,.2-1.94Zm4.65,9.79a6.52,6.52,0,0,0-.24,1.66c0,.88.75,1.4,2.76,1.4a22.83,22.83,0,0,0,5-.52l.06,2.68a27.53,27.53,0,0,1-5.12.4c-3.42,0-5-1.24-5-3.26a11.63,11.63,0,0,1,.35-2.58Zm6.92-8.49v2.56a55,55,0,0,1-8.51,0l0-2.56A40.51,40.51,0,0,0,829.25,41.25Z"/><path class="cls-7" d="M753.64,82.14,752.14,80a21.38,21.38,0,0,0,5-3.88l1.5,2A26.13,26.13,0,0,1,753.64,82.14Zm3.84-1.86a10.8,10.8,0,0,0,3.07.48c1,0,1.7-.36,1.7-1.3,0-1.2-1.39-3-2.27-3.86A18.74,18.74,0,0,0,758.14,74l2-1.65c.58.6,1.11,1.08,1.61,1.6,2.12,2.15,3.28,3.93,3.28,5.75,0,2.66-1.88,3.44-3.94,3.44a17.87,17.87,0,0,1-3.19-.28Zm3.36-9.13c.49-.32,1-.7,1.25-.92a20.77,20.77,0,0,0-4-1.92l1.48-1.84a31.55,31.55,0,0,1,5.11,2.36l.6,1.56c-.54.44-2.06,1.66-2.84,2.22Zm7.61,10.65a19.79,19.79,0,0,0-3.12-6.52l2.16-1.14a25,25,0,0,1,3.36,6.38ZM769,71.35l-1.6.7a27.77,27.77,0,0,0-1.58-2.8l1.58-.64A27.77,27.77,0,0,1,769,71.35Zm2.4-.92-1.6.68a21.07,21.07,0,0,0-1.6-2.76l1.58-.64A28.56,28.56,0,0,1,771.37,70.43Z"/><path class="cls-7" d="M775.36,70.65c1.54-.46,5.56-1.88,8.47-1.88,3.58,0,6.4,2.06,6.4,5.72,0,4.49-4.28,7.37-11.27,7.73l-1.14-2.64c5.37-.12,9.57-1.68,9.57-5.13,0-1.86-1.28-3.28-3.66-3.28-2.93,0-7.61,2-9.67,2.89l-1.12-2.81A21.37,21.37,0,0,0,775.36,70.65Z"/><path class="cls-7" d="M801,66.47c-.13.52-.27,1.14-.37,1.64s-.26,1.32-.4,2c.66,0,1.27-.08,1.67-.08,2.1,0,3.58.94,3.58,3.78,0,2.35-.28,5.51-1.12,7.23a3.19,3.19,0,0,1-3.27,1.82,11.06,11.06,0,0,1-2.36-.28L798.3,80a11.4,11.4,0,0,0,2.42.42,1.45,1.45,0,0,0,1.49-.86,14.86,14.86,0,0,0,.82-5.42c0-1.59-.69-1.81-1.94-1.81-.33,0-.81,0-1.37.08-.76,3-2.2,7.67-4,10.59l-2.6-1a29.39,29.39,0,0,0,4-9.27c-.7.08-1.32.16-1.7.22-.56.06-1.58.2-2.2.3L793,70.53a18.39,18.39,0,0,0,2.1,0c.62,0,1.56-.08,2.56-.16a21.93,21.93,0,0,0,.42-4.2Zm6.84,1.86a35.53,35.53,0,0,1,3.46,7.37l-2.5,1.18a22.93,22.93,0,0,0-3.36-7.55Z"/><path class="cls-7" d="M827.23,68.49q-.72.45-1.38.9c-1.06.74-3.14,2.5-4.38,3.5a6.62,6.62,0,0,1,1.86-.22c3.36,0,5.92,2.11,5.92,5,0,3.12-2.38,5.6-7.16,5.6-2.77,0-4.85-1.26-4.85-3.24a3.33,3.33,0,0,1,3.56-3.08A4,4,0,0,1,825,80.32a2.89,2.89,0,0,0,1.62-2.7c0-1.78-1.8-3-4.1-3-3,0-5,1.62-7.15,4l-1.8-1.86c1.4-1.14,3.78-3.17,5-4.13s3.16-2.58,4.15-3.44c-1,0-3.75.14-4.79.22a13.07,13.07,0,0,0-1.62.16L816.22,67c.56.06,1.24.1,1.8.1,1,0,5.28-.1,6.41-.2a9.55,9.55,0,0,0,1.52-.2ZM822.75,81c-.12-1.28-.87-2.12-2-2.12-.74,0-1.22.44-1.22.94,0,.74.84,1.24,2,1.24A10.57,10.57,0,0,0,822.75,81Z"/><path class="cls-6" d="M749,300.51a35.12,35.12,0,0,1-27.75-13.62l-.23-.29-.34.13a22.93,22.93,0,0,1-8,1.45,23.82,23.82,0,0,1-13.9-42.81l.43-.33-.37-.41a36.26,36.26,0,0,1-9.51-24.56c0-19.89,15.91-36.07,35.47-36.07,8.36,0,13.11.83,19.14,5.71l.48.39.28-.55c6.58-12.58,22.56-17.05,34.26-17.05,19.6,0,42.39,15.31,42.39,35.06a36.79,36.79,0,0,1-1.45,10.22l-.12.41.38.18c12.09,5.69,15.53,26.65,13.68,33.62-4.39,16.51-14.1,36.19-35.49,36.19A35,35,0,0,1,780,283l-.43-.26-.26.43A35.13,35.13,0,0,1,749,300.51Z"/><path class="cls-2" d="M778.89,173c19.37,0,41.89,15.1,41.89,34.56a36.21,36.21,0,0,1-1.43,10.08l-.24.82.77.37c11.86,5.58,15.23,26.18,13.41,33-2.83,10.64-7,19.12-12.27,25.19-6.16,7.06-13.81,10.63-22.74,10.63a34.5,34.5,0,0,1-18-5.09l-.86-.53-.52.86a34.63,34.63,0,0,1-57.24,3.66l-.45-.57-.68.25a22.47,22.47,0,0,1-7.88,1.42A23.32,23.32,0,0,1,699,245.77l.87-.66-.74-.81a35.78,35.78,0,0,1-9.38-24.23c0-19.61,15.69-35.57,35-35.57,8.24,0,12.91.81,18.83,5.6l1,.77.56-1.08C751.54,177.4,767.33,173,778.89,173m0-1c-13.78,0-28.66,5.76-34.7,17.32-6.14-5-11-5.82-19.46-5.82-19.86,0-36,16.38-36,36.57A36.8,36.8,0,0,0,698.4,245a24.33,24.33,0,0,0-9.64,19.47,24,24,0,0,0,23.85,24.24,23.46,23.46,0,0,0,8.23-1.48,35.63,35.63,0,0,0,58.88-3.76,35.32,35.32,0,0,0,18.56,5.24c19.87,0,30.8-17.07,36-36.56,2-7.46-1.62-28.4-13.94-34.2a37.21,37.21,0,0,0,1.47-10.36c0-20.2-23-35.56-42.89-35.56Z"/><path class="cls-3" d="M731.82,287.42S712,307.55,689.26,300.5c0,0,17.81-4,20.78-21.12"/><path class="cls-7" d="M714.64,219.72a8.23,8.23,0,0,1-1,2,7.79,7.79,0,0,0-1.48-1.64c1.18-1.81,1.3-4.21,1.3-6V211h7.48v4.76h-5.5c0,.32-.06.66-.1,1h5.71v4.75h-6.41Zm8.33,6.62h7.82v2H712.86v-2h7.66v-1.52h-5.8v-2h5.8v-1H723v1h6.16v2H723Zm-7.47-13.59V214h3.3v-1.22Zm3.5,5.7h-2.46v1.31H719ZM731,215v1.84h-3.78v1.24h3.28v1.78h-3.28V222H725v-2.11h-3.22v-1.78H725v-1.24H721.4V215h1.85a10,10,0,0,0-.5-1.62l.52-.1h-1.43v-1.8H725v-1h2.2v1h3.36v1.8h-1.2l.14,0c-.28.66-.48,1.22-.66,1.7Zm-6.24-1.72a7.76,7.76,0,0,1,.5,1.62l-.48.1h2.5l-.36-.06a14.53,14.53,0,0,0,.5-1.66Z"/><path class="cls-7" d="M736.86,228.6a37.54,37.54,0,0,0-4.3-4.42l2.08-1.8a37.49,37.49,0,0,1,4.36,4.38Z"/><path class="cls-7" d="M756.1,219.68a16.07,16.07,0,0,0-3.7-2.19l1.24-1.78a16,16,0,0,1,3.78,2Zm-3,7.46a62.61,62.61,0,0,0,3.62-6.28l1.78,1.54c-1,2.1-2.2,4.38-3.36,6.3Zm4.16-12.79a14.69,14.69,0,0,0-3.66-2.24l1.3-1.76a14.84,14.84,0,0,1,3.76,2.06Zm6.65,3.8c-.14.68-.3,1.37-.45,2H770s0,.64-.06,1c-.34,4.34-.74,6.22-1.44,7a2.82,2.82,0,0,1-2,.84,28.3,28.3,0,0,1-3.22,0,5.58,5.58,0,0,0-.8-2.28c1.24.12,2.52.14,3.08.14a1.38,1.38,0,0,0,.92-.24c.4-.34.7-1.62.92-4.26h-4.45l-.25,1-2.45-.3c.38-1.32.79-3,1.18-4.81h-3.08V216h3.56c.17-.8.3-1.6.45-2.36h-3.15v-2.22h11.11v2.22h-5.48c-.14.76-.3,1.56-.46,2.36h6.72v2.2Z"/><path class="cls-7" d="M791.17,226.08a5.24,5.24,0,0,1-3.72,1.5c-1.48,0-2.48-1.1-2.48-3,0-2.16.7-5.06.7-6.87,0-1-.5-1.46-1.32-1.46-1.48,0-3.64,1.82-5.25,3.61,0,.56,0,1.1,0,1.6,0,1.62,0,3.28.12,5.14,0,.36.1,1.08.14,1.52H776.6c0-.42.06-1.14.06-1.46,0-1.54,0-2.68.08-4.36-.86,1.26-1.82,2.72-2.5,3.66l-1.56-2.2c1.12-1.36,3.12-4,4.24-5.67l.08-1.38-3.6.46-.24-2.54a16.84,16.84,0,0,0,1.72,0c.58,0,1.44-.14,2.28-.26,0-.74.08-1.3.08-1.52a10.56,10.56,0,0,0-.08-1.76l2.9.08c-.12.56-.28,1.58-.44,2.82l.74.94c-.26.34-.68,1-1,1.5a3,3,0,0,1,0,.42c1.56-1.36,3.85-2.94,5.77-2.94a2.78,2.78,0,0,1,3.12,2.92c0,2.06-.66,5-.66,7,0,.52.26.86.76.86a4,4,0,0,0,2.54-1.4Z"/><path class="cls-7" d="M795.22,213.39c1.64-.16,4.92-.44,8.55-.76,2-.16,4.22-.28,5.6-.34l0,2.56a20.45,20.45,0,0,0-3.82.26,6.05,6.05,0,0,0-4.19,5.55c0,3.26,3.07,4.42,6.41,4.6l-.92,2.74c-4.16-.28-8.09-2.52-8.09-6.8a7.9,7.9,0,0,1,2.93-6.11c-1.7.18-5.89.62-8.19,1.12l-.24-2.72C794.06,213.47,794.82,213.43,795.22,213.39Z"/><path class="cls-7" d="M736.9,245.09a23,23,0,0,1-3.06.8c.5,1.06,1.06,2.23,1.64,3.31l-1.18,1.5c-1.1-.2-3-.5-4.33-.66l.23-1.9c.78.1,1.56.16,2.1.22l-.9-2.07a48,48,0,0,1-8.71.12l-.1-2.28a40.3,40.3,0,0,0,7.91,0l-.34-.78-.49-1.12a39.27,39.27,0,0,1-6.82-.08l-.12-2.26a37.29,37.29,0,0,0,6,.22v0a15.87,15.87,0,0,0-1-1.7l2.82-.54a19.29,19.29,0,0,0,.63,2A24,24,0,0,0,735,239l.42,2.22a28.58,28.58,0,0,1-3.4.8l.38.86.46,1a21.2,21.2,0,0,0,3.54-1Zm-11.11,3.73a5.87,5.87,0,0,0-.48,1.92c0,1.24.88,2.08,3.46,2.08a28.85,28.85,0,0,0,5.25-.44l-.08,2.54a35.08,35.08,0,0,1-5.1.38c-3.71,0-6-1.26-6-4a10.28,10.28,0,0,1,.48-2.7Z"/><path class="cls-7" d="M751.74,242.77c-1.19.26-2.52.48-3.85.64-.17.86-.38,1.74-.6,2.54a63.59,63.59,0,0,1-3.14,9.17l-2.78-.92a43.54,43.54,0,0,0,3.42-8.93c.14-.52.28-1.08.42-1.64-.46,0-.9,0-1.3,0-1,0-1.7,0-2.4-.08l-.06-2.48a19.5,19.5,0,0,0,2.5.16c.58,0,1.16,0,1.76-.06q.12-.66.18-1.14a10.28,10.28,0,0,0,.08-2l3,.24c-.15.54-.33,1.42-.43,1.86l-.15.76c1.12-.18,2.24-.4,3.32-.66Zm-.4,6.51a6.45,6.45,0,0,0-.29,1.66c0,.86.51,1.5,2.63,1.5a23,23,0,0,0,4.12-.4l-.1,2.54a31.69,31.69,0,0,1-4,.28c-3.34,0-5-1.16-5-3.16a13.58,13.58,0,0,1,.35-2.64Zm-1.17-5c1.11-.1,2.53-.2,3.81-.2a34.39,34.39,0,0,1,3.48.18l-.06,2.39a28.49,28.49,0,0,0-3.4-.25,27.67,27.67,0,0,0-3.83.23Z"/><path class="cls-7" d="M771,242.55a29.23,29.23,0,0,1-3.45.68,36.44,36.44,0,0,1-4.24,8.49l-2.42-1.22a30.28,30.28,0,0,0,4-7c-.34,0-.68,0-1,0-.82,0-1.62,0-2.48-.06l-.18-2.32a25.18,25.18,0,0,0,2.64.14c.58,0,1.18,0,1.78-.06a16.86,16.86,0,0,0,.54-3.32l2.75.28c-.16.64-.41,1.64-.69,2.7a21.09,21.09,0,0,0,2.67-.62Zm2.6,1.78c-.06.84,0,1.66,0,2.54,0,.57.06,1.53.12,2.51a13.19,13.19,0,0,1,4.1,2.54L776.5,254a17.63,17.63,0,0,0-2.68-2.1v.18c0,1.84-1,3.28-3.82,3.28-2.47,0-4.41-1.1-4.41-3.28,0-1.94,1.62-3.44,4.38-3.44.46,0,.93,0,1.35.08-.06-1.48-.16-3.22-.23-4.43Zm-2.18,6.57a7,7,0,0,0-1.61-.2c-1.14,0-1.88.48-1.88,1.18s.62,1.24,1.7,1.24a1.6,1.6,0,0,0,1.79-1.84Zm5.58-5.51a26.41,26.41,0,0,0-4.76-2.82l1.28-2a35.64,35.64,0,0,1,4.88,2.68Z"/><path class="cls-7" d="M785.93,252.58a1.83,1.83,0,1,1,1.82,1.92A1.84,1.84,0,0,1,785.93,252.58Z"/><path class="cls-7" d="M792.43,252.58a1.83,1.83,0,1,1,1.82,1.92A1.84,1.84,0,0,1,792.43,252.58Z"/><path class="cls-7" d="M798.93,252.58a1.83,1.83,0,1,1,1.82,1.92A1.84,1.84,0,0,1,798.93,252.58Z"/><path class="cls-6" d="M890,210.51a35.12,35.12,0,0,1-27.75-13.62l-.23-.29-.34.13a22.93,22.93,0,0,1-8,1.45,23.82,23.82,0,0,1-13.9-42.81l.43-.33-.37-.41a36.26,36.26,0,0,1-9.51-24.56c0-19.89,15.91-36.07,35.47-36.07,8.36,0,13.11.83,19.14,5.71l.48.39.28-.55c6.58-12.58,22.56-17,34.26-17,19.6,0,42.39,15.31,42.39,35.06a36.79,36.79,0,0,1-1.45,10.22l-.12.41.38.18c12.09,5.69,15.53,26.65,13.68,33.62-4.39,16.51-14.1,36.19-35.49,36.19A35,35,0,0,1,921,193l-.43-.26-.26.43A35.13,35.13,0,0,1,890,210.51Z"/><path class="cls-2" d="M919.89,83c19.37,0,41.89,15.1,41.89,34.56a36.21,36.21,0,0,1-1.43,10.08l-.24.82.77.37c11.86,5.58,15.23,26.18,13.41,33-2.83,10.64-7,19.12-12.27,25.19-6.16,7.06-13.81,10.63-22.74,10.63a34.5,34.5,0,0,1-18-5.09l-.86-.53-.52.86a34.63,34.63,0,0,1-57.24,3.66l-.45-.57-.68.25a22.47,22.47,0,0,1-7.88,1.42A23.32,23.32,0,0,1,840,155.77l.87-.66-.74-.81a35.78,35.78,0,0,1-9.38-24.23c0-19.61,15.69-35.57,35-35.57,8.24,0,12.91.81,18.83,5.6l1,.77.56-1.08C892.54,87.4,908.33,83,919.89,83m0-1c-13.78,0-28.66,5.76-34.7,17.32-6.14-5-11-5.82-19.46-5.82-19.86,0-36,16.38-36,36.57A36.8,36.8,0,0,0,839.4,155a24.33,24.33,0,0,0-9.64,19.47,24,24,0,0,0,23.85,24.24,23.46,23.46,0,0,0,8.23-1.48,35.63,35.63,0,0,0,58.88-3.76,35.32,35.32,0,0,0,18.56,5.24c19.87,0,30.8-17.07,36-36.56,2-7.46-1.62-28.4-13.94-34.2a37.21,37.21,0,0,0,1.47-10.36c0-20.2-23-35.56-42.89-35.56Z"/><path class="cls-3" d="M872.82,197.42S853,217.55,830.26,210.5c0,0,17.81-4,20.78-21.12"/><path class="cls-7" d="M866.36,125.65c1.54-.46,5.56-1.88,8.47-1.88,3.58,0,6.4,2.06,6.4,5.72,0,4.49-4.28,7.37-11.27,7.73l-1.14-2.64c5.37-.12,9.57-1.68,9.57-5.13,0-1.86-1.28-3.28-3.66-3.28-2.93,0-7.61,2-9.67,2.89l-1.12-2.81A21.37,21.37,0,0,0,866.36,125.65Z"/><path class="cls-7" d="M892,121.47c-.13.52-.27,1.14-.37,1.64s-.26,1.32-.4,2c.66,0,1.27-.08,1.67-.08,2.1,0,3.58.94,3.58,3.78,0,2.35-.28,5.51-1.12,7.23a3.19,3.19,0,0,1-3.27,1.82,11.06,11.06,0,0,1-2.36-.28L889.3,135a11.4,11.4,0,0,0,2.42.42,1.45,1.45,0,0,0,1.49-.86,14.86,14.86,0,0,0,.82-5.42c0-1.59-.69-1.81-1.94-1.81-.33,0-.81,0-1.37.08-.76,3-2.2,7.67-4,10.59l-2.6-1a29.39,29.39,0,0,0,4-9.27c-.7.08-1.32.16-1.7.22-.56.06-1.58.2-2.2.3l-.22-2.68a18.39,18.39,0,0,0,2.1,0c.62,0,1.56-.08,2.56-.16a21.93,21.93,0,0,0,.42-4.2Zm6.84,1.86a35.53,35.53,0,0,1,3.46,7.37l-2.5,1.18a22.93,22.93,0,0,0-3.36-7.55Z"/><path class="cls-7" d="M914.25,125.55a29.23,29.23,0,0,1-3.45.68,36.44,36.44,0,0,1-4.24,8.49l-2.42-1.22a30.28,30.28,0,0,0,4-7c-.34,0-.68,0-1,0-.82,0-1.62,0-2.48-.06l-.18-2.32a25.18,25.18,0,0,0,2.64.14c.58,0,1.18,0,1.78-.06a16.86,16.86,0,0,0,.54-3.32l2.75.28c-.16.64-.41,1.64-.69,2.7a21.09,21.09,0,0,0,2.67-.62Zm2.6,1.78c-.06.84,0,1.66,0,2.54,0,.57.06,1.53.12,2.51a13.19,13.19,0,0,1,4.1,2.54L919.75,137a17.63,17.63,0,0,0-2.68-2.1v.18c0,1.84-1,3.28-3.82,3.28-2.47,0-4.41-1.1-4.41-3.28,0-1.94,1.62-3.44,4.38-3.44.46,0,.93,0,1.35.08-.06-1.48-.16-3.22-.23-4.43Zm-2.18,6.57a7,7,0,0,0-1.61-.2c-1.14,0-1.88.48-1.88,1.18s.62,1.24,1.7,1.24a1.6,1.6,0,0,0,1.79-1.84Zm5.58-5.51a26.41,26.41,0,0,0-4.76-2.82l1.28-2a35.64,35.64,0,0,1,4.88,2.68Z"/><path class="cls-7" d="M927.76,125.37c0,1.28,0,2.78.12,4.21.28,2.86.88,4.8,2.12,4.8.94,0,1.72-2.32,2.1-3.89l2,2.41c-1.32,3.44-2.56,4.66-4.17,4.66-2.16,0-4.06-2-4.62-7.28-.18-1.83-.22-4.13-.22-5.35a11.48,11.48,0,0,0-.14-2l3,0A15.69,15.69,0,0,0,927.76,125.37Zm13.77,8.15-2.62,1c-.3-3.18-1.36-7.85-3.52-10.29l2.52-.84C939.79,125.69,941.31,130.48,941.53,133.52Z"/><path class="cls-7" d="M856.1,154.55H854v-4.06h7.55v-.76h-6.19V148h14.75v1.76h-6.24v.76h7.7v4.06h-2.2v-2.48h-5.5v4.16h-2.32v-4.16H856.1Zm12.83,9.53c1,0,1.18-.3,1.32-2a6.08,6.08,0,0,0,2,.76c-.28,2.4-.92,3.06-3.1,3.06h-4.21c-2.74,0-3.5-.58-3.5-2.68v-.06H858.1V164h-2.26v-7.26h13.85v6.38h-6v.06c0,.74.21.86,1.44.86Zm-12.43-9.35h4.32V156H856.5Zm4.32-.7h-3.94v-1.28h3.94Zm-2.72,4.35v.88h3.32v-.88Zm3.32,3.18v-.86H858.1v.86Zm5.91-3.18h-3.62v.88h3.62Zm0,3.18v-.86h-3.62v.86Zm1.2-8.81V154h-3.9v-1.28Zm-3.9,2H869V156h-4.36Z"/><path class="cls-7" d="M888.77,155c0,4.81.22,8.59,1.38,8.59.3,0,.38-1.06.42-2.68a9.63,9.63,0,0,0,1.54,1.48c-.18,2.5-.6,3.56-2.14,3.56-2.92,0-3.5-3.82-3.62-8.94H875.62v-1.67l-.18.17a18.38,18.38,0,0,0-2.16-1.51,13.14,13.14,0,0,0,4.26-6.84l2.48.52c-.16.5-.32,1-.5,1.48h11.83v2H878.64c-.16.32-.34.64-.52.94h11.41V154H878v-1.68a15.91,15.91,0,0,1-2,2.68Zm-4,2.87a17.59,17.59,0,0,1-2.13,3.1,22.45,22.45,0,0,1,3.17,2.54l-1.9,1.8a23.07,23.07,0,0,0-3-2.58,22.28,22.28,0,0,1-5.2,3.52,15.51,15.51,0,0,0-1.78-1.86,17.7,17.7,0,0,0,5.06-3c-1.14-.76-2.3-1.46-3.36-2.06l1.7-1.56c1,.54,2.2,1.22,3.34,1.94a13.58,13.58,0,0,0,1.77-2.58Z"/><path class="cls-7" d="M901.86,148.61c-.12.52-.23,1.14-.34,1.64s-.28,1.32-.42,2c.66,0,1.26-.08,1.66-.08,2.11,0,3.59.94,3.59,3.78,0,2.35-.28,5.51-1.12,7.23A3.16,3.16,0,0,1,902,165a11.23,11.23,0,0,1-2.37-.28l-.44-2.62a11.66,11.66,0,0,0,2.44.42,1.48,1.48,0,0,0,1.49-.86,15.17,15.17,0,0,0,.79-5.43c0-1.58-.67-1.8-1.91-1.8-.33,0-.81,0-1.37.08-.78,3-2.22,7.67-4,10.59l-2.58-1a29.33,29.33,0,0,0,4-9.27c-.7.08-1.32.16-1.7.22-.56.06-1.58.2-2.2.3l-.22-2.68a18.39,18.39,0,0,0,2.1,0c.62,0,1.56-.08,2.56-.16a21.93,21.93,0,0,0,.42-4.2ZM909,151a39.43,39.43,0,0,1,3.22,6.91l-2.52,1.18a22.48,22.48,0,0,0-3.34-7.47l1.84-.78a22.11,22.11,0,0,0-1.36-2.36l1.58-.66c.5.74,1.2,2,1.6,2.74Zm1.82-.66a20,20,0,0,0-1.62-2.76l1.58-.66a23.67,23.67,0,0,1,1.62,2.72Z"/><path class="cls-7" d="M927.71,153.25c-.1.22-.24.64-.36,1a5.12,5.12,0,0,1,3.82,4.87c0,2.78-1.66,5.52-6.52,6.24l-1.32-2.08c3.82-.42,5.38-2.34,5.38-4.28a3,3,0,0,0-2-2.79,15.28,15.28,0,0,1-4.19,6c.15.52.31,1,.47,1.48l-2.29.68c-.08-.24-.18-.52-.26-.8a7,7,0,0,1-3.06.8,2.57,2.57,0,0,1-2.68-2.9c0-2.52,2.1-5.21,4.86-6.51.06-.84.12-1.68.2-2.48h-.64c-1,0-2.58-.08-3.5-.12l-.08-2.3a32.52,32.52,0,0,0,3.66.26h.76l.12-1.06a7.91,7.91,0,0,0,.06-1.18l2.61.06a6.63,6.63,0,0,0-.29,1.06c-.08.32-.13.68-.2,1.06a33,33,0,0,0,6.73-.84l0,2.28a57.52,57.52,0,0,1-7.05.72c-.06.58-.12,1.18-.14,1.78a13.34,13.34,0,0,1,3-.36h.34a11.46,11.46,0,0,0,.18-1.18Zm-7.81,8.09a27.61,27.61,0,0,1-.42-4A5.18,5.18,0,0,0,917,161c0,.62.28,1,.92,1A4.21,4.21,0,0,0,919.9,161.34Zm1.81-5a23.24,23.24,0,0,0,.21,3.29,11.37,11.37,0,0,0,2.5-3.77,10,10,0,0,0-2.71.44Z"/><path class="cls-7" d="M948.23,150.49q-.72.45-1.38.9c-1.06.74-3.14,2.5-4.38,3.5a6.62,6.62,0,0,1,1.86-.22c3.36,0,5.92,2.11,5.92,5,0,3.12-2.38,5.6-7.16,5.6-2.77,0-4.85-1.26-4.85-3.24a3.33,3.33,0,0,1,3.56-3.08,4,4,0,0,1,4.23,3.38,2.89,2.89,0,0,0,1.62-2.7c0-1.78-1.8-3-4.1-3-3,0-5,1.62-7.15,4l-1.8-1.86c1.4-1.14,3.78-3.17,5-4.13s3.16-2.58,4.15-3.44c-1,0-3.75.14-4.79.22a13.07,13.07,0,0,0-1.62.16l-.08-2.58c.56.06,1.24.1,1.8.1,1,0,5.28-.1,6.41-.2a9.55,9.55,0,0,0,1.52-.2ZM943.75,163c-.12-1.28-.87-2.12-2-2.12-.74,0-1.22.44-1.22.94,0,.74.84,1.24,2,1.24A10.57,10.57,0,0,0,943.75,163Z"/><path class="cls-6" d="M327.55,311.51a35.13,35.13,0,0,1-30.31-17.33l-.26-.43-.43.26a35,35,0,0,1-18.31,5.17c-21.38,0-31.1-19.68-35.48-36.19-1.85-7,1.59-27.93,13.67-33.62l.39-.18-.12-.41a36.43,36.43,0,0,1-1.46-10.22c0-19.75,22.79-35.06,42.4-35.06,11.69,0,27.68,4.47,34.25,17.05l.29.55.47-.39c6-4.88,10.79-5.71,19.15-5.71,19.55,0,35.46,16.18,35.46,36.07a36.22,36.22,0,0,1-9.51,24.56l-.37.41.44.33a23.82,23.82,0,0,1-13.9,42.81,23,23,0,0,1-8.06-1.45l-.34-.13-.22.29A35.12,35.12,0,0,1,327.55,311.51Z"/><path class="cls-2" d="M297.64,184c11.55,0,27.34,4.4,33.81,16.79l.57,1.08,1-.77c5.92-4.79,10.59-5.6,18.82-5.6,19.29,0,35,16,35,35.57a35.78,35.78,0,0,1-9.38,24.23l-.74.81.88.66a23.32,23.32,0,0,1-13.6,41.91,22.47,22.47,0,0,1-7.88-1.42l-.69-.25-.45.57a34.62,34.62,0,0,1-57.23-3.66l-.52-.86-.87.53a34.5,34.5,0,0,1-18,5.09c-8.92,0-16.57-3.57-22.74-10.63-5.31-6.07-9.43-14.55-12.26-25.19-1.82-6.85,1.55-27.45,13.4-33l.78-.37-.24-.82a36.22,36.22,0,0,1-1.44-10.08c0-19.46,22.53-34.56,41.9-34.56m0-1c-19.86,0-42.9,15.36-42.9,35.56a36.85,36.85,0,0,0,1.48,10.36c-12.32,5.8-15.93,26.74-14,34.2,5.18,19.49,16.11,36.56,36,36.56a35.36,35.36,0,0,0,18.57-5.24,35.63,35.63,0,0,0,58.88,3.76,23.42,23.42,0,0,0,8.23,1.48,24,24,0,0,0,23.84-24.24A24.33,24.33,0,0,0,378.12,256a36.75,36.75,0,0,0,9.64-24.9c0-20.19-16.1-36.57-36-36.57-8.45,0-13.31.86-19.45,5.82-6-11.56-20.92-17.32-34.7-17.32Z"/><path class="cls-3" d="M344.71,298.42s19.79,20.13,42.56,13.08c0,0-17.82-4-20.79-21.12"/><path class="cls-7" d="M302.55,233a.25.25,0,0,0,.22-.1,1.24,1.24,0,0,0,.12-.62c0-.38.06-1.18.06-2.22a5.13,5.13,0,0,0,1.46.79,16.74,16.74,0,0,1-.22,2.71,1.74,1.74,0,0,1-.56,1,1.7,1.7,0,0,1-1.06.3h-.88a1.84,1.84,0,0,1-1.3-.48c-.3-.36-.44-.78-.44-2.24v-1.46l-.8,1.58a12.8,12.8,0,0,0-1.16-1.08,8.24,8.24,0,0,1-2.58,4.08,6.09,6.09,0,0,0-.85-1v0c-3.1.32-6.34.64-8.68.86l-.14-1.94,3.5-.24v-1.22H286.3v-1.66h2.94V229h2c-.42-.24-.52-.74-.52-1.62v-.82h-1c-.24,1.64-1,2.64-3.28,3.18a4,4,0,0,0-.94-1.4c1.68-.3,2.22-.84,2.4-1.78h-2V225h3.36v-1h-2.66v-1.6h2.66v-1.08h2.1v1.08H294V224h-2.67v1h3.22v1.64h-2.2v.82c0,.36,0,.4.26.4h.47c.23,0,.29-.1.33-.92a4.3,4.3,0,0,0,1.42.56c-.13,1.44-.58,1.78-1.52,1.78h-1a2.61,2.61,0,0,1-1-.14v1h2.72v1.66h-2.72v1.06l3.21-.28v.62a7.39,7.39,0,0,0,1.66-3.29c-.54-.37-1.11-.76-1.61-1.06l1-1.76,1,.6q.09-.84.12-1.74H295v-2.1h1.75c0-.82,0-1.66,0-2.56H299c0,.88,0,1.74,0,2.56h3.18v8.33a3.09,3.09,0,0,0,0,.78.17.17,0,0,0,.18.1Zm-17,6a9.74,9.74,0,0,0,2.32-3.5l2.3.6a11.31,11.31,0,0,1-2.36,3.8Zm8-3a20.92,20.92,0,0,1,.46,3.46l-2.36.3a23.91,23.91,0,0,0-.32-3.54Zm4-.16a19.12,19.12,0,0,1,1.08,3.44l-2.38.46a18.37,18.37,0,0,0-.94-3.54Zm1.24-9.93a26.24,26.24,0,0,1-.3,3,15.39,15.39,0,0,1,1.44,1.15v-4.15Zm2.8,9.55a28.74,28.74,0,0,1,2.44,3.72l-2.44.78a23.18,23.18,0,0,0-2.3-3.8Z"/><path class="cls-7" d="M309.76,226.37c0,1.28,0,2.78.12,4.21.28,2.86.88,4.8,2.12,4.8.94,0,1.72-2.32,2.1-3.89l2,2.41c-1.32,3.44-2.56,4.66-4.17,4.66-2.16,0-4.06-2-4.62-7.28-.18-1.83-.22-4.13-.22-5.35a11.48,11.48,0,0,0-.14-2l3,0A15.69,15.69,0,0,0,309.76,226.37Zm13.77,8.15-2.62,1c-.3-3.18-1.36-7.85-3.52-10.29l2.52-.84C321.79,226.69,323.31,231.48,323.53,234.52Z"/><path class="cls-7" d="M332.68,236.44a2.09,2.09,0,0,1,4.17,0,2.09,2.09,0,0,1-4.17,0Zm.34-10.21-.08-3h3.67l-.1,3-.71,6.85h-2.06Z"/><path class="cls-7" d="M300.91,261a10,10,0,0,1-3.36,3,38.23,38.23,0,0,0,6.74.8A10.55,10.55,0,0,0,303,267a28.09,28.09,0,0,1-8.24-1.64,37.26,37.26,0,0,1-8.49,1.64,7.46,7.46,0,0,0-.88-1.9,37.22,37.22,0,0,0,6.92-1,12.69,12.69,0,0,1-2-1.68,24.8,24.8,0,0,1-3.32,1.38,6.24,6.24,0,0,0-1.38-1.66,13.87,13.87,0,0,0,5.62-2.68H288v-7.69h5.16c.06-.26.1-.52.14-.78h-7.06v-1.92h17.11V251h-7.46c-.08.28-.19.54-.28.78h6v7.69H294c-.23.26-.45.5-.69.74H299l.42-.1Zm-10.65-7.15h9v-.78h-9Zm0,2.12h9v-.8h-9Zm0,2.13h9v-.81h-9Zm2.14,3.68a9.76,9.76,0,0,0,2.47,1.42,10.1,10.1,0,0,0,2.44-1.42Z"/><path class="cls-7" d="M310,259.86l1.84-.78.54,2.1c-2.12,1.06-4.4,2.12-6.24,3l-1-2.4c.72-.26,1.6-.6,2.6-1v-5.63h-2.34v-2.26h2.34v-4.34H310v4.34h2v2.26h-2Zm10.69,4.6c1.1,0,1.3-.46,1.48-2.5a6,6,0,0,0,2.08.86c-.32,2.8-1,3.76-3.36,3.76h-4.26c-2.7,0-3.49-.74-3.49-3.5v-5.15l-1.08.47-.88-2.13,2-.82v-5.26h2.29v4.28l1.66-.7v-5.52h2.22v4.56l1.58-.68.42-.28.42-.28,1.66.58-.08.4c0,3.8,0,6.21-.14,7a1.71,1.71,0,0,1-1,1.66,5.58,5.58,0,0,1-2.08.28,6.53,6.53,0,0,0-.5-2,9.1,9.1,0,0,0,1,0c.24,0,.36-.08.44-.44s.06-1.79.06-4.63l-1.72.76v7.07h-2.22v-6.11l-1.66.72v6.17c0,1.18.18,1.36,1.4,1.36Z"/><path class="cls-7" d="M331.14,249.51a21.17,21.17,0,0,1-1.78,3,19.89,19.89,0,0,1,.84,6.63c0,2.76-.14,5.74-.94,6.94a1.86,1.86,0,0,1-1.1.68,7,7,0,0,1-1.9.14,5.3,5.3,0,0,0-.46-2.16,5.76,5.76,0,0,0,1.3,0,.71.71,0,0,0,.52-.28c.32-.42.42-2.32.46-4.4a14.15,14.15,0,0,1-1.54,2,8,8,0,0,0-1.34-1.8,12.52,12.52,0,0,0,2.78-4,15.85,15.85,0,0,0-.24-1.74,12.09,12.09,0,0,1-1,1,8.85,8.85,0,0,0-1.56-1.42,12.61,12.61,0,0,0,1.82-2,11,11,0,0,0-1.58-2.56l1.6-1.12a12,12,0,0,1,1.26,1.76,14.87,14.87,0,0,0,.86-1.68Zm6.07,3.94H330.8v-1.92h6.41Zm4,2.24c.36,3.25,1.1,7.17,3.12,9.21a9.78,9.78,0,0,0-1.64,2.06,13.78,13.78,0,0,1-2.46-5.68,11.13,11.13,0,0,1-3.1,5.68,6.59,6.59,0,0,0-1.54-1.62c.12-.12.24-.22.34-.34h-2.85v1.22h-2v-6.34h5.65V264c1.42-2.06,1.9-4.82,2.08-8.29H337v-2.2h2c0-1.54,0-3.18,0-5h2.12v1.18l1.5-.68a15.83,15.83,0,0,1,1.48,3.26l-1.74.86a16.53,16.53,0,0,0-1.24-3.16c0,1.22,0,2.38,0,3.5H344v2.2Zm-4.64.52h-5.19v-1.82h5.19Zm-5.19.93h5.19V259h-5.19Zm5.11-6.51h-4.95v-1.82h4.95Zm-1.73,11h-1.68v1.64h1.68Z"/></g></g></svg>