<svg xmlns="http://www.w3.org/2000/svg" viewBox="0 0 653 316.57"><defs><style>.cls-1{fill:#ed6a02;}.cls-2,.cls-3,.cls-4{fill:#fff;}.cls-2,.cls-3{stroke:#ed6a02;stroke-miterlimit:10;}.cls-2{stroke-width:3px;}.cls-3{stroke-width:2.86px;}</style></defs><title>Asset 2</title><g id="Layer_2" data-name="Layer 2"><g id="レイヤー_1" data-name="レイヤー 1"><path class="cls-1" d="M339,146.47c-21.3,0-38.57-14.73-38.57-32.91V79.48c0-18.17,17.27-32.91,38.57-32.91"/><path class="cls-1" d="M523.05,46.57c21.3,0,38.57,14.74,38.57,32.91v34.08c0,18.18-17.27,32.91-38.57,32.91"/><rect class="cls-1" x="338.67" y="46.67" width="184.14" height="99.9"/><path class="cls-1" d="M300.57,76.57v3.52c0,9.1-17.27,16.48-38.57,16.48,21.3,0,38.57,7.38,38.57,16.48v3.52"/><path class="cls-1" d="M561.43,116.57v-3.52c0-9.1,17.27-16.48,38.57-16.48-21.3,0-38.57-7.38-38.57-16.48V76.57"/><path class="cls-1" d="M130,316.47c-21.3,0-38.57-14.73-38.57-32.91V249.48c0-18.17,17.27-32.91,38.57-32.91"/><path class="cls-1" d="M314.05,216.57c21.3,0,38.57,14.74,38.57,32.91v34.08c0,18.18-17.27,32.91-38.57,32.91"/><rect class="cls-1" x="129.67" y="216.67" width="184.14" height="99.9"/><path class="cls-1" d="M91.57,246.57v3.52c0,9.1-17.27,16.48-38.57,16.48,21.3,0,38.57,7.38,38.57,16.48v3.52"/><path class="cls-1" d="M352.43,286.57v-3.52c0-9.1,17.27-16.48,38.57-16.48-21.3,0-38.57-7.38-38.57-16.48v-3.52"/><path class="cls-1" d="M184.85,46.57c21.36,0,38.67,14.74,38.67,32.91v34.08c0,18.18-17.31,32.91-38.67,32.91"/><path class="cls-1" d="M26.2,46.67H184.61a0,0,0,0,1,0,0v99.9a0,0,0,0,1,0,0H26.2A26.2,26.2,0,0,1,0,120.37V72.87A26.2,26.2,0,0,1,26.2,46.67Z"/><path class="cls-1" d="M223.33,116.57v-3.52c0-9.1,17.31-16.48,38.67-16.48-21.36,0-38.67-7.38-38.67-16.48V76.57"/><path class="cls-1" d="M468.15,316.57c-21.36,0-38.67-14.73-38.67-32.91V249.58c0-18.17,17.31-32.91,38.67-32.91"/><path class="cls-1" d="M494.58,216.57H653a0,0,0,0,1,0,0v99.9a0,0,0,0,1,0,0H494.58a26.2,26.2,0,0,1-26.2-26.2v-47.5A26.2,26.2,0,0,1,494.58,216.57Z" transform="translate(1121.39 533.04) rotate(180)"/><path class="cls-1" d="M429.67,246.57v3.52c0,9.1-17.31,16.48-38.67,16.48,21.36,0,38.67,7.38,38.67,16.48v3.52"/><path class="cls-2" d="M59.39,37.52c0-24.23,8.84-36,22.63-36s22.62,11.88,22.62,36C104.64,61.85,95.7,74,82,74S59.39,61.85,59.39,37.52Zm34.79,0c0-20.05-5-27.37-12.16-27.37S69.85,17.47,69.85,37.52c0,20.25,5,27.85,12.17,27.85S94.18,57.77,94.18,37.52Z"/><path class="cls-2" d="M117.28,63.76h15.3V15.09H120V8.15c6.55-1.23,11.21-2.85,15.2-5.32h8.27V63.76H157.2v9H117.28Z"/><path class="cls-2" d="M382.36,37.52c0-24.23,8.84-36,22.62-36s22.62,11.88,22.62,36C427.6,61.85,418.67,74,405,74S382.36,61.85,382.36,37.52Zm34.79,0c0-20.05-5-27.37-12.17-27.37s-12.17,7.32-12.17,27.37c0,20.25,5,27.85,12.17,27.85S417.15,57.77,417.15,37.52Z"/><path class="cls-2" d="M436.25,66.42c20.63-18.25,31.27-31.84,31.27-43.34,0-7.61-4.08-12.84-11.88-12.84-5.51,0-10.07,3.52-13.78,7.8L435.68,12C441.67,5.49,447.85,1.5,457,1.5c12.83,0,21.1,8.36,21.1,21,0,13.5-10.74,27.47-25.57,41.64,3.62-.38,8-.67,11.41-.67H481.4v9.32H436.25Z"/><path class="cls-2" d="M174.17,207.52c0-24.23,8.84-36,22.62-36s22.62,11.88,22.62,36c0,24.33-8.94,36.5-22.62,36.5S174.17,231.85,174.17,207.52Zm34.78,0c0-20.05-5-27.37-12.16-27.37s-12.17,7.32-12.17,27.37c0,20.25,5,27.85,12.17,27.85S209,227.77,209,207.52Z"/><path class="cls-2" d="M226.54,234.42l5.32-7c4.09,4.18,9.32,7.7,16.54,7.7,7.89,0,13.31-4.38,13.31-11.6,0-7.79-4.95-12.83-20.72-12.83v-8.08c13.78,0,18.34-5.23,18.34-12.26,0-6.18-4.09-10.08-10.74-10.17-5.42.09-10,2.76-14,6.65l-5.7-6.84c5.51-4.94,12-8.46,20.05-8.46,12.55,0,21.39,6.46,21.39,18.06,0,8.08-4.66,13.69-12.08,16.44v.48c8.08,2,14.45,8.08,14.45,17.49,0,12.64-10.55,20.05-23.38,20.05C238.32,244,231.2,239.65,226.54,234.42Z"/><path class="cls-2" d="M490.07,207.27c0-24.23,8.79-36,22.57-36.05s22.64,11.85,22.67,36c0,24.33-8.88,36.51-22.56,36.53S490.11,231.61,490.07,207.27Zm34.79-.05c0-20.05-5.08-27.36-12.21-27.35s-12.15,7.34-12.12,27.39c0,20.24,5.08,27.84,12.2,27.83S524.89,227.47,524.86,207.22Z"/><path class="cls-2" d="M591.13,223.57H582.2l0,18.82-10.26,0,0-18.82-30.22,0v-7.32l27.78-43.85,12.64,0,.06,42.67h8.94Zm-19.21-8.43,0-18.35c0-3.8.37-9.69.55-13.49h-.38c-1.7,3.52-3.6,7.13-5.59,10.75l-13.75,21.12Z"/><circle class="cls-3" cx="269.5" cy="96.9" r="20"/><path class="cls-1" d="M268,98h-8.12V95.28H268V86.52H271v8.76h8.12V98H271v8.76H268Z"/><circle class="cls-3" cx="52.5" cy="266.9" r="20"/><path class="cls-1" d="M51,268H42.91v-2.72H51v-8.76H54v8.76h8.12V268H54v8.76H51Z"/><circle class="cls-3" cx="391.5" cy="266.9" r="20"/><path class="cls-1" d="M390,268h-8.12v-2.72H390v-8.76H393v8.76h8.12V268H393v8.76H390Z"/><path class="cls-4" d="M90.4,103v5.82c0,1.38-.22,2.1-1,2.55A6.21,6.21,0,0,1,86,112a9.82,9.82,0,0,0-.78-2.73c.93,0,1.78,0,2.08,0s.42-.1.42-.42v-5c-.82.22-1.57.45-2.3.65l-.67-2.87c.85-.18,1.85-.45,3-.73V96.47H85V93.72h2.7V89h2.7v4.73h2.5v2.75H90.4v3.7l2.25-.6.4,2.67Zm11.38,6.3c.57,0,1.12.07,1.75.07.85,0,3.94,0,5,0a8.76,8.76,0,0,0-.8,2.6H103.4c-3.27,0-5.8-.6-7.5-3.63a11.06,11.06,0,0,1-2.62,3.93,15.35,15.35,0,0,0-2.18-1.78c2.08-1.65,3.1-4.42,3.48-7.82l2.7.32a23.76,23.76,0,0,1-.48,2.53A5.58,5.58,0,0,0,99,108.46v-6.52H93.1v-2.4h14.77v2.4h-6.09v2.2h4.77v2.32h-4.77Zm4.84-11H94.33V89.77h12.29Zm-2.84-6.55H97.05v1.25h6.73Zm0,3.18H97.05v1.27h6.73Z"/><path class="cls-4" d="M125.28,106.71a25,25,0,0,0,8.34,2.83,13.12,13.12,0,0,0-1.9,2.52,22.81,22.81,0,0,1-8.72-4.2v4.45h-3V108a22,22,0,0,1-8.52,4.08,10.9,10.9,0,0,0-1.83-2.4,24.11,24.11,0,0,0,8.25-3h-7.62v-2.45h9.72v-1.55a53.72,53.72,0,0,1-7.67,1,7.47,7.47,0,0,0-1-2.3,51,51,0,0,0,7.83-.87c-.8-.18-1.6-.38-2.35-.53l-.33.38-2.82-.78c.6-.65,1.25-1.45,2-2.3h-4.93V95h6.7c.48-.65,1-1.28,1.35-1.85h-5.12v1.37h-2.75V90.67h9.17V89h3v1.65h9.24v3.82h-2.87V93.12h-10l2.28.67c-.28.38-.55.78-.85,1.18H132.5v2.32h-4.4a7.41,7.41,0,0,1-1.92,2.7c2,.58,3.87,1.15,5.27,1.68l-1.78,2.09a56.26,56.26,0,0,0-6.19-2.09,17.1,17.1,0,0,1-2.8.9H123v1.69H133v2.45Zm-6.9-8.54c1.45.27,3.05.62,4.65,1a5.14,5.14,0,0,0,1.87-1.9h-5.85Z"/><path class="cls-4" d="M219.42,279.79c1,0,1.18-.43,1.33-2.63a8.14,8.14,0,0,0,2.4,1c-.33,3.12-1.08,4.07-3.5,4.07h-4.38c-3,0-3.75-.8-3.75-3.65v-4.8l-1,.48-1-2.42c-.1,6.12-.28,8.52-.85,9.32a2.23,2.23,0,0,1-1.6,1,13.09,13.09,0,0,1-2.58.13,6.93,6.93,0,0,0-.72-2.65,13.88,13.88,0,0,0,1.8.1.73.73,0,0,0,.72-.4c.33-.5.48-2.6.58-8.47h-2c-.35,4.49-1.15,8.54-3.23,11.39a8.69,8.69,0,0,0-2.12-2.07c2.47-3.43,2.7-8.92,2.77-14.7h-2.4v-2.75h3.83V259h2.85v3.77h3.89v1.88A18,18,0,0,0,212.7,259l2.92.55c-.2.88-.47,1.75-.75,2.6h7.85v2.7h-9a16.35,16.35,0,0,1-1.43,2.43h1.83v2.4l1.35-.63v-3.57H218v2.42l1.8-.82.1-.08.45-.32,1.85.65-.1.4c0,3.55,0,6.09-.1,6.84a1.77,1.77,0,0,1-1.07,1.73,5.65,5.65,0,0,1-2.05.27,7.85,7.85,0,0,0-.55-2.17c.3,0,.65,0,.85,0s.32-.05.35-.37.05-1.6.07-4l-1.6.75v7H215.5V272l-1.35.63v6c0,1,.17,1.18,1.42,1.18Zm-7.9-8.9v-2.6l-.22.25a16.55,16.55,0,0,0-2.23-2.1,6.94,6.94,0,0,0,.8-.9H205.1c0,.9,0,1.8-.07,2.68h4.49v1.12l0,2.5Z"/><path class="cls-4" d="M247.8,277.61v3H225.08v-3h9.52V264.69h-8.17v-3.1h20v3.1H238v12.92Z"/><path class="cls-4" d="M488.15,261.82a20.07,20.07,0,0,0-1,2.22,35.7,35.7,0,0,1-3.38,6.8,63.4,63.4,0,0,1,5.95,5.5l-2.57,2.87a50.28,50.28,0,0,0-5.52-5.5,31.33,31.33,0,0,1-9.3,7.73l-2.88-2.58a27.22,27.22,0,0,0,9.5-7.37,63.57,63.57,0,0,0-6.7-4.72l2.15-2.58c2,1.25,4.58,3,6.6,4.5a26.76,26.76,0,0,0,2.75-5.92,16.91,16.91,0,0,0,.6-2.3Z"/><path class="cls-4" d="M504.51,274.54a23.76,23.76,0,0,0,9.09-9.72l1.95,3.52a26.68,26.68,0,0,1-9.24,9.25,27.2,27.2,0,0,1-9.28,3.52l-2.1-3.3A25.83,25.83,0,0,0,504.51,274.54Zm0-8.1L502,269.07a51.92,51.92,0,0,0-6.25-5.4l2.35-2.5A52,52,0,0,1,504.51,266.44Z"/><path class="cls-4" d="M537.93,267.54a19.16,19.16,0,0,0,2.27-.15v3.25c-.62-.05-1.57-.07-2.27-.07h-6a15.86,15.86,0,0,1-1.6,6.42,12.07,12.07,0,0,1-5,4.8l-2.92-2.13a10.35,10.35,0,0,0,4.52-3.57,10.68,10.68,0,0,0,1.55-5.52h-6.87c-.73,0-1.7.05-2.4.1v-3.28a23.6,23.6,0,0,0,2.4.15Zm-13.17-3.42c-.88,0-1.93.05-2.68.1V261a18,18,0,0,0,2.65.18h10a18.84,18.84,0,0,0,2.7-.18v3.23c-.88-.05-1.83-.1-2.7-.1Z"/><path class="cls-4" d="M562.55,266.07c1.15,0,2.2-.1,2.73-.15v3.4c-.53,0-1.75-.1-2.75-.1h-5.62c-.15,5-1.73,9.12-7.13,12.34l-3.1-2.3a10.67,10.67,0,0,0,6.78-10h-6.38c-1.1,0-2.1.07-2.87.12v-3.45a26.64,26.64,0,0,0,2.77.18h6.5v-2.75a12.84,12.84,0,0,0-.32-2.93h4a19.59,19.59,0,0,0-.2,2.95v2.73Z"/><path class="cls-4" d="M579.51,274.54a23.76,23.76,0,0,0,9.09-9.72l1.95,3.52a26.68,26.68,0,0,1-9.24,9.25,27.2,27.2,0,0,1-9.28,3.52l-2.1-3.3A25.83,25.83,0,0,0,579.51,274.54Zm0-8.1L577,269.07a51.92,51.92,0,0,0-6.25-5.4l2.35-2.5A52,52,0,0,1,579.51,266.44Z"/><path class="cls-4" d="M612.88,263.22a12,12,0,0,0-.88,1.55,37,37,0,0,1-3.92,6.87,70.18,70.18,0,0,1,7,7.15l-2.85,2.47a56.91,56.91,0,0,0-6.29-7.07,32.89,32.89,0,0,1-9.4,7l-2.58-2.7a28.27,28.27,0,0,0,10.25-7.17,19.37,19.37,0,0,0,3.73-6.12h-8.48c-1,0-2.42.15-2.95.17v-3.55a28,28,0,0,0,2.95.18h8.8a8.82,8.82,0,0,0,2.6-.33Z"/><path class="cls-4" d="M417.67,95.47h-9.78V93.12h9.78Zm12.47,4.85a17,17,0,0,1-3.85,7.27,17.09,17.09,0,0,0,5.15,2.15,13,13,0,0,0-1.93,2.57,17.41,17.41,0,0,1-5.49-2.72,20.35,20.35,0,0,1-5.73,2.72,12.55,12.55,0,0,0-1.55-2.57V111h-5.22v1H409v-8.53h7.75v6.23a16.53,16.53,0,0,0,5.05-2.15,17.17,17.17,0,0,1-2.87-4.33l2.55-.82H418V99.72h.85a13,13,0,0,0-2.07-1.8v1h-7.7V96.59h7.7v1.2a5.61,5.61,0,0,0,2.42-5.12v-3h8.37v5.6c0,.7.05.78.33.78h.62c.33,0,.43-.33.45-2.5a8.59,8.59,0,0,0,2.43,1.05c-.25,3.1-.9,4-2.58,4h-1.45c-2,0-2.57-.77-2.57-3.25v-3H422v.42c0,2.35-.5,5.2-3.1,7h8.8l.5-.13Zm-13.37,1.92h-7.7V100h7.7Zm0-10.22h-7.55V89.77h7.55Zm-2.55,13.79h-2.65v2.88h2.65Zm7.37-3.42a12.31,12.31,0,0,0,2.43,3.37,11.57,11.57,0,0,0,2.34-3.37Z"/><path class="cls-4" d="M443.12,95.47H432.89V93.12h10.23ZM442,111h-5.45v1H434v-8.53h8Zm-8-14.42h8v2.28h-8Zm0,3.43h8v2.22h-8Zm8.08-8h-7.93V89.77h7.93Zm-5.58,13.79v2.88h2.85v-2.88Zm19.87-5.52h-5.22v12h-3v-12H443v-3h5.22V89.09h3v8.25h5.22Z"/><circle class="cls-3" cx="601" cy="96.9" r="20"/><path class="cls-1" d="M599.53,98h-8.12V95.28h8.12V86.52h2.92v8.76h8.12V98h-8.12v8.76h-2.92Z"/></g></g></svg>